G04 #@! TF.FileFunction,Copper,L1,Top,Signal*
%FSLAX46Y46*%
G04 Gerber Fmt 4.6, Leading zero omitted, Abs format (unit mm)*
G04 Created by KiCad (PCBNEW 0.201511300701+6336~38~ubuntu14.04.1-stable) date Tue 01 Dec 2015 10:36:23 AM EET*
%MOMM*%
G01*
G04 APERTURE LIST*
%ADD10C,0.100000*%
%ADD11R,2.500000X1.000000*%
%ADD12R,2.000000X4.000000*%
%ADD13R,2.800000X4.800000*%
%ADD14R,2.800000X2.000000*%
%ADD15C,0.254000*%
G04 APERTURE END LIST*
D10*
D11*
X229428560Y-61424999D03*
X229428560Y-56524999D03*
D12*
X93500000Y-48500000D03*
X93500000Y-36500000D03*
D13*
X104571428Y-27600000D03*
D14*
X104571428Y-23400000D03*
D13*
X98000000Y-38349999D03*
D14*
X98000000Y-34149999D03*
D13*
X104571428Y-50149998D03*
D14*
X104571428Y-45949998D03*
D13*
X130857140Y-27600000D03*
D14*
X130857140Y-23400000D03*
D13*
X111142856Y-38349999D03*
D14*
X111142856Y-34149999D03*
D13*
X117714284Y-50149998D03*
D14*
X117714284Y-45949998D03*
D13*
X157142852Y-27600000D03*
D14*
X157142852Y-23400000D03*
D13*
X124285712Y-38349999D03*
D14*
X124285712Y-34149999D03*
D13*
X111142856Y-60899998D03*
D14*
X111142856Y-56699998D03*
D13*
X183428564Y-27600000D03*
D14*
X183428564Y-23400000D03*
D13*
X137428568Y-38349999D03*
D14*
X137428568Y-34149999D03*
D13*
X130857140Y-50149998D03*
D14*
X130857140Y-45949998D03*
D13*
X150571424Y-38349999D03*
D14*
X150571424Y-34149999D03*
D13*
X143999996Y-50149998D03*
D14*
X143999996Y-45949998D03*
D13*
X137428568Y-60899998D03*
D14*
X137428568Y-56699998D03*
D13*
X209714276Y-27600000D03*
D14*
X209714276Y-23400000D03*
D13*
X161714280Y-38349999D03*
D14*
X161714280Y-34149999D03*
D13*
X157142852Y-50149998D03*
D14*
X157142852Y-45949998D03*
D13*
X176857136Y-38349999D03*
D14*
X176857136Y-34149999D03*
D13*
X171400000Y-50200000D03*
D14*
X171400000Y-46000000D03*
D13*
X163714280Y-60899998D03*
D14*
X163714280Y-56699998D03*
D13*
X235999988Y-27600000D03*
D14*
X235999988Y-23400000D03*
D13*
X189999992Y-38349999D03*
D14*
X189999992Y-34149999D03*
D13*
X183428564Y-50149998D03*
D14*
X183428564Y-45949998D03*
D13*
X196571420Y-50149998D03*
D14*
X196571420Y-45949998D03*
D13*
X189999992Y-60899998D03*
D14*
X189999992Y-56699998D03*
D13*
X203142848Y-38349999D03*
D14*
X203142848Y-34149999D03*
D13*
X209714276Y-50149998D03*
D14*
X209714276Y-45949998D03*
D13*
X216285704Y-38349999D03*
D14*
X216285704Y-34149999D03*
D13*
X222857132Y-50149998D03*
D14*
X222857132Y-45949998D03*
D13*
X216285704Y-60899998D03*
D14*
X216285704Y-56699998D03*
D13*
X229428560Y-38349999D03*
D14*
X229428560Y-34149999D03*
D13*
X235999988Y-50149998D03*
D14*
X235999988Y-45949998D03*
D11*
X117714284Y-28125001D03*
X117714284Y-23225001D03*
X98000000Y-61424999D03*
X98000000Y-56524999D03*
X143999996Y-28125001D03*
X143999996Y-23225001D03*
X124285712Y-61424999D03*
X124285712Y-56524999D03*
X170285708Y-28125001D03*
X170285708Y-23225001D03*
X150571424Y-61424999D03*
X150571424Y-56524999D03*
X196571420Y-28125001D03*
X196571420Y-23225001D03*
X176857136Y-61424999D03*
X176857136Y-56524999D03*
X222857132Y-28125001D03*
X222857132Y-23225001D03*
X203142848Y-61424999D03*
X203142848Y-56524999D03*
D15*
G36*
X239777597Y-61669578D02*
X237619578Y-63827597D01*
X93780422Y-63827597D01*
X91622403Y-61669578D01*
X91622403Y-58627000D01*
X239777597Y-58627000D01*
X239777597Y-61669578D01*
X239777597Y-61669578D01*
G37*
X239777597Y-61669578D02*
X237619578Y-63827597D01*
X93780422Y-63827597D01*
X91622403Y-61669578D01*
X91622403Y-58627000D01*
X239777597Y-58627000D01*
X239777597Y-61669578D01*
G36*
X239777597Y-23830422D02*
X239777597Y-24373000D01*
X95000000Y-24373000D01*
X94950590Y-24383006D01*
X94908965Y-24411447D01*
X94881685Y-24453841D01*
X94873000Y-24500000D01*
X94873000Y-40323000D01*
X91622403Y-40323000D01*
X91622403Y-23830422D01*
X93780422Y-21672403D01*
X237619578Y-21672403D01*
X239777597Y-23830422D01*
X239777597Y-23830422D01*
G37*
X239777597Y-23830422D02*
X239777597Y-24373000D01*
X95000000Y-24373000D01*
X94950590Y-24383006D01*
X94908965Y-24411447D01*
X94881685Y-24453841D01*
X94873000Y-24500000D01*
X94873000Y-40323000D01*
X91622403Y-40323000D01*
X91622403Y-23830422D01*
X93780422Y-21672403D01*
X237619578Y-21672403D01*
X239777597Y-23830422D01*
G36*
X106873000Y-35373000D02*
X99666159Y-35373000D01*
X99648717Y-35361082D01*
X99400000Y-35310716D01*
X96600000Y-35310716D01*
X96367648Y-35354436D01*
X96338799Y-35373000D01*
X95627000Y-35373000D01*
X95627000Y-25127000D01*
X106873000Y-25127000D01*
X106873000Y-35373000D01*
X106873000Y-35373000D01*
G37*
X106873000Y-35373000D02*
X99666159Y-35373000D01*
X99648717Y-35361082D01*
X99400000Y-35310716D01*
X96600000Y-35310716D01*
X96367648Y-35354436D01*
X96338799Y-35373000D01*
X95627000Y-35373000D01*
X95627000Y-25127000D01*
X106873000Y-25127000D01*
X106873000Y-35373000D01*
G36*
X118873000Y-35373000D02*
X112809015Y-35373000D01*
X112791573Y-35361082D01*
X112542856Y-35310716D01*
X109742856Y-35310716D01*
X109510504Y-35354436D01*
X109481655Y-35373000D01*
X107627000Y-35373000D01*
X107627000Y-25127000D01*
X118873000Y-25127000D01*
X118873000Y-35373000D01*
X118873000Y-35373000D01*
G37*
X118873000Y-35373000D02*
X112809015Y-35373000D01*
X112791573Y-35361082D01*
X112542856Y-35310716D01*
X109742856Y-35310716D01*
X109510504Y-35354436D01*
X109481655Y-35373000D01*
X107627000Y-35373000D01*
X107627000Y-25127000D01*
X118873000Y-25127000D01*
X118873000Y-35373000D01*
G36*
X132373000Y-35373000D02*
X125951871Y-35373000D01*
X125934429Y-35361082D01*
X125685712Y-35310716D01*
X122885712Y-35310716D01*
X122653360Y-35354436D01*
X122624511Y-35373000D01*
X119627000Y-35373000D01*
X119627000Y-25127000D01*
X132373000Y-25127000D01*
X132373000Y-35373000D01*
X132373000Y-35373000D01*
G37*
X132373000Y-35373000D02*
X125951871Y-35373000D01*
X125934429Y-35361082D01*
X125685712Y-35310716D01*
X122885712Y-35310716D01*
X122653360Y-35354436D01*
X122624511Y-35373000D01*
X119627000Y-35373000D01*
X119627000Y-25127000D01*
X132373000Y-25127000D01*
X132373000Y-35373000D01*
G36*
X145373000Y-35373000D02*
X139094727Y-35373000D01*
X139077285Y-35361082D01*
X138828568Y-35310716D01*
X136028568Y-35310716D01*
X135796216Y-35354436D01*
X135767367Y-35373000D01*
X133127000Y-35373000D01*
X133127000Y-25127000D01*
X145373000Y-25127000D01*
X145373000Y-35373000D01*
X145373000Y-35373000D01*
G37*
X145373000Y-35373000D02*
X139094727Y-35373000D01*
X139077285Y-35361082D01*
X138828568Y-35310716D01*
X136028568Y-35310716D01*
X135796216Y-35354436D01*
X135767367Y-35373000D01*
X133127000Y-35373000D01*
X133127000Y-25127000D01*
X145373000Y-25127000D01*
X145373000Y-35373000D01*
G36*
X158373000Y-35373000D02*
X152237583Y-35373000D01*
X152220141Y-35361082D01*
X151971424Y-35310716D01*
X149171424Y-35310716D01*
X148939072Y-35354436D01*
X148910223Y-35373000D01*
X146127000Y-35373000D01*
X146127000Y-25127000D01*
X158373000Y-25127000D01*
X158373000Y-35373000D01*
X158373000Y-35373000D01*
G37*
X158373000Y-35373000D02*
X152237583Y-35373000D01*
X152220141Y-35361082D01*
X151971424Y-35310716D01*
X149171424Y-35310716D01*
X148939072Y-35354436D01*
X148910223Y-35373000D01*
X146127000Y-35373000D01*
X146127000Y-25127000D01*
X158373000Y-25127000D01*
X158373000Y-35373000D01*
G36*
X171373000Y-35373000D02*
X163380439Y-35373000D01*
X163362997Y-35361082D01*
X163114280Y-35310716D01*
X160314280Y-35310716D01*
X160081928Y-35354436D01*
X160053079Y-35373000D01*
X159127000Y-35373000D01*
X159127000Y-30255697D01*
X159131769Y-30248717D01*
X159182135Y-30000000D01*
X159182135Y-25200000D01*
X159168399Y-25127000D01*
X171373000Y-25127000D01*
X171373000Y-35373000D01*
X171373000Y-35373000D01*
G37*
X171373000Y-35373000D02*
X163380439Y-35373000D01*
X163362997Y-35361082D01*
X163114280Y-35310716D01*
X160314280Y-35310716D01*
X160081928Y-35354436D01*
X160053079Y-35373000D01*
X159127000Y-35373000D01*
X159127000Y-30255697D01*
X159131769Y-30248717D01*
X159182135Y-30000000D01*
X159182135Y-25200000D01*
X159168399Y-25127000D01*
X171373000Y-25127000D01*
X171373000Y-35373000D01*
G36*
X184873000Y-35373000D02*
X178523295Y-35373000D01*
X178505853Y-35361082D01*
X178257136Y-35310716D01*
X175457136Y-35310716D01*
X175224784Y-35354436D01*
X175195935Y-35373000D01*
X172127000Y-35373000D01*
X172127000Y-28861990D01*
X172174991Y-28625001D01*
X172174991Y-27625001D01*
X172131271Y-27392649D01*
X172127000Y-27386012D01*
X172127000Y-25127000D01*
X184873000Y-25127000D01*
X184873000Y-35373000D01*
X184873000Y-35373000D01*
G37*
X184873000Y-35373000D02*
X178523295Y-35373000D01*
X178505853Y-35361082D01*
X178257136Y-35310716D01*
X175457136Y-35310716D01*
X175224784Y-35354436D01*
X175195935Y-35373000D01*
X172127000Y-35373000D01*
X172127000Y-28861990D01*
X172174991Y-28625001D01*
X172174991Y-27625001D01*
X172131271Y-27392649D01*
X172127000Y-27386012D01*
X172127000Y-25127000D01*
X184873000Y-25127000D01*
X184873000Y-35373000D01*
G36*
X198373000Y-35373000D02*
X191666151Y-35373000D01*
X191648709Y-35361082D01*
X191399992Y-35310716D01*
X188599992Y-35310716D01*
X188367640Y-35354436D01*
X188338791Y-35373000D01*
X185627000Y-35373000D01*
X185627000Y-25127000D01*
X198373000Y-25127000D01*
X198373000Y-35373000D01*
X198373000Y-35373000D01*
G37*
X198373000Y-35373000D02*
X191666151Y-35373000D01*
X191648709Y-35361082D01*
X191399992Y-35310716D01*
X188599992Y-35310716D01*
X188367640Y-35354436D01*
X188338791Y-35373000D01*
X185627000Y-35373000D01*
X185627000Y-25127000D01*
X198373000Y-25127000D01*
X198373000Y-35373000D01*
G36*
X211373000Y-35373000D02*
X204809007Y-35373000D01*
X204791565Y-35361082D01*
X204542848Y-35310716D01*
X201742848Y-35310716D01*
X201510496Y-35354436D01*
X201481647Y-35373000D01*
X199127000Y-35373000D01*
X199127000Y-25127000D01*
X211373000Y-25127000D01*
X211373000Y-35373000D01*
X211373000Y-35373000D01*
G37*
X211373000Y-35373000D02*
X204809007Y-35373000D01*
X204791565Y-35361082D01*
X204542848Y-35310716D01*
X201742848Y-35310716D01*
X201510496Y-35354436D01*
X201481647Y-35373000D01*
X199127000Y-35373000D01*
X199127000Y-25127000D01*
X211373000Y-25127000D01*
X211373000Y-35373000D01*
G36*
X224373000Y-35373000D02*
X217951863Y-35373000D01*
X217934421Y-35361082D01*
X217685704Y-35310716D01*
X214885704Y-35310716D01*
X214653352Y-35354436D01*
X214624503Y-35373000D01*
X212127000Y-35373000D01*
X212127000Y-25127000D01*
X224373000Y-25127000D01*
X224373000Y-35373000D01*
X224373000Y-35373000D01*
G37*
X224373000Y-35373000D02*
X217951863Y-35373000D01*
X217934421Y-35361082D01*
X217685704Y-35310716D01*
X214885704Y-35310716D01*
X214653352Y-35354436D01*
X214624503Y-35373000D01*
X212127000Y-35373000D01*
X212127000Y-25127000D01*
X224373000Y-25127000D01*
X224373000Y-35373000D01*
G36*
X239777597Y-35373000D02*
X231094719Y-35373000D01*
X231077277Y-35361082D01*
X230828560Y-35310716D01*
X228028560Y-35310716D01*
X227796208Y-35354436D01*
X227767359Y-35373000D01*
X225127000Y-35373000D01*
X225127000Y-25127000D01*
X239777597Y-25127000D01*
X239777597Y-35373000D01*
X239777597Y-35373000D01*
G37*
X239777597Y-35373000D02*
X231094719Y-35373000D01*
X231077277Y-35361082D01*
X230828560Y-35310716D01*
X228028560Y-35310716D01*
X227796208Y-35354436D01*
X227767359Y-35373000D01*
X225127000Y-35373000D01*
X225127000Y-25127000D01*
X239777597Y-25127000D01*
X239777597Y-35373000D01*
G36*
X106873000Y-46873000D02*
X95627000Y-46873000D01*
X95627000Y-45151738D01*
X95759077Y-45125466D01*
X95978711Y-44978711D01*
X96125466Y-44759077D01*
X96177000Y-44500000D01*
X96177000Y-41000000D01*
X96125466Y-40740923D01*
X95978711Y-40521289D01*
X95759077Y-40374534D01*
X95627000Y-40348262D01*
X95627000Y-36127000D01*
X106873000Y-36127000D01*
X106873000Y-46873000D01*
X106873000Y-46873000D01*
G37*
X106873000Y-46873000D02*
X95627000Y-46873000D01*
X95627000Y-45151738D01*
X95759077Y-45125466D01*
X95978711Y-44978711D01*
X96125466Y-44759077D01*
X96177000Y-44500000D01*
X96177000Y-41000000D01*
X96125466Y-40740923D01*
X95978711Y-40521289D01*
X95759077Y-40374534D01*
X95627000Y-40348262D01*
X95627000Y-36127000D01*
X106873000Y-36127000D01*
X106873000Y-46873000D01*
G36*
X118873000Y-46873000D02*
X107627000Y-46873000D01*
X107627000Y-36127000D01*
X118873000Y-36127000D01*
X118873000Y-46873000D01*
X118873000Y-46873000D01*
G37*
X118873000Y-46873000D02*
X107627000Y-46873000D01*
X107627000Y-36127000D01*
X118873000Y-36127000D01*
X118873000Y-46873000D01*
G36*
X132373000Y-46873000D02*
X119753567Y-46873000D01*
X119753567Y-44949998D01*
X119709847Y-44717646D01*
X119627000Y-44588898D01*
X119627000Y-36127000D01*
X132373000Y-36127000D01*
X132373000Y-46873000D01*
X132373000Y-46873000D01*
G37*
X132373000Y-46873000D02*
X119753567Y-46873000D01*
X119753567Y-44949998D01*
X119709847Y-44717646D01*
X119627000Y-44588898D01*
X119627000Y-36127000D01*
X132373000Y-36127000D01*
X132373000Y-46873000D01*
G36*
X145373000Y-46873000D02*
X133127000Y-46873000D01*
X133127000Y-36127000D01*
X145373000Y-36127000D01*
X145373000Y-46873000D01*
X145373000Y-46873000D01*
G37*
X145373000Y-46873000D02*
X133127000Y-46873000D01*
X133127000Y-36127000D01*
X145373000Y-36127000D01*
X145373000Y-46873000D01*
G36*
X158373000Y-46873000D02*
X146127000Y-46873000D01*
X146127000Y-36127000D01*
X158373000Y-36127000D01*
X158373000Y-46873000D01*
X158373000Y-46873000D01*
G37*
X158373000Y-46873000D02*
X146127000Y-46873000D01*
X146127000Y-36127000D01*
X158373000Y-36127000D01*
X158373000Y-46873000D01*
G36*
X172873000Y-46873000D02*
X168786115Y-46873000D01*
X170007138Y-46057138D01*
X171020985Y-44539810D01*
X171377000Y-42750000D01*
X171020985Y-40960190D01*
X170007138Y-39442862D01*
X168489810Y-38429015D01*
X166700000Y-38073000D01*
X164910190Y-38429015D01*
X163392862Y-39442862D01*
X162379015Y-40960190D01*
X162023000Y-42750000D01*
X162379015Y-44539810D01*
X163392862Y-46057138D01*
X164613885Y-46873000D01*
X159182135Y-46873000D01*
X159182135Y-44949998D01*
X159138415Y-44717646D01*
X159127000Y-44699907D01*
X159127000Y-36127000D01*
X172873000Y-36127000D01*
X172873000Y-46873000D01*
X172873000Y-46873000D01*
G37*
X172873000Y-46873000D02*
X168786115Y-46873000D01*
X170007138Y-46057138D01*
X171020985Y-44539810D01*
X171377000Y-42750000D01*
X171020985Y-40960190D01*
X170007138Y-39442862D01*
X168489810Y-38429015D01*
X166700000Y-38073000D01*
X164910190Y-38429015D01*
X163392862Y-39442862D01*
X162379015Y-40960190D01*
X162023000Y-42750000D01*
X162379015Y-44539810D01*
X163392862Y-46057138D01*
X164613885Y-46873000D01*
X159182135Y-46873000D01*
X159182135Y-44949998D01*
X159138415Y-44717646D01*
X159127000Y-44699907D01*
X159127000Y-36127000D01*
X172873000Y-36127000D01*
X172873000Y-46873000D01*
G36*
X184873000Y-46873000D02*
X173627000Y-46873000D01*
X173627000Y-36127000D01*
X184873000Y-36127000D01*
X184873000Y-46873000D01*
X184873000Y-46873000D01*
G37*
X184873000Y-46873000D02*
X173627000Y-46873000D01*
X173627000Y-36127000D01*
X184873000Y-36127000D01*
X184873000Y-46873000D01*
G36*
X198373000Y-46873000D02*
X185627000Y-46873000D01*
X185627000Y-36127000D01*
X198373000Y-36127000D01*
X198373000Y-46873000D01*
X198373000Y-46873000D01*
G37*
X198373000Y-46873000D02*
X185627000Y-46873000D01*
X185627000Y-36127000D01*
X198373000Y-36127000D01*
X198373000Y-46873000D01*
G36*
X211373000Y-46873000D02*
X199127000Y-46873000D01*
X199127000Y-36127000D01*
X211373000Y-36127000D01*
X211373000Y-46873000D01*
X211373000Y-46873000D01*
G37*
X211373000Y-46873000D02*
X199127000Y-46873000D01*
X199127000Y-36127000D01*
X211373000Y-36127000D01*
X211373000Y-46873000D01*
G36*
X224373000Y-46873000D02*
X212127000Y-46873000D01*
X212127000Y-36127000D01*
X224373000Y-36127000D01*
X224373000Y-46873000D01*
X224373000Y-46873000D01*
G37*
X224373000Y-46873000D02*
X212127000Y-46873000D01*
X212127000Y-36127000D01*
X224373000Y-36127000D01*
X224373000Y-46873000D01*
G36*
X239777597Y-46873000D02*
X225127000Y-46873000D01*
X225127000Y-36127000D01*
X239777597Y-36127000D01*
X239777597Y-46873000D01*
X239777597Y-46873000D01*
G37*
X239777597Y-46873000D02*
X225127000Y-46873000D01*
X225127000Y-36127000D01*
X239777597Y-36127000D01*
X239777597Y-46873000D01*
G36*
X163392862Y-46057138D02*
X164910190Y-47070985D01*
X166700000Y-47427000D01*
X168489810Y-47070985D01*
X170007138Y-46057138D01*
X170628637Y-45127000D01*
X172873000Y-45127000D01*
X172873000Y-46873000D01*
X169500000Y-46873000D01*
X169450590Y-46883006D01*
X169408965Y-46911447D01*
X169381685Y-46953841D01*
X169373000Y-47000000D01*
X169373000Y-47739344D01*
X169360717Y-47800000D01*
X169360717Y-48373000D01*
X159182135Y-48373000D01*
X159182135Y-47749998D01*
X159138415Y-47517646D01*
X159127000Y-47499907D01*
X159127000Y-47205695D01*
X159131769Y-47198715D01*
X159182135Y-46949998D01*
X159182135Y-45127000D01*
X162771363Y-45127000D01*
X163392862Y-46057138D01*
X163392862Y-46057138D01*
G37*
X163392862Y-46057138D02*
X164910190Y-47070985D01*
X166700000Y-47427000D01*
X168489810Y-47070985D01*
X170007138Y-46057138D01*
X170628637Y-45127000D01*
X172873000Y-45127000D01*
X172873000Y-46873000D01*
X169500000Y-46873000D01*
X169450590Y-46883006D01*
X169408965Y-46911447D01*
X169381685Y-46953841D01*
X169373000Y-47000000D01*
X169373000Y-47739344D01*
X169360717Y-47800000D01*
X169360717Y-48373000D01*
X159182135Y-48373000D01*
X159182135Y-47749998D01*
X159138415Y-47517646D01*
X159127000Y-47499907D01*
X159127000Y-47205695D01*
X159131769Y-47198715D01*
X159182135Y-46949998D01*
X159182135Y-45127000D01*
X162771363Y-45127000D01*
X163392862Y-46057138D01*
G36*
X239777597Y-57873000D02*
X225127000Y-57873000D01*
X225127000Y-47627000D01*
X239777597Y-47627000D01*
X239777597Y-57873000D01*
X239777597Y-57873000D01*
G37*
X239777597Y-57873000D02*
X225127000Y-57873000D01*
X225127000Y-47627000D01*
X239777597Y-47627000D01*
X239777597Y-57873000D01*
G36*
X224373000Y-57873000D02*
X217746370Y-57873000D01*
X217685704Y-57860715D01*
X214885704Y-57860715D01*
X214820415Y-57873000D01*
X212127000Y-57873000D01*
X212127000Y-47627000D01*
X224373000Y-47627000D01*
X224373000Y-57873000D01*
X224373000Y-57873000D01*
G37*
X224373000Y-57873000D02*
X217746370Y-57873000D01*
X217685704Y-57860715D01*
X214885704Y-57860715D01*
X214820415Y-57873000D01*
X212127000Y-57873000D01*
X212127000Y-47627000D01*
X224373000Y-47627000D01*
X224373000Y-57873000D01*
G36*
X211373000Y-57873000D02*
X199127000Y-57873000D01*
X199127000Y-47627000D01*
X211373000Y-47627000D01*
X211373000Y-57873000D01*
X211373000Y-57873000D01*
G37*
X211373000Y-57873000D02*
X199127000Y-57873000D01*
X199127000Y-47627000D01*
X211373000Y-47627000D01*
X211373000Y-57873000D01*
G36*
X198373000Y-57873000D02*
X191460658Y-57873000D01*
X191399992Y-57860715D01*
X188599992Y-57860715D01*
X188534703Y-57873000D01*
X185627000Y-57873000D01*
X185627000Y-47627000D01*
X198373000Y-47627000D01*
X198373000Y-57873000D01*
X198373000Y-57873000D01*
G37*
X198373000Y-57873000D02*
X191460658Y-57873000D01*
X191399992Y-57860715D01*
X188599992Y-57860715D01*
X188534703Y-57873000D01*
X185627000Y-57873000D01*
X185627000Y-47627000D01*
X198373000Y-47627000D01*
X198373000Y-57873000D01*
G36*
X184873000Y-57873000D02*
X173627000Y-57873000D01*
X173627000Y-47627000D01*
X184873000Y-47627000D01*
X184873000Y-57873000D01*
X184873000Y-57873000D01*
G37*
X184873000Y-57873000D02*
X173627000Y-57873000D01*
X173627000Y-47627000D01*
X184873000Y-47627000D01*
X184873000Y-57873000D01*
G36*
X172873000Y-57873000D02*
X165174946Y-57873000D01*
X165114280Y-57860715D01*
X162314280Y-57860715D01*
X162248991Y-57873000D01*
X159127000Y-57873000D01*
X159127000Y-52805695D01*
X159131769Y-52798715D01*
X159182135Y-52549998D01*
X159182135Y-49127000D01*
X172873000Y-49127000D01*
X172873000Y-57873000D01*
X172873000Y-57873000D01*
G37*
X172873000Y-57873000D02*
X165174946Y-57873000D01*
X165114280Y-57860715D01*
X162314280Y-57860715D01*
X162248991Y-57873000D01*
X159127000Y-57873000D01*
X159127000Y-52805695D01*
X159131769Y-52798715D01*
X159182135Y-52549998D01*
X159182135Y-49127000D01*
X172873000Y-49127000D01*
X172873000Y-57873000D01*
G36*
X158373000Y-57873000D02*
X146127000Y-57873000D01*
X146127000Y-47627000D01*
X158373000Y-47627000D01*
X158373000Y-57873000D01*
X158373000Y-57873000D01*
G37*
X158373000Y-57873000D02*
X146127000Y-57873000D01*
X146127000Y-47627000D01*
X158373000Y-47627000D01*
X158373000Y-57873000D01*
G36*
X145373000Y-57873000D02*
X138889234Y-57873000D01*
X138828568Y-57860715D01*
X136028568Y-57860715D01*
X135963279Y-57873000D01*
X133127000Y-57873000D01*
X133127000Y-47627000D01*
X145373000Y-47627000D01*
X145373000Y-57873000D01*
X145373000Y-57873000D01*
G37*
X145373000Y-57873000D02*
X138889234Y-57873000D01*
X138828568Y-57860715D01*
X136028568Y-57860715D01*
X135963279Y-57873000D01*
X133127000Y-57873000D01*
X133127000Y-47627000D01*
X145373000Y-47627000D01*
X145373000Y-57873000D01*
G36*
X132373000Y-57873000D02*
X120127000Y-57873000D01*
X120127000Y-47627000D01*
X132373000Y-47627000D01*
X132373000Y-57873000D01*
X132373000Y-57873000D01*
G37*
X132373000Y-57873000D02*
X120127000Y-57873000D01*
X120127000Y-47627000D01*
X132373000Y-47627000D01*
X132373000Y-57873000D01*
G36*
X119373000Y-57873000D02*
X112603522Y-57873000D01*
X112542856Y-57860715D01*
X109742856Y-57860715D01*
X109677567Y-57873000D01*
X107127000Y-57873000D01*
X107127000Y-47627000D01*
X119373000Y-47627000D01*
X119373000Y-57873000D01*
X119373000Y-57873000D01*
G37*
X119373000Y-57873000D02*
X112603522Y-57873000D01*
X112542856Y-57860715D01*
X109742856Y-57860715D01*
X109677567Y-57873000D01*
X107127000Y-57873000D01*
X107127000Y-47627000D01*
X119373000Y-47627000D01*
X119373000Y-57873000D01*
G36*
X106373000Y-57873000D02*
X95627000Y-57873000D01*
X95627000Y-47627000D01*
X106373000Y-47627000D01*
X106373000Y-57873000D01*
X106373000Y-57873000D01*
G37*
X106373000Y-57873000D02*
X95627000Y-57873000D01*
X95627000Y-47627000D01*
X106373000Y-47627000D01*
X106373000Y-57873000D01*
G36*
X94873000Y-58873000D02*
X91622403Y-58873000D01*
X91622403Y-45177000D01*
X94873000Y-45177000D01*
X94873000Y-58873000D01*
X94873000Y-58873000D01*
G37*
X94873000Y-58873000D02*
X91622403Y-58873000D01*
X91622403Y-45177000D01*
X94873000Y-45177000D01*
X94873000Y-58873000D01*
M02*
