G04 #@! TF.FileFunction,Soldermask,Top*
%FSLAX46Y46*%
G04 Gerber Fmt 4.6, Leading zero omitted, Abs format (unit mm)*
G04 Created by KiCad (PCBNEW 0.201511300701+6336~38~ubuntu14.04.1-stable) date Tue 01 Dec 2015 10:36:23 AM EET*
%MOMM*%
G01*
G04 APERTURE LIST*
%ADD10C,0.100000*%
%ADD11R,2.900000X1.400000*%
%ADD12R,2.400000X4.400000*%
%ADD13R,3.200000X5.200000*%
%ADD14R,3.200000X2.400000*%
G04 APERTURE END LIST*
D10*
D11*
X229428560Y-61424999D03*
X229428560Y-56524999D03*
D12*
X93500000Y-48500000D03*
X93500000Y-36500000D03*
D13*
X104571428Y-27600000D03*
D14*
X104571428Y-23400000D03*
D13*
X98000000Y-38349999D03*
D14*
X98000000Y-34149999D03*
D13*
X104571428Y-50149998D03*
D14*
X104571428Y-45949998D03*
D13*
X130857140Y-27600000D03*
D14*
X130857140Y-23400000D03*
D13*
X111142856Y-38349999D03*
D14*
X111142856Y-34149999D03*
D13*
X117714284Y-50149998D03*
D14*
X117714284Y-45949998D03*
D13*
X157142852Y-27600000D03*
D14*
X157142852Y-23400000D03*
D13*
X124285712Y-38349999D03*
D14*
X124285712Y-34149999D03*
D13*
X111142856Y-60899998D03*
D14*
X111142856Y-56699998D03*
D13*
X183428564Y-27600000D03*
D14*
X183428564Y-23400000D03*
D13*
X137428568Y-38349999D03*
D14*
X137428568Y-34149999D03*
D13*
X130857140Y-50149998D03*
D14*
X130857140Y-45949998D03*
D13*
X150571424Y-38349999D03*
D14*
X150571424Y-34149999D03*
D13*
X143999996Y-50149998D03*
D14*
X143999996Y-45949998D03*
D13*
X137428568Y-60899998D03*
D14*
X137428568Y-56699998D03*
D13*
X209714276Y-27600000D03*
D14*
X209714276Y-23400000D03*
D13*
X161714280Y-38349999D03*
D14*
X161714280Y-34149999D03*
D13*
X157142852Y-50149998D03*
D14*
X157142852Y-45949998D03*
D13*
X176857136Y-38349999D03*
D14*
X176857136Y-34149999D03*
D13*
X171400000Y-50200000D03*
D14*
X171400000Y-46000000D03*
D13*
X163714280Y-60899998D03*
D14*
X163714280Y-56699998D03*
D13*
X235999988Y-27600000D03*
D14*
X235999988Y-23400000D03*
D13*
X189999992Y-38349999D03*
D14*
X189999992Y-34149999D03*
D13*
X183428564Y-50149998D03*
D14*
X183428564Y-45949998D03*
D13*
X196571420Y-50149998D03*
D14*
X196571420Y-45949998D03*
D13*
X189999992Y-60899998D03*
D14*
X189999992Y-56699998D03*
D13*
X203142848Y-38349999D03*
D14*
X203142848Y-34149999D03*
D13*
X209714276Y-50149998D03*
D14*
X209714276Y-45949998D03*
D13*
X216285704Y-38349999D03*
D14*
X216285704Y-34149999D03*
D13*
X222857132Y-50149998D03*
D14*
X222857132Y-45949998D03*
D13*
X216285704Y-60899998D03*
D14*
X216285704Y-56699998D03*
D13*
X229428560Y-38349999D03*
D14*
X229428560Y-34149999D03*
D13*
X235999988Y-50149998D03*
D14*
X235999988Y-45949998D03*
D11*
X117714284Y-28125001D03*
X117714284Y-23225001D03*
X98000000Y-61424999D03*
X98000000Y-56524999D03*
X143999996Y-28125001D03*
X143999996Y-23225001D03*
X124285712Y-61424999D03*
X124285712Y-56524999D03*
X170285708Y-28125001D03*
X170285708Y-23225001D03*
X150571424Y-61424999D03*
X150571424Y-56524999D03*
X196571420Y-28125001D03*
X196571420Y-23225001D03*
X176857136Y-61424999D03*
X176857136Y-56524999D03*
X222857132Y-28125001D03*
X222857132Y-23225001D03*
X203142848Y-61424999D03*
X203142848Y-56524999D03*
M02*
