  0
SECTION
  2
HEADER
  9
$ANGBASE
  50
0.0
  9
$ANGDIR
  70
  1
  9
$MEASUREMENT
  70
0
  0
ENDSEC
  0
SECTION
  2
TABLES
  0
TABLE
  2
LTYPE
  70
1
  0
LTYPE
  2
CONTINUOUS
  70
0
  3
Solid line
  72
65
  73
0
  40
0.0
  0
ENDTAB
  0
TABLE
  2
STYLE
  70
4
  0
STYLE
  2
KICAD
  70
0
  40
0
  41
1
  42
1
  50
0
  71
0
  3
isocp.shx
  0
STYLE
  2
KICADB
  70
0
  40
0
  41
1
  42
1
  50
0
  71
0
  3
isocp.shx
  0
STYLE
  2
KICADI
  70
0
  40
0
  41
1
  42
1
  50
15
  71
0
  3
isocp.shx
  0
STYLE
  2
KICADBI
  70
0
  40
0
  41
1
  42
1
  50
15
  71
0
  3
isocp.shx
  0
ENDTAB
  0
TABLE
  2
LAYER
  70
30
  0
LAYER
  2
BLACK
  70
0
  62
7
  6
CONTINUOUS
  0
LAYER
  2
GRAY1
  70
0
  62
251
  6
CONTINUOUS
  0
LAYER
  2
GRAY2
  70
0
  62
8
  6
CONTINUOUS
  0
LAYER
  2
GRAY3
  70
0
  62
9
  6
CONTINUOUS
  0
LAYER
  2
WHITE
  70
0
  62
7
  6
CONTINUOUS
  0
LAYER
  2
LYELLOW
  70
0
  62
51
  6
CONTINUOUS
  0
LAYER
  2
BLUE1
  70
0
  62
178
  6
CONTINUOUS
  0
LAYER
  2
GREEN1
  70
0
  62
98
  6
CONTINUOUS
  0
LAYER
  2
CYAN1
  70
0
  62
138
  6
CONTINUOUS
  0
LAYER
  2
RED1
  70
0
  62
18
  6
CONTINUOUS
  0
LAYER
  2
MAGENTA1
  70
0
  62
228
  6
CONTINUOUS
  0
LAYER
  2
BROWN1
  70
0
  62
58
  6
CONTINUOUS
  0
LAYER
  2
BLUE2
  70
0
  62
5
  6
CONTINUOUS
  0
LAYER
  2
GREEN2
  70
0
  62
3
  6
CONTINUOUS
  0
LAYER
  2
CYAN2
  70
0
  62
4
  6
CONTINUOUS
  0
LAYER
  2
RED2
  70
0
  62
1
  6
CONTINUOUS
  0
LAYER
  2
MAGENTA2
  70
0
  62
6
  6
CONTINUOUS
  0
LAYER
  2
BROWN2
  70
0
  62
54
  6
CONTINUOUS
  0
LAYER
  2
BLUE3
  70
0
  62
171
  6
CONTINUOUS
  0
LAYER
  2
GREEN3
  70
0
  62
91
  6
CONTINUOUS
  0
LAYER
  2
CYAN3
  70
0
  62
131
  6
CONTINUOUS
  0
LAYER
  2
RED3
  70
0
  62
11
  6
CONTINUOUS
  0
LAYER
  2
MAGENTA3
  70
0
  62
221
  6
CONTINUOUS
  0
LAYER
  2
YELLOW3
  70
0
  62
2
  6
CONTINUOUS
  0
LAYER
  2
BLUE4
  70
0
  62
5
  6
CONTINUOUS
  0
LAYER
  2
GREEN4
  70
0
  62
3
  6
CONTINUOUS
  0
LAYER
  2
CYAN4
  70
0
  62
4
  6
CONTINUOUS
  0
LAYER
  2
RED4
  70
0
  62
1
  6
CONTINUOUS
  0
LAYER
  2
MAGENTA4
  70
0
  62
6
  6
CONTINUOUS
  0
LAYER
  2
YELLOW4
  70
0
  62
2
  6
CONTINUOUS
  0
ENDTAB
  0
ENDSEC
  0
SECTION
  2
ENTITIES
0
LINE
8
Black
10
123.007
20
-97.9425
11
123.234
21
-98.0733
0
LINE
8
Black
10
123.234
20
-98.0733
11
123.402
21
-98.2736
0
LINE
8
Black
10
123.402
20
-98.2736
11
123.491
21
-98.5193
0
LINE
8
Black
10
123.491
20
-98.5193
11
123.491
21
-98.7807
0
LINE
8
Black
10
123.491
20
-98.7807
11
123.402
21
-99.0264
0
LINE
8
Black
10
123.402
20
-99.0264
11
123.234
21
-99.2267
0
LINE
8
Black
10
123.234
20
-99.2267
11
123.007
21
-99.3575
0
LINE
8
Black
10
123.007
20
-99.3575
11
122.75
21
-99.4029
0
LINE
8
Black
10
122.75
20
-99.4029
11
122.493
21
-99.3575
0
LINE
8
Black
10
122.493
20
-99.3575
11
122.266
21
-99.2267
0
LINE
8
Black
10
122.266
20
-99.2267
11
122.098
21
-99.0264
0
LINE
8
Black
10
122.098
20
-99.0264
11
122.009
21
-98.7807
0
LINE
8
Black
10
122.009
20
-98.7807
11
122.009
21
-98.5193
0
LINE
8
Black
10
122.009
20
-98.5193
11
122.098
21
-98.2736
0
LINE
8
Black
10
122.098
20
-98.2736
11
122.266
21
-98.0733
0
LINE
8
Black
10
122.266
20
-98.0733
11
122.493
21
-97.9425
0
LINE
8
Black
10
122.493
20
-97.9425
11
122.75
21
-97.8971
0
LINE
8
Black
10
122.75
20
-97.8971
11
123.007
21
-97.9425
0
LINE
8
Black
10
128.15
20
-97.75
11
125.95
21
-97.75
0
LINE
8
Black
10
125.95
20
-97.75
11
125.95
21
-95.55
0
LINE
8
Black
10
125.95
20
-95.55
11
128.15
21
-95.55
0
LINE
8
Black
10
128.15
20
-95.55
11
128.15
21
-97.75
0
LINE
8
Black
10
119.55
20
-97.75
11
117.35
21
-97.75
0
LINE
8
Black
10
117.35
20
-97.75
11
117.35
21
-95.55
0
LINE
8
Black
10
117.35
20
-95.55
11
119.55
21
-95.55
0
LINE
8
Black
10
119.55
20
-95.55
11
119.55
21
-97.75
0
LINE
8
Black
10
113.337
20
-96.2378
11
110.162
21
-96.2378
0
LINE
8
Black
10
110.162
20
-96.2378
11
110.162
21
-94.6376
0
LINE
8
Black
10
110.162
20
-94.6376
11
113.337
21
-94.6376
0
LINE
8
Black
10
113.337
20
-94.6376
11
113.337
21
-96.2378
0
LINE
8
Black
10
116.587
20
-96.2378
11
113.412
21
-96.2378
0
LINE
8
Black
10
113.412
20
-96.2378
11
113.412
21
-94.6376
0
LINE
8
Black
10
113.412
20
-94.6376
11
116.587
21
-94.6376
0
LINE
8
Black
10
116.587
20
-94.6376
11
116.587
21
-96.2378
0
LINE
8
Black
10
151.282
20
-95
11
149.758
21
-95
0
LINE
8
Black
10
149.758
20
-95
11
149.758
21
-91
0
LINE
8
Black
10
149.758
20
-91
11
151.282
21
-91
0
LINE
8
Black
10
151.282
20
-91
11
151.282
21
-95
0
LINE
8
Black
10
148.361
20
-91.0944
11
148.564
21
-91.2646
0
LINE
8
Black
10
148.564
20
-91.2646
11
148.696
21
-91.4937
0
LINE
8
Black
10
148.696
20
-91.4937
11
148.742
21
-91.7544
0
LINE
8
Black
10
148.742
20
-91.7544
11
148.742
21
-94.2456
0
LINE
8
Black
10
148.742
20
-94.2456
11
148.696
21
-94.5063
0
LINE
8
Black
10
148.696
20
-94.5063
11
148.564
21
-94.7354
0
LINE
8
Black
10
148.564
20
-94.7354
11
148.361
21
-94.9056
0
LINE
8
Black
10
148.361
20
-94.9056
11
148.112
21
-94.9961
0
LINE
8
Black
10
148.112
20
-94.9961
11
147.848
21
-94.9961
0
LINE
8
Black
10
147.848
20
-94.9961
11
147.599
21
-94.9056
0
LINE
8
Black
10
147.599
20
-94.9056
11
147.396
21
-94.7354
0
LINE
8
Black
10
147.396
20
-94.7354
11
147.264
21
-94.5063
0
LINE
8
Black
10
147.264
20
-94.5063
11
147.218
21
-94.2456
0
LINE
8
Black
10
147.218
20
-94.2456
11
147.218
21
-91.7544
0
LINE
8
Black
10
147.218
20
-91.7544
11
147.264
21
-91.4937
0
LINE
8
Black
10
147.264
20
-91.4937
11
147.396
21
-91.2646
0
LINE
8
Black
10
147.396
20
-91.2646
11
147.599
21
-91.0944
0
LINE
8
Black
10
147.599
20
-91.0944
11
147.848
21
-91.0039
0
LINE
8
Black
10
147.848
20
-91.0039
11
148.112
21
-91.0039
0
LINE
8
Black
10
148.112
20
-91.0039
11
148.361
21
-91.0944
0
LINE
8
Black
10
123.007
20
-92.9425
11
123.234
21
-93.0733
0
LINE
8
Black
10
123.234
20
-93.0733
11
123.402
21
-93.2736
0
LINE
8
Black
10
123.402
20
-93.2736
11
123.491
21
-93.5193
0
LINE
8
Black
10
123.491
20
-93.5193
11
123.491
21
-93.7807
0
LINE
8
Black
10
123.491
20
-93.7807
11
123.402
21
-94.0264
0
LINE
8
Black
10
123.402
20
-94.0264
11
123.234
21
-94.2267
0
LINE
8
Black
10
123.234
20
-94.2267
11
123.007
21
-94.3575
0
LINE
8
Black
10
123.007
20
-94.3575
11
122.75
21
-94.4029
0
LINE
8
Black
10
122.75
20
-94.4029
11
122.493
21
-94.3575
0
LINE
8
Black
10
122.493
20
-94.3575
11
122.266
21
-94.2267
0
LINE
8
Black
10
122.266
20
-94.2267
11
122.098
21
-94.0264
0
LINE
8
Black
10
122.098
20
-94.0264
11
122.009
21
-93.7807
0
LINE
8
Black
10
122.009
20
-93.7807
11
122.009
21
-93.5193
0
LINE
8
Black
10
122.009
20
-93.5193
11
122.098
21
-93.2736
0
LINE
8
Black
10
122.098
20
-93.2736
11
122.266
21
-93.0733
0
LINE
8
Black
10
122.266
20
-93.0733
11
122.493
21
-92.9425
0
LINE
8
Black
10
122.493
20
-92.9425
11
122.75
21
-92.8971
0
LINE
8
Black
10
122.75
20
-92.8971
11
123.007
21
-92.9425
0
LINE
8
Black
10
156.65
20
-94.4016
11
155.85
21
-94.4016
0
LINE
8
Black
10
155.85
20
-94.4016
11
155.85
21
-92.6007
0
LINE
8
Black
10
155.85
20
-92.6007
11
156.65
21
-92.6007
0
LINE
8
Black
10
156.65
20
-92.6007
11
156.65
21
-94.4016
0
LINE
8
Black
10
128.15
20
-93.25
11
125.95
21
-93.25
0
LINE
8
Black
10
125.95
20
-93.25
11
125.95
21
-91.05
0
LINE
8
Black
10
125.95
20
-91.05
11
128.15
21
-91.05
0
LINE
8
Black
10
128.15
20
-91.05
11
128.15
21
-93.25
0
LINE
8
Black
10
119.55
20
-93.25
11
117.35
21
-93.25
0
LINE
8
Black
10
117.35
20
-93.25
11
117.35
21
-91.05
0
LINE
8
Black
10
117.35
20
-91.05
11
119.55
21
-91.05
0
LINE
8
Black
10
119.55
20
-91.05
11
119.55
21
-93.25
0
LINE
8
Black
10
154.125
20
-93.05
11
153.375
21
-93.05
0
LINE
8
Black
10
153.375
20
-93.05
11
153.375
21
-91.85
0
LINE
8
Black
10
153.375
20
-91.85
11
154.125
21
-91.85
0
LINE
8
Black
10
154.125
20
-91.85
11
154.125
21
-93.05
0
LINE
8
Black
10
142.701
20
-88.3493
11
143.229
21
-88.6543
0
LINE
8
Black
10
143.229
20
-88.6543
11
143.621
21
-89.1217
0
LINE
8
Black
10
143.621
20
-89.1217
11
143.83
21
-89.695
0
LINE
8
Black
10
143.83
20
-89.695
11
143.83
21
-90.305
0
LINE
8
Black
10
143.83
20
-90.305
11
143.621
21
-90.8783
0
LINE
8
Black
10
143.621
20
-90.8783
11
143.229
21
-91.3457
0
LINE
8
Black
10
143.229
20
-91.3457
11
142.701
21
-91.6507
0
LINE
8
Black
10
142.701
20
-91.6507
11
142.1
21
-91.7567
0
LINE
8
Black
10
142.1
20
-91.7567
11
141.499
21
-91.6507
0
LINE
8
Black
10
141.499
20
-91.6507
11
140.971
21
-91.3457
0
LINE
8
Black
10
140.971
20
-91.3457
11
140.579
21
-90.8783
0
LINE
8
Black
10
140.579
20
-90.8783
11
140.37
21
-90.305
0
LINE
8
Black
10
140.37
20
-90.305
11
140.37
21
-89.695
0
LINE
8
Black
10
140.37
20
-89.695
11
140.579
21
-89.1217
0
LINE
8
Black
10
140.579
20
-89.1217
11
140.971
21
-88.6543
0
LINE
8
Black
10
140.971
20
-88.6543
11
141.499
21
-88.3493
0
LINE
8
Black
10
141.499
20
-88.3493
11
142.1
21
-88.2433
0
LINE
8
Black
10
142.1
20
-88.2433
11
142.701
21
-88.3493
0
LINE
8
Black
10
157.6
20
-91.3993
11
156.8
21
-91.3993
0
LINE
8
Black
10
156.8
20
-91.3993
11
156.8
21
-89.5984
0
LINE
8
Black
10
156.8
20
-89.5984
11
157.6
21
-89.5984
0
LINE
8
Black
10
157.6
20
-89.5984
11
157.6
21
-91.3993
0
LINE
8
Black
10
155.7
20
-91.3993
11
154.9
21
-91.3993
0
LINE
8
Black
10
154.9
20
-91.3993
11
154.9
21
-89.5984
0
LINE
8
Black
10
154.9
20
-89.5984
11
155.7
21
-89.5984
0
LINE
8
Black
10
155.7
20
-89.5984
11
155.7
21
-91.3993
0
LINE
8
Black
10
154.125
20
-91.15
11
153.375
21
-91.15
0
LINE
8
Black
10
153.375
20
-91.15
11
153.375
21
-89.95
0
LINE
8
Black
10
153.375
20
-89.95
11
154.125
21
-89.95
0
LINE
8
Black
10
154.125
20
-89.95
11
154.125
21
-91.15
0
LINE
8
Black
10
121.15
20
-89.875
11
119.95
21
-89.875
0
LINE
8
Black
10
119.95
20
-89.875
11
119.95
21
-89.125
0
LINE
8
Black
10
119.95
20
-89.125
11
121.15
21
-89.125
0
LINE
8
Black
10
121.15
20
-89.125
11
121.15
21
-89.875
0
LINE
8
Black
10
123.05
20
-89.875
11
121.85
21
-89.875
0
LINE
8
Black
10
121.85
20
-89.875
11
121.85
21
-89.125
0
LINE
8
Black
10
121.85
20
-89.125
11
123.05
21
-89.125
0
LINE
8
Black
10
123.05
20
-89.125
11
123.05
21
-89.875
0
LINE
8
Black
10
116.587
20
-89.8624
11
113.412
21
-89.8624
0
LINE
8
Black
10
113.412
20
-89.8624
11
113.412
21
-88.2622
0
LINE
8
Black
10
113.412
20
-88.2622
11
116.587
21
-88.2622
0
LINE
8
Black
10
116.587
20
-88.2622
11
116.587
21
-89.8624
0
LINE
8
Black
10
113.337
20
-89.8624
11
110.162
21
-89.8624
0
LINE
8
Black
10
110.162
20
-89.8624
11
110.162
21
-88.2622
0
LINE
8
Black
10
110.162
20
-88.2622
11
113.337
21
-88.2622
0
LINE
8
Black
10
113.337
20
-88.2622
11
113.337
21
-89.8624
0
LINE
8
Black
10
150.85
20
-88.85
11
149.65
21
-88.85
0
LINE
8
Black
10
149.65
20
-88.85
11
149.65
21
-87.95
0
LINE
8
Black
10
149.65
20
-87.95
11
150.85
21
-87.95
0
LINE
8
Black
10
150.85
20
-87.95
11
150.85
21
-88.85
0
LINE
8
Black
10
153.05
20
-88.85
11
151.85
21
-88.85
0
LINE
8
Black
10
151.85
20
-88.85
11
151.85
21
-87.95
0
LINE
8
Black
10
151.85
20
-87.95
11
153.05
21
-87.95
0
LINE
8
Black
10
153.05
20
-87.95
11
153.05
21
-88.85
0
LINE
8
Black
10
135.61
20
-86.9952
11
135.836
21
-87.1255
0
LINE
8
Black
10
135.836
20
-87.1255
11
136.003
21
-87.325
0
LINE
8
Black
10
136.003
20
-87.325
11
136.092
21
-87.5698
0
LINE
8
Black
10
136.092
20
-87.5698
11
136.092
21
-87.8302
0
LINE
8
Black
10
136.092
20
-87.8302
11
136.003
21
-88.075
0
LINE
8
Black
10
136.003
20
-88.075
11
135.836
21
-88.2745
0
LINE
8
Black
10
135.836
20
-88.2745
11
135.61
21
-88.4048
0
LINE
8
Black
10
135.61
20
-88.4048
11
135.354
21
-88.45
0
LINE
8
Black
10
135.354
20
-88.45
11
134.846
21
-88.45
0
LINE
8
Black
10
134.846
20
-88.45
11
134.59
21
-88.4048
0
LINE
8
Black
10
134.59
20
-88.4048
11
134.364
21
-88.2745
0
LINE
8
Black
10
134.364
20
-88.2745
11
134.197
21
-88.075
0
LINE
8
Black
10
134.197
20
-88.075
11
134.108
21
-87.8302
0
LINE
8
Black
10
134.108
20
-87.8302
11
134.108
21
-87.5698
0
LINE
8
Black
10
134.108
20
-87.5698
11
134.197
21
-87.325
0
LINE
8
Black
10
134.197
20
-87.325
11
134.364
21
-87.1255
0
LINE
8
Black
10
134.364
20
-87.1255
11
134.59
21
-86.9952
0
LINE
8
Black
10
134.59
20
-86.9952
11
134.846
21
-86.95
0
LINE
8
Black
10
134.846
20
-86.95
11
135.354
21
-86.95
0
LINE
8
Black
10
135.354
20
-86.95
11
135.61
21
-86.9952
0
LINE
8
Black
10
157.8
20
-88.375
11
156.6
21
-88.375
0
LINE
8
Black
10
156.6
20
-88.375
11
156.6
21
-87.625
0
LINE
8
Black
10
156.6
20
-87.625
11
157.8
21
-87.625
0
LINE
8
Black
10
157.8
20
-87.625
11
157.8
21
-88.375
0
LINE
8
Black
10
155.9
20
-88.375
11
154.7
21
-88.375
0
LINE
8
Black
10
154.7
20
-88.375
11
154.7
21
-87.625
0
LINE
8
Black
10
154.7
20
-87.625
11
155.9
21
-87.625
0
LINE
8
Black
10
155.9
20
-87.625
11
155.9
21
-88.375
0
LINE
8
Black
10
150.699
20
-87.1488
11
149.902
21
-87.1488
0
LINE
8
Black
10
149.902
20
-87.1488
11
149.902
21
-86.3512
0
LINE
8
Black
10
149.902
20
-86.3512
11
150.699
21
-86.3512
0
LINE
8
Black
10
150.699
20
-86.3512
11
150.699
21
-87.1488
0
LINE
8
Black
10
152.198
20
-87.1488
11
151.401
21
-87.1488
0
LINE
8
Black
10
151.401
20
-87.1488
11
151.401
21
-86.3512
0
LINE
8
Black
10
151.401
20
-86.3512
11
152.198
21
-86.3512
0
LINE
8
Black
10
152.198
20
-86.3512
11
152.198
21
-87.1488
0
LINE
8
Black
10
154.45
20
-86.7
11
153.55
21
-86.7
0
LINE
8
Black
10
153.55
20
-86.7
11
153.55
21
-85.5
0
LINE
8
Black
10
153.55
20
-85.5
11
154.45
21
-85.5
0
LINE
8
Black
10
154.45
20
-85.5
11
154.45
21
-86.7
0
LINE
8
Black
10
156.2
20
-86.7
11
155.3
21
-86.7
0
LINE
8
Black
10
155.3
20
-86.7
11
155.3
21
-85.5
0
LINE
8
Black
10
155.3
20
-85.5
11
156.2
21
-85.5
0
LINE
8
Black
10
156.2
20
-85.5
11
156.2
21
-86.7
0
LINE
8
Black
10
120.75
20
-86.6243
11
114.25
21
-86.6243
0
LINE
8
Black
10
114.25
20
-86.6243
11
114.25
21
-79.6241
0
LINE
8
Black
10
114.25
20
-79.6241
11
120.75
21
-79.6241
0
LINE
8
Black
10
120.75
20
-79.6241
11
120.75
21
-86.6243
0
LINE
8
Black
10
135.61
20
-84.4952
11
135.836
21
-84.6255
0
LINE
8
Black
10
135.836
20
-84.6255
11
136.003
21
-84.825
0
LINE
8
Black
10
136.003
20
-84.825
11
136.092
21
-85.0698
0
LINE
8
Black
10
136.092
20
-85.0698
11
136.092
21
-85.3302
0
LINE
8
Black
10
136.092
20
-85.3302
11
136.003
21
-85.575
0
LINE
8
Black
10
136.003
20
-85.575
11
135.836
21
-85.7745
0
LINE
8
Black
10
135.836
20
-85.7745
11
135.61
21
-85.9048
0
LINE
8
Black
10
135.61
20
-85.9048
11
135.354
21
-85.95
0
LINE
8
Black
10
135.354
20
-85.95
11
134.846
21
-85.95
0
LINE
8
Black
10
134.846
20
-85.95
11
134.59
21
-85.9048
0
LINE
8
Black
10
134.59
20
-85.9048
11
134.364
21
-85.7745
0
LINE
8
Black
10
134.364
20
-85.7745
11
134.197
21
-85.575
0
LINE
8
Black
10
134.197
20
-85.575
11
134.108
21
-85.3302
0
LINE
8
Black
10
134.108
20
-85.3302
11
134.108
21
-85.0698
0
LINE
8
Black
10
134.108
20
-85.0698
11
134.197
21
-84.825
0
LINE
8
Black
10
134.197
20
-84.825
11
134.364
21
-84.6255
0
LINE
8
Black
10
134.364
20
-84.6255
11
134.59
21
-84.4952
0
LINE
8
Black
10
134.59
20
-84.4952
11
134.846
21
-84.45
0
LINE
8
Black
10
134.846
20
-84.45
11
135.354
21
-84.45
0
LINE
8
Black
10
135.354
20
-84.45
11
135.61
21
-84.4952
0
LINE
8
Black
10
150.649
20
-85.5988
11
149.852
21
-85.5988
0
LINE
8
Black
10
149.852
20
-85.5988
11
149.852
21
-84.8012
0
LINE
8
Black
10
149.852
20
-84.8012
11
150.649
21
-84.8012
0
LINE
8
Black
10
150.649
20
-84.8012
11
150.649
21
-85.5988
0
LINE
8
Black
10
152.148
20
-85.5988
11
151.351
21
-85.5988
0
LINE
8
Black
10
151.351
20
-85.5988
11
151.351
21
-84.8012
0
LINE
8
Black
10
151.351
20
-84.8012
11
152.148
21
-84.8012
0
LINE
8
Black
10
152.148
20
-84.8012
11
152.148
21
-85.5988
0
LINE
8
Black
10
133.45
20
-85.45
11
132.55
21
-85.45
0
LINE
8
Black
10
132.55
20
-85.45
11
132.55
21
-84.25
0
LINE
8
Black
10
132.55
20
-84.25
11
133.45
21
-84.25
0
LINE
8
Black
10
133.45
20
-84.25
11
133.45
21
-85.45
0
LINE
8
Black
10
156.2
20
-84.5
11
155.3
21
-84.5
0
LINE
8
Black
10
155.3
20
-84.5
11
155.3
21
-83.3
0
LINE
8
Black
10
155.3
20
-83.3
11
156.2
21
-83.3
0
LINE
8
Black
10
156.2
20
-83.3
11
156.2
21
-84.5
0
LINE
8
Black
10
154.45
20
-84.5
11
153.55
21
-84.5
0
LINE
8
Black
10
153.55
20
-84.5
11
153.55
21
-83.3
0
LINE
8
Black
10
153.55
20
-83.3
11
154.45
21
-83.3
0
LINE
8
Black
10
154.45
20
-83.3
11
154.45
21
-84.5
0
LINE
8
Black
10
150.5
20
-84.2
11
149.3
21
-84.2
0
LINE
8
Black
10
149.3
20
-84.2
11
149.3
21
-83.3
0
LINE
8
Black
10
149.3
20
-83.3
11
150.5
21
-83.3
0
LINE
8
Black
10
150.5
20
-83.3
11
150.5
21
-84.2
0
LINE
8
Black
10
152.7
20
-84.2
11
151.5
21
-84.2
0
LINE
8
Black
10
151.5
20
-84.2
11
151.5
21
-83.3
0
LINE
8
Black
10
151.5
20
-83.3
11
152.7
21
-83.3
0
LINE
8
Black
10
152.7
20
-83.3
11
152.7
21
-84.2
0
LINE
8
Black
10
135.61
20
-81.9952
11
135.836
21
-82.1255
0
LINE
8
Black
10
135.836
20
-82.1255
11
136.003
21
-82.325
0
LINE
8
Black
10
136.003
20
-82.325
11
136.092
21
-82.5698
0
LINE
8
Black
10
136.092
20
-82.5698
11
136.092
21
-82.8302
0
LINE
8
Black
10
136.092
20
-82.8302
11
136.003
21
-83.075
0
LINE
8
Black
10
136.003
20
-83.075
11
135.836
21
-83.2745
0
LINE
8
Black
10
135.836
20
-83.2745
11
135.61
21
-83.4048
0
LINE
8
Black
10
135.61
20
-83.4048
11
135.354
21
-83.45
0
LINE
8
Black
10
135.354
20
-83.45
11
134.846
21
-83.45
0
LINE
8
Black
10
134.846
20
-83.45
11
134.59
21
-83.4048
0
LINE
8
Black
10
134.59
20
-83.4048
11
134.364
21
-83.2745
0
LINE
8
Black
10
134.364
20
-83.2745
11
134.197
21
-83.075
0
LINE
8
Black
10
134.197
20
-83.075
11
134.108
21
-82.8302
0
LINE
8
Black
10
134.108
20
-82.8302
11
134.108
21
-82.5698
0
LINE
8
Black
10
134.108
20
-82.5698
11
134.197
21
-82.325
0
LINE
8
Black
10
134.197
20
-82.325
11
134.364
21
-82.1255
0
LINE
8
Black
10
134.364
20
-82.1255
11
134.59
21
-81.9952
0
LINE
8
Black
10
134.59
20
-81.9952
11
134.846
21
-81.95
0
LINE
8
Black
10
134.846
20
-81.95
11
135.354
21
-81.95
0
LINE
8
Black
10
135.354
20
-81.95
11
135.61
21
-81.9952
0
LINE
8
Black
10
133.45
20
-83.25
11
132.55
21
-83.25
0
LINE
8
Black
10
132.55
20
-83.25
11
132.55
21
-82.05
0
LINE
8
Black
10
132.55
20
-82.05
11
133.45
21
-82.05
0
LINE
8
Black
10
133.45
20
-82.05
11
133.45
21
-83.25
0
LINE
8
Black
10
153.3
20
-82.807
11
152.7
21
-82.807
0
LINE
8
Black
10
152.7
20
-82.807
11
152.7
21
-81.8063
0
LINE
8
Black
10
152.7
20
-81.8063
11
153.3
21
-81.8063
0
LINE
8
Black
10
153.3
20
-81.8063
11
153.3
21
-82.807
0
LINE
8
Black
10
154.252
20
-82.807
11
153.653
21
-82.807
0
LINE
8
Black
10
153.653
20
-82.807
11
153.653
21
-81.8063
0
LINE
8
Black
10
153.653
20
-81.8063
11
154.252
21
-81.8063
0
LINE
8
Black
10
154.252
20
-81.8063
11
154.252
21
-82.807
0
LINE
8
Black
10
152.347
20
-82.807
11
151.748
21
-82.807
0
LINE
8
Black
10
151.748
20
-82.807
11
151.748
21
-81.8063
0
LINE
8
Black
10
151.748
20
-81.8063
11
152.347
21
-81.8063
0
LINE
8
Black
10
152.347
20
-81.8063
11
152.347
21
-82.807
0
LINE
8
Black
10
149.2
20
-82.45
11
148.3
21
-82.45
0
LINE
8
Black
10
148.3
20
-82.45
11
148.3
21
-81.25
0
LINE
8
Black
10
148.3
20
-81.25
11
149.2
21
-81.25
0
LINE
8
Black
10
149.2
20
-81.25
11
149.2
21
-82.45
0
LINE
8
Black
10
150.95
20
-82.45
11
150.05
21
-82.45
0
LINE
8
Black
10
150.05
20
-82.45
11
150.05
21
-81.25
0
LINE
8
Black
10
150.05
20
-81.25
11
150.95
21
-81.25
0
LINE
8
Black
10
150.95
20
-81.25
11
150.95
21
-82.45
0
LINE
8
Black
10
142.701
20
-78.7493
11
143.229
21
-79.0543
0
LINE
8
Black
10
143.229
20
-79.0543
11
143.621
21
-79.5217
0
LINE
8
Black
10
143.621
20
-79.5217
11
143.83
21
-80.095
0
LINE
8
Black
10
143.83
20
-80.095
11
143.83
21
-80.705
0
LINE
8
Black
10
143.83
20
-80.705
11
143.621
21
-81.2783
0
LINE
8
Black
10
143.621
20
-81.2783
11
143.229
21
-81.7457
0
LINE
8
Black
10
143.229
20
-81.7457
11
142.701
21
-82.0507
0
LINE
8
Black
10
142.701
20
-82.0507
11
142.1
21
-82.1567
0
LINE
8
Black
10
142.1
20
-82.1567
11
141.499
21
-82.0507
0
LINE
8
Black
10
141.499
20
-82.0507
11
140.971
21
-81.7457
0
LINE
8
Black
10
140.971
20
-81.7457
11
140.579
21
-81.2783
0
LINE
8
Black
10
140.579
20
-81.2783
11
140.37
21
-80.705
0
LINE
8
Black
10
140.37
20
-80.705
11
140.37
21
-80.095
0
LINE
8
Black
10
140.37
20
-80.095
11
140.579
21
-79.5217
0
LINE
8
Black
10
140.579
20
-79.5217
11
140.971
21
-79.0543
0
LINE
8
Black
10
140.971
20
-79.0543
11
141.499
21
-78.7493
0
LINE
8
Black
10
141.499
20
-78.7493
11
142.1
21
-78.6433
0
LINE
8
Black
10
142.1
20
-78.6433
11
142.701
21
-78.7493
0
LINE
8
Black
10
152.347
20
-80.6937
11
151.748
21
-80.6937
0
LINE
8
Black
10
151.748
20
-80.6937
11
151.748
21
-79.693
0
LINE
8
Black
10
151.748
20
-79.693
11
152.347
21
-79.693
0
LINE
8
Black
10
152.347
20
-79.693
11
152.347
21
-80.6937
0
LINE
8
Black
10
153.3
20
-80.6937
11
152.7
21
-80.6937
0
LINE
8
Black
10
152.7
20
-80.6937
11
152.7
21
-79.693
0
LINE
8
Black
10
152.7
20
-79.693
11
153.3
21
-79.693
0
LINE
8
Black
10
153.3
20
-79.693
11
153.3
21
-80.6937
0
LINE
8
Black
10
154.252
20
-80.6937
11
153.653
21
-80.6937
0
LINE
8
Black
10
153.653
20
-80.6937
11
153.653
21
-79.693
0
LINE
8
Black
10
153.653
20
-79.693
11
154.252
21
-79.693
0
LINE
8
Black
10
154.252
20
-79.693
11
154.252
21
-80.6937
0
LINE
8
Black
10
150.95
20
-80.25
11
150.05
21
-80.25
0
LINE
8
Black
10
150.05
20
-80.25
11
150.05
21
-79.05
0
LINE
8
Black
10
150.05
20
-79.05
11
150.95
21
-79.05
0
LINE
8
Black
10
150.95
20
-79.05
11
150.95
21
-80.25
0
LINE
8
Black
10
149.2
20
-80.25
11
148.3
21
-80.25
0
LINE
8
Black
10
148.3
20
-80.25
11
148.3
21
-79.05
0
LINE
8
Black
10
148.3
20
-79.05
11
149.2
21
-79.05
0
LINE
8
Black
10
149.2
20
-79.05
11
149.2
21
-80.25
0
LINE
8
Black
10
126.105
20
-79.425
11
125.505
21
-79.425
0
LINE
8
Black
10
125.505
20
-79.425
11
125.505
21
-77.875
0
LINE
8
Black
10
125.505
20
-77.875
11
126.105
21
-77.875
0
LINE
8
Black
10
126.105
20
-77.875
11
126.105
21
-79.425
0
LINE
8
Black
10
124.835
20
-79.425
11
124.235
21
-79.425
0
LINE
8
Black
10
124.235
20
-79.425
11
124.235
21
-77.875
0
LINE
8
Black
10
124.235
20
-77.875
11
124.835
21
-77.875
0
LINE
8
Black
10
124.835
20
-77.875
11
124.835
21
-79.425
0
LINE
8
Black
10
123.565
20
-79.425
11
122.965
21
-79.425
0
LINE
8
Black
10
122.965
20
-79.425
11
122.965
21
-77.875
0
LINE
8
Black
10
122.965
20
-77.875
11
123.565
21
-77.875
0
LINE
8
Black
10
123.565
20
-77.875
11
123.565
21
-79.425
0
LINE
8
Black
10
122.295
20
-79.425
11
121.695
21
-79.425
0
LINE
8
Black
10
121.695
20
-79.425
11
121.695
21
-77.875
0
LINE
8
Black
10
121.695
20
-77.875
11
122.295
21
-77.875
0
LINE
8
Black
10
122.295
20
-77.875
11
122.295
21
-79.425
0
LINE
8
Black
10
130.45
20
-79.2
11
129.25
21
-79.2
0
LINE
8
Black
10
129.25
20
-79.2
11
129.25
21
-78.3
0
LINE
8
Black
10
129.25
20
-78.3
11
130.45
21
-78.3
0
LINE
8
Black
10
130.45
20
-78.3
11
130.45
21
-79.2
0
LINE
8
Black
10
128.25
20
-79.2
11
127.05
21
-79.2
0
LINE
8
Black
10
127.05
20
-79.2
11
127.05
21
-78.3
0
LINE
8
Black
10
127.05
20
-78.3
11
128.25
21
-78.3
0
LINE
8
Black
10
128.25
20
-78.3
11
128.25
21
-79.2
0
LINE
8
Black
10
149.652
20
-78.6
11
147.851
21
-78.6
0
LINE
8
Black
10
147.851
20
-78.6
11
147.851
21
-77.7999
0
LINE
8
Black
10
147.851
20
-77.7999
11
149.652
21
-77.7999
0
LINE
8
Black
10
149.652
20
-77.7999
11
149.652
21
-78.6
0
LINE
8
Black
10
120.601
20
-78.476
11
119.001
21
-78.476
0
LINE
8
Black
10
119.001
20
-78.476
11
119.001
21
-75.2756
0
LINE
8
Black
10
119.001
20
-75.2756
11
120.601
21
-75.2756
0
LINE
8
Black
10
120.601
20
-75.2756
11
120.601
21
-78.476
0
LINE
8
Black
10
115.999
20
-78.476
11
114.399
21
-78.476
0
LINE
8
Black
10
114.399
20
-78.476
11
114.399
21
-75.2756
0
LINE
8
Black
10
114.399
20
-75.2756
11
115.999
21
-75.2756
0
LINE
8
Black
10
115.999
20
-75.2756
11
115.999
21
-78.476
0
LINE
8
Black
10
150.875
20
-78.3
11
150.125
21
-78.3
0
LINE
8
Black
10
150.125
20
-78.3
11
150.125
21
-77.1
0
LINE
8
Black
10
150.125
20
-77.1
11
150.875
21
-77.1
0
LINE
8
Black
10
150.875
20
-77.1
11
150.875
21
-78.3
0
LINE
8
Black
10
152.625
20
-78.3
11
151.875
21
-78.3
0
LINE
8
Black
10
151.875
20
-78.3
11
151.875
21
-77.1
0
LINE
8
Black
10
151.875
20
-77.1
11
152.625
21
-77.1
0
LINE
8
Black
10
152.625
20
-77.1
11
152.625
21
-78.3
0
LINE
8
Black
10
118.45
20
-77.95
11
117.55
21
-77.95
0
LINE
8
Black
10
117.55
20
-77.95
11
117.55
21
-76.75
0
LINE
8
Black
10
117.55
20
-76.75
11
118.45
21
-76.75
0
LINE
8
Black
10
118.45
20
-76.75
11
118.45
21
-77.95
0
LINE
8
Black
10
146.649
20
-77.65
11
144.848
21
-77.65
0
LINE
8
Black
10
144.848
20
-77.65
11
144.848
21
-76.8499
0
LINE
8
Black
10
144.848
20
-76.8499
11
146.649
21
-76.8499
0
LINE
8
Black
10
146.649
20
-76.8499
11
146.649
21
-77.65
0
LINE
8
Black
10
130.45
20
-77.45
11
129.25
21
-77.45
0
LINE
8
Black
10
129.25
20
-77.45
11
129.25
21
-76.55
0
LINE
8
Black
10
129.25
20
-76.55
11
130.45
21
-76.55
0
LINE
8
Black
10
130.45
20
-76.55
11
130.45
21
-77.45
0
LINE
8
Black
10
128.25
20
-77.45
11
127.05
21
-77.45
0
LINE
8
Black
10
127.05
20
-77.45
11
127.05
21
-76.55
0
LINE
8
Black
10
127.05
20
-76.55
11
128.25
21
-76.55
0
LINE
8
Black
10
128.25
20
-76.55
11
128.25
21
-77.45
0
LINE
8
Black
10
149.652
20
-76.7
11
147.851
21
-76.7
0
LINE
8
Black
10
147.851
20
-76.7
11
147.851
21
-75.8999
0
LINE
8
Black
10
147.851
20
-75.8999
11
149.652
21
-75.8999
0
LINE
8
Black
10
149.652
20
-75.8999
11
149.652
21
-76.7
0
LINE
8
Black
10
152.625
20
-76.4
11
151.875
21
-76.4
0
LINE
8
Black
10
151.875
20
-76.4
11
151.875
21
-75.2
0
LINE
8
Black
10
151.875
20
-75.2
11
152.625
21
-75.2
0
LINE
8
Black
10
152.625
20
-75.2
11
152.625
21
-76.4
0
LINE
8
Black
10
150.875
20
-76.4
11
150.125
21
-76.4
0
LINE
8
Black
10
150.125
20
-76.4
11
150.125
21
-75.2
0
LINE
8
Black
10
150.125
20
-75.2
11
150.875
21
-75.2
0
LINE
8
Black
10
150.875
20
-75.2
11
150.875
21
-76.4
0
LINE
8
Black
10
118.45
20
-75.75
11
117.55
21
-75.75
0
LINE
8
Black
10
117.55
20
-75.75
11
117.55
21
-74.55
0
LINE
8
Black
10
117.55
20
-74.55
11
118.45
21
-74.55
0
LINE
8
Black
10
118.45
20
-74.55
11
118.45
21
-75.75
0
LINE
8
Black
10
135.1
20
-75.75
11
134.4
21
-75.75
0
LINE
8
Black
10
134.4
20
-75.75
11
134.4
21
-74.25
0
LINE
8
Black
10
134.4
20
-74.25
11
135.1
21
-74.25
0
LINE
8
Black
10
135.1
20
-74.25
11
135.1
21
-75.75
0
LINE
8
Black
10
136.6
20
-75.75
11
135.9
21
-75.75
0
LINE
8
Black
10
135.9
20
-75.75
11
135.9
21
-74.25
0
LINE
8
Black
10
135.9
20
-74.25
11
136.6
21
-74.25
0
LINE
8
Black
10
136.6
20
-74.25
11
136.6
21
-75.75
0
LINE
8
Black
10
139.6
20
-75.75
11
138.9
21
-75.75
0
LINE
8
Black
10
138.9
20
-75.75
11
138.9
21
-74.25
0
LINE
8
Black
10
138.9
20
-74.25
11
139.6
21
-74.25
0
LINE
8
Black
10
139.6
20
-74.25
11
139.6
21
-75.75
0
LINE
8
Black
10
128.25
20
-75.7
11
127.05
21
-75.7
0
LINE
8
Black
10
127.05
20
-75.7
11
127.05
21
-74.8
0
LINE
8
Black
10
127.05
20
-74.8
11
128.25
21
-74.8
0
LINE
8
Black
10
128.25
20
-74.8
11
128.25
21
-75.7
0
LINE
8
Black
10
130.45
20
-75.7
11
129.25
21
-75.7
0
LINE
8
Black
10
129.25
20
-75.7
11
129.25
21
-74.8
0
LINE
8
Black
10
129.25
20
-74.8
11
130.45
21
-74.8
0
LINE
8
Black
10
130.45
20
-74.8
11
130.45
21
-75.7
0
LINE
8
Black
10
147.424
20
-74.9879
11
146.224
21
-74.9879
0
LINE
8
Black
10
146.224
20
-74.9879
11
146.224
21
-74.2379
0
LINE
8
Black
10
146.224
20
-74.2379
11
147.424
21
-74.2379
0
LINE
8
Black
10
147.424
20
-74.2379
11
147.424
21
-74.9879
0
LINE
8
Black
10
149.324
20
-74.9879
11
148.124
21
-74.9879
0
LINE
8
Black
10
148.124
20
-74.9879
11
148.124
21
-74.2379
0
LINE
8
Black
10
148.124
20
-74.2379
11
149.324
21
-74.2379
0
LINE
8
Black
10
149.324
20
-74.2379
11
149.324
21
-74.9879
0
LINE
8
Black
10
133.85
20
-74.75
11
132.85
21
-74.75
0
LINE
8
Black
10
132.85
20
-74.75
11
132.85
21
-73.95
0
LINE
8
Black
10
132.85
20
-73.95
11
133.85
21
-73.95
0
LINE
8
Black
10
133.85
20
-73.95
11
133.85
21
-74.75
0
LINE
8
Black
10
141.15
20
-74.75
11
140.15
21
-74.75
0
LINE
8
Black
10
140.15
20
-74.75
11
140.15
21
-73.95
0
LINE
8
Black
10
140.15
20
-73.95
11
141.15
21
-73.95
0
LINE
8
Black
10
141.15
20
-73.95
11
141.15
21
-74.75
0
LINE
8
Black
10
122.295
20
-74.025
11
121.695
21
-74.025
0
LINE
8
Black
10
121.695
20
-74.025
11
121.695
21
-72.475
0
LINE
8
Black
10
121.695
20
-72.475
11
122.295
21
-72.475
0
LINE
8
Black
10
122.295
20
-72.475
11
122.295
21
-74.025
0
LINE
8
Black
10
123.565
20
-74.025
11
122.965
21
-74.025
0
LINE
8
Black
10
122.965
20
-74.025
11
122.965
21
-72.475
0
LINE
8
Black
10
122.965
20
-72.475
11
123.565
21
-72.475
0
LINE
8
Black
10
123.565
20
-72.475
11
123.565
21
-74.025
0
LINE
8
Black
10
124.835
20
-74.025
11
124.235
21
-74.025
0
LINE
8
Black
10
124.235
20
-74.025
11
124.235
21
-72.475
0
LINE
8
Black
10
124.235
20
-72.475
11
124.835
21
-72.475
0
LINE
8
Black
10
124.835
20
-72.475
11
124.835
21
-74.025
0
LINE
8
Black
10
126.105
20
-74.025
11
125.505
21
-74.025
0
LINE
8
Black
10
125.505
20
-74.025
11
125.505
21
-72.475
0
LINE
8
Black
10
125.505
20
-72.475
11
126.105
21
-72.475
0
LINE
8
Black
10
126.105
20
-72.475
11
126.105
21
-74.025
0
LINE
8
Black
10
135.654
20
-72.8255
11
135.79
21
-72.904
0
LINE
8
Black
10
135.79
20
-72.904
11
135.891
21
-73.0241
0
LINE
8
Black
10
135.891
20
-73.0241
11
135.945
21
-73.1716
0
LINE
8
Black
10
135.945
20
-73.1716
11
135.945
21
-73.3284
0
LINE
8
Black
10
135.945
20
-73.3284
11
135.891
21
-73.4759
0
LINE
8
Black
10
135.891
20
-73.4759
11
135.79
21
-73.596
0
LINE
8
Black
10
135.79
20
-73.596
11
135.654
21
-73.6745
0
LINE
8
Black
10
135.654
20
-73.6745
11
135.5
21
-73.7017
0
LINE
8
Black
10
135.5
20
-73.7017
11
135.346
21
-73.6745
0
LINE
8
Black
10
135.346
20
-73.6745
11
135.21
21
-73.596
0
LINE
8
Black
10
135.21
20
-73.596
11
135.109
21
-73.4759
0
LINE
8
Black
10
135.109
20
-73.4759
11
135.055
21
-73.3284
0
LINE
8
Black
10
135.055
20
-73.3284
11
135.055
21
-73.1716
0
LINE
8
Black
10
135.055
20
-73.1716
11
135.109
21
-73.0241
0
LINE
8
Black
10
135.109
20
-73.0241
11
135.21
21
-72.904
0
LINE
8
Black
10
135.21
20
-72.904
11
135.346
21
-72.8255
0
LINE
8
Black
10
135.346
20
-72.8255
11
135.5
21
-72.7983
0
LINE
8
Black
10
135.5
20
-72.7983
11
135.654
21
-72.8255
0
LINE
8
Black
10
138.654
20
-72.8255
11
138.79
21
-72.904
0
LINE
8
Black
10
138.79
20
-72.904
11
138.891
21
-73.0241
0
LINE
8
Black
10
138.891
20
-73.0241
11
138.945
21
-73.1716
0
LINE
8
Black
10
138.945
20
-73.1716
11
138.945
21
-73.3284
0
LINE
8
Black
10
138.945
20
-73.3284
11
138.891
21
-73.4759
0
LINE
8
Black
10
138.891
20
-73.4759
11
138.79
21
-73.596
0
LINE
8
Black
10
138.79
20
-73.596
11
138.654
21
-73.6745
0
LINE
8
Black
10
138.654
20
-73.6745
11
138.5
21
-73.7017
0
LINE
8
Black
10
138.5
20
-73.7017
11
138.346
21
-73.6745
0
LINE
8
Black
10
138.346
20
-73.6745
11
138.21
21
-73.596
0
LINE
8
Black
10
138.21
20
-73.596
11
138.109
21
-73.4759
0
LINE
8
Black
10
138.109
20
-73.4759
11
138.055
21
-73.3284
0
LINE
8
Black
10
138.055
20
-73.3284
11
138.055
21
-73.1716
0
LINE
8
Black
10
138.055
20
-73.1716
11
138.109
21
-73.0241
0
LINE
8
Black
10
138.109
20
-73.0241
11
138.21
21
-72.904
0
LINE
8
Black
10
138.21
20
-72.904
11
138.346
21
-72.8255
0
LINE
8
Black
10
138.346
20
-72.8255
11
138.5
21
-72.7983
0
LINE
8
Black
10
138.5
20
-72.7983
11
138.654
21
-72.8255
0
LINE
8
Black
10
141.15
20
-72.55
11
140.15
21
-72.55
0
LINE
8
Black
10
140.15
20
-72.55
11
140.15
21
-71.75
0
LINE
8
Black
10
140.15
20
-71.75
11
141.15
21
-71.75
0
LINE
8
Black
10
141.15
20
-71.75
11
141.15
21
-72.55
0
LINE
8
Black
10
133.85
20
-72.55
11
132.85
21
-72.55
0
LINE
8
Black
10
132.85
20
-72.55
11
132.85
21
-71.75
0
LINE
8
Black
10
132.85
20
-71.75
11
133.85
21
-71.75
0
LINE
8
Black
10
133.85
20
-71.75
11
133.85
21
-72.55
0
LINE
8
Black
10
123.15
20
-71.375
11
121.95
21
-71.375
0
LINE
8
Black
10
121.95
20
-71.375
11
121.95
21
-70.625
0
LINE
8
Black
10
121.95
20
-70.625
11
123.15
21
-70.625
0
LINE
8
Black
10
123.15
20
-70.625
11
123.15
21
-71.375
0
LINE
8
Black
10
125.05
20
-71.375
11
123.85
21
-71.375
0
LINE
8
Black
10
123.85
20
-71.375
11
123.85
21
-70.625
0
LINE
8
Black
10
123.85
20
-70.625
11
125.05
21
-70.625
0
LINE
8
Black
10
125.05
20
-70.625
11
125.05
21
-71.375
  0
ENDSEC
  0
EOF
