  0
SECTION
  2
HEADER
  9
$ANGBASE
  50
0.0
  9
$ANGDIR
  70
  1
  9
$MEASUREMENT
  70
0
  0
ENDSEC
  0
SECTION
  2
TABLES
  0
TABLE
  2
LTYPE
  70
1
  0
LTYPE
  2
CONTINUOUS
  70
0
  3
Solid line
  72
65
  73
0
  40
0.0
  0
ENDTAB
  0
TABLE
  2
STYLE
  70
4
  0
STYLE
  2
KICAD
  70
0
  40
0
  41
1
  42
1
  50
0
  71
0
  3
isocp.shx
  0
STYLE
  2
KICADB
  70
0
  40
0
  41
1
  42
1
  50
0
  71
0
  3
isocp.shx
  0
STYLE
  2
KICADI
  70
0
  40
0
  41
1
  42
1
  50
15
  71
0
  3
isocp.shx
  0
STYLE
  2
KICADBI
  70
0
  40
0
  41
1
  42
1
  50
15
  71
0
  3
isocp.shx
  0
ENDTAB
  0
TABLE
  2
LAYER
  70
30
  0
LAYER
  2
BLACK
  70
0
  62
7
  6
CONTINUOUS
  0
LAYER
  2
GRAY1
  70
0
  62
251
  6
CONTINUOUS
  0
LAYER
  2
GRAY2
  70
0
  62
8
  6
CONTINUOUS
  0
LAYER
  2
GRAY3
  70
0
  62
9
  6
CONTINUOUS
  0
LAYER
  2
WHITE
  70
0
  62
7
  6
CONTINUOUS
  0
LAYER
  2
LYELLOW
  70
0
  62
51
  6
CONTINUOUS
  0
LAYER
  2
BLUE1
  70
0
  62
178
  6
CONTINUOUS
  0
LAYER
  2
GREEN1
  70
0
  62
98
  6
CONTINUOUS
  0
LAYER
  2
CYAN1
  70
0
  62
138
  6
CONTINUOUS
  0
LAYER
  2
RED1
  70
0
  62
18
  6
CONTINUOUS
  0
LAYER
  2
MAGENTA1
  70
0
  62
228
  6
CONTINUOUS
  0
LAYER
  2
BROWN1
  70
0
  62
58
  6
CONTINUOUS
  0
LAYER
  2
BLUE2
  70
0
  62
5
  6
CONTINUOUS
  0
LAYER
  2
GREEN2
  70
0
  62
3
  6
CONTINUOUS
  0
LAYER
  2
CYAN2
  70
0
  62
4
  6
CONTINUOUS
  0
LAYER
  2
RED2
  70
0
  62
1
  6
CONTINUOUS
  0
LAYER
  2
MAGENTA2
  70
0
  62
6
  6
CONTINUOUS
  0
LAYER
  2
BROWN2
  70
0
  62
54
  6
CONTINUOUS
  0
LAYER
  2
BLUE3
  70
0
  62
171
  6
CONTINUOUS
  0
LAYER
  2
GREEN3
  70
0
  62
91
  6
CONTINUOUS
  0
LAYER
  2
CYAN3
  70
0
  62
131
  6
CONTINUOUS
  0
LAYER
  2
RED3
  70
0
  62
11
  6
CONTINUOUS
  0
LAYER
  2
MAGENTA3
  70
0
  62
221
  6
CONTINUOUS
  0
LAYER
  2
YELLOW3
  70
0
  62
2
  6
CONTINUOUS
  0
LAYER
  2
BLUE4
  70
0
  62
5
  6
CONTINUOUS
  0
LAYER
  2
GREEN4
  70
0
  62
3
  6
CONTINUOUS
  0
LAYER
  2
CYAN4
  70
0
  62
4
  6
CONTINUOUS
  0
LAYER
  2
RED4
  70
0
  62
1
  6
CONTINUOUS
  0
LAYER
  2
MAGENTA4
  70
0
  62
6
  6
CONTINUOUS
  0
LAYER
  2
YELLOW4
  70
0
  62
2
  6
CONTINUOUS
  0
ENDTAB
  0
ENDSEC
  0
SECTION
  2
ENTITIES
0
LINE
8
Black
10
157.248
20
-73.7364
11
157.82
21
-73.6713
0
LINE
8
Black
10
157.82
20
-73.6713
11
157.827
21
-73.6717
0
LINE
8
Black
10
157.827
20
-73.6717
11
157.834
21
-73.6705
0
LINE
8
Black
10
157.834
20
-73.6705
11
158.7
21
-73.6705
0
LINE
8
Black
10
158.7
20
-73.6705
11
158.711
21
-73.6724
0
LINE
8
Black
10
158.711
20
-73.6724
11
158.722
21
-73.6724
0
LINE
8
Black
10
158.722
20
-73.6724
11
158.732
21
-73.6762
0
LINE
8
Black
10
158.732
20
-73.6762
11
158.743
21
-73.6781
0
LINE
8
Black
10
158.743
20
-73.6781
11
158.753
21
-73.6837
0
LINE
8
Black
10
158.753
20
-73.6837
11
158.763
21
-73.6875
0
LINE
8
Black
10
158.763
20
-73.6875
11
158.772
21
-73.6946
0
LINE
8
Black
10
158.772
20
-73.6946
11
158.781
21
-73.7002
0
LINE
8
Black
10
158.781
20
-73.7002
11
158.788
21
-73.7087
0
LINE
8
Black
10
158.788
20
-73.7087
11
158.797
21
-73.7158
0
LINE
8
Black
10
158.797
20
-73.7158
11
158.803
21
-73.7255
0
LINE
8
Black
10
158.803
20
-73.7255
11
158.81
21
-73.734
0
LINE
8
Black
10
158.81
20
-73.734
11
158.813
21
-73.7444
0
LINE
8
Black
10
158.813
20
-73.7444
11
158.819
21
-73.754
0
LINE
8
Black
10
158.819
20
-73.754
11
158.821
21
-73.765
0
LINE
8
Black
10
158.821
20
-73.765
11
158.825
21
-73.7754
0
LINE
8
Black
10
158.825
20
-73.7754
11
158.825
21
-73.7865
0
LINE
8
Black
10
158.825
20
-73.7865
11
158.827
21
-73.7975
0
LINE
8
Black
10
158.827
20
-73.7975
11
158.827
21
-96.5435
0
LINE
8
Black
10
158.827
20
-96.5435
11
158.825
21
-96.5544
0
LINE
8
Black
10
158.825
20
-96.5544
11
158.825
21
-96.5655
0
LINE
8
Black
10
158.825
20
-96.5655
11
158.821
21
-96.576
0
LINE
8
Black
10
158.821
20
-96.576
11
158.819
21
-96.5869
0
LINE
8
Black
10
158.819
20
-96.5869
11
158.813
21
-96.5965
0
LINE
8
Black
10
158.813
20
-96.5965
11
158.81
21
-96.607
0
LINE
8
Black
10
158.81
20
-96.607
11
158.803
21
-96.6155
0
LINE
8
Black
10
158.803
20
-96.6155
11
158.797
21
-96.6251
0
LINE
8
Black
10
158.797
20
-96.6251
11
158.788
21
-96.6322
0
LINE
8
Black
10
158.788
20
-96.6322
11
158.781
21
-96.6408
0
LINE
8
Black
10
158.781
20
-96.6408
11
158.772
21
-96.6463
0
LINE
8
Black
10
158.772
20
-96.6463
11
158.763
21
-96.6535
0
LINE
8
Black
10
158.763
20
-96.6535
11
158.753
21
-96.6573
0
LINE
8
Black
10
158.753
20
-96.6573
11
158.743
21
-96.6628
0
LINE
8
Black
10
158.743
20
-96.6628
11
158.732
21
-96.6647
0
LINE
8
Black
10
158.732
20
-96.6647
11
158.722
21
-96.6685
0
LINE
8
Black
10
158.722
20
-96.6685
11
158.711
21
-96.6685
0
LINE
8
Black
10
158.711
20
-96.6685
11
158.7
21
-96.6705
0
LINE
8
Black
10
158.7
20
-96.6705
11
157.854
21
-96.6705
0
LINE
8
Black
10
157.854
20
-96.6705
11
157.842
21
-96.6683
0
LINE
8
Black
10
157.842
20
-96.6683
11
157.829
21
-96.668
0
LINE
8
Black
10
157.829
20
-96.668
11
157.538
21
-96.61
0
LINE
8
Black
10
157.538
20
-96.61
11
157.476
21
-96.61
0
LINE
8
Black
10
157.476
20
-96.61
11
157.471
21
-96.6091
0
LINE
8
Black
10
157.471
20
-96.6091
11
157.466
21
-96.6096
0
LINE
8
Black
10
157.466
20
-96.6096
11
157.405
21
-96.6045
0
LINE
8
Black
10
157.405
20
-96.6045
11
156.819
21
-96.6713
0
LINE
8
Black
10
156.819
20
-96.6713
11
156.807
21
-96.6752
0
LINE
8
Black
10
156.807
20
-96.6752
11
156.807
21
-96.6752
0
LINE
8
Black
10
156.807
20
-96.6752
11
156.666
21
-96.7204
0
LINE
8
Black
10
156.666
20
-96.7204
11
156.15
21
-97.0063
0
LINE
8
Black
10
156.15
20
-97.0063
11
156.027
21
-97.1103
0
LINE
8
Black
10
156.027
20
-97.1103
11
155.66
21
-97.5717
0
LINE
8
Black
10
155.66
20
-97.5717
11
155.587
21
-97.7149
0
LINE
8
Black
10
155.587
20
-97.7149
11
155.424
21
-98.2816
0
LINE
8
Black
10
155.424
20
-98.2816
11
155.417
21
-98.3696
0
LINE
8
Black
10
155.417
20
-98.3696
11
155.411
21
-98.4422
0
LINE
8
Black
10
155.411
20
-98.4422
11
155.476
21
-99.0134
0
LINE
8
Black
10
155.476
20
-99.0134
11
155.475
21
-99.0207
0
LINE
8
Black
10
155.475
20
-99.0207
11
155.477
21
-99.0278
0
LINE
8
Black
10
155.477
20
-99.0278
11
155.477
21
-99.8935
0
LINE
8
Black
10
155.477
20
-99.8935
11
155.475
21
-99.9044
0
LINE
8
Black
10
155.475
20
-99.9044
11
155.475
21
-99.9155
0
LINE
8
Black
10
155.475
20
-99.9155
11
155.471
21
-99.926
0
LINE
8
Black
10
155.471
20
-99.926
11
155.469
21
-99.9369
0
LINE
8
Black
10
155.469
20
-99.9369
11
155.463
21
-99.9465
0
LINE
8
Black
10
155.463
20
-99.9465
11
155.46
21
-99.957
0
LINE
8
Black
10
155.46
20
-99.957
11
155.453
21
-99.9655
0
LINE
8
Black
10
155.453
20
-99.9655
11
155.447
21
-99.9751
0
LINE
8
Black
10
155.447
20
-99.9751
11
155.438
21
-99.9822
0
LINE
8
Black
10
155.438
20
-99.9822
11
155.431
21
-99.9908
0
LINE
8
Black
10
155.431
20
-99.9908
11
155.422
21
-99.9963
0
LINE
8
Black
10
155.422
20
-99.9963
11
155.413
21
-100.003
0
LINE
8
Black
10
155.413
20
-100.003
11
155.403
21
-100.007
0
LINE
8
Black
10
155.403
20
-100.007
11
155.393
21
-100.013
0
LINE
8
Black
10
155.393
20
-100.013
11
155.382
21
-100.015
0
LINE
8
Black
10
155.382
20
-100.015
11
155.372
21
-100.019
0
LINE
8
Black
10
155.372
20
-100.019
11
155.361
21
-100.019
0
LINE
8
Black
10
155.361
20
-100.019
11
155.35
21
-100.02
0
LINE
8
Black
10
155.35
20
-100.02
11
121.627
21
-100.02
0
LINE
8
Black
10
121.627
20
-100.02
11
121.625
21
-100.02
0
LINE
8
Black
10
121.625
20
-100.02
11
121.623
21
-100.02
0
LINE
8
Black
10
121.623
20
-100.02
11
113.704
21
-100.02
0
LINE
8
Black
10
113.704
20
-100.02
11
113.693
21
-100.019
0
LINE
8
Black
10
113.693
20
-100.019
11
113.682
21
-100.019
0
LINE
8
Black
10
113.682
20
-100.019
11
113.671
21
-100.015
0
LINE
8
Black
10
113.671
20
-100.015
11
113.66
21
-100.013
0
LINE
8
Black
10
113.66
20
-100.013
11
113.651
21
-100.007
0
LINE
8
Black
10
113.651
20
-100.007
11
113.64
21
-100.003
0
LINE
8
Black
10
113.64
20
-100.003
11
113.632
21
-99.9963
0
LINE
8
Black
10
113.632
20
-99.9963
11
113.622
21
-99.9908
0
LINE
8
Black
10
113.622
20
-99.9908
11
113.615
21
-99.9822
0
LINE
8
Black
10
113.615
20
-99.9822
11
113.606
21
-99.9751
0
LINE
8
Black
10
113.606
20
-99.9751
11
113.601
21
-99.9655
0
LINE
8
Black
10
113.601
20
-99.9655
11
113.594
21
-99.957
0
LINE
8
Black
10
113.594
20
-99.957
11
113.59
21
-99.9465
0
LINE
8
Black
10
113.59
20
-99.9465
11
113.584
21
-99.9369
0
LINE
8
Black
10
113.584
20
-99.9369
11
113.582
21
-99.926
0
LINE
8
Black
10
113.582
20
-99.926
11
113.579
21
-99.9155
0
LINE
8
Black
10
113.579
20
-99.9155
11
113.579
21
-99.9044
0
LINE
8
Black
10
113.579
20
-99.9044
11
113.577
21
-99.8935
0
LINE
8
Black
10
113.577
20
-99.8935
11
113.577
21
-99.0477
0
LINE
8
Black
10
113.577
20
-99.0477
11
113.579
21
-99.0354
0
LINE
8
Black
10
113.579
20
-99.0354
11
113.579
21
-99.0229
0
LINE
8
Black
10
113.579
20
-99.0229
11
113.637
21
-98.7314
0
LINE
8
Black
10
113.637
20
-98.7314
11
113.637
21
-98.6702
0
LINE
8
Black
10
113.637
20
-98.6702
11
113.638
21
-98.665
0
LINE
8
Black
10
113.638
20
-98.665
11
113.638
21
-98.6597
0
LINE
8
Black
10
113.638
20
-98.6597
11
113.643
21
-98.5987
0
LINE
8
Black
10
113.643
20
-98.5987
11
113.576
21
-98.013
0
LINE
8
Black
10
113.576
20
-98.013
11
113.566
21
-97.9819
0
LINE
8
Black
10
113.566
20
-97.9819
11
113.555
21
-97.9475
0
LINE
8
Black
10
113.555
20
-97.9475
11
113.527
21
-97.8596
0
LINE
8
Black
10
113.527
20
-97.8596
11
113.241
21
-97.344
0
LINE
8
Black
10
113.241
20
-97.344
11
113.137
21
-97.2211
0
LINE
8
Black
10
113.137
20
-97.2211
11
112.675
21
-96.8541
0
LINE
8
Black
10
112.675
20
-96.8541
11
112.601
21
-96.816
0
LINE
8
Black
10
112.601
20
-96.816
11
112.601
21
-96.816
0
LINE
8
Black
10
112.601
20
-96.816
11
112.532
21
-96.7803
0
LINE
8
Black
10
112.532
20
-96.7803
11
111.966
21
-96.6179
0
LINE
8
Black
10
111.966
20
-96.6179
11
111.878
21
-96.6106
0
LINE
8
Black
10
111.878
20
-96.6106
11
111.805
21
-96.6045
0
LINE
8
Black
10
111.805
20
-96.6045
11
111.234
21
-96.6696
0
LINE
8
Black
10
111.234
20
-96.6696
11
111.227
21
-96.6692
0
LINE
8
Black
10
111.227
20
-96.6692
11
111.219
21
-96.6705
0
LINE
8
Black
10
111.219
20
-96.6705
11
110.354
21
-96.6705
0
LINE
8
Black
10
110.354
20
-96.6705
11
110.343
21
-96.6685
0
LINE
8
Black
10
110.343
20
-96.6685
11
110.332
21
-96.6685
0
LINE
8
Black
10
110.332
20
-96.6685
11
110.321
21
-96.6647
0
LINE
8
Black
10
110.321
20
-96.6647
11
110.31
21
-96.6628
0
LINE
8
Black
10
110.31
20
-96.6628
11
110.301
21
-96.6573
0
LINE
8
Black
10
110.301
20
-96.6573
11
110.29
21
-96.6535
0
LINE
8
Black
10
110.29
20
-96.6535
11
110.282
21
-96.6463
0
LINE
8
Black
10
110.282
20
-96.6463
11
110.272
21
-96.6408
0
LINE
8
Black
10
110.272
20
-96.6408
11
110.265
21
-96.6322
0
LINE
8
Black
10
110.265
20
-96.6322
11
110.256
21
-96.6251
0
LINE
8
Black
10
110.256
20
-96.6251
11
110.251
21
-96.6155
0
LINE
8
Black
10
110.251
20
-96.6155
11
110.244
21
-96.607
0
LINE
8
Black
10
110.244
20
-96.607
11
110.24
21
-96.5965
0
LINE
8
Black
10
110.24
20
-96.5965
11
110.234
21
-96.5869
0
LINE
8
Black
10
110.234
20
-96.5869
11
110.232
21
-96.576
0
LINE
8
Black
10
110.232
20
-96.576
11
110.229
21
-96.5655
0
LINE
8
Black
10
110.229
20
-96.5655
11
110.229
21
-96.5544
0
LINE
8
Black
10
110.229
20
-96.5544
11
110.227
21
-96.5435
0
LINE
8
Black
10
110.227
20
-96.5435
11
110.227
21
-92.627
0
LINE
8
Black
10
110.227
20
-92.627
11
110.229
21
-92.6161
0
LINE
8
Black
10
110.229
20
-92.6161
11
110.229
21
-92.6049
0
LINE
8
Black
10
110.229
20
-92.6049
11
110.232
21
-92.5945
0
LINE
8
Black
10
110.232
20
-92.5945
11
110.234
21
-92.5836
0
LINE
8
Black
10
110.234
20
-92.5836
11
110.24
21
-92.5739
0
LINE
8
Black
10
110.24
20
-92.5739
11
110.244
21
-92.5635
0
LINE
8
Black
10
110.244
20
-92.5635
11
110.251
21
-92.555
0
LINE
8
Black
10
110.251
20
-92.555
11
110.256
21
-92.5454
0
LINE
8
Black
10
110.256
20
-92.5454
11
110.265
21
-92.5382
0
LINE
8
Black
10
110.265
20
-92.5382
11
110.272
21
-92.5297
0
LINE
8
Black
10
110.272
20
-92.5297
11
110.282
21
-92.5242
0
LINE
8
Black
10
110.282
20
-92.5242
11
110.29
21
-92.517
0
LINE
8
Black
10
110.29
20
-92.517
11
110.301
21
-92.5132
0
LINE
8
Black
10
110.301
20
-92.5132
11
110.31
21
-92.5077
0
LINE
8
Black
10
110.31
20
-92.5077
11
110.321
21
-92.5057
0
LINE
8
Black
10
110.321
20
-92.5057
11
110.332
21
-92.5019
0
LINE
8
Black
10
110.332
20
-92.5019
11
110.343
21
-92.5019
0
LINE
8
Black
10
110.343
20
-92.5019
11
110.354
21
-92.5
0
LINE
8
Black
10
110.354
20
-92.5
11
121.5
21
-92.5
0
LINE
8
Black
10
121.5
20
-92.5
11
121.5
21
-87.2032
0
LINE
8
Black
10
121.5
20
-87.2032
11
121.501
21
-87.1963
0
LINE
8
Black
10
121.501
20
-87.1963
11
121.501
21
-87.1894
0
LINE
8
Black
10
121.501
20
-87.1894
11
121.505
21
-87.1747
0
LINE
8
Black
10
121.505
20
-87.1747
11
121.508
21
-87.1598
0
LINE
8
Black
10
121.508
20
-87.1598
11
121.511
21
-87.1537
0
LINE
8
Black
10
121.511
20
-87.1537
11
121.513
21
-87.147
0
LINE
8
Black
10
121.513
20
-87.147
11
121.522
21
-87.1347
0
LINE
8
Black
10
121.522
20
-87.1347
11
121.53
21
-87.1216
0
LINE
8
Black
10
121.53
20
-87.1216
11
121.535
21
-87.1171
0
LINE
8
Black
10
121.535
20
-87.1171
11
121.539
21
-87.1114
0
LINE
8
Black
10
121.539
20
-87.1114
11
121.552
21
-87.103
0
LINE
8
Black
10
121.552
20
-87.103
11
121.563
21
-87.0932
0
LINE
8
Black
10
121.563
20
-87.0932
11
121.57
21
-87.0908
0
LINE
8
Black
10
121.57
20
-87.0908
11
121.576
21
-87.0869
0
LINE
8
Black
10
121.576
20
-87.0869
11
121.591
21
-87.0833
0
LINE
8
Black
10
121.591
20
-87.0833
11
121.605
21
-87.0781
0
LINE
8
Black
10
121.605
20
-87.0781
11
121.612
21
-87.0781
0
LINE
8
Black
10
121.612
20
-87.0781
11
121.619
21
-87.0765
0
LINE
8
Black
10
121.619
20
-87.0765
11
121.634
21
-87.0781
0
LINE
8
Black
10
121.634
20
-87.0781
11
121.649
21
-87.0781
0
LINE
8
Black
10
121.649
20
-87.0781
11
121.656
21
-87.0805
0
LINE
8
Black
10
121.656
20
-87.0805
11
121.663
21
-87.0813
0
LINE
8
Black
10
121.663
20
-87.0813
11
121.676
21
-87.088
0
LINE
8
Black
10
121.676
20
-87.088
11
121.691
21
-87.0932
0
LINE
8
Black
10
121.691
20
-87.0932
11
121.696
21
-87.0977
0
LINE
8
Black
10
121.696
20
-87.0977
11
121.702
21
-87.1008
0
LINE
8
Black
10
121.702
20
-87.1008
11
121.713
21
-87.1118
0
LINE
8
Black
10
121.713
20
-87.1118
11
121.724
21
-87.1216
0
LINE
8
Black
10
121.724
20
-87.1216
11
121.728
21
-87.1276
0
LINE
8
Black
10
121.728
20
-87.1276
11
121.733
21
-87.1326
0
LINE
8
Black
10
121.733
20
-87.1326
11
122.546
21
-88.3507
0
LINE
8
Black
10
122.546
20
-88.3507
11
123.868
21
-89.2337
0
LINE
8
Black
10
123.868
20
-89.2337
11
123.897
21
-89.217
0
LINE
8
Black
10
123.897
20
-89.217
11
124
21
-89.1989
0
LINE
8
Black
10
124
20
-89.1989
11
124.103
21
-89.217
0
LINE
8
Black
10
124.103
20
-89.217
11
124.194
21
-89.2693
0
LINE
8
Black
10
124.194
20
-89.2693
11
124.261
21
-89.3494
0
LINE
8
Black
10
124.261
20
-89.3494
11
124.271
21
-89.3785
0
LINE
8
Black
10
124.271
20
-89.3785
11
125.727
21
-89.668
0
LINE
8
Black
10
125.727
20
-89.668
11
127.448
21
-89.3256
0
LINE
8
Black
10
127.448
20
-89.3256
11
128.907
21
-88.3507
0
LINE
8
Black
10
128.907
20
-88.3507
11
129.161
21
-87.9706
0
LINE
8
Black
10
129.161
20
-87.9706
11
129.161
21
-87.9706
0
LINE
8
Black
10
129.161
20
-87.9706
11
129.617
21
-87.2883
0
LINE
8
Black
10
129.617
20
-87.2883
11
129.617
21
-87.2883
0
LINE
8
Black
10
129.617
20
-87.2883
11
129.882
21
-86.8916
0
LINE
8
Black
10
129.882
20
-86.8916
11
130.224
21
-85.1705
0
LINE
8
Black
10
130.224
20
-85.1705
11
130.033
21
-84.2099
0
LINE
8
Black
10
130.033
20
-84.2099
11
129.912
21
-84.0884
0
LINE
8
Black
10
129.912
20
-84.0884
11
129.908
21
-84.0839
0
LINE
8
Black
10
129.908
20
-84.0839
11
129.904
21
-84.0803
0
LINE
8
Black
10
129.904
20
-84.0803
11
129.896
21
-84.0662
0
LINE
8
Black
10
129.896
20
-84.0662
11
129.887
21
-84.0528
0
LINE
8
Black
10
129.887
20
-84.0528
11
129.885
21
-84.0475
0
LINE
8
Black
10
129.885
20
-84.0475
11
129.883
21
-84.0428
0
LINE
8
Black
10
129.883
20
-84.0428
11
129.88
21
-84.0267
0
LINE
8
Black
10
129.88
20
-84.0267
11
129.875
21
-84.0109
0
LINE
8
Black
10
129.875
20
-84.0109
11
129.876
21
-84.0054
0
LINE
8
Black
10
129.876
20
-84.0054
11
129.875
21
-84
0
LINE
8
Black
10
129.875
20
-84
11
129.875
21
-83.4391
0
LINE
8
Black
10
129.875
20
-83.4391
11
129.428
21
-82.7706
0
LINE
8
Black
10
129.428
20
-82.7706
11
129.428
21
-82.7706
0
LINE
8
Black
10
129.428
20
-82.7706
11
128.907
21
-81.9902
0
LINE
8
Black
10
128.907
20
-81.9902
11
127.448
21
-81.0153
0
LINE
8
Black
10
127.448
20
-81.0153
11
127.148
21
-80.9557
0
LINE
8
Black
10
127.148
20
-80.9557
11
125.727
21
-80.673
0
LINE
8
Black
10
125.727
20
-80.673
11
124.006
21
-81.0153
0
LINE
8
Black
10
124.006
20
-81.0153
11
122.546
21
-81.9902
0
LINE
8
Black
10
122.546
20
-81.9902
11
121.733
21
-83.2083
0
LINE
8
Black
10
121.733
20
-83.2083
11
121.728
21
-83.2133
0
LINE
8
Black
10
121.728
20
-83.2133
11
121.724
21
-83.2194
0
LINE
8
Black
10
121.724
20
-83.2194
11
121.713
21
-83.2292
0
LINE
8
Black
10
121.713
20
-83.2292
11
121.702
21
-83.2402
0
LINE
8
Black
10
121.702
20
-83.2402
11
121.696
21
-83.2433
0
LINE
8
Black
10
121.696
20
-83.2433
11
121.691
21
-83.2477
0
LINE
8
Black
10
121.691
20
-83.2477
11
121.676
21
-83.2529
0
LINE
8
Black
10
121.676
20
-83.2529
11
121.663
21
-83.2597
0
LINE
8
Black
10
121.663
20
-83.2597
11
121.656
21
-83.2604
0
LINE
8
Black
10
121.656
20
-83.2604
11
121.649
21
-83.2628
0
LINE
8
Black
10
121.649
20
-83.2628
11
121.634
21
-83.2628
0
LINE
8
Black
10
121.634
20
-83.2628
11
121.619
21
-83.2645
0
LINE
8
Black
10
121.619
20
-83.2645
11
121.612
21
-83.2628
0
LINE
8
Black
10
121.612
20
-83.2628
11
121.605
21
-83.2628
0
LINE
8
Black
10
121.605
20
-83.2628
11
121.591
21
-83.2576
0
LINE
8
Black
10
121.591
20
-83.2576
11
121.576
21
-83.254
0
LINE
8
Black
10
121.576
20
-83.254
11
121.57
21
-83.2501
0
LINE
8
Black
10
121.57
20
-83.2501
11
121.563
21
-83.2477
0
LINE
8
Black
10
121.563
20
-83.2477
11
121.552
21
-83.2379
0
LINE
8
Black
10
121.552
20
-83.2379
11
121.539
21
-83.2295
0
LINE
8
Black
10
121.539
20
-83.2295
11
121.535
21
-83.2239
0
LINE
8
Black
10
121.535
20
-83.2239
11
121.53
21
-83.2194
0
LINE
8
Black
10
121.53
20
-83.2194
11
121.522
21
-83.2062
0
LINE
8
Black
10
121.522
20
-83.2062
11
121.513
21
-83.1939
0
LINE
8
Black
10
121.513
20
-83.1939
11
121.511
21
-83.1872
0
LINE
8
Black
10
121.511
20
-83.1872
11
121.508
21
-83.1812
0
LINE
8
Black
10
121.508
20
-83.1812
11
121.505
21
-83.1662
0
LINE
8
Black
10
121.505
20
-83.1662
11
121.501
21
-83.1516
0
LINE
8
Black
10
121.501
20
-83.1516
11
121.501
21
-83.1446
0
LINE
8
Black
10
121.501
20
-83.1446
11
121.5
21
-83.1377
0
LINE
8
Black
10
121.5
20
-83.1377
11
121.5
21
-71.9222
0
LINE
8
Black
10
121.5
20
-71.9222
11
121.444
21
-71.8549
0
LINE
8
Black
10
121.444
20
-71.8549
11
121.408
21
-71.7566
0
LINE
8
Black
10
121.408
20
-71.7566
11
121.408
21
-71.652
0
LINE
8
Black
10
121.408
20
-71.652
11
121.444
21
-71.5537
0
LINE
8
Black
10
121.444
20
-71.5537
11
121.5
21
-71.4864
0
LINE
8
Black
10
121.5
20
-71.4864
11
121.5
21
-70.9134
0
LINE
8
Black
10
121.5
20
-70.9134
11
121.489
21
-70.9006
0
LINE
8
Black
10
121.489
20
-70.9006
11
121.453
21
-70.8023
0
LINE
8
Black
10
121.453
20
-70.8023
11
121.453
21
-70.6977
0
LINE
8
Black
10
121.453
20
-70.6977
11
121.489
21
-70.5994
0
LINE
8
Black
10
121.489
20
-70.5994
11
121.5
21
-70.5866
0
LINE
8
Black
10
121.5
20
-70.5866
11
121.5
21
-70.4475
0
LINE
8
Black
10
121.5
20
-70.4475
11
121.502
21
-70.4365
0
LINE
8
Black
10
121.502
20
-70.4365
11
121.502
21
-70.4254
0
LINE
8
Black
10
121.502
20
-70.4254
11
121.506
21
-70.415
0
LINE
8
Black
10
121.506
20
-70.415
11
121.508
21
-70.404
0
LINE
8
Black
10
121.508
20
-70.404
11
121.513
21
-70.3944
0
LINE
8
Black
10
121.513
20
-70.3944
11
121.517
21
-70.384
0
LINE
8
Black
10
121.517
20
-70.384
11
121.524
21
-70.3755
0
LINE
8
Black
10
121.524
20
-70.3755
11
121.53
21
-70.3658
0
LINE
8
Black
10
121.53
20
-70.3658
11
121.538
21
-70.3587
0
LINE
8
Black
10
121.538
20
-70.3587
11
121.545
21
-70.3502
0
LINE
8
Black
10
121.545
20
-70.3502
11
121.555
21
-70.3446
0
LINE
8
Black
10
121.555
20
-70.3446
11
121.563
21
-70.3375
0
LINE
8
Black
10
121.563
20
-70.3375
11
121.574
21
-70.3337
0
LINE
8
Black
10
121.574
20
-70.3337
11
121.584
21
-70.3281
0
LINE
8
Black
10
121.584
20
-70.3281
11
121.595
21
-70.3262
0
LINE
8
Black
10
121.595
20
-70.3262
11
121.605
21
-70.3224
0
LINE
8
Black
10
121.605
20
-70.3224
11
121.616
21
-70.3224
0
LINE
8
Black
10
121.616
20
-70.3224
11
121.627
21
-70.3205
0
LINE
8
Black
10
121.627
20
-70.3205
11
155.35
21
-70.3205
0
LINE
8
Black
10
155.35
20
-70.3205
11
155.361
21
-70.3224
0
LINE
8
Black
10
155.361
20
-70.3224
11
155.372
21
-70.3224
0
LINE
8
Black
10
155.372
20
-70.3224
11
155.382
21
-70.3262
0
LINE
8
Black
10
155.382
20
-70.3262
11
155.393
21
-70.3281
0
LINE
8
Black
10
155.393
20
-70.3281
11
155.403
21
-70.3337
0
LINE
8
Black
10
155.403
20
-70.3337
11
155.413
21
-70.3375
0
LINE
8
Black
10
155.413
20
-70.3375
11
155.422
21
-70.3446
0
LINE
8
Black
10
155.422
20
-70.3446
11
155.431
21
-70.3502
0
LINE
8
Black
10
155.431
20
-70.3502
11
155.438
21
-70.3587
0
LINE
8
Black
10
155.438
20
-70.3587
11
155.447
21
-70.3658
0
LINE
8
Black
10
155.447
20
-70.3658
11
155.453
21
-70.3755
0
LINE
8
Black
10
155.453
20
-70.3755
11
155.46
21
-70.384
0
LINE
8
Black
10
155.46
20
-70.384
11
155.463
21
-70.3944
0
LINE
8
Black
10
155.463
20
-70.3944
11
155.469
21
-70.404
0
LINE
8
Black
10
155.469
20
-70.404
11
155.471
21
-70.415
0
LINE
8
Black
10
155.471
20
-70.415
11
155.475
21
-70.4254
0
LINE
8
Black
10
155.475
20
-70.4254
11
155.475
21
-70.4365
0
LINE
8
Black
10
155.475
20
-70.4365
11
155.477
21
-70.4475
0
LINE
8
Black
10
155.477
20
-70.4475
11
155.477
21
-71.2933
0
LINE
8
Black
10
155.477
20
-71.2933
11
155.475
21
-71.3055
0
LINE
8
Black
10
155.475
20
-71.3055
11
155.474
21
-71.318
0
LINE
8
Black
10
155.474
20
-71.318
11
155.416
21
-71.6096
0
LINE
8
Black
10
155.416
20
-71.6096
11
155.416
21
-71.6707
0
LINE
8
Black
10
155.416
20
-71.6707
11
155.415
21
-71.676
0
LINE
8
Black
10
155.415
20
-71.676
11
155.416
21
-71.6812
0
LINE
8
Black
10
155.416
20
-71.6812
11
155.411
21
-71.7422
0
LINE
8
Black
10
155.411
20
-71.7422
11
155.478
21
-72.3279
0
LINE
8
Black
10
155.478
20
-72.3279
11
155.48
21
-72.3341
0
LINE
8
Black
10
155.48
20
-72.3341
11
155.48
21
-72.3341
0
LINE
8
Black
10
155.48
20
-72.3341
11
155.527
21
-72.4813
0
LINE
8
Black
10
155.527
20
-72.4813
11
155.812
21
-72.9969
0
LINE
8
Black
10
155.812
20
-72.9969
11
155.917
21
-73.1199
0
LINE
8
Black
10
155.917
20
-73.1199
11
156.378
21
-73.4868
0
LINE
8
Black
10
156.378
20
-73.4868
11
156.407
21
-73.5018
0
LINE
8
Black
10
156.407
20
-73.5018
11
156.407
21
-73.5018
0
LINE
8
Black
10
156.407
20
-73.5018
11
156.521
21
-73.5606
0
LINE
8
Black
10
156.521
20
-73.5606
11
157.088
21
-73.7231
0
LINE
8
Black
10
157.088
20
-73.7231
11
157.091
21
-73.7233
0
LINE
8
Black
10
157.091
20
-73.7233
11
157.091
21
-73.7233
0
LINE
8
Black
10
157.091
20
-73.7233
11
157.248
21
-73.7364
0
LINE
8
Black
10
122.156
20
-97.7593
11
121.86
21
-98.0544
0
LINE
8
Black
10
121.86
20
-98.0544
11
121.744
21
-98.334
0
LINE
8
Black
10
121.744
20
-98.334
11
121.743
21
-98.3366
0
LINE
8
Black
10
121.743
20
-98.3366
11
121.742
21
-98.3384
0
LINE
8
Black
10
121.742
20
-98.3384
11
121.741
21
-98.3408
0
LINE
8
Black
10
121.741
20
-98.3408
11
121.74
21
-98.3436
0
LINE
8
Black
10
121.74
20
-98.3436
11
121.7
21
-98.4402
0
LINE
8
Black
10
121.7
20
-98.4402
11
121.7
21
-98.8579
0
LINE
8
Black
10
121.7
20
-98.8579
11
121.74
21
-98.9561
0
LINE
8
Black
10
121.74
20
-98.9561
11
121.741
21
-98.9588
0
LINE
8
Black
10
121.741
20
-98.9588
11
121.742
21
-98.9612
0
LINE
8
Black
10
121.742
20
-98.9612
11
121.743
21
-98.9631
0
LINE
8
Black
10
121.743
20
-98.9631
11
121.744
21
-98.9658
0
LINE
8
Black
10
121.744
20
-98.9658
11
121.859
21
-99.244
0
LINE
8
Black
10
121.859
20
-99.244
11
122.154
21
-99.5396
0
LINE
8
Black
10
122.154
20
-99.5396
11
122.54
21
-99.6998
0
LINE
8
Black
10
122.54
20
-99.6998
11
122.958
21
-99.7002
0
LINE
8
Black
10
122.958
20
-99.7002
11
123.344
21
-99.5407
0
LINE
8
Black
10
123.344
20
-99.5407
11
123.64
21
-99.2456
0
LINE
8
Black
10
123.64
20
-99.2456
11
123.8
21
-98.8598
0
LINE
8
Black
10
123.8
20
-98.8598
11
123.8
21
-98.4421
0
LINE
8
Black
10
123.8
20
-98.4421
11
123.641
21
-98.056
0
LINE
8
Black
10
123.641
20
-98.056
11
123.346
21
-97.7604
0
LINE
8
Black
10
123.346
20
-97.7604
11
122.96
21
-97.6002
0
LINE
8
Black
10
122.96
20
-97.6002
11
122.542
21
-97.5998
0
LINE
8
Black
10
122.542
20
-97.5998
11
122.156
21
-97.7593
0
LINE
8
Black
10
122.156
20
-92.7593
11
121.86
21
-93.0544
0
LINE
8
Black
10
121.86
20
-93.0544
11
121.744
21
-93.334
0
LINE
8
Black
10
121.744
20
-93.334
11
121.743
21
-93.3366
0
LINE
8
Black
10
121.743
20
-93.3366
11
121.742
21
-93.3384
0
LINE
8
Black
10
121.742
20
-93.3384
11
121.741
21
-93.3408
0
LINE
8
Black
10
121.741
20
-93.3408
11
121.74
21
-93.3436
0
LINE
8
Black
10
121.74
20
-93.3436
11
121.7
21
-93.4402
0
LINE
8
Black
10
121.7
20
-93.4402
11
121.7
21
-93.8579
0
LINE
8
Black
10
121.7
20
-93.8579
11
121.74
21
-93.9561
0
LINE
8
Black
10
121.74
20
-93.9561
11
121.741
21
-93.9588
0
LINE
8
Black
10
121.741
20
-93.9588
11
121.742
21
-93.9612
0
LINE
8
Black
10
121.742
20
-93.9612
11
121.743
21
-93.9631
0
LINE
8
Black
10
121.743
20
-93.9631
11
121.744
21
-93.9658
0
LINE
8
Black
10
121.744
20
-93.9658
11
121.859
21
-94.244
0
LINE
8
Black
10
121.859
20
-94.244
11
122.154
21
-94.5396
0
LINE
8
Black
10
122.154
20
-94.5396
11
122.3
21
-94.6
0
LINE
8
Black
10
122.3
20
-94.6
11
123.2
21
-94.6
0
LINE
8
Black
10
123.2
20
-94.6
11
123.344
21
-94.5407
0
LINE
8
Black
10
123.344
20
-94.5407
11
123.64
21
-94.2456
0
LINE
8
Black
10
123.64
20
-94.2456
11
123.8
21
-93.8598
0
LINE
8
Black
10
123.8
20
-93.8598
11
123.8
21
-93.6503
0
LINE
8
Black
10
123.8
20
-93.6503
11
123.8
21
-93.4416
0
LINE
8
Black
10
123.8
20
-93.4416
11
123.641
21
-93.056
0
LINE
8
Black
10
123.641
20
-93.056
11
123.346
21
-92.7604
0
LINE
8
Black
10
123.346
20
-92.7604
11
122.96
21
-92.6002
0
LINE
8
Black
10
122.96
20
-92.6002
11
122.542
21
-92.5998
0
LINE
8
Black
10
122.542
20
-92.5998
11
122.156
21
-92.7593
0
LINE
8
Black
10
140.94
20
-88.2611
11
140.363
21
-88.8373
0
LINE
8
Black
10
140.363
20
-88.8373
11
140.05
21
-89.5904
0
LINE
8
Black
10
140.05
20
-89.5904
11
140.05
21
-90.406
0
LINE
8
Black
10
140.05
20
-90.406
11
140.361
21
-91.1597
0
LINE
8
Black
10
140.361
20
-91.1597
11
140.937
21
-91.7369
0
LINE
8
Black
10
140.937
20
-91.7369
11
141.69
21
-92.0496
0
LINE
8
Black
10
141.69
20
-92.0496
11
142.506
21
-92.0504
0
LINE
8
Black
10
142.506
20
-92.0504
11
143.26
21
-91.7389
0
LINE
8
Black
10
143.26
20
-91.7389
11
143.837
21
-91.1627
0
LINE
8
Black
10
143.837
20
-91.1627
11
144.15
21
-90.4096
0
LINE
8
Black
10
144.15
20
-90.4096
11
144.15
21
-89.719
0
LINE
8
Black
10
144.15
20
-89.719
11
144.15
21
-89.719
0
LINE
8
Black
10
144.15
20
-89.719
11
144.15
21
-89.594
0
LINE
8
Black
10
144.15
20
-89.594
11
143.839
21
-88.8403
0
LINE
8
Black
10
143.839
20
-88.8403
11
143.263
21
-88.2631
0
LINE
8
Black
10
143.263
20
-88.2631
11
142.51
21
-87.9504
0
LINE
8
Black
10
142.51
20
-87.9504
11
141.694
21
-87.9496
0
LINE
8
Black
10
141.694
20
-87.9496
11
140.94
21
-88.2611
0
LINE
8
Black
10
153.754
20
-90.1752
11
153.975
21
-90.0841
0
LINE
8
Black
10
153.975
20
-90.0841
11
154.158
21
-89.9013
0
LINE
8
Black
10
154.158
20
-89.9013
11
154.158
21
-89.9013
0
LINE
8
Black
10
154.158
20
-89.9013
11
154.158
21
-89.9012
0
LINE
8
Black
10
154.158
20
-89.9012
11
154.161
21
-89.898
0
LINE
8
Black
10
154.161
20
-89.898
11
154.161
21
-89.8974
0
LINE
8
Black
10
154.161
20
-89.8974
11
154.415
21
-89.6434
0
LINE
8
Black
10
154.415
20
-89.6434
11
154.508
21
-89.5046
0
LINE
8
Black
10
154.508
20
-89.5046
11
154.552
21
-89.439
0
LINE
8
Black
10
154.552
20
-89.439
11
154.559
21
-89.4051
0
LINE
8
Black
10
154.559
20
-89.4051
11
154.6
21
-89.1978
0
LINE
8
Black
10
154.6
20
-89.1978
11
154.6
21
-87.0006
0
LINE
8
Black
10
154.6
20
-87.0006
11
154.6
21
-87.0006
0
LINE
8
Black
10
154.6
20
-87.0006
11
154.6
21
-87.0005
0
LINE
8
Black
10
154.6
20
-87.0005
11
154.6
21
-86.8812
0
LINE
8
Black
10
154.6
20
-86.8812
11
154.509
21
-86.6606
0
LINE
8
Black
10
154.509
20
-86.6606
11
154.34
21
-86.4916
0
LINE
8
Black
10
154.34
20
-86.4916
11
154.12
21
-86.4001
0
LINE
8
Black
10
154.12
20
-86.4001
11
153.881
21
-86.3999
0
LINE
8
Black
10
153.881
20
-86.3999
11
153.661
21
-86.491
0
LINE
8
Black
10
153.661
20
-86.491
11
153.492
21
-86.6597
0
LINE
8
Black
10
153.492
20
-86.6597
11
153.4
21
-86.8801
0
LINE
8
Black
10
153.4
20
-86.8801
11
153.4
21
-87.1388
0
LINE
8
Black
10
153.4
20
-87.1388
11
153.4
21
-87.1389
0
LINE
8
Black
10
153.4
20
-87.1389
11
153.4
21
-87.1389
0
LINE
8
Black
10
153.4
20
-87.1389
11
153.4
21
-87.1436
0
LINE
8
Black
10
153.4
20
-87.1436
11
153.4
21
-87.1443
0
LINE
8
Black
10
153.4
20
-87.1443
11
153.4
21
-88.9092
0
LINE
8
Black
10
153.4
20
-88.9092
11
153.399
21
-88.9147
0
LINE
8
Black
10
153.399
20
-88.9147
11
153.4
21
-88.9202
0
LINE
8
Black
10
153.4
20
-88.9202
11
153.395
21
-88.9363
0
LINE
8
Black
10
153.395
20
-88.9363
11
153.392
21
-88.9526
0
LINE
8
Black
10
153.392
20
-88.9526
11
153.39
21
-88.9575
0
LINE
8
Black
10
153.39
20
-88.9575
11
153.388
21
-88.9628
0
LINE
8
Black
10
153.388
20
-88.9628
11
153.379
21
-88.9764
0
LINE
8
Black
10
153.379
20
-88.9764
11
153.37
21
-88.9908
0
LINE
8
Black
10
153.37
20
-88.9908
11
153.366
21
-88.9944
0
LINE
8
Black
10
153.366
20
-88.9944
11
153.363
21
-88.999
0
LINE
8
Black
10
153.363
20
-88.999
11
153.211
21
-89.1509
0
LINE
8
Black
10
153.211
20
-89.1509
11
153.211
21
-89.1509
0
LINE
8
Black
10
153.211
20
-89.1509
11
153.211
21
-89.1509
0
LINE
8
Black
10
153.211
20
-89.1509
11
153.127
21
-89.2348
0
LINE
8
Black
10
153.127
20
-89.2348
11
153.035
21
-89.4553
0
LINE
8
Black
10
153.035
20
-89.4553
11
153.035
21
-89.694
0
LINE
8
Black
10
153.035
20
-89.694
11
153.126
21
-89.9146
0
LINE
8
Black
10
153.126
20
-89.9146
11
153.295
21
-90.0835
0
LINE
8
Black
10
153.295
20
-90.0835
11
153.515
21
-90.175
0
LINE
8
Black
10
153.515
20
-90.175
11
153.635
21
-90.1751
0
LINE
8
Black
10
153.635
20
-90.1751
11
153.635
21
-90.1751
0
LINE
8
Black
10
153.635
20
-90.1751
11
153.754
21
-90.1752
0
LINE
8
Black
10
133.704
20
-87.954
11
133.641
21
-88.064
0
LINE
8
Black
10
133.641
20
-88.064
11
133.648
21
-88.1
0
LINE
8
Black
10
133.648
20
-88.1
11
133.895
21
-88.5318
0
LINE
8
Black
10
133.895
20
-88.5318
11
134.286
21
-88.834
0
LINE
8
Black
10
134.286
20
-88.834
11
134.728
21
-88.9541
0
LINE
8
Black
10
134.728
20
-88.9541
11
134.846
21
-88.8676
0
LINE
8
Black
10
134.846
20
-88.8676
11
134.846
21
-88.45
0
LINE
8
Black
10
134.846
20
-88.45
11
134.59
21
-88.4048
0
LINE
8
Black
10
134.59
20
-88.4048
11
134.364
21
-88.2745
0
LINE
8
Black
10
134.364
20
-88.2745
11
134.197
21
-88.075
0
LINE
8
Black
10
134.197
20
-88.075
11
134.153
21
-87.954
0
LINE
8
Black
10
134.153
20
-87.954
11
133.704
21
-87.954
0
LINE
8
Black
10
136.452
20
-87.954
11
136.427
21
-87.9719
0
LINE
8
Black
10
136.427
20
-87.9719
11
136.414
21
-87.9753
0
LINE
8
Black
10
136.414
20
-87.9753
11
136.403
21
-87.9819
0
LINE
8
Black
10
136.403
20
-87.9819
11
136.364
21
-87.9887
0
LINE
8
Black
10
136.364
20
-87.9887
11
136.326
21
-87.9989
0
LINE
8
Black
10
136.326
20
-87.9989
11
136.313
21
-87.9977
0
LINE
8
Black
10
136.313
20
-87.9977
11
136.3
21
-88
0
LINE
8
Black
10
136.3
20
-88
11
136.031
21
-88
0
LINE
8
Black
10
136.031
20
-88
11
136.003
21
-88.075
0
LINE
8
Black
10
136.003
20
-88.075
11
135.836
21
-88.2745
0
LINE
8
Black
10
135.836
20
-88.2745
11
135.61
21
-88.4048
0
LINE
8
Black
10
135.61
20
-88.4048
11
135.354
21
-88.45
0
LINE
8
Black
10
135.354
20
-88.45
11
135.354
21
-88.8676
0
LINE
8
Black
10
135.354
20
-88.8676
11
135.472
21
-88.9541
0
LINE
8
Black
10
135.472
20
-88.9541
11
135.914
21
-88.834
0
LINE
8
Black
10
135.914
20
-88.834
11
136.305
21
-88.5318
0
LINE
8
Black
10
136.305
20
-88.5318
11
136.552
21
-88.1
0
LINE
8
Black
10
136.552
20
-88.1
11
136.559
21
-88.064
0
LINE
8
Black
10
136.559
20
-88.064
11
136.496
21
-87.954
0
LINE
8
Black
10
136.496
20
-87.954
11
136.452
21
-87.954
0
LINE
8
Black
10
133.648
20
-87.3
11
133.641
21
-87.336
0
LINE
8
Black
10
133.641
20
-87.336
11
133.704
21
-87.446
0
LINE
8
Black
10
133.704
20
-87.446
11
134.022
21
-87.446
0
LINE
8
Black
10
134.022
20
-87.446
11
133.731
21
-87.1549
0
LINE
8
Black
10
133.731
20
-87.1549
11
133.648
21
-87.3
0
LINE
8
Black
10
135.812
20
-87.1119
11
135.836
21
-87.1255
0
LINE
8
Black
10
135.836
20
-87.1255
11
136.003
21
-87.325
0
LINE
8
Black
10
136.003
20
-87.325
11
136.031
21
-87.4
0
LINE
8
Black
10
136.031
20
-87.4
11
136.176
21
-87.4
0
LINE
8
Black
10
136.176
20
-87.4
11
136.452
21
-87.1241
0
LINE
8
Black
10
136.452
20
-87.1241
11
136.305
21
-86.8681
0
LINE
8
Black
10
136.305
20
-86.8681
11
136.165
21
-86.7596
0
LINE
8
Black
10
136.165
20
-86.7596
11
135.812
21
-87.1119
0
LINE
8
Black
10
134.835
20
-84.15
11
134.421
21
-84.2322
0
LINE
8
Black
10
134.421
20
-84.2322
11
134.081
21
-84.4593
0
LINE
8
Black
10
134.081
20
-84.4593
11
133.854
21
-84.7991
0
LINE
8
Black
10
133.854
20
-84.7991
11
133.775
21
-85.2
0
LINE
8
Black
10
133.775
20
-85.2
11
133.854
21
-85.6009
0
LINE
8
Black
10
133.854
20
-85.6009
11
134.081
21
-85.9407
0
LINE
8
Black
10
134.081
20
-85.9407
11
134.421
21
-86.1678
0
LINE
8
Black
10
134.421
20
-86.1678
11
134.659
21
-86.2151
0
LINE
8
Black
10
134.659
20
-86.2151
11
134.673
21
-86.2206
0
LINE
8
Black
10
134.673
20
-86.2206
11
134.688
21
-86.2244
0
LINE
8
Black
10
134.688
20
-86.2244
11
134.694
21
-86.2285
0
LINE
8
Black
10
134.694
20
-86.2285
11
134.7
21
-86.2311
0
LINE
8
Black
10
134.7
20
-86.2311
11
134.712
21
-86.241
0
LINE
8
Black
10
134.712
20
-86.241
11
134.724
21
-86.2496
0
LINE
8
Black
10
134.724
20
-86.2496
11
134.728
21
-86.2555
0
LINE
8
Black
10
134.728
20
-86.2555
11
134.734
21
-86.2602
0
LINE
8
Black
10
134.734
20
-86.2602
11
134.741
21
-86.2734
0
LINE
8
Black
10
134.741
20
-86.2734
11
134.749
21
-86.2856
0
LINE
8
Black
10
134.749
20
-86.2856
11
134.751
21
-86.2926
0
LINE
8
Black
10
134.751
20
-86.2926
11
134.755
21
-86.2989
0
LINE
8
Black
10
134.755
20
-86.2989
11
134.757
21
-86.3137
0
LINE
8
Black
10
134.757
20
-86.3137
11
134.761
21
-86.3282
0
LINE
8
Black
10
134.761
20
-86.3282
11
134.76
21
-86.3354
0
LINE
8
Black
10
134.76
20
-86.3354
11
134.761
21
-86.3425
0
LINE
8
Black
10
134.761
20
-86.3425
11
134.759
21
-86.3572
0
LINE
8
Black
10
134.759
20
-86.3572
11
134.757
21
-86.3722
0
LINE
8
Black
10
134.757
20
-86.3722
11
134.754
21
-86.3787
0
LINE
8
Black
10
134.754
20
-86.3787
11
134.753
21
-86.3857
0
LINE
8
Black
10
134.753
20
-86.3857
11
134.745
21
-86.3986
0
LINE
8
Black
10
134.745
20
-86.3986
11
134.739
21
-86.4122
0
LINE
8
Black
10
134.739
20
-86.4122
11
134.734
21
-86.4173
0
LINE
8
Black
10
134.734
20
-86.4173
11
134.73
21
-86.4234
0
LINE
8
Black
10
134.73
20
-86.4234
11
134.718
21
-86.4328
0
LINE
8
Black
10
134.718
20
-86.4328
11
134.708
21
-86.4435
0
LINE
8
Black
10
134.708
20
-86.4435
11
134.701
21
-86.4465
0
LINE
8
Black
10
134.701
20
-86.4465
11
134.696
21
-86.451
0
LINE
8
Black
10
134.696
20
-86.451
11
134.681
21
-86.4559
0
LINE
8
Black
10
134.681
20
-86.4559
11
134.668
21
-86.4623
0
LINE
8
Black
10
134.668
20
-86.4623
11
134.286
21
-86.566
0
LINE
8
Black
10
134.286
20
-86.566
11
134.119
21
-86.6949
0
LINE
8
Black
10
134.119
20
-86.6949
11
134.482
21
-87.0575
0
LINE
8
Black
10
134.482
20
-87.0575
11
134.59
21
-86.9952
0
LINE
8
Black
10
134.59
20
-86.9952
11
134.846
21
-86.95
0
LINE
8
Black
10
134.846
20
-86.95
11
135.126
21
-86.95
0
LINE
8
Black
10
135.126
20
-86.95
11
135.596
21
-86.4796
0
LINE
8
Black
10
135.596
20
-86.4796
11
135.532
21
-86.4623
0
LINE
8
Black
10
135.532
20
-86.4623
11
135.519
21
-86.4559
0
LINE
8
Black
10
135.519
20
-86.4559
11
135.504
21
-86.451
0
LINE
8
Black
10
135.504
20
-86.451
11
135.499
21
-86.4465
0
LINE
8
Black
10
135.499
20
-86.4465
11
135.492
21
-86.4435
0
LINE
8
Black
10
135.492
20
-86.4435
11
135.482
21
-86.4328
0
LINE
8
Black
10
135.482
20
-86.4328
11
135.47
21
-86.4234
0
LINE
8
Black
10
135.47
20
-86.4234
11
135.466
21
-86.4173
0
LINE
8
Black
10
135.466
20
-86.4173
11
135.461
21
-86.4122
0
LINE
8
Black
10
135.461
20
-86.4122
11
135.455
21
-86.3986
0
LINE
8
Black
10
135.455
20
-86.3986
11
135.447
21
-86.3857
0
LINE
8
Black
10
135.447
20
-86.3857
11
135.446
21
-86.3787
0
LINE
8
Black
10
135.446
20
-86.3787
11
135.443
21
-86.3722
0
LINE
8
Black
10
135.443
20
-86.3722
11
135.441
21
-86.3572
0
LINE
8
Black
10
135.441
20
-86.3572
11
135.439
21
-86.3425
0
LINE
8
Black
10
135.439
20
-86.3425
11
135.44
21
-86.3354
0
LINE
8
Black
10
135.44
20
-86.3354
11
135.439
21
-86.3282
0
LINE
8
Black
10
135.439
20
-86.3282
11
135.443
21
-86.3137
0
LINE
8
Black
10
135.443
20
-86.3137
11
135.445
21
-86.2989
0
LINE
8
Black
10
135.445
20
-86.2989
11
135.449
21
-86.2926
0
LINE
8
Black
10
135.449
20
-86.2926
11
135.451
21
-86.2856
0
LINE
8
Black
10
135.451
20
-86.2856
11
135.459
21
-86.2734
0
LINE
8
Black
10
135.459
20
-86.2734
11
135.466
21
-86.2602
0
LINE
8
Black
10
135.466
20
-86.2602
11
135.472
21
-86.2555
0
LINE
8
Black
10
135.472
20
-86.2555
11
135.476
21
-86.2496
0
LINE
8
Black
10
135.476
20
-86.2496
11
135.488
21
-86.241
0
LINE
8
Black
10
135.488
20
-86.241
11
135.5
21
-86.2311
0
LINE
8
Black
10
135.5
20
-86.2311
11
135.506
21
-86.2285
0
LINE
8
Black
10
135.506
20
-86.2285
11
135.512
21
-86.2244
0
LINE
8
Black
10
135.512
20
-86.2244
11
135.527
21
-86.2206
0
LINE
8
Black
10
135.527
20
-86.2206
11
135.541
21
-86.2151
0
LINE
8
Black
10
135.541
20
-86.2151
11
135.779
21
-86.1678
0
LINE
8
Black
10
135.779
20
-86.1678
11
136.119
21
-85.9407
0
LINE
8
Black
10
136.119
20
-85.9407
11
136.346
21
-85.6009
0
LINE
8
Black
10
136.346
20
-85.6009
11
136.425
21
-85.2
0
LINE
8
Black
10
136.425
20
-85.2
11
136.346
21
-84.7991
0
LINE
8
Black
10
136.346
20
-84.7991
11
136.119
21
-84.4593
0
LINE
8
Black
10
136.119
20
-84.4593
11
135.779
21
-84.2322
0
LINE
8
Black
10
135.779
20
-84.2322
11
135.365
21
-84.15
0
LINE
8
Black
10
135.365
20
-84.15
11
134.835
21
-84.15
0
LINE
8
Black
10
134.835
20
-81.65
11
134.421
21
-81.7322
0
LINE
8
Black
10
134.421
20
-81.7322
11
134.081
21
-81.9593
0
LINE
8
Black
10
134.081
20
-81.9593
11
133.854
21
-82.2991
0
LINE
8
Black
10
133.854
20
-82.2991
11
133.775
21
-82.7
0
LINE
8
Black
10
133.775
20
-82.7
11
133.854
21
-83.1009
0
LINE
8
Black
10
133.854
20
-83.1009
11
134.081
21
-83.4407
0
LINE
8
Black
10
134.081
20
-83.4407
11
134.421
21
-83.6678
0
LINE
8
Black
10
134.421
20
-83.6678
11
134.835
21
-83.75
0
LINE
8
Black
10
134.835
20
-83.75
11
135.365
21
-83.75
0
LINE
8
Black
10
135.365
20
-83.75
11
135.779
21
-83.6678
0
LINE
8
Black
10
135.779
20
-83.6678
11
136.119
21
-83.4407
0
LINE
8
Black
10
136.119
20
-83.4407
11
136.346
21
-83.1009
0
LINE
8
Black
10
136.346
20
-83.1009
11
136.425
21
-82.7
0
LINE
8
Black
10
136.425
20
-82.7
11
136.346
21
-82.2991
0
LINE
8
Black
10
136.346
20
-82.2991
11
136.119
21
-81.9593
0
LINE
8
Black
10
136.119
20
-81.9593
11
135.779
21
-81.7322
0
LINE
8
Black
10
135.779
20
-81.7322
11
135.365
21
-81.65
0
LINE
8
Black
10
135.365
20
-81.65
11
134.835
21
-81.65
0
LINE
8
Black
10
140.94
20
-78.6611
11
140.363
21
-79.2373
0
LINE
8
Black
10
140.363
20
-79.2373
11
140.05
21
-79.9904
0
LINE
8
Black
10
140.05
20
-79.9904
11
140.05
21
-80.806
0
LINE
8
Black
10
140.05
20
-80.806
11
140.361
21
-81.5597
0
LINE
8
Black
10
140.361
20
-81.5597
11
140.937
21
-82.1369
0
LINE
8
Black
10
140.937
20
-82.1369
11
141.69
21
-82.4496
0
LINE
8
Black
10
141.69
20
-82.4496
11
142.506
21
-82.4504
0
LINE
8
Black
10
142.506
20
-82.4504
11
143.26
21
-82.1389
0
LINE
8
Black
10
143.26
20
-82.1389
11
143.837
21
-81.5627
0
LINE
8
Black
10
143.837
20
-81.5627
11
144.15
21
-80.8096
0
LINE
8
Black
10
144.15
20
-80.8096
11
144.15
21
-79.994
0
LINE
8
Black
10
144.15
20
-79.994
11
143.839
21
-79.2403
0
LINE
8
Black
10
143.839
20
-79.2403
11
143.263
21
-78.6631
0
LINE
8
Black
10
143.263
20
-78.6631
11
142.51
21
-78.3504
0
LINE
8
Black
10
142.51
20
-78.3504
11
141.694
21
-78.3496
0
LINE
8
Black
10
141.694
20
-78.3496
11
140.94
21
-78.6611
0
LINE
8
Black
10
129.119
20
-80.6001
11
129.339
21
-80.509
0
LINE
8
Black
10
129.339
20
-80.509
11
129.508
21
-80.3403
0
LINE
8
Black
10
129.508
20
-80.3403
11
129.6
21
-80.1199
0
LINE
8
Black
10
129.6
20
-80.1199
11
129.6
21
-79.8812
0
LINE
8
Black
10
129.6
20
-79.8812
11
129.509
21
-79.6606
0
LINE
8
Black
10
129.509
20
-79.6606
11
129.326
21
-79.4775
0
LINE
8
Black
10
129.326
20
-79.4775
11
129.326
21
-79.4775
0
LINE
8
Black
10
129.326
20
-79.4775
11
129.326
21
-79.4775
0
LINE
8
Black
10
129.326
20
-79.4775
11
129.323
21
-79.4741
0
LINE
8
Black
10
129.323
20
-79.4741
11
129.322
21
-79.4737
0
LINE
8
Black
10
129.322
20
-79.4737
11
129.124
21
-79.2757
0
LINE
8
Black
10
129.124
20
-79.2757
11
127.782
21
-77.9338
0
LINE
8
Black
10
127.782
20
-77.9338
11
127.782
21
-77.9338
0
LINE
8
Black
10
127.782
20
-77.9338
11
126.637
21
-76.7887
0
LINE
8
Black
10
126.637
20
-76.7887
11
126.634
21
-76.7841
0
LINE
8
Black
10
126.634
20
-76.7841
11
126.63
21
-76.7805
0
LINE
8
Black
10
126.63
20
-76.7805
11
126.621
21
-76.7661
0
LINE
8
Black
10
126.621
20
-76.7661
11
126.612
21
-76.7525
0
LINE
8
Black
10
126.612
20
-76.7525
11
126.61
21
-76.7471
0
LINE
8
Black
10
126.61
20
-76.7471
11
126.608
21
-76.7423
0
LINE
8
Black
10
126.608
20
-76.7423
11
126.605
21
-76.726
0
LINE
8
Black
10
126.605
20
-76.726
11
126.6
21
-76.7099
0
LINE
8
Black
10
126.6
20
-76.7099
11
126.601
21
-76.7044
0
LINE
8
Black
10
126.601
20
-76.7044
11
126.6
21
-76.6989
0
LINE
8
Black
10
126.6
20
-76.6989
11
126.6
21
-76.0006
0
LINE
8
Black
10
126.6
20
-76.0006
11
126.6
21
-76.0006
0
LINE
8
Black
10
126.6
20
-76.0006
11
126.6
21
-76.0005
0
LINE
8
Black
10
126.6
20
-76.0005
11
126.6
21
-75.8812
0
LINE
8
Black
10
126.6
20
-75.8812
11
126.509
21
-75.6606
0
LINE
8
Black
10
126.509
20
-75.6606
11
126.34
21
-75.4916
0
LINE
8
Black
10
126.34
20
-75.4916
11
126.12
21
-75.4001
0
LINE
8
Black
10
126.12
20
-75.4001
11
125.881
21
-75.3999
0
LINE
8
Black
10
125.881
20
-75.3999
11
125.661
21
-75.491
0
LINE
8
Black
10
125.661
20
-75.491
11
125.492
21
-75.6597
0
LINE
8
Black
10
125.492
20
-75.6597
11
125.4
21
-75.8801
0
LINE
8
Black
10
125.4
20
-75.8801
11
125.4
21
-76.1388
0
LINE
8
Black
10
125.4
20
-76.1388
11
125.4
21
-76.1389
0
LINE
8
Black
10
125.4
20
-76.1389
11
125.4
21
-76.1389
0
LINE
8
Black
10
125.4
20
-76.1389
11
125.4
21
-76.1436
0
LINE
8
Black
10
125.4
20
-76.1436
11
125.4
21
-76.1443
0
LINE
8
Black
10
125.4
20
-76.1443
11
125.4
21
-76.9875
0
LINE
8
Black
10
125.4
20
-76.9875
11
125.444
21
-77.2073
0
LINE
8
Black
10
125.444
20
-77.2073
11
125.444
21
-77.2073
0
LINE
8
Black
10
125.444
20
-77.2073
11
125.448
21
-77.2287
0
LINE
8
Black
10
125.448
20
-77.2287
11
125.585
21
-77.4331
0
LINE
8
Black
10
125.585
20
-77.4331
11
128.276
21
-80.1243
0
LINE
8
Black
10
128.276
20
-80.1243
11
128.276
21
-80.1243
0
LINE
8
Black
10
128.276
20
-80.1243
11
128.575
21
-80.4238
0
LINE
8
Black
10
128.575
20
-80.4238
11
128.575
21
-80.4239
0
LINE
8
Black
10
128.575
20
-80.4239
11
128.575
21
-80.4239
0
LINE
8
Black
10
128.575
20
-80.4239
11
128.66
21
-80.5084
0
LINE
8
Black
10
128.66
20
-80.5084
11
128.88
21
-80.5999
0
LINE
8
Black
10
128.88
20
-80.5999
11
129
21
-80.6
0
LINE
8
Black
10
129
20
-80.6
11
129
21
-80.6
0
LINE
8
Black
10
129
20
-80.6
11
129.119
21
-80.6001
0
LINE
8
Black
10
154.611
20
-77.191
11
154.442
21
-77.3597
0
LINE
8
Black
10
154.442
20
-77.3597
11
154.35
21
-77.5801
0
LINE
8
Black
10
154.35
20
-77.5801
11
154.35
21
-77.8188
0
LINE
8
Black
10
154.35
20
-77.8188
11
154.441
21
-78.0394
0
LINE
8
Black
10
154.441
20
-78.0394
11
154.61
21
-78.2084
0
LINE
8
Black
10
154.61
20
-78.2084
11
154.83
21
-78.2999
0
LINE
8
Black
10
154.83
20
-78.2999
11
155.069
21
-78.3001
0
LINE
8
Black
10
155.069
20
-78.3001
11
155.289
21
-78.209
0
LINE
8
Black
10
155.289
20
-78.209
11
155.458
21
-78.0403
0
LINE
8
Black
10
155.458
20
-78.0403
11
155.55
21
-77.8199
0
LINE
8
Black
10
155.55
20
-77.8199
11
155.55
21
-77.5812
0
LINE
8
Black
10
155.55
20
-77.5812
11
155.459
21
-77.3606
0
LINE
8
Black
10
155.459
20
-77.3606
11
155.29
21
-77.1916
0
LINE
8
Black
10
155.29
20
-77.1916
11
155.07
21
-77.1001
0
LINE
8
Black
10
155.07
20
-77.1001
11
154.831
21
-77.0999
0
LINE
8
Black
10
154.831
20
-77.0999
11
154.611
21
-77.191
0
LINE
8
Black
10
131.881
20
-74.6499
11
131.661
21
-74.741
0
LINE
8
Black
10
131.661
20
-74.741
11
131.492
21
-74.9097
0
LINE
8
Black
10
131.492
20
-74.9097
11
131.4
21
-75.1301
0
LINE
8
Black
10
131.4
20
-75.1301
11
131.4
21
-75.3688
0
LINE
8
Black
10
131.4
20
-75.3688
11
131.491
21
-75.5894
0
LINE
8
Black
10
131.491
20
-75.5894
11
131.674
21
-75.7726
0
LINE
8
Black
10
131.674
20
-75.7726
11
131.674
21
-75.7726
0
LINE
8
Black
10
131.674
20
-75.7726
11
131.674
21
-75.7726
0
LINE
8
Black
10
131.674
20
-75.7726
11
131.677
21
-75.7759
0
LINE
8
Black
10
131.677
20
-75.7759
11
131.678
21
-75.7763
0
LINE
8
Black
10
131.678
20
-75.7763
11
132.601
21
-76.7
0
LINE
8
Black
10
132.601
20
-76.7
11
132.806
21
-76.8366
0
LINE
8
Black
10
132.806
20
-76.8366
11
132.827
21
-76.8409
0
LINE
8
Black
10
132.827
20
-76.8409
11
133.047
21
-76.8846
0
LINE
8
Black
10
133.047
20
-76.8846
11
135.279
21
-76.8846
0
LINE
8
Black
10
135.279
20
-76.8846
11
135.279
21
-76.8846
0
LINE
8
Black
10
135.279
20
-76.8846
11
135.279
21
-76.8846
0
LINE
8
Black
10
135.279
20
-76.8846
11
135.398
21
-76.8847
0
LINE
8
Black
10
135.398
20
-76.8847
11
135.619
21
-76.7935
0
LINE
8
Black
10
135.619
20
-76.7935
11
135.788
21
-76.6249
0
LINE
8
Black
10
135.788
20
-76.6249
11
135.88
21
-76.4044
0
LINE
8
Black
10
135.88
20
-76.4044
11
135.88
21
-76.1657
0
LINE
8
Black
10
135.88
20
-76.1657
11
135.789
21
-75.9451
0
LINE
8
Black
10
135.789
20
-75.9451
11
135.62
21
-75.7762
0
LINE
8
Black
10
135.62
20
-75.7762
11
135.4
21
-75.6847
0
LINE
8
Black
10
135.4
20
-75.6847
11
135.141
21
-75.6845
0
LINE
8
Black
10
135.141
20
-75.6845
11
135.141
21
-75.6845
0
LINE
8
Black
10
135.141
20
-75.6845
11
135.141
21
-75.6845
0
LINE
8
Black
10
135.141
20
-75.6845
11
135.136
21
-75.6844
0
LINE
8
Black
10
135.136
20
-75.6844
11
135.135
21
-75.6846
0
LINE
8
Black
10
135.135
20
-75.6846
11
133.336
21
-75.6846
0
LINE
8
Black
10
133.336
20
-75.6846
11
133.33
21
-75.6836
0
LINE
8
Black
10
133.33
20
-75.6836
11
133.325
21
-75.6841
0
LINE
8
Black
10
133.325
20
-75.6841
11
133.309
21
-75.6798
0
LINE
8
Black
10
133.309
20
-75.6798
11
133.292
21
-75.6769
0
LINE
8
Black
10
133.292
20
-75.6769
11
133.287
21
-75.6741
0
LINE
8
Black
10
133.287
20
-75.6741
11
133.282
21
-75.6727
0
LINE
8
Black
10
133.282
20
-75.6727
11
133.268
21
-75.6632
0
LINE
8
Black
10
133.268
20
-75.6632
11
133.254
21
-75.6549
0
LINE
8
Black
10
133.254
20
-75.6549
11
133.25
21
-75.6506
0
LINE
8
Black
10
133.25
20
-75.6506
11
133.246
21
-75.6474
0
LINE
8
Black
10
133.246
20
-75.6474
11
132.424
21
-74.8257
0
LINE
8
Black
10
132.424
20
-74.8257
11
132.424
21
-74.8257
0
LINE
8
Black
10
132.424
20
-74.8257
11
132.424
21
-74.8257
0
LINE
8
Black
10
132.424
20
-74.8257
11
132.34
21
-74.7416
0
LINE
8
Black
10
132.34
20
-74.7416
11
132.12
21
-74.6501
0
LINE
8
Black
10
132.12
20
-74.6501
11
132
21
-74.65
0
LINE
8
Black
10
132
20
-74.65
11
132
21
-74.65
0
LINE
8
Black
10
132
20
-74.65
11
131.881
21
-74.6499
0
LINE
8
Black
10
131.495
20
-71.5632
11
131.236
21
-71.7361
0
LINE
8
Black
10
131.236
20
-71.7361
11
131.063
21
-71.9948
0
LINE
8
Black
10
131.063
20
-71.9948
11
131.002
21
-72.3
0
LINE
8
Black
10
131.002
20
-72.3
11
131.063
21
-72.6052
0
LINE
8
Black
10
131.063
20
-72.6052
11
131.243
21
-72.8745
0
LINE
8
Black
10
131.243
20
-72.8745
11
133.425
21
-75.0568
0
LINE
8
Black
10
133.425
20
-75.0568
11
133.695
21
-75.2368
0
LINE
8
Black
10
133.695
20
-75.2368
11
134.013
21
-75.3
0
LINE
8
Black
10
134.013
20
-75.3
11
142.237
21
-75.3
0
LINE
8
Black
10
142.237
20
-75.3
11
142.555
21
-75.2368
0
LINE
8
Black
10
142.555
20
-75.2368
11
142.814
21
-75.0639
0
LINE
8
Black
10
142.814
20
-75.0639
11
142.987
21
-74.8052
0
LINE
8
Black
10
142.987
20
-74.8052
11
143.048
21
-74.5
0
LINE
8
Black
10
143.048
20
-74.5
11
142.987
21
-74.1948
0
LINE
8
Black
10
142.987
20
-74.1948
11
142.814
21
-73.9361
0
LINE
8
Black
10
142.814
20
-73.9361
11
142.555
21
-73.7632
0
LINE
8
Black
10
142.555
20
-73.7632
11
142.237
21
-73.7
0
LINE
8
Black
10
142.237
20
-73.7
11
139.315
21
-73.7
0
LINE
8
Black
10
139.315
20
-73.7
11
139.302
21
-73.6976
0
LINE
8
Black
10
139.302
20
-73.6976
11
139.288
21
-73.697
0
LINE
8
Black
10
139.288
20
-73.697
11
139.28
21
-73.6938
0
LINE
8
Black
10
139.28
20
-73.6938
11
139.272
21
-73.6923
0
LINE
8
Black
10
139.272
20
-73.6923
11
139.26
21
-73.6854
0
LINE
8
Black
10
139.26
20
-73.6854
11
139.247
21
-73.6801
0
LINE
8
Black
10
139.247
20
-73.6801
11
139.241
21
-73.6744
0
LINE
8
Black
10
139.241
20
-73.6744
11
139.234
21
-73.6703
0
LINE
8
Black
10
139.234
20
-73.6703
11
139.225
21
-73.6596
0
LINE
8
Black
10
139.225
20
-73.6596
11
139.215
21
-73.6502
0
LINE
8
Black
10
139.215
20
-73.6502
11
139.211
21
-73.6429
0
LINE
8
Black
10
139.211
20
-73.6429
11
139.205
21
-73.6365
0
LINE
8
Black
10
139.205
20
-73.6365
11
139.201
21
-73.6234
0
LINE
8
Black
10
139.201
20
-73.6234
11
139.194
21
-73.6111
0
LINE
8
Black
10
139.194
20
-73.6111
11
139.193
21
-73.6029
0
LINE
8
Black
10
139.193
20
-73.6029
11
139.19
21
-73.5951
0
LINE
8
Black
10
139.19
20
-73.5951
11
139.19
21
-73.5811
0
LINE
8
Black
10
139.19
20
-73.5811
11
139.189
21
-73.5673
0
LINE
8
Black
10
139.189
20
-73.5673
11
139.19
21
-73.5593
0
LINE
8
Black
10
139.19
20
-73.5593
11
139.19
21
-73.5509
0
LINE
8
Black
10
139.19
20
-73.5509
11
139.195
21
-73.5379
0
LINE
8
Black
10
139.195
20
-73.5379
11
139.198
21
-73.5243
0
LINE
8
Black
10
139.198
20
-73.5243
11
139.25
21
-73.3998
0
LINE
8
Black
10
139.25
20
-73.3998
11
139.25
21
-73.1015
0
LINE
8
Black
10
139.25
20
-73.1015
11
139.136
21
-72.8257
0
LINE
8
Black
10
139.136
20
-72.8257
11
138.925
21
-72.6146
0
LINE
8
Black
10
138.925
20
-72.6146
11
138.65
21
-72.5001
0
LINE
8
Black
10
138.65
20
-72.5001
11
138.351
21
-72.4999
0
LINE
8
Black
10
138.351
20
-72.4999
11
138.076
21
-72.6138
0
LINE
8
Black
10
138.076
20
-72.6138
11
137.865
21
-72.8246
0
LINE
8
Black
10
137.865
20
-72.8246
11
137.75
21
-73.1002
0
LINE
8
Black
10
137.75
20
-73.1002
11
137.75
21
-73.3985
0
LINE
8
Black
10
137.75
20
-73.3985
11
137.802
21
-73.5245
0
LINE
8
Black
10
137.802
20
-73.5245
11
137.805
21
-73.538
0
LINE
8
Black
10
137.805
20
-73.538
11
137.81
21
-73.5509
0
LINE
8
Black
10
137.81
20
-73.5509
11
137.81
21
-73.5594
0
LINE
8
Black
10
137.81
20
-73.5594
11
137.811
21
-73.5676
0
LINE
8
Black
10
137.811
20
-73.5676
11
137.81
21
-73.5812
0
LINE
8
Black
10
137.81
20
-73.5812
11
137.81
21
-73.5951
0
LINE
8
Black
10
137.81
20
-73.5951
11
137.807
21
-73.603
0
LINE
8
Black
10
137.807
20
-73.603
11
137.806
21
-73.6113
0
LINE
8
Black
10
137.806
20
-73.6113
11
137.799
21
-73.6235
0
LINE
8
Black
10
137.799
20
-73.6235
11
137.795
21
-73.6365
0
LINE
8
Black
10
137.795
20
-73.6365
11
137.789
21
-73.6429
0
LINE
8
Black
10
137.789
20
-73.6429
11
137.785
21
-73.6504
0
LINE
8
Black
10
137.785
20
-73.6504
11
137.775
21
-73.6597
0
LINE
8
Black
10
137.775
20
-73.6597
11
137.766
21
-73.6703
0
LINE
8
Black
10
137.766
20
-73.6703
11
137.759
21
-73.6745
0
LINE
8
Black
10
137.759
20
-73.6745
11
137.753
21
-73.6802
0
LINE
8
Black
10
137.753
20
-73.6802
11
137.74
21
-73.6854
0
LINE
8
Black
10
137.74
20
-73.6854
11
137.728
21
-73.6923
0
LINE
8
Black
10
137.728
20
-73.6923
11
137.72
21
-73.6938
0
LINE
8
Black
10
137.72
20
-73.6938
11
137.712
21
-73.697
0
LINE
8
Black
10
137.712
20
-73.697
11
137.698
21
-73.6976
0
LINE
8
Black
10
137.698
20
-73.6976
11
137.685
21
-73.7
0
LINE
8
Black
10
137.685
20
-73.7
11
136.315
21
-73.7
0
LINE
8
Black
10
136.315
20
-73.7
11
136.302
21
-73.6976
0
LINE
8
Black
10
136.302
20
-73.6976
11
136.288
21
-73.697
0
LINE
8
Black
10
136.288
20
-73.697
11
136.28
21
-73.6938
0
LINE
8
Black
10
136.28
20
-73.6938
11
136.272
21
-73.6923
0
LINE
8
Black
10
136.272
20
-73.6923
11
136.26
21
-73.6854
0
LINE
8
Black
10
136.26
20
-73.6854
11
136.247
21
-73.6801
0
LINE
8
Black
10
136.247
20
-73.6801
11
136.241
21
-73.6744
0
LINE
8
Black
10
136.241
20
-73.6744
11
136.234
21
-73.6703
0
LINE
8
Black
10
136.234
20
-73.6703
11
136.225
21
-73.6596
0
LINE
8
Black
10
136.225
20
-73.6596
11
136.215
21
-73.6502
0
LINE
8
Black
10
136.215
20
-73.6502
11
136.211
21
-73.6429
0
LINE
8
Black
10
136.211
20
-73.6429
11
136.205
21
-73.6365
0
LINE
8
Black
10
136.205
20
-73.6365
11
136.201
21
-73.6234
0
LINE
8
Black
10
136.201
20
-73.6234
11
136.194
21
-73.6111
0
LINE
8
Black
10
136.194
20
-73.6111
11
136.193
21
-73.6029
0
LINE
8
Black
10
136.193
20
-73.6029
11
136.19
21
-73.5951
0
LINE
8
Black
10
136.19
20
-73.5951
11
136.19
21
-73.5811
0
LINE
8
Black
10
136.19
20
-73.5811
11
136.189
21
-73.5673
0
LINE
8
Black
10
136.189
20
-73.5673
11
136.19
21
-73.5593
0
LINE
8
Black
10
136.19
20
-73.5593
11
136.19
21
-73.5509
0
LINE
8
Black
10
136.19
20
-73.5509
11
136.195
21
-73.5379
0
LINE
8
Black
10
136.195
20
-73.5379
11
136.198
21
-73.5243
0
LINE
8
Black
10
136.198
20
-73.5243
11
136.25
21
-73.3998
0
LINE
8
Black
10
136.25
20
-73.3998
11
136.25
21
-73.1015
0
LINE
8
Black
10
136.25
20
-73.1015
11
136.136
21
-72.8257
0
LINE
8
Black
10
136.136
20
-72.8257
11
135.925
21
-72.6146
0
LINE
8
Black
10
135.925
20
-72.6146
11
135.65
21
-72.5001
0
LINE
8
Black
10
135.65
20
-72.5001
11
135.351
21
-72.4999
0
LINE
8
Black
10
135.351
20
-72.4999
11
135.076
21
-72.6138
0
LINE
8
Black
10
135.076
20
-72.6138
11
134.865
21
-72.8246
0
LINE
8
Black
10
134.865
20
-72.8246
11
134.75
21
-73.1002
0
LINE
8
Black
10
134.75
20
-73.1002
11
134.75
21
-73.3985
0
LINE
8
Black
10
134.75
20
-73.3985
11
134.802
21
-73.5245
0
LINE
8
Black
10
134.802
20
-73.5245
11
134.805
21
-73.538
0
LINE
8
Black
10
134.805
20
-73.538
11
134.81
21
-73.5509
0
LINE
8
Black
10
134.81
20
-73.5509
11
134.81
21
-73.5594
0
LINE
8
Black
10
134.81
20
-73.5594
11
134.811
21
-73.5676
0
LINE
8
Black
10
134.811
20
-73.5676
11
134.81
21
-73.5812
0
LINE
8
Black
10
134.81
20
-73.5812
11
134.81
21
-73.5951
0
LINE
8
Black
10
134.81
20
-73.5951
11
134.807
21
-73.603
0
LINE
8
Black
10
134.807
20
-73.603
11
134.806
21
-73.6113
0
LINE
8
Black
10
134.806
20
-73.6113
11
134.799
21
-73.6235
0
LINE
8
Black
10
134.799
20
-73.6235
11
134.795
21
-73.6365
0
LINE
8
Black
10
134.795
20
-73.6365
11
134.789
21
-73.6429
0
LINE
8
Black
10
134.789
20
-73.6429
11
134.785
21
-73.6504
0
LINE
8
Black
10
134.785
20
-73.6504
11
134.775
21
-73.6597
0
LINE
8
Black
10
134.775
20
-73.6597
11
134.766
21
-73.6703
0
LINE
8
Black
10
134.766
20
-73.6703
11
134.759
21
-73.6745
0
LINE
8
Black
10
134.759
20
-73.6745
11
134.753
21
-73.6802
0
LINE
8
Black
10
134.753
20
-73.6802
11
134.74
21
-73.6854
0
LINE
8
Black
10
134.74
20
-73.6854
11
134.728
21
-73.6923
0
LINE
8
Black
10
134.728
20
-73.6923
11
134.72
21
-73.6938
0
LINE
8
Black
10
134.72
20
-73.6938
11
134.712
21
-73.697
0
LINE
8
Black
10
134.712
20
-73.697
11
134.698
21
-73.6976
0
LINE
8
Black
10
134.698
20
-73.6976
11
134.685
21
-73.7
0
LINE
8
Black
10
134.685
20
-73.7
11
134.384
21
-73.7
0
LINE
8
Black
10
134.384
20
-73.7
11
134.378
21
-73.699
0
LINE
8
Black
10
134.378
20
-73.699
11
134.373
21
-73.6995
0
LINE
8
Black
10
134.373
20
-73.6995
11
134.357
21
-73.6952
0
LINE
8
Black
10
134.357
20
-73.6952
11
134.341
21
-73.6923
0
LINE
8
Black
10
134.341
20
-73.6923
11
134.336
21
-73.6895
0
LINE
8
Black
10
134.336
20
-73.6895
11
134.33
21
-73.6881
0
LINE
8
Black
10
134.33
20
-73.6881
11
134.317
21
-73.6786
0
LINE
8
Black
10
134.317
20
-73.6786
11
134.302
21
-73.6703
0
LINE
8
Black
10
134.302
20
-73.6703
11
134.299
21
-73.666
0
LINE
8
Black
10
134.299
20
-73.666
11
134.294
21
-73.6628
0
LINE
8
Black
10
134.294
20
-73.6628
11
132.375
21
-71.7432
0
LINE
8
Black
10
132.375
20
-71.7432
11
132.105
21
-71.5632
0
LINE
8
Black
10
132.105
20
-71.5632
11
131.8
21
-71.5025
0
LINE
8
Black
10
131.8
20
-71.5025
11
131.495
21
-71.5632
0
LINE
8
Black
10
123.007
20
-97.9425
11
123.234
21
-98.0733
0
LINE
8
Black
10
123.234
20
-98.0733
11
123.402
21
-98.2736
0
LINE
8
Black
10
123.402
20
-98.2736
11
123.491
21
-98.5193
0
LINE
8
Black
10
123.491
20
-98.5193
11
123.491
21
-98.7807
0
LINE
8
Black
10
123.491
20
-98.7807
11
123.402
21
-99.0264
0
LINE
8
Black
10
123.402
20
-99.0264
11
123.234
21
-99.2267
0
LINE
8
Black
10
123.234
20
-99.2267
11
123.007
21
-99.3575
0
LINE
8
Black
10
123.007
20
-99.3575
11
122.75
21
-99.4029
0
LINE
8
Black
10
122.75
20
-99.4029
11
122.493
21
-99.3575
0
LINE
8
Black
10
122.493
20
-99.3575
11
122.266
21
-99.2267
0
LINE
8
Black
10
122.266
20
-99.2267
11
122.098
21
-99.0264
0
LINE
8
Black
10
122.098
20
-99.0264
11
122.009
21
-98.7807
0
LINE
8
Black
10
122.009
20
-98.7807
11
122.009
21
-98.5193
0
LINE
8
Black
10
122.009
20
-98.5193
11
122.098
21
-98.2736
0
LINE
8
Black
10
122.098
20
-98.2736
11
122.266
21
-98.0733
0
LINE
8
Black
10
122.266
20
-98.0733
11
122.493
21
-97.9425
0
LINE
8
Black
10
122.493
20
-97.9425
11
122.75
21
-97.8971
0
LINE
8
Black
10
122.75
20
-97.8971
11
123.007
21
-97.9425
0
LINE
8
Black
10
123.007
20
-92.9425
11
123.234
21
-93.0733
0
LINE
8
Black
10
123.234
20
-93.0733
11
123.402
21
-93.2736
0
LINE
8
Black
10
123.402
20
-93.2736
11
123.491
21
-93.5193
0
LINE
8
Black
10
123.491
20
-93.5193
11
123.491
21
-93.7807
0
LINE
8
Black
10
123.491
20
-93.7807
11
123.402
21
-94.0264
0
LINE
8
Black
10
123.402
20
-94.0264
11
123.234
21
-94.2267
0
LINE
8
Black
10
123.234
20
-94.2267
11
123.007
21
-94.3575
0
LINE
8
Black
10
123.007
20
-94.3575
11
122.75
21
-94.4029
0
LINE
8
Black
10
122.75
20
-94.4029
11
122.493
21
-94.3575
0
LINE
8
Black
10
122.493
20
-94.3575
11
122.266
21
-94.2267
0
LINE
8
Black
10
122.266
20
-94.2267
11
122.098
21
-94.0264
0
LINE
8
Black
10
122.098
20
-94.0264
11
122.009
21
-93.7807
0
LINE
8
Black
10
122.009
20
-93.7807
11
122.009
21
-93.5193
0
LINE
8
Black
10
122.009
20
-93.5193
11
122.098
21
-93.2736
0
LINE
8
Black
10
122.098
20
-93.2736
11
122.266
21
-93.0733
0
LINE
8
Black
10
122.266
20
-93.0733
11
122.493
21
-92.9425
0
LINE
8
Black
10
122.493
20
-92.9425
11
122.75
21
-92.8971
0
LINE
8
Black
10
122.75
20
-92.8971
11
123.007
21
-92.9425
0
LINE
8
Black
10
142.701
20
-88.3493
11
143.229
21
-88.6543
0
LINE
8
Black
10
143.229
20
-88.6543
11
143.621
21
-89.1217
0
LINE
8
Black
10
143.621
20
-89.1217
11
143.83
21
-89.695
0
LINE
8
Black
10
143.83
20
-89.695
11
143.83
21
-90.305
0
LINE
8
Black
10
143.83
20
-90.305
11
143.621
21
-90.8783
0
LINE
8
Black
10
143.621
20
-90.8783
11
143.229
21
-91.3457
0
LINE
8
Black
10
143.229
20
-91.3457
11
142.701
21
-91.6507
0
LINE
8
Black
10
142.701
20
-91.6507
11
142.1
21
-91.7567
0
LINE
8
Black
10
142.1
20
-91.7567
11
141.499
21
-91.6507
0
LINE
8
Black
10
141.499
20
-91.6507
11
140.971
21
-91.3457
0
LINE
8
Black
10
140.971
20
-91.3457
11
140.579
21
-90.8783
0
LINE
8
Black
10
140.579
20
-90.8783
11
140.37
21
-90.305
0
LINE
8
Black
10
140.37
20
-90.305
11
140.37
21
-89.695
0
LINE
8
Black
10
140.37
20
-89.695
11
140.579
21
-89.1217
0
LINE
8
Black
10
140.579
20
-89.1217
11
140.971
21
-88.6543
0
LINE
8
Black
10
140.971
20
-88.6543
11
141.499
21
-88.3493
0
LINE
8
Black
10
141.499
20
-88.3493
11
142.1
21
-88.2433
0
LINE
8
Black
10
142.1
20
-88.2433
11
142.701
21
-88.3493
0
LINE
8
Black
10
154.032
20
-86.7046
11
154.052
21
-86.7046
0
LINE
8
Black
10
154.052
20
-86.7046
11
154.071
21
-86.7113
0
LINE
8
Black
10
154.071
20
-86.7113
11
154.103
21
-86.717
0
LINE
8
Black
10
154.103
20
-86.717
11
154.131
21
-86.7334
0
LINE
8
Black
10
154.131
20
-86.7334
11
154.15
21
-86.7402
0
LINE
8
Black
10
154.15
20
-86.7402
11
154.165
21
-86.7529
0
LINE
8
Black
10
154.165
20
-86.7529
11
154.194
21
-86.7693
0
LINE
8
Black
10
154.194
20
-86.7693
11
154.215
21
-86.7945
0
LINE
8
Black
10
154.215
20
-86.7945
11
154.23
21
-86.8072
0
LINE
8
Black
10
154.23
20
-86.8072
11
154.24
21
-86.8243
0
LINE
8
Black
10
154.24
20
-86.8243
11
154.261
21
-86.8494
0
LINE
8
Black
10
154.261
20
-86.8494
11
154.272
21
-86.8803
0
LINE
8
Black
10
154.272
20
-86.8803
11
154.282
21
-86.8974
0
LINE
8
Black
10
154.282
20
-86.8974
11
154.285
21
-86.9168
0
LINE
8
Black
10
154.285
20
-86.9168
11
154.297
21
-86.9477
0
LINE
8
Black
10
154.297
20
-86.9477
11
154.297
21
-86.9806
0
LINE
8
Black
10
154.297
20
-86.9806
11
154.3
21
-87
0
LINE
8
Black
10
154.3
20
-87
11
154.3
21
-89.2103
0
LINE
8
Black
10
154.3
20
-89.2103
11
154.298
21
-89.2233
0
LINE
8
Black
10
154.298
20
-89.2233
11
154.299
21
-89.2365
0
LINE
8
Black
10
154.299
20
-89.2365
11
154.289
21
-89.2743
0
LINE
8
Black
10
154.289
20
-89.2743
11
154.282
21
-89.3129
0
LINE
8
Black
10
154.282
20
-89.3129
11
154.275
21
-89.3243
0
LINE
8
Black
10
154.275
20
-89.3243
11
154.272
21
-89.3371
0
LINE
8
Black
10
154.272
20
-89.3371
11
154.249
21
-89.3692
0
LINE
8
Black
10
154.249
20
-89.3692
11
154.23
21
-89.4031
0
LINE
8
Black
10
154.23
20
-89.4031
11
154.22
21
-89.4116
0
LINE
8
Black
10
154.22
20
-89.4116
11
154.212
21
-89.4224
0
LINE
8
Black
10
154.212
20
-89.4224
11
153.847
21
-89.7873
0
LINE
8
Black
10
153.847
20
-89.7873
11
153.84
21
-89.7923
0
LINE
8
Black
10
153.84
20
-89.7923
11
153.829
21
-89.8058
0
LINE
8
Black
10
153.829
20
-89.8058
11
153.783
21
-89.832
0
LINE
8
Black
10
153.783
20
-89.832
11
153.762
21
-89.847
0
LINE
8
Black
10
153.762
20
-89.847
11
153.753
21
-89.8493
0
LINE
8
Black
10
153.753
20
-89.8493
11
153.738
21
-89.8581
0
LINE
8
Black
10
153.738
20
-89.8581
11
153.687
21
-89.8672
0
LINE
8
Black
10
153.687
20
-89.8672
11
153.661
21
-89.874
0
LINE
8
Black
10
153.661
20
-89.874
11
153.653
21
-89.8732
0
LINE
8
Black
10
153.653
20
-89.8732
11
153.635
21
-89.8763
0
LINE
8
Black
10
153.635
20
-89.8763
11
153.584
21
-89.8672
0
LINE
8
Black
10
153.584
20
-89.8672
11
153.558
21
-89.8649
0
LINE
8
Black
10
153.558
20
-89.8649
11
153.55
21
-89.8612
0
LINE
8
Black
10
153.55
20
-89.8612
11
153.532
21
-89.8581
0
LINE
8
Black
10
153.532
20
-89.8581
11
153.487
21
-89.832
0
LINE
8
Black
10
153.487
20
-89.832
11
153.463
21
-89.8209
0
LINE
8
Black
10
153.463
20
-89.8209
11
153.457
21
-89.8146
0
LINE
8
Black
10
153.457
20
-89.8146
11
153.442
21
-89.8058
0
LINE
8
Black
10
153.442
20
-89.8058
11
153.408
21
-89.7658
0
LINE
8
Black
10
153.408
20
-89.7658
11
153.389
21
-89.7472
0
LINE
8
Black
10
153.389
20
-89.7472
11
153.386
21
-89.7392
0
LINE
8
Black
10
153.386
20
-89.7392
11
153.374
21
-89.7257
0
LINE
8
Black
10
153.374
20
-89.7257
11
153.356
21
-89.6766
0
LINE
8
Black
10
153.356
20
-89.6766
11
153.345
21
-89.6528
0
LINE
8
Black
10
153.345
20
-89.6528
11
153.345
21
-89.644
0
LINE
8
Black
10
153.345
20
-89.644
11
153.339
21
-89.6274
0
LINE
8
Black
10
153.339
20
-89.6274
11
153.339
21
-89.5751
0
LINE
8
Black
10
153.339
20
-89.5751
11
153.336
21
-89.549
0
LINE
8
Black
10
153.336
20
-89.549
11
153.339
21
-89.5405
0
LINE
8
Black
10
153.339
20
-89.5405
11
153.339
21
-89.5228
0
LINE
8
Black
10
153.339
20
-89.5228
11
153.356
21
-89.4737
0
LINE
8
Black
10
153.356
20
-89.4737
11
153.363
21
-89.4484
0
LINE
8
Black
10
153.363
20
-89.4484
11
153.368
21
-89.4411
0
LINE
8
Black
10
153.368
20
-89.4411
11
153.374
21
-89.4246
0
LINE
8
Black
10
153.374
20
-89.4246
11
153.408
21
-89.3845
0
LINE
8
Black
10
153.408
20
-89.3845
11
153.423
21
-89.363
0
LINE
8
Black
10
153.423
20
-89.363
11
153.7
21
-89.086
0
LINE
8
Black
10
153.7
20
-89.086
11
153.7
21
-87
0
LINE
8
Black
10
153.7
20
-87
11
153.703
21
-86.9806
0
LINE
8
Black
10
153.703
20
-86.9806
11
153.703
21
-86.9477
0
LINE
8
Black
10
153.703
20
-86.9477
11
153.715
21
-86.9168
0
LINE
8
Black
10
153.715
20
-86.9168
11
153.718
21
-86.8974
0
LINE
8
Black
10
153.718
20
-86.8974
11
153.728
21
-86.8803
0
LINE
8
Black
10
153.728
20
-86.8803
11
153.739
21
-86.8494
0
LINE
8
Black
10
153.739
20
-86.8494
11
153.76
21
-86.8243
0
LINE
8
Black
10
153.76
20
-86.8243
11
153.77
21
-86.8072
0
LINE
8
Black
10
153.77
20
-86.8072
11
153.785
21
-86.7945
0
LINE
8
Black
10
153.785
20
-86.7945
11
153.806
21
-86.7693
0
LINE
8
Black
10
153.806
20
-86.7693
11
153.835
21
-86.7529
0
LINE
8
Black
10
153.835
20
-86.7529
11
153.85
21
-86.7402
0
LINE
8
Black
10
153.85
20
-86.7402
11
153.869
21
-86.7334
0
LINE
8
Black
10
153.869
20
-86.7334
11
153.897
21
-86.717
0
LINE
8
Black
10
153.897
20
-86.717
11
153.929
21
-86.7113
0
LINE
8
Black
10
153.929
20
-86.7113
11
153.948
21
-86.7046
0
LINE
8
Black
10
153.948
20
-86.7046
11
153.968
21
-86.7046
0
LINE
8
Black
10
153.968
20
-86.7046
11
154
21
-86.6989
0
LINE
8
Black
10
154
20
-86.6989
11
154.032
21
-86.7046
0
LINE
8
Black
10
135.61
20
-84.4952
11
135.836
21
-84.6255
0
LINE
8
Black
10
135.836
20
-84.6255
11
136.003
21
-84.825
0
LINE
8
Black
10
136.003
20
-84.825
11
136.092
21
-85.0698
0
LINE
8
Black
10
136.092
20
-85.0698
11
136.092
21
-85.3302
0
LINE
8
Black
10
136.092
20
-85.3302
11
136.003
21
-85.575
0
LINE
8
Black
10
136.003
20
-85.575
11
135.836
21
-85.7745
0
LINE
8
Black
10
135.836
20
-85.7745
11
135.61
21
-85.9048
0
LINE
8
Black
10
135.61
20
-85.9048
11
135.354
21
-85.95
0
LINE
8
Black
10
135.354
20
-85.95
11
134.846
21
-85.95
0
LINE
8
Black
10
134.846
20
-85.95
11
134.59
21
-85.9048
0
LINE
8
Black
10
134.59
20
-85.9048
11
134.364
21
-85.7745
0
LINE
8
Black
10
134.364
20
-85.7745
11
134.197
21
-85.575
0
LINE
8
Black
10
134.197
20
-85.575
11
134.108
21
-85.3302
0
LINE
8
Black
10
134.108
20
-85.3302
11
134.108
21
-85.0698
0
LINE
8
Black
10
134.108
20
-85.0698
11
134.197
21
-84.825
0
LINE
8
Black
10
134.197
20
-84.825
11
134.364
21
-84.6255
0
LINE
8
Black
10
134.364
20
-84.6255
11
134.59
21
-84.4952
0
LINE
8
Black
10
134.59
20
-84.4952
11
134.846
21
-84.45
0
LINE
8
Black
10
134.846
20
-84.45
11
135.354
21
-84.45
0
LINE
8
Black
10
135.354
20
-84.45
11
135.61
21
-84.4952
0
LINE
8
Black
10
135.61
20
-81.9952
11
135.836
21
-82.1255
0
LINE
8
Black
10
135.836
20
-82.1255
11
136.003
21
-82.325
0
LINE
8
Black
10
136.003
20
-82.325
11
136.092
21
-82.5698
0
LINE
8
Black
10
136.092
20
-82.5698
11
136.092
21
-82.8302
0
LINE
8
Black
10
136.092
20
-82.8302
11
136.003
21
-83.075
0
LINE
8
Black
10
136.003
20
-83.075
11
135.836
21
-83.2745
0
LINE
8
Black
10
135.836
20
-83.2745
11
135.61
21
-83.4048
0
LINE
8
Black
10
135.61
20
-83.4048
11
135.354
21
-83.45
0
LINE
8
Black
10
135.354
20
-83.45
11
134.846
21
-83.45
0
LINE
8
Black
10
134.846
20
-83.45
11
134.59
21
-83.4048
0
LINE
8
Black
10
134.59
20
-83.4048
11
134.364
21
-83.2745
0
LINE
8
Black
10
134.364
20
-83.2745
11
134.197
21
-83.075
0
LINE
8
Black
10
134.197
20
-83.075
11
134.108
21
-82.8302
0
LINE
8
Black
10
134.108
20
-82.8302
11
134.108
21
-82.5698
0
LINE
8
Black
10
134.108
20
-82.5698
11
134.197
21
-82.325
0
LINE
8
Black
10
134.197
20
-82.325
11
134.364
21
-82.1255
0
LINE
8
Black
10
134.364
20
-82.1255
11
134.59
21
-81.9952
0
LINE
8
Black
10
134.59
20
-81.9952
11
134.846
21
-81.95
0
LINE
8
Black
10
134.846
20
-81.95
11
135.354
21
-81.95
0
LINE
8
Black
10
135.354
20
-81.95
11
135.61
21
-81.9952
0
LINE
8
Black
10
142.701
20
-78.7493
11
143.229
21
-79.0543
0
LINE
8
Black
10
143.229
20
-79.0543
11
143.621
21
-79.5217
0
LINE
8
Black
10
143.621
20
-79.5217
11
143.83
21
-80.095
0
LINE
8
Black
10
143.83
20
-80.095
11
143.83
21
-80.705
0
LINE
8
Black
10
143.83
20
-80.705
11
143.621
21
-81.2783
0
LINE
8
Black
10
143.621
20
-81.2783
11
143.229
21
-81.7457
0
LINE
8
Black
10
143.229
20
-81.7457
11
142.701
21
-82.0507
0
LINE
8
Black
10
142.701
20
-82.0507
11
142.1
21
-82.1567
0
LINE
8
Black
10
142.1
20
-82.1567
11
141.499
21
-82.0507
0
LINE
8
Black
10
141.499
20
-82.0507
11
140.971
21
-81.7457
0
LINE
8
Black
10
140.971
20
-81.7457
11
140.579
21
-81.2783
0
LINE
8
Black
10
140.579
20
-81.2783
11
140.37
21
-80.705
0
LINE
8
Black
10
140.37
20
-80.705
11
140.37
21
-80.095
0
LINE
8
Black
10
140.37
20
-80.095
11
140.579
21
-79.5217
0
LINE
8
Black
10
140.579
20
-79.5217
11
140.971
21
-79.0543
0
LINE
8
Black
10
140.971
20
-79.0543
11
141.499
21
-78.7493
0
LINE
8
Black
10
141.499
20
-78.7493
11
142.1
21
-78.6433
0
LINE
8
Black
10
142.1
20
-78.6433
11
142.701
21
-78.7493
0
LINE
8
Black
10
129.227
20
-79.8094
11
129.261
21
-79.8494
0
LINE
8
Black
10
129.261
20
-79.8494
11
129.267
21
-79.866
0
LINE
8
Black
10
129.267
20
-79.866
11
129.272
21
-79.8732
0
LINE
8
Black
10
129.272
20
-79.8732
11
129.279
21
-79.8986
0
LINE
8
Black
10
129.279
20
-79.8986
11
129.297
21
-79.9477
0
LINE
8
Black
10
129.297
20
-79.9477
11
129.297
21
-79.9653
0
LINE
8
Black
10
129.297
20
-79.9653
11
129.299
21
-79.9739
0
LINE
8
Black
10
129.299
20
-79.9739
11
129.297
21
-80
0
LINE
8
Black
10
129.297
20
-80
11
129.297
21
-80.0523
0
LINE
8
Black
10
129.297
20
-80.0523
11
129.291
21
-80.0688
0
LINE
8
Black
10
129.291
20
-80.0688
11
129.29
21
-80.0776
0
LINE
8
Black
10
129.29
20
-80.0776
11
129.279
21
-80.1014
0
LINE
8
Black
10
129.279
20
-80.1014
11
129.261
21
-80.1506
0
LINE
8
Black
10
129.261
20
-80.1506
11
129.249
21
-80.1641
0
LINE
8
Black
10
129.249
20
-80.1641
11
129.246
21
-80.1721
0
LINE
8
Black
10
129.246
20
-80.1721
11
129.227
21
-80.1906
0
LINE
8
Black
10
129.227
20
-80.1906
11
129.194
21
-80.2307
0
LINE
8
Black
10
129.194
20
-80.2307
11
129.178
21
-80.2395
0
LINE
8
Black
10
129.178
20
-80.2395
11
129.172
21
-80.2457
0
LINE
8
Black
10
129.172
20
-80.2457
11
129.148
21
-80.2568
0
LINE
8
Black
10
129.148
20
-80.2568
11
129.103
21
-80.283
0
LINE
8
Black
10
129.103
20
-80.283
11
129.086
21
-80.286
0
LINE
8
Black
10
129.086
20
-80.286
11
129.078
21
-80.2898
0
LINE
8
Black
10
129.078
20
-80.2898
11
129.052
21
-80.2921
0
LINE
8
Black
10
129.052
20
-80.2921
11
129
21
-80.3011
0
LINE
8
Black
10
129
20
-80.3011
11
128.983
21
-80.2981
0
LINE
8
Black
10
128.983
20
-80.2981
11
128.974
21
-80.2989
0
LINE
8
Black
10
128.974
20
-80.2989
11
128.949
21
-80.2921
0
LINE
8
Black
10
128.949
20
-80.2921
11
128.897
21
-80.283
0
LINE
8
Black
10
128.897
20
-80.283
11
128.882
21
-80.2742
0
LINE
8
Black
10
128.882
20
-80.2742
11
128.873
21
-80.2719
0
LINE
8
Black
10
128.873
20
-80.2719
11
128.852
21
-80.2568
0
LINE
8
Black
10
128.852
20
-80.2568
11
128.806
21
-80.2307
0
LINE
8
Black
10
128.806
20
-80.2307
11
128.795
21
-80.2172
0
LINE
8
Black
10
128.795
20
-80.2172
11
128.788
21
-80.2121
0
LINE
8
Black
10
128.788
20
-80.2121
11
125.788
21
-77.2121
0
LINE
8
Black
10
125.788
20
-77.2121
11
125.78
21
-77.2013
0
LINE
8
Black
10
125.78
20
-77.2013
11
125.77
21
-77.1928
0
LINE
8
Black
10
125.77
20
-77.1928
11
125.751
21
-77.1589
0
LINE
8
Black
10
125.751
20
-77.1589
11
125.728
21
-77.1268
0
LINE
8
Black
10
125.728
20
-77.1268
11
125.725
21
-77.114
0
LINE
8
Black
10
125.725
20
-77.114
11
125.718
21
-77.1026
0
LINE
8
Black
10
125.718
20
-77.1026
11
125.711
21
-77.064
0
LINE
8
Black
10
125.711
20
-77.064
11
125.701
21
-77.0261
0
LINE
8
Black
10
125.701
20
-77.0261
11
125.702
21
-77.013
0
LINE
8
Black
10
125.702
20
-77.013
11
125.7
21
-77
0
LINE
8
Black
10
125.7
20
-77
11
125.7
21
-76
0
LINE
8
Black
10
125.7
20
-76
11
125.703
21
-75.9806
0
LINE
8
Black
10
125.703
20
-75.9806
11
125.703
21
-75.9477
0
LINE
8
Black
10
125.703
20
-75.9477
11
125.715
21
-75.9168
0
LINE
8
Black
10
125.715
20
-75.9168
11
125.718
21
-75.8974
0
LINE
8
Black
10
125.718
20
-75.8974
11
125.728
21
-75.8803
0
LINE
8
Black
10
125.728
20
-75.8803
11
125.739
21
-75.8494
0
LINE
8
Black
10
125.739
20
-75.8494
11
125.76
21
-75.8243
0
LINE
8
Black
10
125.76
20
-75.8243
11
125.77
21
-75.8072
0
LINE
8
Black
10
125.77
20
-75.8072
11
125.785
21
-75.7945
0
LINE
8
Black
10
125.785
20
-75.7945
11
125.806
21
-75.7693
0
LINE
8
Black
10
125.806
20
-75.7693
11
125.835
21
-75.7529
0
LINE
8
Black
10
125.835
20
-75.7529
11
125.85
21
-75.7402
0
LINE
8
Black
10
125.85
20
-75.7402
11
125.869
21
-75.7334
0
LINE
8
Black
10
125.869
20
-75.7334
11
125.897
21
-75.717
0
LINE
8
Black
10
125.897
20
-75.717
11
125.929
21
-75.7113
0
LINE
8
Black
10
125.929
20
-75.7113
11
125.948
21
-75.7046
0
LINE
8
Black
10
125.948
20
-75.7046
11
125.968
21
-75.7046
0
LINE
8
Black
10
125.968
20
-75.7046
11
126
21
-75.6989
0
LINE
8
Black
10
126
20
-75.6989
11
126.032
21
-75.7046
0
LINE
8
Black
10
126.032
20
-75.7046
11
126.052
21
-75.7046
0
LINE
8
Black
10
126.052
20
-75.7046
11
126.071
21
-75.7113
0
LINE
8
Black
10
126.071
20
-75.7113
11
126.103
21
-75.717
0
LINE
8
Black
10
126.103
20
-75.717
11
126.131
21
-75.7334
0
LINE
8
Black
10
126.131
20
-75.7334
11
126.15
21
-75.7402
0
LINE
8
Black
10
126.15
20
-75.7402
11
126.165
21
-75.7529
0
LINE
8
Black
10
126.165
20
-75.7529
11
126.194
21
-75.7693
0
LINE
8
Black
10
126.194
20
-75.7693
11
126.215
21
-75.7945
0
LINE
8
Black
10
126.215
20
-75.7945
11
126.23
21
-75.8072
0
LINE
8
Black
10
126.23
20
-75.8072
11
126.24
21
-75.8243
0
LINE
8
Black
10
126.24
20
-75.8243
11
126.261
21
-75.8494
0
LINE
8
Black
10
126.261
20
-75.8494
11
126.272
21
-75.8803
0
LINE
8
Black
10
126.272
20
-75.8803
11
126.282
21
-75.8974
0
LINE
8
Black
10
126.282
20
-75.8974
11
126.285
21
-75.9168
0
LINE
8
Black
10
126.285
20
-75.9168
11
126.297
21
-75.9477
0
LINE
8
Black
10
126.297
20
-75.9477
11
126.297
21
-75.9806
0
LINE
8
Black
10
126.297
20
-75.9806
11
126.3
21
-76
0
LINE
8
Black
10
126.3
20
-76
11
126.3
21
-76.8757
0
LINE
8
Black
10
126.3
20
-76.8757
11
129.212
21
-79.7879
0
LINE
8
Black
10
129.212
20
-79.7879
11
129.227
21
-79.8094
0
LINE
8
Black
10
155.053
20
-77.417
11
155.144
21
-77.4693
0
LINE
8
Black
10
155.144
20
-77.4693
11
155.211
21
-77.5494
0
LINE
8
Black
10
155.211
20
-77.5494
11
155.247
21
-77.6477
0
LINE
8
Black
10
155.247
20
-77.6477
11
155.247
21
-77.7523
0
LINE
8
Black
10
155.247
20
-77.7523
11
155.211
21
-77.8506
0
LINE
8
Black
10
155.211
20
-77.8506
11
155.144
21
-77.9307
0
LINE
8
Black
10
155.144
20
-77.9307
11
155.053
21
-77.983
0
LINE
8
Black
10
155.053
20
-77.983
11
154.95
21
-78.0011
0
LINE
8
Black
10
154.95
20
-78.0011
11
154.847
21
-77.983
0
LINE
8
Black
10
154.847
20
-77.983
11
154.756
21
-77.9307
0
LINE
8
Black
10
154.756
20
-77.9307
11
154.689
21
-77.8506
0
LINE
8
Black
10
154.689
20
-77.8506
11
154.653
21
-77.7523
0
LINE
8
Black
10
154.653
20
-77.7523
11
154.653
21
-77.6477
0
LINE
8
Black
10
154.653
20
-77.6477
11
154.689
21
-77.5494
0
LINE
8
Black
10
154.689
20
-77.5494
11
154.756
21
-77.4693
0
LINE
8
Black
10
154.756
20
-77.4693
11
154.847
21
-77.417
0
LINE
8
Black
10
154.847
20
-77.417
11
154.95
21
-77.3989
0
LINE
8
Black
10
154.95
20
-77.3989
11
155.053
21
-77.417
0
LINE
8
Black
10
132.017
20
-74.9519
11
132.026
21
-74.9511
0
LINE
8
Black
10
132.026
20
-74.9511
11
132.051
21
-74.9579
0
LINE
8
Black
10
132.051
20
-74.9579
11
132.103
21
-74.967
0
LINE
8
Black
10
132.103
20
-74.967
11
132.118
21
-74.9758
0
LINE
8
Black
10
132.118
20
-74.9758
11
132.127
21
-74.9781
0
LINE
8
Black
10
132.127
20
-74.9781
11
132.148
21
-74.9932
0
LINE
8
Black
10
132.148
20
-74.9932
11
132.194
21
-75.0193
0
LINE
8
Black
10
132.194
20
-75.0193
11
132.205
21
-75.0328
0
LINE
8
Black
10
132.205
20
-75.0328
11
132.212
21
-75.0379
0
LINE
8
Black
10
132.212
20
-75.0379
11
133.159
21
-75.9846
0
LINE
8
Black
10
133.159
20
-75.9846
11
135.273
21
-75.9846
0
LINE
8
Black
10
135.273
20
-75.9846
11
135.28
21
-75.9834
0
LINE
8
Black
10
135.28
20
-75.9834
11
135.383
21
-76.0016
0
LINE
8
Black
10
135.383
20
-76.0016
11
135.473
21
-76.0539
0
LINE
8
Black
10
135.473
20
-76.0539
11
135.54
21
-76.134
0
LINE
8
Black
10
135.54
20
-76.134
11
135.576
21
-76.2323
0
LINE
8
Black
10
135.576
20
-76.2323
11
135.576
21
-76.3369
0
LINE
8
Black
10
135.576
20
-76.3369
11
135.54
21
-76.4351
0
LINE
8
Black
10
135.54
20
-76.4351
11
135.473
21
-76.5153
0
LINE
8
Black
10
135.473
20
-76.5153
11
135.383
21
-76.5676
0
LINE
8
Black
10
135.383
20
-76.5676
11
135.28
21
-76.5857
0
LINE
8
Black
10
135.28
20
-76.5857
11
135.273
21
-76.5846
0
LINE
8
Black
10
135.273
20
-76.5846
11
133.035
21
-76.5846
0
LINE
8
Black
10
133.035
20
-76.5846
11
133.022
21
-76.5823
0
LINE
8
Black
10
133.022
20
-76.5823
11
133.008
21
-76.5834
0
LINE
8
Black
10
133.008
20
-76.5834
11
132.971
21
-76.5733
0
LINE
8
Black
10
132.971
20
-76.5733
11
132.932
21
-76.5665
0
LINE
8
Black
10
132.932
20
-76.5665
11
132.921
21
-76.5599
0
LINE
8
Black
10
132.921
20
-76.5599
11
132.908
21
-76.5565
0
LINE
8
Black
10
132.908
20
-76.5565
11
132.876
21
-76.534
0
LINE
8
Black
10
132.876
20
-76.534
11
132.842
21
-76.5144
0
LINE
8
Black
10
132.842
20
-76.5144
11
132.833
21
-76.5043
0
LINE
8
Black
10
132.833
20
-76.5043
11
132.822
21
-76.4967
0
LINE
8
Black
10
132.822
20
-76.4967
11
131.788
21
-75.4621
0
LINE
8
Black
10
131.788
20
-75.4621
11
131.773
21
-75.4406
0
LINE
8
Black
10
131.773
20
-75.4406
11
131.739
21
-75.4006
0
LINE
8
Black
10
131.739
20
-75.4006
11
131.733
21
-75.384
0
LINE
8
Black
10
131.733
20
-75.384
11
131.728
21
-75.3768
0
LINE
8
Black
10
131.728
20
-75.3768
11
131.721
21
-75.3514
0
LINE
8
Black
10
131.721
20
-75.3514
11
131.703
21
-75.3023
0
LINE
8
Black
10
131.703
20
-75.3023
11
131.703
21
-75.2847
0
LINE
8
Black
10
131.703
20
-75.2847
11
131.701
21
-75.2761
0
LINE
8
Black
10
131.701
20
-75.2761
11
131.703
21
-75.25
0
LINE
8
Black
10
131.703
20
-75.25
11
131.703
21
-75.1977
0
LINE
8
Black
10
131.703
20
-75.1977
11
131.709
21
-75.1812
0
LINE
8
Black
10
131.709
20
-75.1812
11
131.71
21
-75.1724
0
LINE
8
Black
10
131.71
20
-75.1724
11
131.721
21
-75.1486
0
LINE
8
Black
10
131.721
20
-75.1486
11
131.739
21
-75.0994
0
LINE
8
Black
10
131.739
20
-75.0994
11
131.751
21
-75.0859
0
LINE
8
Black
10
131.751
20
-75.0859
11
131.754
21
-75.0779
0
LINE
8
Black
10
131.754
20
-75.0779
11
131.773
21
-75.0594
0
LINE
8
Black
10
131.773
20
-75.0594
11
131.806
21
-75.0193
0
LINE
8
Black
10
131.806
20
-75.0193
11
131.822
21
-75.0105
0
LINE
8
Black
10
131.822
20
-75.0105
11
131.828
21
-75.0043
0
LINE
8
Black
10
131.828
20
-75.0043
11
131.852
21
-74.9932
0
LINE
8
Black
10
131.852
20
-74.9932
11
131.897
21
-74.967
0
LINE
8
Black
10
131.897
20
-74.967
11
131.914
21
-74.964
0
LINE
8
Black
10
131.914
20
-74.964
11
131.922
21
-74.9602
0
LINE
8
Black
10
131.922
20
-74.9602
11
131.948
21
-74.9579
0
LINE
8
Black
10
131.948
20
-74.9579
11
132
21
-74.9489
0
LINE
8
Black
10
132
20
-74.9489
11
132.017
21
-74.9519
0
LINE
8
Black
10
132.011
20
-71.8468
11
132.154
21
-71.9464
0
LINE
8
Black
10
132.154
20
-71.9464
11
134.207
21
-74
0
LINE
8
Black
10
134.207
20
-74
11
142.25
21
-74
0
LINE
8
Black
10
142.25
20
-74
11
142.421
21
-74.0302
0
LINE
8
Black
10
142.421
20
-74.0302
11
142.571
21
-74.117
0
LINE
8
Black
10
142.571
20
-74.117
11
142.683
21
-74.25
0
LINE
8
Black
10
142.683
20
-74.25
11
142.742
21
-74.4132
0
LINE
8
Black
10
142.742
20
-74.4132
11
142.742
21
-74.5868
0
LINE
8
Black
10
142.742
20
-74.5868
11
142.683
21
-74.75
0
LINE
8
Black
10
142.683
20
-74.75
11
142.571
21
-74.883
0
LINE
8
Black
10
142.571
20
-74.883
11
142.421
21
-74.9698
0
LINE
8
Black
10
142.421
20
-74.9698
11
142.25
21
-75
0
LINE
8
Black
10
142.25
20
-75
11
134
21
-75
0
LINE
8
Black
10
134
20
-75
11
133.978
21
-74.9962
0
LINE
8
Black
10
133.978
20
-74.9962
11
133.956
21
-74.9981
0
LINE
8
Black
10
133.956
20
-74.9981
11
133.893
21
-74.9812
0
LINE
8
Black
10
133.893
20
-74.9812
11
133.829
21
-74.9698
0
LINE
8
Black
10
133.829
20
-74.9698
11
133.81
21
-74.9588
0
LINE
8
Black
10
133.81
20
-74.9588
11
133.789
21
-74.9532
0
LINE
8
Black
10
133.789
20
-74.9532
11
133.735
21
-74.9157
0
LINE
8
Black
10
133.735
20
-74.9157
11
133.679
21
-74.883
0
LINE
8
Black
10
133.679
20
-74.883
11
133.664
21
-74.8662
0
LINE
8
Black
10
133.664
20
-74.8662
11
133.646
21
-74.8536
0
LINE
8
Black
10
133.646
20
-74.8536
11
131.446
21
-72.6536
0
LINE
8
Black
10
131.446
20
-72.6536
11
131.347
21
-72.5113
0
LINE
8
Black
10
131.347
20
-72.5113
11
131.302
21
-72.3436
0
LINE
8
Black
10
131.302
20
-72.3436
11
131.317
21
-72.1706
0
LINE
8
Black
10
131.317
20
-72.1706
11
131.39
21
-72.0132
0
LINE
8
Black
10
131.39
20
-72.0132
11
131.513
21
-71.8904
0
LINE
8
Black
10
131.513
20
-71.8904
11
131.671
21
-71.817
0
LINE
8
Black
10
131.671
20
-71.817
11
131.844
21
-71.8019
0
LINE
8
Black
10
131.844
20
-71.8019
11
132.011
21
-71.8468
0
LINE
8
Black
10
138.654
20
-72.8255
11
138.79
21
-72.904
0
LINE
8
Black
10
138.79
20
-72.904
11
138.891
21
-73.0241
0
LINE
8
Black
10
138.891
20
-73.0241
11
138.945
21
-73.1716
0
LINE
8
Black
10
138.945
20
-73.1716
11
138.945
21
-73.3284
0
LINE
8
Black
10
138.945
20
-73.3284
11
138.891
21
-73.4759
0
LINE
8
Black
10
138.891
20
-73.4759
11
138.79
21
-73.596
0
LINE
8
Black
10
138.79
20
-73.596
11
138.654
21
-73.6745
0
LINE
8
Black
10
138.654
20
-73.6745
11
138.5
21
-73.7017
0
LINE
8
Black
10
138.5
20
-73.7017
11
138.346
21
-73.6745
0
LINE
8
Black
10
138.346
20
-73.6745
11
138.21
21
-73.596
0
LINE
8
Black
10
138.21
20
-73.596
11
138.109
21
-73.4759
0
LINE
8
Black
10
138.109
20
-73.4759
11
138.055
21
-73.3284
0
LINE
8
Black
10
138.055
20
-73.3284
11
138.055
21
-73.1716
0
LINE
8
Black
10
138.055
20
-73.1716
11
138.109
21
-73.0241
0
LINE
8
Black
10
138.109
20
-73.0241
11
138.21
21
-72.904
0
LINE
8
Black
10
138.21
20
-72.904
11
138.346
21
-72.8255
0
LINE
8
Black
10
138.346
20
-72.8255
11
138.5
21
-72.7983
0
LINE
8
Black
10
138.5
20
-72.7983
11
138.654
21
-72.8255
0
LINE
8
Black
10
135.654
20
-72.8255
11
135.79
21
-72.904
0
LINE
8
Black
10
135.79
20
-72.904
11
135.891
21
-73.0241
0
LINE
8
Black
10
135.891
20
-73.0241
11
135.945
21
-73.1716
0
LINE
8
Black
10
135.945
20
-73.1716
11
135.945
21
-73.3284
0
LINE
8
Black
10
135.945
20
-73.3284
11
135.891
21
-73.4759
0
LINE
8
Black
10
135.891
20
-73.4759
11
135.79
21
-73.596
0
LINE
8
Black
10
135.79
20
-73.596
11
135.654
21
-73.6745
0
LINE
8
Black
10
135.654
20
-73.6745
11
135.5
21
-73.7017
0
LINE
8
Black
10
135.5
20
-73.7017
11
135.346
21
-73.6745
0
LINE
8
Black
10
135.346
20
-73.6745
11
135.21
21
-73.596
0
LINE
8
Black
10
135.21
20
-73.596
11
135.109
21
-73.4759
0
LINE
8
Black
10
135.109
20
-73.4759
11
135.055
21
-73.3284
0
LINE
8
Black
10
135.055
20
-73.3284
11
135.055
21
-73.1716
0
LINE
8
Black
10
135.055
20
-73.1716
11
135.109
21
-73.0241
0
LINE
8
Black
10
135.109
20
-73.0241
11
135.21
21
-72.904
0
LINE
8
Black
10
135.21
20
-72.904
11
135.346
21
-72.8255
0
LINE
8
Black
10
135.346
20
-72.8255
11
135.5
21
-72.7983
0
LINE
8
Black
10
135.5
20
-72.7983
11
135.654
21
-72.8255
0
LINE
8
Black
10
113.643
20
-71.8988
11
113.578
21
-71.3275
0
LINE
8
Black
10
113.578
20
-71.3275
11
113.578
21
-71.3203
0
LINE
8
Black
10
113.578
20
-71.3203
11
113.577
21
-71.3131
0
LINE
8
Black
10
113.577
20
-71.3131
11
113.577
21
-70.4475
0
LINE
8
Black
10
113.577
20
-70.4475
11
113.579
21
-70.4365
0
LINE
8
Black
10
113.579
20
-70.4365
11
113.579
21
-70.4254
0
LINE
8
Black
10
113.579
20
-70.4254
11
113.582
21
-70.415
0
LINE
8
Black
10
113.582
20
-70.415
11
113.584
21
-70.404
0
LINE
8
Black
10
113.584
20
-70.404
11
113.59
21
-70.3944
0
LINE
8
Black
10
113.59
20
-70.3944
11
113.594
21
-70.384
0
LINE
8
Black
10
113.594
20
-70.384
11
113.601
21
-70.3755
0
LINE
8
Black
10
113.601
20
-70.3755
11
113.606
21
-70.3658
0
LINE
8
Black
10
113.606
20
-70.3658
11
113.615
21
-70.3587
0
LINE
8
Black
10
113.615
20
-70.3587
11
113.622
21
-70.3502
0
LINE
8
Black
10
113.622
20
-70.3502
11
113.632
21
-70.3446
0
LINE
8
Black
10
113.632
20
-70.3446
11
113.64
21
-70.3375
0
LINE
8
Black
10
113.64
20
-70.3375
11
113.651
21
-70.3337
0
LINE
8
Black
10
113.651
20
-70.3337
11
113.66
21
-70.3281
0
LINE
8
Black
10
113.66
20
-70.3281
11
113.671
21
-70.3262
0
LINE
8
Black
10
113.671
20
-70.3262
11
113.682
21
-70.3224
0
LINE
8
Black
10
113.682
20
-70.3224
11
113.693
21
-70.3224
0
LINE
8
Black
10
113.693
20
-70.3224
11
113.704
21
-70.3205
0
LINE
8
Black
10
113.704
20
-70.3205
11
120.873
21
-70.3205
0
LINE
8
Black
10
120.873
20
-70.3205
11
120.884
21
-70.3224
0
LINE
8
Black
10
120.884
20
-70.3224
11
120.895
21
-70.3224
0
LINE
8
Black
10
120.895
20
-70.3224
11
120.905
21
-70.3262
0
LINE
8
Black
10
120.905
20
-70.3262
11
120.916
21
-70.3281
0
LINE
8
Black
10
120.916
20
-70.3281
11
120.926
21
-70.3337
0
LINE
8
Black
10
120.926
20
-70.3337
11
120.936
21
-70.3375
0
LINE
8
Black
10
120.936
20
-70.3375
11
120.945
21
-70.3446
0
LINE
8
Black
10
120.945
20
-70.3446
11
120.955
21
-70.3502
0
LINE
8
Black
10
120.955
20
-70.3502
11
120.962
21
-70.3587
0
LINE
8
Black
10
120.962
20
-70.3587
11
120.97
21
-70.3658
0
LINE
8
Black
10
120.97
20
-70.3658
11
120.976
21
-70.3755
0
LINE
8
Black
10
120.976
20
-70.3755
11
120.983
21
-70.384
0
LINE
8
Black
10
120.983
20
-70.384
11
120.987
21
-70.3944
0
LINE
8
Black
10
120.987
20
-70.3944
11
120.992
21
-70.404
0
LINE
8
Black
10
120.992
20
-70.404
11
120.994
21
-70.415
0
LINE
8
Black
10
120.994
20
-70.415
11
120.998
21
-70.4254
0
LINE
8
Black
10
120.998
20
-70.4254
11
120.998
21
-70.4365
0
LINE
8
Black
10
120.998
20
-70.4365
11
121
21
-70.4475
0
LINE
8
Black
10
121
20
-70.4475
11
121
21
-91.873
0
LINE
8
Black
10
121
20
-91.873
11
120.998
21
-91.8839
0
LINE
8
Black
10
120.998
20
-91.8839
11
120.998
21
-91.8951
0
LINE
8
Black
10
120.998
20
-91.8951
11
120.994
21
-91.9055
0
LINE
8
Black
10
120.994
20
-91.9055
11
120.992
21
-91.9164
0
LINE
8
Black
10
120.992
20
-91.9164
11
120.987
21
-91.9261
0
LINE
8
Black
10
120.987
20
-91.9261
11
120.983
21
-91.9365
0
LINE
8
Black
10
120.983
20
-91.9365
11
120.976
21
-91.945
0
LINE
8
Black
10
120.976
20
-91.945
11
120.97
21
-91.9546
0
LINE
8
Black
10
120.97
20
-91.9546
11
120.962
21
-91.9618
0
LINE
8
Black
10
120.962
20
-91.9618
11
120.955
21
-91.9703
0
LINE
8
Black
10
120.955
20
-91.9703
11
120.945
21
-91.9758
0
LINE
8
Black
10
120.945
20
-91.9758
11
120.936
21
-91.983
0
LINE
8
Black
10
120.936
20
-91.983
11
120.926
21
-91.9868
0
LINE
8
Black
10
120.926
20
-91.9868
11
120.916
21
-91.9923
0
LINE
8
Black
10
120.916
20
-91.9923
11
120.905
21
-91.9943
0
LINE
8
Black
10
120.905
20
-91.9943
11
120.895
21
-91.9981
0
LINE
8
Black
10
120.895
20
-91.9981
11
120.884
21
-91.9981
0
LINE
8
Black
10
120.884
20
-91.9981
11
120.873
21
-92
0
LINE
8
Black
10
120.873
20
-92
11
110.354
21
-92
0
LINE
8
Black
10
110.354
20
-92
11
110.343
21
-91.9981
0
LINE
8
Black
10
110.343
20
-91.9981
11
110.332
21
-91.9981
0
LINE
8
Black
10
110.332
20
-91.9981
11
110.321
21
-91.9943
0
LINE
8
Black
10
110.321
20
-91.9943
11
110.31
21
-91.9923
0
LINE
8
Black
10
110.31
20
-91.9923
11
110.301
21
-91.9868
0
LINE
8
Black
10
110.301
20
-91.9868
11
110.29
21
-91.983
0
LINE
8
Black
10
110.29
20
-91.983
11
110.282
21
-91.9758
0
LINE
8
Black
10
110.282
20
-91.9758
11
110.272
21
-91.9703
0
LINE
8
Black
10
110.272
20
-91.9703
11
110.265
21
-91.9618
0
LINE
8
Black
10
110.265
20
-91.9618
11
110.256
21
-91.9546
0
LINE
8
Black
10
110.256
20
-91.9546
11
110.251
21
-91.945
0
LINE
8
Black
10
110.251
20
-91.945
11
110.244
21
-91.9365
0
LINE
8
Black
10
110.244
20
-91.9365
11
110.24
21
-91.9261
0
LINE
8
Black
10
110.24
20
-91.9261
11
110.234
21
-91.9164
0
LINE
8
Black
10
110.234
20
-91.9164
11
110.232
21
-91.9055
0
LINE
8
Black
10
110.232
20
-91.9055
11
110.229
21
-91.8951
0
LINE
8
Black
10
110.229
20
-91.8951
11
110.229
21
-91.8839
0
LINE
8
Black
10
110.229
20
-91.8839
11
110.227
21
-91.873
0
LINE
8
Black
10
110.227
20
-91.873
11
110.227
21
-73.7975
0
LINE
8
Black
10
110.227
20
-73.7975
11
110.229
21
-73.7865
0
LINE
8
Black
10
110.229
20
-73.7865
11
110.229
21
-73.7754
0
LINE
8
Black
10
110.229
20
-73.7754
11
110.232
21
-73.765
0
LINE
8
Black
10
110.232
20
-73.765
11
110.234
21
-73.754
0
LINE
8
Black
10
110.234
20
-73.754
11
110.24
21
-73.7444
0
LINE
8
Black
10
110.24
20
-73.7444
11
110.244
21
-73.734
0
LINE
8
Black
10
110.244
20
-73.734
11
110.251
21
-73.7255
0
LINE
8
Black
10
110.251
20
-73.7255
11
110.256
21
-73.7158
0
LINE
8
Black
10
110.256
20
-73.7158
11
110.265
21
-73.7087
0
LINE
8
Black
10
110.265
20
-73.7087
11
110.272
21
-73.7002
0
LINE
8
Black
10
110.272
20
-73.7002
11
110.282
21
-73.6946
0
LINE
8
Black
10
110.282
20
-73.6946
11
110.29
21
-73.6875
0
LINE
8
Black
10
110.29
20
-73.6875
11
110.301
21
-73.6837
0
LINE
8
Black
10
110.301
20
-73.6837
11
110.31
21
-73.6781
0
LINE
8
Black
10
110.31
20
-73.6781
11
110.321
21
-73.6762
0
LINE
8
Black
10
110.321
20
-73.6762
11
110.332
21
-73.6724
0
LINE
8
Black
10
110.332
20
-73.6724
11
110.343
21
-73.6724
0
LINE
8
Black
10
110.343
20
-73.6724
11
110.354
21
-73.6705
0
LINE
8
Black
10
110.354
20
-73.6705
11
111.199
21
-73.6705
0
LINE
8
Black
10
111.199
20
-73.6705
11
111.212
21
-73.6726
0
LINE
8
Black
10
111.212
20
-73.6726
11
111.224
21
-73.6729
0
LINE
8
Black
10
111.224
20
-73.6729
11
111.516
21
-73.7309
0
LINE
8
Black
10
111.516
20
-73.7309
11
111.577
21
-73.7309
0
LINE
8
Black
10
111.577
20
-73.7309
11
111.582
21
-73.7318
0
LINE
8
Black
10
111.582
20
-73.7318
11
111.587
21
-73.7313
0
LINE
8
Black
10
111.587
20
-73.7313
11
111.648
21
-73.7364
0
LINE
8
Black
10
111.648
20
-73.7364
11
112.234
21
-73.6696
0
LINE
8
Black
10
112.234
20
-73.6696
11
112.356
21
-73.6305
0
LINE
8
Black
10
112.356
20
-73.6305
11
112.356
21
-73.6305
0
LINE
8
Black
10
112.356
20
-73.6305
11
112.388
21
-73.6205
0
LINE
8
Black
10
112.388
20
-73.6205
11
112.903
21
-73.3347
0
LINE
8
Black
10
112.903
20
-73.3347
11
112.971
21
-73.2776
0
LINE
8
Black
10
112.971
20
-73.2776
11
112.971
21
-73.2776
0
LINE
8
Black
10
112.971
20
-73.2776
11
113.026
21
-73.2306
0
LINE
8
Black
10
113.026
20
-73.2306
11
113.393
21
-72.7692
0
LINE
8
Black
10
113.393
20
-72.7692
11
113.445
21
-72.6674
0
LINE
8
Black
10
113.445
20
-72.6674
11
113.467
21
-72.626
0
LINE
8
Black
10
113.467
20
-72.626
11
113.629
21
-72.0593
0
LINE
8
Black
10
113.629
20
-72.0593
11
113.639
21
-71.9446
0
LINE
8
Black
10
113.639
20
-71.9446
11
113.639
21
-71.9446
0
LINE
8
Black
10
113.639
20
-71.9446
11
113.643
21
-71.8988
0
CIRCLE
8
Black
10
131.8
20
-72.3
40
0.2
0
CIRCLE
8
Black
10
142.25
20
-74.5
40
0.2
0
CIRCLE
8
Black
10
154.95
20
-77.7
40
0.2
0
CIRCLE
8
Black
10
131
20
-85
40
0.2
0
CIRCLE
8
Black
10
135
20
-89.5
40
0.2
0
CIRCLE
8
Black
10
147.5
20
-95.5
40
0.2
0
CIRCLE
8
Black
10
146.5
20
-95
40
0.2
0
CIRCLE
8
Black
10
146.5
20
-94
40
0.2
0
CIRCLE
8
Black
10
146.5
20
-93
40
0.2
0
CIRCLE
8
Black
10
146.5
20
-92
40
0.2
0
CIRCLE
8
Black
10
147
20
-91
40
0.2
0
CIRCLE
8
Black
10
148
20
-90
40
0.2
0
CIRCLE
8
Black
10
153.125
20
-83.0366
40
0.2
0
CIRCLE
8
Black
10
124
20
-89.5
40
0.2
0
CIRCLE
8
Black
10
123.25
20
-70.75
40
0.2
0
CIRCLE
8
Black
10
121.75
20
-70.75
40
0.2
0
CIRCLE
8
Black
10
121.704
20
-71.7043
40
0.2
0
CIRCLE
8
Black
10
114.5
20
-98
40
0.2
0
CIRCLE
8
Black
10
115.5
20
-98
40
0.2
0
CIRCLE
8
Black
10
116.5
20
-98
40
0.2
0
CIRCLE
8
Black
10
116
20
-93
40
0.2
0
CIRCLE
8
Black
10
115
20
-93
40
0.2
0
CIRCLE
8
Black
10
114
20
-93
40
0.2
0
CIRCLE
8
Black
10
113
20
-93
40
0.2
0
CIRCLE
8
Black
10
112
20
-93
40
0.2
0
CIRCLE
8
Black
10
111
20
-93
40
0.2
0
CIRCLE
8
Black
10
111
20
-94
40
0.2
0
CIRCLE
8
Black
10
112
20
-94
40
0.2
0
CIRCLE
8
Black
10
113
20
-94
40
0.2
0
CIRCLE
8
Black
10
114
20
-94
40
0.2
0
CIRCLE
8
Black
10
115
20
-94
40
0.2
0
CIRCLE
8
Black
10
116
20
-94
40
0.2
0
CIRCLE
8
Black
10
116.5
20
-97
40
0.2
0
CIRCLE
8
Black
10
115.5
20
-97
40
0.2
0
CIRCLE
8
Black
10
114.5
20
-97
40
0.2
0
CIRCLE
8
Black
10
113.5
20
-97
40
0.2
0
CIRCLE
8
Black
10
141.75
20
-72.25
40
0.2
0
CIRCLE
8
Black
10
128.75
20
-73.75
40
0.2
0
CIRCLE
8
Black
10
151.5
20
-75.75
40
0.2
0
CIRCLE
8
Black
10
146.75
20
-74
40
0.2
0
CIRCLE
8
Black
10
145.75
20
-74.75
40
0.2
0
CIRCLE
8
Black
10
146.75
20
-75.25
40
0.2
0
CIRCLE
8
Black
10
145.75
20
-78
40
0.2
0
CIRCLE
8
Black
10
144.5
20
-77.25
40
0.2
0
CIRCLE
8
Black
10
145.75
20
-76.5
40
0.2
0
CIRCLE
8
Black
10
156.25
20
-92.25
40
0.2
0
CIRCLE
8
Black
10
157
20
-93.5
40
0.2
0
CIRCLE
8
Black
10
156.25
20
-94.75
40
0.2
0
CIRCLE
8
Black
10
155.5
20
-93.5
40
0.2
0
CIRCLE
8
Black
10
154.5
20
-92.5
40
0.2
0
CIRCLE
8
Black
10
154
20
-93.5
40
0.2
0
CIRCLE
8
Black
10
153.25
20
-93.5
40
0.2
0
CIRCLE
8
Black
10
153
20
-92.5
40
0.2
0
CIRCLE
8
Black
10
151.75
20
-86
40
0.2
0
CIRCLE
8
Black
10
155
20
-86.5
40
0.2
0
CIRCLE
8
Black
10
155
20
-87.25
40
0.2
0
CIRCLE
8
Black
10
155.75
20
-87.25
40
0.2
0
CIRCLE
8
Black
10
130.75
20
-78.75
40
0.2
0
CIRCLE
8
Black
10
130
20
-79.75
40
0.2
0
CIRCLE
8
Black
10
126.25
20
-79.75
40
0.2
0
CIRCLE
8
Black
10
125.5
20
-79.75
40
0.2
0
CIRCLE
8
Black
10
133.5
20
-86.5
40
0.2
0
CIRCLE
8
Black
10
137
20
-87
40
0.2
0
CIRCLE
8
Black
10
136
20
-86.5
40
0.2
0
CIRCLE
8
Black
10
153.635
20
-89.5751
40
0.2
0
CIRCLE
8
Black
10
154
20
-87
40
0.2
0
CIRCLE
8
Black
10
117.994
20
-86
40
0.2
0
CIRCLE
8
Black
10
111
20
-91
40
0.2
0
CIRCLE
8
Black
10
112
20
-91
40
0.2
0
CIRCLE
8
Black
10
113
20
-91
40
0.2
0
CIRCLE
8
Black
10
114
20
-91
40
0.2
0
CIRCLE
8
Black
10
115
20
-91
40
0.2
0
CIRCLE
8
Black
10
116
20
-91
40
0.2
0
CIRCLE
8
Black
10
117
20
-91
40
0.2
0
CIRCLE
8
Black
10
118
20
-91
40
0.2
0
CIRCLE
8
Black
10
118
20
-90
40
0.2
0
CIRCLE
8
Black
10
118
20
-89
40
0.2
0
CIRCLE
8
Black
10
118
20
-88
40
0.2
0
CIRCLE
8
Black
10
119
20
-88
40
0.2
0
CIRCLE
8
Black
10
119
20
-89
40
0.2
0
CIRCLE
8
Black
10
119
20
-90
40
0.2
0
CIRCLE
8
Black
10
119
20
-91
40
0.2
0
CIRCLE
8
Black
10
120
20
-91
40
0.2
0
CIRCLE
8
Black
10
120
20
-90
40
0.2
0
CIRCLE
8
Black
10
120
20
-89
40
0.2
0
CIRCLE
8
Black
10
120
20
-88
40
0.2
0
CIRCLE
8
Black
10
120
20
-87
40
0.2
0
CIRCLE
8
Black
10
119
20
-87
40
0.2
0
CIRCLE
8
Black
10
118
20
-87
40
0.2
0
CIRCLE
8
Black
10
117
20
-87
40
0.2
0
CIRCLE
8
Black
10
116
20
-87
40
0.2
0
CIRCLE
8
Black
10
115
20
-87
40
0.2
0
CIRCLE
8
Black
10
114
20
-87
40
0.2
0
CIRCLE
8
Black
10
114
20
-80
40
0.2
0
CIRCLE
8
Black
10
114
20
-81
40
0.2
0
CIRCLE
8
Black
10
114
20
-82
40
0.2
0
CIRCLE
8
Black
10
114
20
-83
40
0.2
0
CIRCLE
8
Black
10
114
20
-84
40
0.2
0
CIRCLE
8
Black
10
114
20
-85
40
0.2
0
CIRCLE
8
Black
10
114
20
-86
40
0.2
0
CIRCLE
8
Black
10
115
20
-86
40
0.2
0
CIRCLE
8
Black
10
115
20
-85
40
0.2
0
CIRCLE
8
Black
10
115
20
-84
40
0.2
0
CIRCLE
8
Black
10
115
20
-83
40
0.2
0
CIRCLE
8
Black
10
115
20
-82
40
0.2
0
CIRCLE
8
Black
10
115
20
-81
40
0.2
0
CIRCLE
8
Black
10
115
20
-80
40
0.2
0
CIRCLE
8
Black
10
115
20
-79
40
0.2
0
CIRCLE
8
Black
10
116
20
-79
40
0.2
0
CIRCLE
8
Black
10
116
20
-80
40
0.2
0
CIRCLE
8
Black
10
116
20
-81
40
0.2
0
CIRCLE
8
Black
10
116
20
-82
40
0.2
0
CIRCLE
8
Black
10
116
20
-83
40
0.2
0
CIRCLE
8
Black
10
116
20
-84
40
0.2
0
CIRCLE
8
Black
10
116
20
-85
40
0.2
0
CIRCLE
8
Black
10
116
20
-86
40
0.2
0
CIRCLE
8
Black
10
117
20
-86
40
0.2
0
CIRCLE
8
Black
10
117
20
-85
40
0.2
0
CIRCLE
8
Black
10
117
20
-84
40
0.2
0
CIRCLE
8
Black
10
117
20
-83
40
0.2
0
CIRCLE
8
Black
10
117
20
-82
40
0.2
0
CIRCLE
8
Black
10
117
20
-81
40
0.2
0
CIRCLE
8
Black
10
117
20
-80
40
0.2
0
CIRCLE
8
Black
10
117
20
-79
40
0.2
0
CIRCLE
8
Black
10
118
20
-79
40
0.2
0
CIRCLE
8
Black
10
118
20
-80
40
0.2
0
CIRCLE
8
Black
10
118
20
-81
40
0.2
0
CIRCLE
8
Black
10
118
20
-82
40
0.2
0
CIRCLE
8
Black
10
118
20
-83
40
0.2
0
CIRCLE
8
Black
10
118
20
-84
40
0.2
0
CIRCLE
8
Black
10
118
20
-85
40
0.2
0
CIRCLE
8
Black
10
119
20
-85
40
0.2
0
CIRCLE
8
Black
10
119
20
-84
40
0.2
0
CIRCLE
8
Black
10
119
20
-83
40
0.2
0
CIRCLE
8
Black
10
119
20
-82
40
0.2
0
CIRCLE
8
Black
10
119
20
-81
40
0.2
0
CIRCLE
8
Black
10
119
20
-80
40
0.2
0
CIRCLE
8
Black
10
119
20
-79
40
0.2
0
CIRCLE
8
Black
10
120
20
-79
40
0.2
0
CIRCLE
8
Black
10
120
20
-80
40
0.2
0
CIRCLE
8
Black
10
120
20
-81
40
0.2
0
CIRCLE
8
Black
10
120
20
-82
40
0.2
0
CIRCLE
8
Black
10
120
20
-83
40
0.2
0
CIRCLE
8
Black
10
120
20
-84
40
0.2
0
CIRCLE
8
Black
10
120
20
-85
40
0.2
0
CIRCLE
8
Black
10
119
20
-86
40
0.2
0
CIRCLE
8
Black
10
120
20
-86
40
0.2
0
CIRCLE
8
Black
10
129
20
-80
40
0.2
0
CIRCLE
8
Black
10
126
20
-76
40
0.2
0
CIRCLE
8
Black
10
132
20
-75.25
40
0.2
0
CIRCLE
8
Black
10
135.28
20
-76.2846
40
0.2
  0
ENDSEC
  0
EOF
