  0
SECTION
  2
HEADER
  9
$ANGBASE
  50
0.0
  9
$ANGDIR
  70
  1
  9
$MEASUREMENT
  70
0
  0
ENDSEC
  0
SECTION
  2
TABLES
  0
TABLE
  2
LTYPE
  70
1
  0
LTYPE
  2
CONTINUOUS
  70
0
  3
Solid line
  72
65
  73
0
  40
0.0
  0
ENDTAB
  0
TABLE
  2
STYLE
  70
4
  0
STYLE
  2
KICAD
  70
0
  40
0
  41
1
  42
1
  50
0
  71
0
  3
isocp.shx
  0
STYLE
  2
KICADB
  70
0
  40
0
  41
1
  42
1
  50
0
  71
0
  3
isocp.shx
  0
STYLE
  2
KICADI
  70
0
  40
0
  41
1
  42
1
  50
15
  71
0
  3
isocp.shx
  0
STYLE
  2
KICADBI
  70
0
  40
0
  41
1
  42
1
  50
15
  71
0
  3
isocp.shx
  0
ENDTAB
  0
TABLE
  2
LAYER
  70
30
  0
LAYER
  2
BLACK
  70
0
  62
7
  6
CONTINUOUS
  0
LAYER
  2
GRAY1
  70
0
  62
251
  6
CONTINUOUS
  0
LAYER
  2
GRAY2
  70
0
  62
8
  6
CONTINUOUS
  0
LAYER
  2
GRAY3
  70
0
  62
9
  6
CONTINUOUS
  0
LAYER
  2
WHITE
  70
0
  62
7
  6
CONTINUOUS
  0
LAYER
  2
LYELLOW
  70
0
  62
51
  6
CONTINUOUS
  0
LAYER
  2
BLUE1
  70
0
  62
178
  6
CONTINUOUS
  0
LAYER
  2
GREEN1
  70
0
  62
98
  6
CONTINUOUS
  0
LAYER
  2
CYAN1
  70
0
  62
138
  6
CONTINUOUS
  0
LAYER
  2
RED1
  70
0
  62
18
  6
CONTINUOUS
  0
LAYER
  2
MAGENTA1
  70
0
  62
228
  6
CONTINUOUS
  0
LAYER
  2
BROWN1
  70
0
  62
58
  6
CONTINUOUS
  0
LAYER
  2
BLUE2
  70
0
  62
5
  6
CONTINUOUS
  0
LAYER
  2
GREEN2
  70
0
  62
3
  6
CONTINUOUS
  0
LAYER
  2
CYAN2
  70
0
  62
4
  6
CONTINUOUS
  0
LAYER
  2
RED2
  70
0
  62
1
  6
CONTINUOUS
  0
LAYER
  2
MAGENTA2
  70
0
  62
6
  6
CONTINUOUS
  0
LAYER
  2
BROWN2
  70
0
  62
54
  6
CONTINUOUS
  0
LAYER
  2
BLUE3
  70
0
  62
171
  6
CONTINUOUS
  0
LAYER
  2
GREEN3
  70
0
  62
91
  6
CONTINUOUS
  0
LAYER
  2
CYAN3
  70
0
  62
131
  6
CONTINUOUS
  0
LAYER
  2
RED3
  70
0
  62
11
  6
CONTINUOUS
  0
LAYER
  2
MAGENTA3
  70
0
  62
221
  6
CONTINUOUS
  0
LAYER
  2
YELLOW3
  70
0
  62
2
  6
CONTINUOUS
  0
LAYER
  2
BLUE4
  70
0
  62
5
  6
CONTINUOUS
  0
LAYER
  2
GREEN4
  70
0
  62
3
  6
CONTINUOUS
  0
LAYER
  2
CYAN4
  70
0
  62
4
  6
CONTINUOUS
  0
LAYER
  2
RED4
  70
0
  62
1
  6
CONTINUOUS
  0
LAYER
  2
MAGENTA4
  70
0
  62
6
  6
CONTINUOUS
  0
LAYER
  2
YELLOW4
  70
0
  62
2
  6
CONTINUOUS
  0
ENDTAB
  0
ENDSEC
  0
SECTION
  2
ENTITIES
0
LINE
8
Black
10
123.007
20
-97.9425
11
123.234
21
-98.0733
0
LINE
8
Black
10
123.234
20
-98.0733
11
123.402
21
-98.2736
0
LINE
8
Black
10
123.402
20
-98.2736
11
123.491
21
-98.5193
0
LINE
8
Black
10
123.491
20
-98.5193
11
123.491
21
-98.7807
0
LINE
8
Black
10
123.491
20
-98.7807
11
123.402
21
-99.0264
0
LINE
8
Black
10
123.402
20
-99.0264
11
123.234
21
-99.2267
0
LINE
8
Black
10
123.234
20
-99.2267
11
123.007
21
-99.3575
0
LINE
8
Black
10
123.007
20
-99.3575
11
122.75
21
-99.4029
0
LINE
8
Black
10
122.75
20
-99.4029
11
122.493
21
-99.3575
0
LINE
8
Black
10
122.493
20
-99.3575
11
122.266
21
-99.2267
0
LINE
8
Black
10
122.266
20
-99.2267
11
122.098
21
-99.0264
0
LINE
8
Black
10
122.098
20
-99.0264
11
122.009
21
-98.7807
0
LINE
8
Black
10
122.009
20
-98.7807
11
122.009
21
-98.5193
0
LINE
8
Black
10
122.009
20
-98.5193
11
122.098
21
-98.2736
0
LINE
8
Black
10
122.098
20
-98.2736
11
122.266
21
-98.0733
0
LINE
8
Black
10
122.266
20
-98.0733
11
122.493
21
-97.9425
0
LINE
8
Black
10
122.493
20
-97.9425
11
122.75
21
-97.8971
0
LINE
8
Black
10
122.75
20
-97.8971
11
123.007
21
-97.9425
0
LINE
8
Black
10
123.007
20
-92.9425
11
123.234
21
-93.0733
0
LINE
8
Black
10
123.234
20
-93.0733
11
123.402
21
-93.2736
0
LINE
8
Black
10
123.402
20
-93.2736
11
123.491
21
-93.5193
0
LINE
8
Black
10
123.491
20
-93.5193
11
123.491
21
-93.7807
0
LINE
8
Black
10
123.491
20
-93.7807
11
123.402
21
-94.0264
0
LINE
8
Black
10
123.402
20
-94.0264
11
123.234
21
-94.2267
0
LINE
8
Black
10
123.234
20
-94.2267
11
123.007
21
-94.3575
0
LINE
8
Black
10
123.007
20
-94.3575
11
122.75
21
-94.4029
0
LINE
8
Black
10
122.75
20
-94.4029
11
122.493
21
-94.3575
0
LINE
8
Black
10
122.493
20
-94.3575
11
122.266
21
-94.2267
0
LINE
8
Black
10
122.266
20
-94.2267
11
122.098
21
-94.0264
0
LINE
8
Black
10
122.098
20
-94.0264
11
122.009
21
-93.7807
0
LINE
8
Black
10
122.009
20
-93.7807
11
122.009
21
-93.5193
0
LINE
8
Black
10
122.009
20
-93.5193
11
122.098
21
-93.2736
0
LINE
8
Black
10
122.098
20
-93.2736
11
122.266
21
-93.0733
0
LINE
8
Black
10
122.266
20
-93.0733
11
122.493
21
-92.9425
0
LINE
8
Black
10
122.493
20
-92.9425
11
122.75
21
-92.8971
0
LINE
8
Black
10
122.75
20
-92.8971
11
123.007
21
-92.9425
0
LINE
8
Black
10
120.884
20
-70.0019
11
120.895
21
-70.0019
0
LINE
8
Black
10
120.895
20
-70.0019
11
120.905
21
-70.0057
0
LINE
8
Black
10
120.905
20
-70.0057
11
120.916
21
-70.0077
0
LINE
8
Black
10
120.916
20
-70.0077
11
120.926
21
-70.0132
0
LINE
8
Black
10
120.926
20
-70.0132
11
120.936
21
-70.017
0
LINE
8
Black
10
120.936
20
-70.017
11
120.945
21
-70.0242
0
LINE
8
Black
10
120.945
20
-70.0242
11
120.955
21
-70.0297
0
LINE
8
Black
10
120.955
20
-70.0297
11
120.962
21
-70.0382
0
LINE
8
Black
10
120.962
20
-70.0382
11
120.97
21
-70.0454
0
LINE
8
Black
10
120.97
20
-70.0454
11
120.976
21
-70.055
0
LINE
8
Black
10
120.976
20
-70.055
11
120.983
21
-70.0635
0
LINE
8
Black
10
120.983
20
-70.0635
11
120.987
21
-70.0739
0
LINE
8
Black
10
120.987
20
-70.0739
11
120.992
21
-70.0836
0
LINE
8
Black
10
120.992
20
-70.0836
11
120.994
21
-70.0945
0
LINE
8
Black
10
120.994
20
-70.0945
11
120.998
21
-70.1049
0
LINE
8
Black
10
120.998
20
-70.1049
11
120.998
21
-70.1161
0
LINE
8
Black
10
120.998
20
-70.1161
11
121
21
-70.127
0
LINE
8
Black
10
121
20
-70.127
11
121
21
-91.873
0
LINE
8
Black
10
121
20
-91.873
11
120.998
21
-91.8839
0
LINE
8
Black
10
120.998
20
-91.8839
11
120.998
21
-91.8951
0
LINE
8
Black
10
120.998
20
-91.8951
11
120.994
21
-91.9055
0
LINE
8
Black
10
120.994
20
-91.9055
11
120.992
21
-91.9164
0
LINE
8
Black
10
120.992
20
-91.9164
11
120.987
21
-91.9261
0
LINE
8
Black
10
120.987
20
-91.9261
11
120.983
21
-91.9365
0
LINE
8
Black
10
120.983
20
-91.9365
11
120.976
21
-91.945
0
LINE
8
Black
10
120.976
20
-91.945
11
120.97
21
-91.9546
0
LINE
8
Black
10
120.97
20
-91.9546
11
120.962
21
-91.9618
0
LINE
8
Black
10
120.962
20
-91.9618
11
120.955
21
-91.9703
0
LINE
8
Black
10
120.955
20
-91.9703
11
120.945
21
-91.9758
0
LINE
8
Black
10
120.945
20
-91.9758
11
120.936
21
-91.983
0
LINE
8
Black
10
120.936
20
-91.983
11
120.926
21
-91.9868
0
LINE
8
Black
10
120.926
20
-91.9868
11
120.916
21
-91.9923
0
LINE
8
Black
10
120.916
20
-91.9923
11
120.905
21
-91.9943
0
LINE
8
Black
10
120.905
20
-91.9943
11
120.895
21
-91.9981
0
LINE
8
Black
10
120.895
20
-91.9981
11
120.884
21
-91.9981
0
LINE
8
Black
10
120.884
20
-91.9981
11
120.873
21
-92
0
LINE
8
Black
10
120.873
20
-92
11
110.127
21
-92
0
LINE
8
Black
10
110.127
20
-92
11
110.116
21
-91.9981
0
LINE
8
Black
10
110.116
20
-91.9981
11
110.105
21
-91.9981
0
LINE
8
Black
10
110.105
20
-91.9981
11
110.095
21
-91.9943
0
LINE
8
Black
10
110.095
20
-91.9943
11
110.084
21
-91.9923
0
LINE
8
Black
10
110.084
20
-91.9923
11
110.074
21
-91.9868
0
LINE
8
Black
10
110.074
20
-91.9868
11
110.063
21
-91.983
0
LINE
8
Black
10
110.063
20
-91.983
11
110.055
21
-91.9758
0
LINE
8
Black
10
110.055
20
-91.9758
11
110.045
21
-91.9703
0
LINE
8
Black
10
110.045
20
-91.9703
11
110.038
21
-91.9618
0
LINE
8
Black
10
110.038
20
-91.9618
11
110.03
21
-91.9546
0
LINE
8
Black
10
110.03
20
-91.9546
11
110.024
21
-91.945
0
LINE
8
Black
10
110.024
20
-91.945
11
110.017
21
-91.9365
0
LINE
8
Black
10
110.017
20
-91.9365
11
110.013
21
-91.9261
0
LINE
8
Black
10
110.013
20
-91.9261
11
110.008
21
-91.9164
0
LINE
8
Black
10
110.008
20
-91.9164
11
110.006
21
-91.9055
0
LINE
8
Black
10
110.006
20
-91.9055
11
110.002
21
-91.8951
0
LINE
8
Black
10
110.002
20
-91.8951
11
110.002
21
-91.8839
0
LINE
8
Black
10
110.002
20
-91.8839
11
110
21
-91.873
0
LINE
8
Black
10
110
20
-91.873
11
110
21
-70.127
0
LINE
8
Black
10
110
20
-70.127
11
110.002
21
-70.1161
0
LINE
8
Black
10
110.002
20
-70.1161
11
110.002
21
-70.1049
0
LINE
8
Black
10
110.002
20
-70.1049
11
110.006
21
-70.0945
0
LINE
8
Black
10
110.006
20
-70.0945
11
110.008
21
-70.0836
0
LINE
8
Black
10
110.008
20
-70.0836
11
110.013
21
-70.0739
0
LINE
8
Black
10
110.013
20
-70.0739
11
110.017
21
-70.0635
0
LINE
8
Black
10
110.017
20
-70.0635
11
110.024
21
-70.055
0
LINE
8
Black
10
110.024
20
-70.055
11
110.03
21
-70.0454
0
LINE
8
Black
10
110.03
20
-70.0454
11
110.038
21
-70.0382
0
LINE
8
Black
10
110.038
20
-70.0382
11
110.045
21
-70.0297
0
LINE
8
Black
10
110.045
20
-70.0297
11
110.055
21
-70.0242
0
LINE
8
Black
10
110.055
20
-70.0242
11
110.063
21
-70.017
0
LINE
8
Black
10
110.063
20
-70.017
11
110.074
21
-70.0132
0
LINE
8
Black
10
110.074
20
-70.0132
11
110.084
21
-70.0077
0
LINE
8
Black
10
110.084
20
-70.0077
11
110.095
21
-70.0057
0
LINE
8
Black
10
110.095
20
-70.0057
11
110.105
21
-70.0019
0
LINE
8
Black
10
110.105
20
-70.0019
11
110.116
21
-70.0019
0
LINE
8
Black
10
110.116
20
-70.0019
11
110.127
21
-70
0
LINE
8
Black
10
110.127
20
-70
11
120.873
21
-70
0
LINE
8
Black
10
120.873
20
-70
11
120.884
21
-70.0019
0
LINE
8
Black
10
142.701
20
-88.3493
11
143.229
21
-88.6543
0
LINE
8
Black
10
143.229
20
-88.6543
11
143.621
21
-89.1217
0
LINE
8
Black
10
143.621
20
-89.1217
11
143.83
21
-89.695
0
LINE
8
Black
10
143.83
20
-89.695
11
143.83
21
-90.305
0
LINE
8
Black
10
143.83
20
-90.305
11
143.621
21
-90.8783
0
LINE
8
Black
10
143.621
20
-90.8783
11
143.229
21
-91.3457
0
LINE
8
Black
10
143.229
20
-91.3457
11
142.701
21
-91.6507
0
LINE
8
Black
10
142.701
20
-91.6507
11
142.1
21
-91.7567
0
LINE
8
Black
10
142.1
20
-91.7567
11
141.499
21
-91.6507
0
LINE
8
Black
10
141.499
20
-91.6507
11
140.971
21
-91.3457
0
LINE
8
Black
10
140.971
20
-91.3457
11
140.579
21
-90.8783
0
LINE
8
Black
10
140.579
20
-90.8783
11
140.37
21
-90.305
0
LINE
8
Black
10
140.37
20
-90.305
11
140.37
21
-89.695
0
LINE
8
Black
10
140.37
20
-89.695
11
140.579
21
-89.1217
0
LINE
8
Black
10
140.579
20
-89.1217
11
140.971
21
-88.6543
0
LINE
8
Black
10
140.971
20
-88.6543
11
141.499
21
-88.3493
0
LINE
8
Black
10
141.499
20
-88.3493
11
142.1
21
-88.2433
0
LINE
8
Black
10
142.1
20
-88.2433
11
142.701
21
-88.3493
0
LINE
8
Black
10
135.61
20
-86.9952
11
135.836
21
-87.1255
0
LINE
8
Black
10
135.836
20
-87.1255
11
136.003
21
-87.325
0
LINE
8
Black
10
136.003
20
-87.325
11
136.092
21
-87.5698
0
LINE
8
Black
10
136.092
20
-87.5698
11
136.092
21
-87.8302
0
LINE
8
Black
10
136.092
20
-87.8302
11
136.003
21
-88.075
0
LINE
8
Black
10
136.003
20
-88.075
11
135.836
21
-88.2745
0
LINE
8
Black
10
135.836
20
-88.2745
11
135.61
21
-88.4048
0
LINE
8
Black
10
135.61
20
-88.4048
11
135.354
21
-88.45
0
LINE
8
Black
10
135.354
20
-88.45
11
134.846
21
-88.45
0
LINE
8
Black
10
134.846
20
-88.45
11
134.59
21
-88.4048
0
LINE
8
Black
10
134.59
20
-88.4048
11
134.364
21
-88.2745
0
LINE
8
Black
10
134.364
20
-88.2745
11
134.197
21
-88.075
0
LINE
8
Black
10
134.197
20
-88.075
11
134.108
21
-87.8302
0
LINE
8
Black
10
134.108
20
-87.8302
11
134.108
21
-87.5698
0
LINE
8
Black
10
134.108
20
-87.5698
11
134.197
21
-87.325
0
LINE
8
Black
10
134.197
20
-87.325
11
134.364
21
-87.1255
0
LINE
8
Black
10
134.364
20
-87.1255
11
134.59
21
-86.9952
0
LINE
8
Black
10
134.59
20
-86.9952
11
134.846
21
-86.95
0
LINE
8
Black
10
134.846
20
-86.95
11
135.354
21
-86.95
0
LINE
8
Black
10
135.354
20
-86.95
11
135.61
21
-86.9952
0
LINE
8
Black
10
135.61
20
-84.4952
11
135.836
21
-84.6255
0
LINE
8
Black
10
135.836
20
-84.6255
11
136.003
21
-84.825
0
LINE
8
Black
10
136.003
20
-84.825
11
136.092
21
-85.0698
0
LINE
8
Black
10
136.092
20
-85.0698
11
136.092
21
-85.3302
0
LINE
8
Black
10
136.092
20
-85.3302
11
136.003
21
-85.575
0
LINE
8
Black
10
136.003
20
-85.575
11
135.836
21
-85.7745
0
LINE
8
Black
10
135.836
20
-85.7745
11
135.61
21
-85.9048
0
LINE
8
Black
10
135.61
20
-85.9048
11
135.354
21
-85.95
0
LINE
8
Black
10
135.354
20
-85.95
11
134.846
21
-85.95
0
LINE
8
Black
10
134.846
20
-85.95
11
134.59
21
-85.9048
0
LINE
8
Black
10
134.59
20
-85.9048
11
134.364
21
-85.7745
0
LINE
8
Black
10
134.364
20
-85.7745
11
134.197
21
-85.575
0
LINE
8
Black
10
134.197
20
-85.575
11
134.108
21
-85.3302
0
LINE
8
Black
10
134.108
20
-85.3302
11
134.108
21
-85.0698
0
LINE
8
Black
10
134.108
20
-85.0698
11
134.197
21
-84.825
0
LINE
8
Black
10
134.197
20
-84.825
11
134.364
21
-84.6255
0
LINE
8
Black
10
134.364
20
-84.6255
11
134.59
21
-84.4952
0
LINE
8
Black
10
134.59
20
-84.4952
11
134.846
21
-84.45
0
LINE
8
Black
10
134.846
20
-84.45
11
135.354
21
-84.45
0
LINE
8
Black
10
135.354
20
-84.45
11
135.61
21
-84.4952
0
LINE
8
Black
10
135.61
20
-81.9952
11
135.836
21
-82.1255
0
LINE
8
Black
10
135.836
20
-82.1255
11
136.003
21
-82.325
0
LINE
8
Black
10
136.003
20
-82.325
11
136.092
21
-82.5698
0
LINE
8
Black
10
136.092
20
-82.5698
11
136.092
21
-82.8302
0
LINE
8
Black
10
136.092
20
-82.8302
11
136.003
21
-83.075
0
LINE
8
Black
10
136.003
20
-83.075
11
135.836
21
-83.2745
0
LINE
8
Black
10
135.836
20
-83.2745
11
135.61
21
-83.4048
0
LINE
8
Black
10
135.61
20
-83.4048
11
135.354
21
-83.45
0
LINE
8
Black
10
135.354
20
-83.45
11
134.846
21
-83.45
0
LINE
8
Black
10
134.846
20
-83.45
11
134.59
21
-83.4048
0
LINE
8
Black
10
134.59
20
-83.4048
11
134.364
21
-83.2745
0
LINE
8
Black
10
134.364
20
-83.2745
11
134.197
21
-83.075
0
LINE
8
Black
10
134.197
20
-83.075
11
134.108
21
-82.8302
0
LINE
8
Black
10
134.108
20
-82.8302
11
134.108
21
-82.5698
0
LINE
8
Black
10
134.108
20
-82.5698
11
134.197
21
-82.325
0
LINE
8
Black
10
134.197
20
-82.325
11
134.364
21
-82.1255
0
LINE
8
Black
10
134.364
20
-82.1255
11
134.59
21
-81.9952
0
LINE
8
Black
10
134.59
20
-81.9952
11
134.846
21
-81.95
0
LINE
8
Black
10
134.846
20
-81.95
11
135.354
21
-81.95
0
LINE
8
Black
10
135.354
20
-81.95
11
135.61
21
-81.9952
0
LINE
8
Black
10
142.701
20
-78.7493
11
143.229
21
-79.0543
0
LINE
8
Black
10
143.229
20
-79.0543
11
143.621
21
-79.5217
0
LINE
8
Black
10
143.621
20
-79.5217
11
143.83
21
-80.095
0
LINE
8
Black
10
143.83
20
-80.095
11
143.83
21
-80.705
0
LINE
8
Black
10
143.83
20
-80.705
11
143.621
21
-81.2783
0
LINE
8
Black
10
143.621
20
-81.2783
11
143.229
21
-81.7457
0
LINE
8
Black
10
143.229
20
-81.7457
11
142.701
21
-82.0507
0
LINE
8
Black
10
142.701
20
-82.0507
11
142.1
21
-82.1567
0
LINE
8
Black
10
142.1
20
-82.1567
11
141.499
21
-82.0507
0
LINE
8
Black
10
141.499
20
-82.0507
11
140.971
21
-81.7457
0
LINE
8
Black
10
140.971
20
-81.7457
11
140.579
21
-81.2783
0
LINE
8
Black
10
140.579
20
-81.2783
11
140.37
21
-80.705
0
LINE
8
Black
10
140.37
20
-80.705
11
140.37
21
-80.095
0
LINE
8
Black
10
140.37
20
-80.095
11
140.579
21
-79.5217
0
LINE
8
Black
10
140.579
20
-79.5217
11
140.971
21
-79.0543
0
LINE
8
Black
10
140.971
20
-79.0543
11
141.499
21
-78.7493
0
LINE
8
Black
10
141.499
20
-78.7493
11
142.1
21
-78.6433
0
LINE
8
Black
10
142.1
20
-78.6433
11
142.701
21
-78.7493
0
LINE
8
Black
10
138.654
20
-72.8255
11
138.79
21
-72.904
0
LINE
8
Black
10
138.79
20
-72.904
11
138.891
21
-73.0241
0
LINE
8
Black
10
138.891
20
-73.0241
11
138.945
21
-73.1716
0
LINE
8
Black
10
138.945
20
-73.1716
11
138.945
21
-73.3284
0
LINE
8
Black
10
138.945
20
-73.3284
11
138.891
21
-73.4759
0
LINE
8
Black
10
138.891
20
-73.4759
11
138.79
21
-73.596
0
LINE
8
Black
10
138.79
20
-73.596
11
138.654
21
-73.6745
0
LINE
8
Black
10
138.654
20
-73.6745
11
138.5
21
-73.7017
0
LINE
8
Black
10
138.5
20
-73.7017
11
138.346
21
-73.6745
0
LINE
8
Black
10
138.346
20
-73.6745
11
138.21
21
-73.596
0
LINE
8
Black
10
138.21
20
-73.596
11
138.109
21
-73.4759
0
LINE
8
Black
10
138.109
20
-73.4759
11
138.055
21
-73.3284
0
LINE
8
Black
10
138.055
20
-73.3284
11
138.055
21
-73.1716
0
LINE
8
Black
10
138.055
20
-73.1716
11
138.109
21
-73.0241
0
LINE
8
Black
10
138.109
20
-73.0241
11
138.21
21
-72.904
0
LINE
8
Black
10
138.21
20
-72.904
11
138.346
21
-72.8255
0
LINE
8
Black
10
138.346
20
-72.8255
11
138.5
21
-72.7983
0
LINE
8
Black
10
138.5
20
-72.7983
11
138.654
21
-72.8255
0
LINE
8
Black
10
135.654
20
-72.8255
11
135.79
21
-72.904
0
LINE
8
Black
10
135.79
20
-72.904
11
135.891
21
-73.0241
0
LINE
8
Black
10
135.891
20
-73.0241
11
135.945
21
-73.1716
0
LINE
8
Black
10
135.945
20
-73.1716
11
135.945
21
-73.3284
0
LINE
8
Black
10
135.945
20
-73.3284
11
135.891
21
-73.4759
0
LINE
8
Black
10
135.891
20
-73.4759
11
135.79
21
-73.596
0
LINE
8
Black
10
135.79
20
-73.596
11
135.654
21
-73.6745
0
LINE
8
Black
10
135.654
20
-73.6745
11
135.5
21
-73.7017
0
LINE
8
Black
10
135.5
20
-73.7017
11
135.346
21
-73.6745
0
LINE
8
Black
10
135.346
20
-73.6745
11
135.21
21
-73.596
0
LINE
8
Black
10
135.21
20
-73.596
11
135.109
21
-73.4759
0
LINE
8
Black
10
135.109
20
-73.4759
11
135.055
21
-73.3284
0
LINE
8
Black
10
135.055
20
-73.3284
11
135.055
21
-73.1716
0
LINE
8
Black
10
135.055
20
-73.1716
11
135.109
21
-73.0241
0
LINE
8
Black
10
135.109
20
-73.0241
11
135.21
21
-72.904
0
LINE
8
Black
10
135.21
20
-72.904
11
135.346
21
-72.8255
0
LINE
8
Black
10
135.346
20
-72.8255
11
135.5
21
-72.7983
0
LINE
8
Black
10
135.5
20
-72.7983
11
135.654
21
-72.8255
  0
ENDSEC
  0
EOF
