  0
SECTION
  2
HEADER
  9
$ANGBASE
  50
0.0
  9
$ANGDIR
  70
  1
  9
$MEASUREMENT
  70
0
  0
ENDSEC
  0
SECTION
  2
TABLES
  0
TABLE
  2
LTYPE
  70
1
  0
LTYPE
  2
CONTINUOUS
  70
0
  3
Solid line
  72
65
  73
0
  40
0.0
  0
ENDTAB
  0
TABLE
  2
STYLE
  70
4
  0
STYLE
  2
KICAD
  70
0
  40
0
  41
1
  42
1
  50
0
  71
0
  3
isocp.shx
  0
STYLE
  2
KICADB
  70
0
  40
0
  41
1
  42
1
  50
0
  71
0
  3
isocp.shx
  0
STYLE
  2
KICADI
  70
0
  40
0
  41
1
  42
1
  50
15
  71
0
  3
isocp.shx
  0
STYLE
  2
KICADBI
  70
0
  40
0
  41
1
  42
1
  50
15
  71
0
  3
isocp.shx
  0
ENDTAB
  0
TABLE
  2
LAYER
  70
30
  0
LAYER
  2
BLACK
  70
0
  62
7
  6
CONTINUOUS
  0
LAYER
  2
GRAY1
  70
0
  62
251
  6
CONTINUOUS
  0
LAYER
  2
GRAY2
  70
0
  62
8
  6
CONTINUOUS
  0
LAYER
  2
GRAY3
  70
0
  62
9
  6
CONTINUOUS
  0
LAYER
  2
WHITE
  70
0
  62
7
  6
CONTINUOUS
  0
LAYER
  2
LYELLOW
  70
0
  62
51
  6
CONTINUOUS
  0
LAYER
  2
BLUE1
  70
0
  62
178
  6
CONTINUOUS
  0
LAYER
  2
GREEN1
  70
0
  62
98
  6
CONTINUOUS
  0
LAYER
  2
CYAN1
  70
0
  62
138
  6
CONTINUOUS
  0
LAYER
  2
RED1
  70
0
  62
18
  6
CONTINUOUS
  0
LAYER
  2
MAGENTA1
  70
0
  62
228
  6
CONTINUOUS
  0
LAYER
  2
BROWN1
  70
0
  62
58
  6
CONTINUOUS
  0
LAYER
  2
BLUE2
  70
0
  62
5
  6
CONTINUOUS
  0
LAYER
  2
GREEN2
  70
0
  62
3
  6
CONTINUOUS
  0
LAYER
  2
CYAN2
  70
0
  62
4
  6
CONTINUOUS
  0
LAYER
  2
RED2
  70
0
  62
1
  6
CONTINUOUS
  0
LAYER
  2
MAGENTA2
  70
0
  62
6
  6
CONTINUOUS
  0
LAYER
  2
BROWN2
  70
0
  62
54
  6
CONTINUOUS
  0
LAYER
  2
BLUE3
  70
0
  62
171
  6
CONTINUOUS
  0
LAYER
  2
GREEN3
  70
0
  62
91
  6
CONTINUOUS
  0
LAYER
  2
CYAN3
  70
0
  62
131
  6
CONTINUOUS
  0
LAYER
  2
RED3
  70
0
  62
11
  6
CONTINUOUS
  0
LAYER
  2
MAGENTA3
  70
0
  62
221
  6
CONTINUOUS
  0
LAYER
  2
YELLOW3
  70
0
  62
2
  6
CONTINUOUS
  0
LAYER
  2
BLUE4
  70
0
  62
5
  6
CONTINUOUS
  0
LAYER
  2
GREEN4
  70
0
  62
3
  6
CONTINUOUS
  0
LAYER
  2
CYAN4
  70
0
  62
4
  6
CONTINUOUS
  0
LAYER
  2
RED4
  70
0
  62
1
  6
CONTINUOUS
  0
LAYER
  2
MAGENTA4
  70
0
  62
6
  6
CONTINUOUS
  0
LAYER
  2
YELLOW4
  70
0
  62
2
  6
CONTINUOUS
  0
ENDTAB
  0
ENDSEC
  0
SECTION
  2
ENTITIES
0
LINE
8
Black
10
155.831
20
-69.9212
11
155.835
21
-69.9212
0
LINE
8
Black
10
155.835
20
-69.9212
11
155.839
21
-69.9227
0
LINE
8
Black
10
155.839
20
-69.9227
11
155.844
21
-69.9235
0
LINE
8
Black
10
155.844
20
-69.9235
11
155.848
21
-69.9257
0
LINE
8
Black
10
155.848
20
-69.9257
11
155.852
21
-69.9272
0
LINE
8
Black
10
155.852
20
-69.9272
11
155.855
21
-69.93
0
LINE
8
Black
10
155.855
20
-69.93
11
155.859
21
-69.9322
0
LINE
8
Black
10
155.859
20
-69.9322
11
155.862
21
-69.9355
0
LINE
8
Black
10
155.862
20
-69.9355
11
155.865
21
-69.9383
0
LINE
8
Black
10
155.865
20
-69.9383
11
155.867
21
-69.9421
0
LINE
8
Black
10
155.867
20
-69.9421
11
155.87
21
-69.9455
0
LINE
8
Black
10
155.87
20
-69.9455
11
155.871
21
-69.9496
0
LINE
8
Black
10
155.871
20
-69.9496
11
155.874
21
-69.9534
0
LINE
8
Black
10
155.874
20
-69.9534
11
155.874
21
-69.9577
0
LINE
8
Black
10
155.874
20
-69.9577
11
155.876
21
-69.9618
0
LINE
8
Black
10
155.876
20
-69.9618
11
155.876
21
-69.9662
0
LINE
8
Black
10
155.876
20
-69.9662
11
155.877
21
-69.9705
0
LINE
8
Black
10
155.877
20
-69.9705
11
155.877
21
-71.3402
0
LINE
8
Black
10
155.877
20
-71.3402
11
155.876
21
-71.3467
0
LINE
8
Black
10
155.876
20
-71.3467
11
155.875
21
-71.3532
0
LINE
8
Black
10
155.875
20
-71.3532
11
155.837
21
-71.4939
0
LINE
8
Black
10
155.837
20
-71.4939
11
155.816
21
-72.0261
0
LINE
8
Black
10
155.816
20
-72.0261
11
155.978
21
-72.5302
0
LINE
8
Black
10
155.978
20
-72.5302
11
156.302
21
-72.9488
0
LINE
8
Black
10
156.302
20
-72.9488
11
156.75
21
-73.2312
0
LINE
8
Black
10
156.75
20
-73.2312
11
157.267
21
-73.3435
0
LINE
8
Black
10
157.267
20
-73.3435
11
157.8
21
-73.2709
0
LINE
8
Black
10
157.8
20
-73.2709
11
157.804
21
-73.2711
0
LINE
8
Black
10
157.804
20
-73.2711
11
157.807
21
-73.2705
0
LINE
8
Black
10
157.807
20
-73.2705
11
159.177
21
-73.2705
0
LINE
8
Black
10
159.177
20
-73.2705
11
159.181
21
-73.2712
0
LINE
8
Black
10
159.181
20
-73.2712
11
159.185
21
-73.2712
0
LINE
8
Black
10
159.185
20
-73.2712
11
159.189
21
-73.2727
0
LINE
8
Black
10
159.189
20
-73.2727
11
159.194
21
-73.2735
0
LINE
8
Black
10
159.194
20
-73.2735
11
159.198
21
-73.2757
0
LINE
8
Black
10
159.198
20
-73.2757
11
159.202
21
-73.2772
0
LINE
8
Black
10
159.202
20
-73.2772
11
159.205
21
-73.28
0
LINE
8
Black
10
159.205
20
-73.28
11
159.209
21
-73.2822
0
LINE
8
Black
10
159.209
20
-73.2822
11
159.212
21
-73.2855
0
LINE
8
Black
10
159.212
20
-73.2855
11
159.215
21
-73.2883
0
LINE
8
Black
10
159.215
20
-73.2883
11
159.217
21
-73.2921
0
LINE
8
Black
10
159.217
20
-73.2921
11
159.22
21
-73.2955
0
LINE
8
Black
10
159.22
20
-73.2955
11
159.221
21
-73.2996
0
LINE
8
Black
10
159.221
20
-73.2996
11
159.224
21
-73.3034
0
LINE
8
Black
10
159.224
20
-73.3034
11
159.224
21
-73.3077
0
LINE
8
Black
10
159.224
20
-73.3077
11
159.226
21
-73.3118
0
LINE
8
Black
10
159.226
20
-73.3118
11
159.226
21
-73.3162
0
LINE
8
Black
10
159.226
20
-73.3162
11
159.227
21
-73.3205
0
LINE
8
Black
10
159.227
20
-73.3205
11
159.227
21
-97.0205
0
LINE
8
Black
10
159.227
20
-97.0205
11
159.226
21
-97.0248
0
LINE
8
Black
10
159.226
20
-97.0248
11
159.226
21
-97.0291
0
LINE
8
Black
10
159.226
20
-97.0291
11
159.224
21
-97.0333
0
LINE
8
Black
10
159.224
20
-97.0333
11
159.224
21
-97.0376
0
LINE
8
Black
10
159.224
20
-97.0376
11
159.221
21
-97.0414
0
LINE
8
Black
10
159.221
20
-97.0414
11
159.22
21
-97.0455
0
LINE
8
Black
10
159.22
20
-97.0455
11
159.217
21
-97.0488
0
LINE
8
Black
10
159.217
20
-97.0488
11
159.215
21
-97.0526
0
LINE
8
Black
10
159.215
20
-97.0526
11
159.212
21
-97.0554
0
LINE
8
Black
10
159.212
20
-97.0554
11
159.209
21
-97.0588
0
LINE
8
Black
10
159.209
20
-97.0588
11
159.205
21
-97.061
0
LINE
8
Black
10
159.205
20
-97.061
11
159.202
21
-97.0638
0
LINE
8
Black
10
159.202
20
-97.0638
11
159.198
21
-97.0653
0
LINE
8
Black
10
159.198
20
-97.0653
11
159.194
21
-97.0675
0
LINE
8
Black
10
159.194
20
-97.0675
11
159.189
21
-97.0682
0
LINE
8
Black
10
159.189
20
-97.0682
11
159.185
21
-97.0697
0
LINE
8
Black
10
159.185
20
-97.0697
11
159.181
21
-97.0697
0
LINE
8
Black
10
159.181
20
-97.0697
11
159.177
21
-97.0705
0
LINE
8
Black
10
159.177
20
-97.0705
11
157.807
21
-97.0705
0
LINE
8
Black
10
157.807
20
-97.0705
11
157.8
21
-97.0693
0
LINE
8
Black
10
157.8
20
-97.0693
11
157.794
21
-97.0688
0
LINE
8
Black
10
157.794
20
-97.0688
11
157.653
21
-97.0311
0
LINE
8
Black
10
157.653
20
-97.0311
11
157.121
21
-97.0102
0
LINE
8
Black
10
157.121
20
-97.0102
11
156.617
21
-97.1716
0
LINE
8
Black
10
156.617
20
-97.1716
11
156.198
21
-97.4957
0
LINE
8
Black
10
156.198
20
-97.4957
11
155.916
21
-97.9434
0
LINE
8
Black
10
155.916
20
-97.9434
11
155.804
21
-98.4607
0
LINE
8
Black
10
155.804
20
-98.4607
11
155.876
21
-98.994
0
LINE
8
Black
10
155.876
20
-98.994
11
155.876
21
-98.9974
0
LINE
8
Black
10
155.876
20
-98.9974
11
155.877
21
-99.0007
0
LINE
8
Black
10
155.877
20
-99.0007
11
155.877
21
-100.37
0
LINE
8
Black
10
155.877
20
-100.37
11
155.876
21
-100.375
0
LINE
8
Black
10
155.876
20
-100.375
11
155.876
21
-100.379
0
LINE
8
Black
10
155.876
20
-100.379
11
155.874
21
-100.383
0
LINE
8
Black
10
155.874
20
-100.383
11
155.874
21
-100.388
0
LINE
8
Black
10
155.874
20
-100.388
11
155.871
21
-100.391
0
LINE
8
Black
10
155.871
20
-100.391
11
155.87
21
-100.395
0
LINE
8
Black
10
155.87
20
-100.395
11
155.867
21
-100.399
0
LINE
8
Black
10
155.867
20
-100.399
11
155.865
21
-100.403
0
LINE
8
Black
10
155.865
20
-100.403
11
155.862
21
-100.405
0
LINE
8
Black
10
155.862
20
-100.405
11
155.859
21
-100.409
0
LINE
8
Black
10
155.859
20
-100.409
11
155.855
21
-100.411
0
LINE
8
Black
10
155.855
20
-100.411
11
155.852
21
-100.414
0
LINE
8
Black
10
155.852
20
-100.414
11
155.848
21
-100.415
0
LINE
8
Black
10
155.848
20
-100.415
11
155.844
21
-100.417
0
LINE
8
Black
10
155.844
20
-100.417
11
155.839
21
-100.418
0
LINE
8
Black
10
155.839
20
-100.418
11
155.835
21
-100.42
0
LINE
8
Black
10
155.835
20
-100.42
11
155.831
21
-100.42
0
LINE
8
Black
10
155.831
20
-100.42
11
155.827
21
-100.42
0
LINE
8
Black
10
155.827
20
-100.42
11
113.227
21
-100.42
0
LINE
8
Black
10
113.227
20
-100.42
11
113.222
21
-100.42
0
LINE
8
Black
10
113.222
20
-100.42
11
113.218
21
-100.42
0
LINE
8
Black
10
113.218
20
-100.42
11
113.214
21
-100.418
0
LINE
8
Black
10
113.214
20
-100.418
11
113.21
21
-100.417
0
LINE
8
Black
10
113.21
20
-100.417
11
113.206
21
-100.415
0
LINE
8
Black
10
113.206
20
-100.415
11
113.202
21
-100.414
0
LINE
8
Black
10
113.202
20
-100.414
11
113.198
21
-100.411
0
LINE
8
Black
10
113.198
20
-100.411
11
113.195
21
-100.409
0
LINE
8
Black
10
113.195
20
-100.409
11
113.192
21
-100.405
0
LINE
8
Black
10
113.192
20
-100.405
11
113.188
21
-100.403
0
LINE
8
Black
10
113.188
20
-100.403
11
113.186
21
-100.399
0
LINE
8
Black
10
113.186
20
-100.399
11
113.183
21
-100.395
0
LINE
8
Black
10
113.183
20
-100.395
11
113.182
21
-100.391
0
LINE
8
Black
10
113.182
20
-100.391
11
113.18
21
-100.388
0
LINE
8
Black
10
113.18
20
-100.388
11
113.179
21
-100.383
0
LINE
8
Black
10
113.179
20
-100.383
11
113.177
21
-100.379
0
LINE
8
Black
10
113.177
20
-100.379
11
113.177
21
-100.375
0
LINE
8
Black
10
113.177
20
-100.375
11
113.177
21
-100.37
0
LINE
8
Black
10
113.177
20
-100.37
11
113.177
21
-99.0007
0
LINE
8
Black
10
113.177
20
-99.0007
11
113.178
21
-98.9943
0
LINE
8
Black
10
113.178
20
-98.9943
11
113.178
21
-98.9878
0
LINE
8
Black
10
113.178
20
-98.9878
11
113.216
21
-98.847
0
LINE
8
Black
10
113.216
20
-98.847
11
113.237
21
-98.3148
0
LINE
8
Black
10
113.237
20
-98.3148
11
113.076
21
-97.8107
0
LINE
8
Black
10
113.076
20
-97.8107
11
112.751
21
-97.3922
0
LINE
8
Black
10
112.751
20
-97.3922
11
112.304
21
-97.1097
0
LINE
8
Black
10
112.304
20
-97.1097
11
111.786
21
-96.9974
0
LINE
8
Black
10
111.786
20
-96.9974
11
111.253
21
-97.07
0
LINE
8
Black
10
111.253
20
-97.07
11
111.25
21
-97.0699
0
LINE
8
Black
10
111.25
20
-97.0699
11
111.246
21
-97.0705
0
LINE
8
Black
10
111.246
20
-97.0705
11
109.877
21
-97.0705
0
LINE
8
Black
10
109.877
20
-97.0705
11
109.872
21
-97.0697
0
LINE
8
Black
10
109.872
20
-97.0697
11
109.868
21
-97.0697
0
LINE
8
Black
10
109.868
20
-97.0697
11
109.864
21
-97.0682
0
LINE
8
Black
10
109.864
20
-97.0682
11
109.86
21
-97.0675
0
LINE
8
Black
10
109.86
20
-97.0675
11
109.856
21
-97.0653
0
LINE
8
Black
10
109.856
20
-97.0653
11
109.852
21
-97.0638
0
LINE
8
Black
10
109.852
20
-97.0638
11
109.848
21
-97.061
0
LINE
8
Black
10
109.848
20
-97.061
11
109.845
21
-97.0588
0
LINE
8
Black
10
109.845
20
-97.0588
11
109.842
21
-97.0554
0
LINE
8
Black
10
109.842
20
-97.0554
11
109.838
21
-97.0526
0
LINE
8
Black
10
109.838
20
-97.0526
11
109.836
21
-97.0488
0
LINE
8
Black
10
109.836
20
-97.0488
11
109.833
21
-97.0455
0
LINE
8
Black
10
109.833
20
-97.0455
11
109.832
21
-97.0414
0
LINE
8
Black
10
109.832
20
-97.0414
11
109.83
21
-97.0376
0
LINE
8
Black
10
109.83
20
-97.0376
11
109.829
21
-97.0333
0
LINE
8
Black
10
109.829
20
-97.0333
11
109.827
21
-97.0291
0
LINE
8
Black
10
109.827
20
-97.0291
11
109.827
21
-97.0248
0
LINE
8
Black
10
109.827
20
-97.0248
11
109.827
21
-97.0205
0
LINE
8
Black
10
109.827
20
-97.0205
11
109.827
21
-73.3205
0
LINE
8
Black
10
109.827
20
-73.3205
11
109.827
21
-73.3162
0
LINE
8
Black
10
109.827
20
-73.3162
11
109.827
21
-73.3118
0
LINE
8
Black
10
109.827
20
-73.3118
11
109.829
21
-73.3077
0
LINE
8
Black
10
109.829
20
-73.3077
11
109.83
21
-73.3034
0
LINE
8
Black
10
109.83
20
-73.3034
11
109.832
21
-73.2996
0
LINE
8
Black
10
109.832
20
-73.2996
11
109.833
21
-73.2955
0
LINE
8
Black
10
109.833
20
-73.2955
11
109.836
21
-73.2921
0
LINE
8
Black
10
109.836
20
-73.2921
11
109.838
21
-73.2883
0
LINE
8
Black
10
109.838
20
-73.2883
11
109.842
21
-73.2855
0
LINE
8
Black
10
109.842
20
-73.2855
11
109.845
21
-73.2822
0
LINE
8
Black
10
109.845
20
-73.2822
11
109.848
21
-73.28
0
LINE
8
Black
10
109.848
20
-73.28
11
109.852
21
-73.2772
0
LINE
8
Black
10
109.852
20
-73.2772
11
109.856
21
-73.2757
0
LINE
8
Black
10
109.856
20
-73.2757
11
109.86
21
-73.2735
0
LINE
8
Black
10
109.86
20
-73.2735
11
109.864
21
-73.2727
0
LINE
8
Black
10
109.864
20
-73.2727
11
109.868
21
-73.2712
0
LINE
8
Black
10
109.868
20
-73.2712
11
109.872
21
-73.2712
0
LINE
8
Black
10
109.872
20
-73.2712
11
109.877
21
-73.2705
0
LINE
8
Black
10
109.877
20
-73.2705
11
111.246
21
-73.2705
0
LINE
8
Black
10
111.246
20
-73.2705
11
111.253
21
-73.2716
0
LINE
8
Black
10
111.253
20
-73.2716
11
111.259
21
-73.2722
0
LINE
8
Black
10
111.259
20
-73.2722
11
111.4
21
-73.3099
0
LINE
8
Black
10
111.4
20
-73.3099
11
111.932
21
-73.3308
0
LINE
8
Black
10
111.932
20
-73.3308
11
112.436
21
-73.1694
0
LINE
8
Black
10
112.436
20
-73.1694
11
112.855
21
-72.8453
0
LINE
8
Black
10
112.855
20
-72.8453
11
113.137
21
-72.3975
0
LINE
8
Black
10
113.137
20
-72.3975
11
113.25
21
-71.8802
0
LINE
8
Black
10
113.25
20
-71.8802
11
113.177
21
-71.347
0
LINE
8
Black
10
113.177
20
-71.347
11
113.177
21
-71.3436
0
LINE
8
Black
10
113.177
20
-71.3436
11
113.177
21
-71.3402
0
LINE
8
Black
10
113.177
20
-71.3402
11
113.177
21
-69.9705
0
LINE
8
Black
10
113.177
20
-69.9705
11
113.177
21
-69.9662
0
LINE
8
Black
10
113.177
20
-69.9662
11
113.177
21
-69.9618
0
LINE
8
Black
10
113.177
20
-69.9618
11
113.179
21
-69.9577
0
LINE
8
Black
10
113.179
20
-69.9577
11
113.18
21
-69.9534
0
LINE
8
Black
10
113.18
20
-69.9534
11
113.182
21
-69.9496
0
LINE
8
Black
10
113.182
20
-69.9496
11
113.183
21
-69.9455
0
LINE
8
Black
10
113.183
20
-69.9455
11
113.186
21
-69.9421
0
LINE
8
Black
10
113.186
20
-69.9421
11
113.188
21
-69.9383
0
LINE
8
Black
10
113.188
20
-69.9383
11
113.192
21
-69.9355
0
LINE
8
Black
10
113.192
20
-69.9355
11
113.195
21
-69.9322
0
LINE
8
Black
10
113.195
20
-69.9322
11
113.198
21
-69.93
0
LINE
8
Black
10
113.198
20
-69.93
11
113.202
21
-69.9272
0
LINE
8
Black
10
113.202
20
-69.9272
11
113.206
21
-69.9257
0
LINE
8
Black
10
113.206
20
-69.9257
11
113.21
21
-69.9235
0
LINE
8
Black
10
113.21
20
-69.9235
11
113.214
21
-69.9227
0
LINE
8
Black
10
113.214
20
-69.9227
11
113.218
21
-69.9212
0
LINE
8
Black
10
113.218
20
-69.9212
11
113.222
21
-69.9212
0
LINE
8
Black
10
113.222
20
-69.9212
11
113.227
21
-69.9205
0
LINE
8
Black
10
113.227
20
-69.9205
11
155.827
21
-69.9205
0
LINE
8
Black
10
155.827
20
-69.9205
11
155.831
21
-69.9212
0
LINE
8
Black
10
111.799
20
-96.8978
11
112.334
21
-97.0138
0
LINE
8
Black
10
112.334
20
-97.0138
11
112.35
21
-97.0204
0
LINE
8
Black
10
112.35
20
-97.0204
11
112.812
21
-97.3123
0
LINE
8
Black
10
112.812
20
-97.3123
11
112.812
21
-97.3123
0
LINE
8
Black
10
112.812
20
-97.3123
11
112.825
21
-97.324
0
LINE
8
Black
10
112.825
20
-97.324
11
113.16
21
-97.7564
0
LINE
8
Black
10
113.16
20
-97.7564
11
113.168
21
-97.7718
0
LINE
8
Black
10
113.168
20
-97.7718
11
113.335
21
-98.2928
0
LINE
8
Black
10
113.335
20
-98.2928
11
113.337
21
-98.31
0
LINE
8
Black
10
113.337
20
-98.31
11
113.316
21
-98.8565
0
LINE
8
Black
10
113.316
20
-98.8565
11
113.315
21
-98.862
0
LINE
8
Black
10
113.315
20
-98.862
11
113.314
21
-98.8675
0
LINE
8
Black
10
113.314
20
-98.8675
11
113.277
21
-99.0073
0
LINE
8
Black
10
113.277
20
-99.0073
11
113.277
21
-100.32
0
LINE
8
Black
10
113.277
20
-100.32
11
155.777
21
-100.32
0
LINE
8
Black
10
155.777
20
-100.32
11
155.777
21
-99.0041
0
LINE
8
Black
10
155.777
20
-99.0041
11
155.703
21
-98.4655
0
LINE
8
Black
10
155.703
20
-98.4655
11
155.704
21
-98.4481
0
LINE
8
Black
10
155.704
20
-98.4481
11
155.82
21
-97.9136
0
LINE
8
Black
10
155.82
20
-97.9136
11
155.827
21
-97.8975
0
LINE
8
Black
10
155.827
20
-97.8975
11
156.119
21
-97.4349
0
LINE
8
Black
10
156.119
20
-97.4349
11
156.119
21
-97.4349
0
LINE
8
Black
10
156.119
20
-97.4349
11
156.13
21
-97.422
0
LINE
8
Black
10
156.13
20
-97.422
11
156.563
21
-97.0871
0
LINE
8
Black
10
156.563
20
-97.0871
11
156.578
21
-97.079
0
LINE
8
Black
10
156.578
20
-97.079
11
157.099
21
-96.9122
0
LINE
8
Black
10
157.099
20
-96.9122
11
157.116
21
-96.9099
0
LINE
8
Black
10
157.116
20
-96.9099
11
157.116
21
-96.9099
0
LINE
8
Black
10
157.116
20
-96.9099
11
157.663
21
-96.9313
0
LINE
8
Black
10
157.663
20
-96.9313
11
157.668
21
-96.9325
0
LINE
8
Black
10
157.668
20
-96.9325
11
157.674
21
-96.933
0
LINE
8
Black
10
157.674
20
-96.933
11
157.814
21
-96.9705
0
LINE
8
Black
10
157.814
20
-96.9705
11
159.127
21
-96.9705
0
LINE
8
Black
10
159.127
20
-96.9705
11
159.127
21
-73.3705
0
LINE
8
Black
10
159.127
20
-73.3705
11
157.81
21
-73.3705
0
LINE
8
Black
10
157.81
20
-73.3705
11
157.272
21
-73.4438
0
LINE
8
Black
10
157.272
20
-73.4438
11
157.254
21
-73.4431
0
LINE
8
Black
10
157.254
20
-73.4431
11
156.72
21
-73.3271
0
LINE
8
Black
10
156.72
20
-73.3271
11
156.72
21
-73.3271
0
LINE
8
Black
10
156.72
20
-73.3271
11
156.704
21
-73.3205
0
LINE
8
Black
10
156.704
20
-73.3205
11
156.241
21
-73.0287
0
LINE
8
Black
10
156.241
20
-73.0287
11
156.228
21
-73.017
0
LINE
8
Black
10
156.228
20
-73.017
11
155.893
21
-72.5845
0
LINE
8
Black
10
155.893
20
-72.5845
11
155.885
21
-72.5691
0
LINE
8
Black
10
155.885
20
-72.5691
11
155.885
21
-72.5691
0
LINE
8
Black
10
155.885
20
-72.5691
11
155.718
21
-72.0482
0
LINE
8
Black
10
155.718
20
-72.0482
11
155.716
21
-72.031
0
LINE
8
Black
10
155.716
20
-72.031
11
155.716
21
-72.031
0
LINE
8
Black
10
155.716
20
-72.031
11
155.738
21
-71.4844
0
LINE
8
Black
10
155.738
20
-71.4844
11
155.739
21
-71.479
0
LINE
8
Black
10
155.739
20
-71.479
11
155.739
21
-71.4734
0
LINE
8
Black
10
155.739
20
-71.4734
11
155.777
21
-71.3337
0
LINE
8
Black
10
155.777
20
-71.3337
11
155.777
21
-70.0205
0
LINE
8
Black
10
155.777
20
-70.0205
11
113.277
21
-70.0205
0
LINE
8
Black
10
113.277
20
-70.0205
11
113.277
21
-71.3368
0
LINE
8
Black
10
113.277
20
-71.3368
11
113.35
21
-71.8755
0
LINE
8
Black
10
113.35
20
-71.8755
11
113.349
21
-71.8928
0
LINE
8
Black
10
113.349
20
-71.8928
11
113.233
21
-72.4274
0
LINE
8
Black
10
113.233
20
-72.4274
11
113.227
21
-72.4434
0
LINE
8
Black
10
113.227
20
-72.4434
11
112.935
21
-72.9061
0
LINE
8
Black
10
112.935
20
-72.9061
11
112.923
21
-72.9189
0
LINE
8
Black
10
112.923
20
-72.9189
11
112.491
21
-73.2538
0
LINE
8
Black
10
112.491
20
-73.2538
11
112.475
21
-73.2619
0
LINE
8
Black
10
112.475
20
-73.2619
11
112.475
21
-73.2619
0
LINE
8
Black
10
112.475
20
-73.2619
11
111.954
21
-73.4287
0
LINE
8
Black
10
111.954
20
-73.4287
11
111.954
21
-73.4287
0
LINE
8
Black
10
111.954
20
-73.4287
11
111.937
21
-73.431
0
LINE
8
Black
10
111.937
20
-73.431
11
111.391
21
-73.4096
0
LINE
8
Black
10
111.391
20
-73.4096
11
111.385
21
-73.4084
0
LINE
8
Black
10
111.385
20
-73.4084
11
111.38
21
-73.4079
0
LINE
8
Black
10
111.38
20
-73.4079
11
111.24
21
-73.3705
0
LINE
8
Black
10
111.24
20
-73.3705
11
109.927
21
-73.3705
0
LINE
8
Black
10
109.927
20
-73.3705
11
109.927
21
-96.9705
0
LINE
8
Black
10
109.927
20
-96.9705
11
111.243
21
-96.9705
0
LINE
8
Black
10
111.243
20
-96.9705
11
111.782
21
-96.8971
0
LINE
8
Black
10
111.782
20
-96.8971
11
111.799
21
-96.8978
0
LINE
8
Black
10
111.799
20
-96.8978
11
111.799
21
-96.8978
0
LINE
8
Black
10
128.944
20
-87.8702
11
127.827
21
-88.8078
0
LINE
8
Black
10
127.827
20
-88.8078
11
126.456
21
-89.3067
0
LINE
8
Black
10
126.456
20
-89.3067
11
124.997
21
-89.3067
0
LINE
8
Black
10
124.997
20
-89.3067
11
123.627
21
-88.8078
0
LINE
8
Black
10
123.627
20
-88.8078
11
122.509
21
-87.8702
0
LINE
8
Black
10
122.509
20
-87.8702
11
121.78
21
-86.607
0
LINE
8
Black
10
121.78
20
-86.607
11
121.527
21
-85.1705
0
LINE
8
Black
10
121.527
20
-85.1705
11
121.78
21
-83.734
0
LINE
8
Black
10
121.78
20
-83.734
11
122.509
21
-82.4708
0
LINE
8
Black
10
122.509
20
-82.4708
11
123.627
21
-81.5332
0
LINE
8
Black
10
123.627
20
-81.5332
11
124.997
21
-81.0343
0
LINE
8
Black
10
124.997
20
-81.0343
11
126.456
21
-81.0343
0
LINE
8
Black
10
126.456
20
-81.0343
11
127.827
21
-81.5332
0
LINE
8
Black
10
127.827
20
-81.5332
11
128.944
21
-82.4708
0
LINE
8
Black
10
128.944
20
-82.4708
11
129.673
21
-83.734
0
LINE
8
Black
10
129.673
20
-83.734
11
129.927
21
-85.1705
0
LINE
8
Black
10
129.927
20
-85.1705
11
129.673
21
-86.607
0
LINE
8
Black
10
129.673
20
-86.607
11
128.944
21
-87.8702
0
LINE
8
Black
10
128.867
20
-82.535
11
127.777
21
-81.6198
0
LINE
8
Black
10
127.777
20
-81.6198
11
126.439
21
-81.1328
0
LINE
8
Black
10
126.439
20
-81.1328
11
125.015
21
-81.1328
0
LINE
8
Black
10
125.015
20
-81.1328
11
123.677
21
-81.6198
0
LINE
8
Black
10
123.677
20
-81.6198
11
122.586
21
-82.535
0
LINE
8
Black
10
122.586
20
-82.535
11
121.874
21
-83.7682
0
LINE
8
Black
10
121.874
20
-83.7682
11
121.627
21
-85.1705
0
LINE
8
Black
10
121.627
20
-85.1705
11
121.874
21
-86.5727
0
LINE
8
Black
10
121.874
20
-86.5727
11
122.586
21
-87.8059
0
LINE
8
Black
10
122.586
20
-87.8059
11
123.677
21
-88.7212
0
LINE
8
Black
10
123.677
20
-88.7212
11
125.015
21
-89.2082
0
LINE
8
Black
10
125.015
20
-89.2082
11
126.439
21
-89.2082
0
LINE
8
Black
10
126.439
20
-89.2082
11
127.777
21
-88.7212
0
LINE
8
Black
10
127.777
20
-88.7212
11
128.867
21
-87.8059
0
LINE
8
Black
10
128.867
20
-87.8059
11
129.579
21
-86.5727
0
LINE
8
Black
10
129.579
20
-86.5727
11
129.827
21
-85.1705
0
LINE
8
Black
10
129.827
20
-85.1705
11
129.579
21
-83.7682
0
LINE
8
Black
10
129.579
20
-83.7682
11
128.867
21
-82.535
  0
ENDSEC
  0
EOF
