G04 #@! TF.FileFunction,Legend,Top*
%FSLAX46Y46*%
G04 Gerber Fmt 4.6, Leading zero omitted, Abs format (unit mm)*
G04 Created by KiCad (PCBNEW (2015-07-08 BZR 5908)-product) date Thu 09 Jul 2015 02:10:17 PM EEST*
%MOMM*%
G01*
G04 APERTURE LIST*
%ADD10C,0.100000*%
%ADD11C,0.300000*%
%ADD12C,0.150000*%
%ADD13C,0.127000*%
%ADD14C,0.119380*%
%ADD15C,0.200660*%
%ADD16C,0.149860*%
%ADD17R,1.200000X0.750000*%
%ADD18R,0.650000X1.860000*%
%ADD19R,0.797560X0.797560*%
%ADD20R,1.200000X0.900000*%
%ADD21C,2.000000*%
%ADD22C,4.000000*%
%ADD23R,4.000000X1.524000*%
%ADD24O,4.000000X1.524000*%
%ADD25R,1.300480X1.800860*%
%ADD26R,3.799840X1.800860*%
%ADD27R,2.000000X1.700000*%
%ADD28R,1.727200X1.727200*%
%ADD29O,1.727200X1.727200*%
%ADD30R,1.998980X0.599440*%
%ADD31R,0.800100X1.800860*%
G04 APERTURE END LIST*
D10*
D11*
X154607143Y-88928571D02*
X154607143Y-87785714D01*
X154607143Y-87071428D02*
X154607143Y-85928571D01*
X155178571Y-86500000D02*
X154035714Y-86500000D01*
X154607143Y-84071428D02*
X154607143Y-82928571D01*
X155178571Y-83500000D02*
X154035714Y-83500000D01*
X154607143Y-82214285D02*
X154607143Y-81071428D01*
D12*
X113900000Y-74150000D02*
X114600000Y-74150000D01*
X114600000Y-75350000D02*
X113900000Y-75350000D01*
X118800000Y-93700000D02*
G75*
G03X118800000Y-93700000I-100000J0D01*
G01*
X118450000Y-94250000D02*
X118450000Y-93750000D01*
X115550000Y-94250000D02*
X118450000Y-94250000D01*
X115550000Y-93750000D02*
X115550000Y-94250000D01*
X118450000Y-93750000D02*
X115550000Y-93750000D01*
D13*
X138450280Y-77749620D02*
X138450280Y-78750380D01*
X139049720Y-78750380D02*
X139049720Y-77749620D01*
X138750000Y-78150940D02*
X138750000Y-78349060D01*
X138849060Y-78450660D02*
X138849060Y-78049340D01*
X138849060Y-78049340D02*
X138650940Y-78250000D01*
X138650940Y-78250000D02*
X138849060Y-78450660D01*
X139550100Y-78750380D02*
X137949900Y-78750380D01*
X137949900Y-78750380D02*
X137949900Y-77749620D01*
X137949900Y-77749620D02*
X139550100Y-77749620D01*
X139550100Y-77749620D02*
X139550100Y-78750380D01*
D12*
X112500000Y-87325000D02*
X113500000Y-87325000D01*
X113500000Y-88675000D02*
X112500000Y-88675000D01*
X113500000Y-85175000D02*
X112500000Y-85175000D01*
X112500000Y-83825000D02*
X113500000Y-83825000D01*
X118600000Y-77100000D02*
X117900000Y-77100000D01*
X117900000Y-75900000D02*
X118600000Y-75900000D01*
X150150000Y-76900000D02*
X150850000Y-76900000D01*
X150850000Y-78100000D02*
X150150000Y-78100000D01*
X144150000Y-73900000D02*
X144850000Y-73900000D01*
X144850000Y-75100000D02*
X144150000Y-75100000D01*
X132900000Y-76650000D02*
X133600000Y-76650000D01*
X133600000Y-77850000D02*
X132900000Y-77850000D01*
X113350000Y-86850000D02*
X112650000Y-86850000D01*
X112650000Y-85650000D02*
X113350000Y-85650000D01*
X112650000Y-89150000D02*
X113350000Y-89150000D01*
X113350000Y-90350000D02*
X112650000Y-90350000D01*
D13*
X123950600Y-90855100D02*
X127049400Y-90855100D01*
X127049400Y-90855100D02*
X127049400Y-92645800D01*
X123950600Y-90855100D02*
X123950600Y-92645800D01*
X127392300Y-98144900D02*
X128205100Y-98144900D01*
X128205100Y-98144900D02*
X128205100Y-96354200D01*
X127392300Y-98144900D02*
X127392300Y-96354200D01*
X125093600Y-98144900D02*
X125093600Y-96354200D01*
X125906400Y-98144900D02*
X125906400Y-96354200D01*
X125093600Y-98144900D02*
X125906400Y-98144900D01*
X122794900Y-98144900D02*
X123607700Y-98144900D01*
X123607700Y-98144900D02*
X123607700Y-96354200D01*
X122794900Y-98144900D02*
X122794900Y-96354200D01*
X128852800Y-96354200D02*
X122147200Y-96354200D01*
X122147200Y-96354200D02*
X122147200Y-92645800D01*
X122147200Y-92645800D02*
X128852800Y-92645800D01*
X128852800Y-92645800D02*
X128852800Y-96354200D01*
D12*
X114750000Y-77175000D02*
X113750000Y-77175000D01*
X113750000Y-75825000D02*
X114750000Y-75825000D01*
X133750000Y-90425000D02*
X132750000Y-90425000D01*
X132750000Y-89075000D02*
X133750000Y-89075000D01*
X120500000Y-98175000D02*
X119500000Y-98175000D01*
X119500000Y-96825000D02*
X120500000Y-96825000D01*
X141000000Y-97575000D02*
X139000000Y-97575000D01*
X139000000Y-95425000D02*
X141000000Y-95425000D01*
X141000000Y-100075000D02*
X139000000Y-100075000D01*
X139000000Y-97925000D02*
X141000000Y-97925000D01*
X126270000Y-70690000D02*
X121190000Y-70690000D01*
X129090000Y-70410000D02*
X129090000Y-71960000D01*
X128810000Y-73230000D02*
X126270000Y-73230000D01*
X126270000Y-73230000D02*
X126270000Y-70690000D01*
X121190000Y-70690000D02*
X121190000Y-75770000D01*
X121190000Y-75770000D02*
X126270000Y-75770000D01*
X129090000Y-70410000D02*
X127540000Y-70410000D01*
X128810000Y-75770000D02*
X128810000Y-73230000D01*
X126270000Y-75770000D02*
X128810000Y-75770000D01*
X133750000Y-81425000D02*
X132750000Y-81425000D01*
X132750000Y-80075000D02*
X133750000Y-80075000D01*
X132900000Y-74900000D02*
X133600000Y-74900000D01*
X133600000Y-76100000D02*
X132900000Y-76100000D01*
X133750000Y-79675000D02*
X132750000Y-79675000D01*
X132750000Y-78325000D02*
X133750000Y-78325000D01*
X133750000Y-92175000D02*
X132750000Y-92175000D01*
X132750000Y-90825000D02*
X133750000Y-90825000D01*
X116900000Y-90150000D02*
X117600000Y-90150000D01*
X117600000Y-91350000D02*
X116900000Y-91350000D01*
X112500000Y-92575000D02*
X113500000Y-92575000D01*
X113500000Y-93925000D02*
X112500000Y-93925000D01*
X113500000Y-92175000D02*
X112500000Y-92175000D01*
X112500000Y-90825000D02*
X113500000Y-90825000D01*
X112500000Y-94325000D02*
X113500000Y-94325000D01*
X113500000Y-95675000D02*
X112500000Y-95675000D01*
X140500000Y-75325000D02*
X141500000Y-75325000D01*
X141500000Y-76675000D02*
X140500000Y-76675000D01*
D13*
X117706201Y-77792000D02*
X113743801Y-77792000D01*
X113743801Y-77792000D02*
X113743801Y-82618000D01*
X113743801Y-82618000D02*
X117706201Y-82618000D01*
X117706201Y-82618000D02*
X117706201Y-77792000D01*
X117706201Y-78300000D02*
X118798401Y-78300000D01*
X117706201Y-79570000D02*
X118798401Y-79570000D01*
X117706201Y-80840000D02*
X118798401Y-80840000D01*
X118798401Y-82110000D02*
X117706201Y-82110000D01*
X113743801Y-82110000D02*
X112651601Y-82110000D01*
X112651601Y-80840000D02*
X113743801Y-80840000D01*
X112651601Y-79570000D02*
X113743801Y-79570000D01*
X112651601Y-78300000D02*
X113743801Y-78300000D01*
X114952868Y-78528600D02*
G75*
G03X114952868Y-78528600I-472467J0D01*
G01*
D12*
X146750180Y-74549660D02*
X146750180Y-73848620D01*
X146750180Y-73848620D02*
X146999100Y-73848620D01*
X149549160Y-73848620D02*
X149749820Y-73848620D01*
X149749820Y-73848620D02*
X149749820Y-74549660D01*
X115333334Y-72357143D02*
X115285715Y-72404762D01*
X115142858Y-72452381D01*
X115047620Y-72452381D01*
X114904762Y-72404762D01*
X114809524Y-72309524D01*
X114761905Y-72214286D01*
X114714286Y-72023810D01*
X114714286Y-71880952D01*
X114761905Y-71690476D01*
X114809524Y-71595238D01*
X114904762Y-71500000D01*
X115047620Y-71452381D01*
X115142858Y-71452381D01*
X115285715Y-71500000D01*
X115333334Y-71547619D01*
X116190477Y-71785714D02*
X116190477Y-72452381D01*
X115952381Y-71404762D02*
X115714286Y-72119048D01*
X116333334Y-72119048D01*
X118988095Y-93452381D02*
X118988095Y-94261905D01*
X119035714Y-94357143D01*
X119083333Y-94404762D01*
X119178571Y-94452381D01*
X119369048Y-94452381D01*
X119464286Y-94404762D01*
X119511905Y-94357143D01*
X119559524Y-94261905D01*
X119559524Y-93452381D01*
X119988095Y-93547619D02*
X120035714Y-93500000D01*
X120130952Y-93452381D01*
X120369048Y-93452381D01*
X120464286Y-93500000D01*
X120511905Y-93547619D01*
X120559524Y-93642857D01*
X120559524Y-93738095D01*
X120511905Y-93880952D01*
X119940476Y-94452381D01*
X120559524Y-94452381D01*
D14*
X138307557Y-77521175D02*
X138307557Y-76921735D01*
X138450281Y-76921735D01*
X138535915Y-76950280D01*
X138593004Y-77007370D01*
X138621549Y-77064459D01*
X138650094Y-77178638D01*
X138650094Y-77264272D01*
X138621549Y-77378451D01*
X138593004Y-77435541D01*
X138535915Y-77492630D01*
X138450281Y-77521175D01*
X138307557Y-77521175D01*
X139220989Y-77521175D02*
X138878452Y-77521175D01*
X139049721Y-77521175D02*
X139049721Y-76921735D01*
X138992631Y-77007370D01*
X138935542Y-77064459D01*
X138878452Y-77093004D01*
D12*
X115833334Y-88452381D02*
X115500000Y-87976190D01*
X115261905Y-88452381D02*
X115261905Y-87452381D01*
X115642858Y-87452381D01*
X115738096Y-87500000D01*
X115785715Y-87547619D01*
X115833334Y-87642857D01*
X115833334Y-87785714D01*
X115785715Y-87880952D01*
X115738096Y-87928571D01*
X115642858Y-87976190D01*
X115261905Y-87976190D01*
X116690477Y-87785714D02*
X116690477Y-88452381D01*
X116452381Y-87404762D02*
X116214286Y-88119048D01*
X116833334Y-88119048D01*
X142404762Y-85583333D02*
X142452381Y-85440476D01*
X142452381Y-85202380D01*
X142404762Y-85107142D01*
X142357143Y-85059523D01*
X142261905Y-85011904D01*
X142166667Y-85011904D01*
X142071429Y-85059523D01*
X142023810Y-85107142D01*
X141976190Y-85202380D01*
X141928571Y-85392857D01*
X141880952Y-85488095D01*
X141833333Y-85535714D01*
X141738095Y-85583333D01*
X141642857Y-85583333D01*
X141547619Y-85535714D01*
X141500000Y-85488095D01*
X141452381Y-85392857D01*
X141452381Y-85154761D01*
X141500000Y-85011904D01*
X141452381Y-84678571D02*
X142452381Y-84440476D01*
X141738095Y-84249999D01*
X142452381Y-84059523D01*
X141452381Y-83821428D01*
X142452381Y-82916666D02*
X142452381Y-83488095D01*
X142452381Y-83202381D02*
X141452381Y-83202381D01*
X141595238Y-83297619D01*
X141690476Y-83392857D01*
X141738095Y-83488095D01*
X115833334Y-84952381D02*
X115500000Y-84476190D01*
X115261905Y-84952381D02*
X115261905Y-83952381D01*
X115642858Y-83952381D01*
X115738096Y-84000000D01*
X115785715Y-84047619D01*
X115833334Y-84142857D01*
X115833334Y-84285714D01*
X115785715Y-84380952D01*
X115738096Y-84428571D01*
X115642858Y-84476190D01*
X115261905Y-84476190D01*
X116166667Y-83952381D02*
X116785715Y-83952381D01*
X116452381Y-84333333D01*
X116595239Y-84333333D01*
X116690477Y-84380952D01*
X116738096Y-84428571D01*
X116785715Y-84523810D01*
X116785715Y-84761905D01*
X116738096Y-84857143D01*
X116690477Y-84904762D01*
X116595239Y-84952381D01*
X116309524Y-84952381D01*
X116214286Y-84904762D01*
X116166667Y-84857143D01*
X118083334Y-75357143D02*
X118035715Y-75404762D01*
X117892858Y-75452381D01*
X117797620Y-75452381D01*
X117654762Y-75404762D01*
X117559524Y-75309524D01*
X117511905Y-75214286D01*
X117464286Y-75023810D01*
X117464286Y-74880952D01*
X117511905Y-74690476D01*
X117559524Y-74595238D01*
X117654762Y-74500000D01*
X117797620Y-74452381D01*
X117892858Y-74452381D01*
X118035715Y-74500000D01*
X118083334Y-74547619D01*
X119035715Y-75452381D02*
X118464286Y-75452381D01*
X118750000Y-75452381D02*
X118750000Y-74452381D01*
X118654762Y-74595238D01*
X118559524Y-74690476D01*
X118464286Y-74738095D01*
X150583334Y-76357143D02*
X150535715Y-76404762D01*
X150392858Y-76452381D01*
X150297620Y-76452381D01*
X150154762Y-76404762D01*
X150059524Y-76309524D01*
X150011905Y-76214286D01*
X149964286Y-76023810D01*
X149964286Y-75880952D01*
X150011905Y-75690476D01*
X150059524Y-75595238D01*
X150154762Y-75500000D01*
X150297620Y-75452381D01*
X150392858Y-75452381D01*
X150535715Y-75500000D01*
X150583334Y-75547619D01*
X150964286Y-75547619D02*
X151011905Y-75500000D01*
X151107143Y-75452381D01*
X151345239Y-75452381D01*
X151440477Y-75500000D01*
X151488096Y-75547619D01*
X151535715Y-75642857D01*
X151535715Y-75738095D01*
X151488096Y-75880952D01*
X150916667Y-76452381D01*
X151535715Y-76452381D01*
X144333334Y-73357143D02*
X144285715Y-73404762D01*
X144142858Y-73452381D01*
X144047620Y-73452381D01*
X143904762Y-73404762D01*
X143809524Y-73309524D01*
X143761905Y-73214286D01*
X143714286Y-73023810D01*
X143714286Y-72880952D01*
X143761905Y-72690476D01*
X143809524Y-72595238D01*
X143904762Y-72500000D01*
X144047620Y-72452381D01*
X144142858Y-72452381D01*
X144285715Y-72500000D01*
X144333334Y-72547619D01*
X144666667Y-72452381D02*
X145285715Y-72452381D01*
X144952381Y-72833333D01*
X145095239Y-72833333D01*
X145190477Y-72880952D01*
X145238096Y-72928571D01*
X145285715Y-73023810D01*
X145285715Y-73261905D01*
X145238096Y-73357143D01*
X145190477Y-73404762D01*
X145095239Y-73452381D01*
X144809524Y-73452381D01*
X144714286Y-73404762D01*
X144666667Y-73357143D01*
X136333334Y-77607143D02*
X136285715Y-77654762D01*
X136142858Y-77702381D01*
X136047620Y-77702381D01*
X135904762Y-77654762D01*
X135809524Y-77559524D01*
X135761905Y-77464286D01*
X135714286Y-77273810D01*
X135714286Y-77130952D01*
X135761905Y-76940476D01*
X135809524Y-76845238D01*
X135904762Y-76750000D01*
X136047620Y-76702381D01*
X136142858Y-76702381D01*
X136285715Y-76750000D01*
X136333334Y-76797619D01*
X137238096Y-76702381D02*
X136761905Y-76702381D01*
X136714286Y-77178571D01*
X136761905Y-77130952D01*
X136857143Y-77083333D01*
X137095239Y-77083333D01*
X137190477Y-77130952D01*
X137238096Y-77178571D01*
X137285715Y-77273810D01*
X137285715Y-77511905D01*
X137238096Y-77607143D01*
X137190477Y-77654762D01*
X137095239Y-77702381D01*
X136857143Y-77702381D01*
X136761905Y-77654762D01*
X136714286Y-77607143D01*
X115833334Y-86607143D02*
X115785715Y-86654762D01*
X115642858Y-86702381D01*
X115547620Y-86702381D01*
X115404762Y-86654762D01*
X115309524Y-86559524D01*
X115261905Y-86464286D01*
X115214286Y-86273810D01*
X115214286Y-86130952D01*
X115261905Y-85940476D01*
X115309524Y-85845238D01*
X115404762Y-85750000D01*
X115547620Y-85702381D01*
X115642858Y-85702381D01*
X115785715Y-85750000D01*
X115833334Y-85797619D01*
X116690477Y-85702381D02*
X116500000Y-85702381D01*
X116404762Y-85750000D01*
X116357143Y-85797619D01*
X116261905Y-85940476D01*
X116214286Y-86130952D01*
X116214286Y-86511905D01*
X116261905Y-86607143D01*
X116309524Y-86654762D01*
X116404762Y-86702381D01*
X116595239Y-86702381D01*
X116690477Y-86654762D01*
X116738096Y-86607143D01*
X116785715Y-86511905D01*
X116785715Y-86273810D01*
X116738096Y-86178571D01*
X116690477Y-86130952D01*
X116595239Y-86083333D01*
X116404762Y-86083333D01*
X116309524Y-86130952D01*
X116261905Y-86178571D01*
X116214286Y-86273810D01*
X115833334Y-89857143D02*
X115785715Y-89904762D01*
X115642858Y-89952381D01*
X115547620Y-89952381D01*
X115404762Y-89904762D01*
X115309524Y-89809524D01*
X115261905Y-89714286D01*
X115214286Y-89523810D01*
X115214286Y-89380952D01*
X115261905Y-89190476D01*
X115309524Y-89095238D01*
X115404762Y-89000000D01*
X115547620Y-88952381D01*
X115642858Y-88952381D01*
X115785715Y-89000000D01*
X115833334Y-89047619D01*
X116166667Y-88952381D02*
X116833334Y-88952381D01*
X116404762Y-89952381D01*
D15*
X131404690Y-93798035D02*
X131309379Y-93750380D01*
X131214069Y-93655070D01*
X131071103Y-93512104D01*
X130975792Y-93464449D01*
X130880482Y-93464449D01*
X130928137Y-93702725D02*
X130832827Y-93655070D01*
X130737516Y-93559759D01*
X130689861Y-93369138D01*
X130689861Y-93035551D01*
X130737516Y-92844930D01*
X130832827Y-92749620D01*
X130928137Y-92701965D01*
X131118758Y-92701965D01*
X131214069Y-92749620D01*
X131309379Y-92844930D01*
X131357034Y-93035551D01*
X131357034Y-93369138D01*
X131309379Y-93559759D01*
X131214069Y-93655070D01*
X131118758Y-93702725D01*
X130928137Y-93702725D01*
X132310139Y-93702725D02*
X131738276Y-93702725D01*
X132024207Y-93702725D02*
X132024207Y-92701965D01*
X131928897Y-92844930D01*
X131833586Y-92940241D01*
X131738276Y-92987896D01*
D12*
X115333334Y-73952381D02*
X115000000Y-73476190D01*
X114761905Y-73952381D02*
X114761905Y-72952381D01*
X115142858Y-72952381D01*
X115238096Y-73000000D01*
X115285715Y-73047619D01*
X115333334Y-73142857D01*
X115333334Y-73285714D01*
X115285715Y-73380952D01*
X115238096Y-73428571D01*
X115142858Y-73476190D01*
X114761905Y-73476190D01*
X116285715Y-73952381D02*
X115714286Y-73952381D01*
X116000000Y-73952381D02*
X116000000Y-72952381D01*
X115904762Y-73095238D01*
X115809524Y-73190476D01*
X115714286Y-73238095D01*
X136333334Y-90202381D02*
X136000000Y-89726190D01*
X135761905Y-90202381D02*
X135761905Y-89202381D01*
X136142858Y-89202381D01*
X136238096Y-89250000D01*
X136285715Y-89297619D01*
X136333334Y-89392857D01*
X136333334Y-89535714D01*
X136285715Y-89630952D01*
X136238096Y-89678571D01*
X136142858Y-89726190D01*
X135761905Y-89726190D01*
X136714286Y-89297619D02*
X136761905Y-89250000D01*
X136857143Y-89202381D01*
X137095239Y-89202381D01*
X137190477Y-89250000D01*
X137238096Y-89297619D01*
X137285715Y-89392857D01*
X137285715Y-89488095D01*
X137238096Y-89630952D01*
X136666667Y-90202381D01*
X137285715Y-90202381D01*
X119833334Y-96452381D02*
X119500000Y-95976190D01*
X119261905Y-96452381D02*
X119261905Y-95452381D01*
X119642858Y-95452381D01*
X119738096Y-95500000D01*
X119785715Y-95547619D01*
X119833334Y-95642857D01*
X119833334Y-95785714D01*
X119785715Y-95880952D01*
X119738096Y-95928571D01*
X119642858Y-95976190D01*
X119261905Y-95976190D01*
X120738096Y-95452381D02*
X120261905Y-95452381D01*
X120214286Y-95928571D01*
X120261905Y-95880952D01*
X120357143Y-95833333D01*
X120595239Y-95833333D01*
X120690477Y-95880952D01*
X120738096Y-95928571D01*
X120785715Y-96023810D01*
X120785715Y-96261905D01*
X120738096Y-96357143D01*
X120690477Y-96404762D01*
X120595239Y-96452381D01*
X120357143Y-96452381D01*
X120261905Y-96404762D01*
X120214286Y-96357143D01*
X144833334Y-96952381D02*
X144500000Y-96476190D01*
X144261905Y-96952381D02*
X144261905Y-95952381D01*
X144642858Y-95952381D01*
X144738096Y-96000000D01*
X144785715Y-96047619D01*
X144833334Y-96142857D01*
X144833334Y-96285714D01*
X144785715Y-96380952D01*
X144738096Y-96428571D01*
X144642858Y-96476190D01*
X144261905Y-96476190D01*
X145690477Y-95952381D02*
X145500000Y-95952381D01*
X145404762Y-96000000D01*
X145357143Y-96047619D01*
X145261905Y-96190476D01*
X145214286Y-96380952D01*
X145214286Y-96761905D01*
X145261905Y-96857143D01*
X145309524Y-96904762D01*
X145404762Y-96952381D01*
X145595239Y-96952381D01*
X145690477Y-96904762D01*
X145738096Y-96857143D01*
X145785715Y-96761905D01*
X145785715Y-96523810D01*
X145738096Y-96428571D01*
X145690477Y-96380952D01*
X145595239Y-96333333D01*
X145404762Y-96333333D01*
X145309524Y-96380952D01*
X145261905Y-96428571D01*
X145214286Y-96523810D01*
X144833334Y-99452381D02*
X144500000Y-98976190D01*
X144261905Y-99452381D02*
X144261905Y-98452381D01*
X144642858Y-98452381D01*
X144738096Y-98500000D01*
X144785715Y-98547619D01*
X144833334Y-98642857D01*
X144833334Y-98785714D01*
X144785715Y-98880952D01*
X144738096Y-98928571D01*
X144642858Y-98976190D01*
X144261905Y-98976190D01*
X145166667Y-98452381D02*
X145833334Y-98452381D01*
X145404762Y-99452381D01*
X136333334Y-81202381D02*
X136000000Y-80726190D01*
X135761905Y-81202381D02*
X135761905Y-80202381D01*
X136142858Y-80202381D01*
X136238096Y-80250000D01*
X136285715Y-80297619D01*
X136333334Y-80392857D01*
X136333334Y-80535714D01*
X136285715Y-80630952D01*
X136238096Y-80678571D01*
X136142858Y-80726190D01*
X135761905Y-80726190D01*
X136904762Y-80630952D02*
X136809524Y-80583333D01*
X136761905Y-80535714D01*
X136714286Y-80440476D01*
X136714286Y-80392857D01*
X136761905Y-80297619D01*
X136809524Y-80250000D01*
X136904762Y-80202381D01*
X137095239Y-80202381D01*
X137190477Y-80250000D01*
X137238096Y-80297619D01*
X137285715Y-80392857D01*
X137285715Y-80440476D01*
X137238096Y-80535714D01*
X137190477Y-80583333D01*
X137095239Y-80630952D01*
X136904762Y-80630952D01*
X136809524Y-80678571D01*
X136761905Y-80726190D01*
X136714286Y-80821429D01*
X136714286Y-81011905D01*
X136761905Y-81107143D01*
X136809524Y-81154762D01*
X136904762Y-81202381D01*
X137095239Y-81202381D01*
X137190477Y-81154762D01*
X137238096Y-81107143D01*
X137285715Y-81011905D01*
X137285715Y-80821429D01*
X137238096Y-80726190D01*
X137190477Y-80678571D01*
X137095239Y-80630952D01*
X136333334Y-75857143D02*
X136285715Y-75904762D01*
X136142858Y-75952381D01*
X136047620Y-75952381D01*
X135904762Y-75904762D01*
X135809524Y-75809524D01*
X135761905Y-75714286D01*
X135714286Y-75523810D01*
X135714286Y-75380952D01*
X135761905Y-75190476D01*
X135809524Y-75095238D01*
X135904762Y-75000000D01*
X136047620Y-74952381D01*
X136142858Y-74952381D01*
X136285715Y-75000000D01*
X136333334Y-75047619D01*
X136904762Y-75380952D02*
X136809524Y-75333333D01*
X136761905Y-75285714D01*
X136714286Y-75190476D01*
X136714286Y-75142857D01*
X136761905Y-75047619D01*
X136809524Y-75000000D01*
X136904762Y-74952381D01*
X137095239Y-74952381D01*
X137190477Y-75000000D01*
X137238096Y-75047619D01*
X137285715Y-75142857D01*
X137285715Y-75190476D01*
X137238096Y-75285714D01*
X137190477Y-75333333D01*
X137095239Y-75380952D01*
X136904762Y-75380952D01*
X136809524Y-75428571D01*
X136761905Y-75476190D01*
X136714286Y-75571429D01*
X136714286Y-75761905D01*
X136761905Y-75857143D01*
X136809524Y-75904762D01*
X136904762Y-75952381D01*
X137095239Y-75952381D01*
X137190477Y-75904762D01*
X137238096Y-75857143D01*
X137285715Y-75761905D01*
X137285715Y-75571429D01*
X137238096Y-75476190D01*
X137190477Y-75428571D01*
X137095239Y-75380952D01*
X136333334Y-79452381D02*
X136000000Y-78976190D01*
X135761905Y-79452381D02*
X135761905Y-78452381D01*
X136142858Y-78452381D01*
X136238096Y-78500000D01*
X136285715Y-78547619D01*
X136333334Y-78642857D01*
X136333334Y-78785714D01*
X136285715Y-78880952D01*
X136238096Y-78928571D01*
X136142858Y-78976190D01*
X135761905Y-78976190D01*
X136809524Y-79452381D02*
X137000000Y-79452381D01*
X137095239Y-79404762D01*
X137142858Y-79357143D01*
X137238096Y-79214286D01*
X137285715Y-79023810D01*
X137285715Y-78642857D01*
X137238096Y-78547619D01*
X137190477Y-78500000D01*
X137095239Y-78452381D01*
X136904762Y-78452381D01*
X136809524Y-78500000D01*
X136761905Y-78547619D01*
X136714286Y-78642857D01*
X136714286Y-78880952D01*
X136761905Y-78976190D01*
X136809524Y-79023810D01*
X136904762Y-79071429D01*
X137095239Y-79071429D01*
X137190477Y-79023810D01*
X137238096Y-78976190D01*
X137285715Y-78880952D01*
X136357143Y-91952381D02*
X136023809Y-91476190D01*
X135785714Y-91952381D02*
X135785714Y-90952381D01*
X136166667Y-90952381D01*
X136261905Y-91000000D01*
X136309524Y-91047619D01*
X136357143Y-91142857D01*
X136357143Y-91285714D01*
X136309524Y-91380952D01*
X136261905Y-91428571D01*
X136166667Y-91476190D01*
X135785714Y-91476190D01*
X137309524Y-91952381D02*
X136738095Y-91952381D01*
X137023809Y-91952381D02*
X137023809Y-90952381D01*
X136928571Y-91095238D01*
X136833333Y-91190476D01*
X136738095Y-91238095D01*
X137928571Y-90952381D02*
X138023810Y-90952381D01*
X138119048Y-91000000D01*
X138166667Y-91047619D01*
X138214286Y-91142857D01*
X138261905Y-91333333D01*
X138261905Y-91571429D01*
X138214286Y-91761905D01*
X138166667Y-91857143D01*
X138119048Y-91904762D01*
X138023810Y-91952381D01*
X137928571Y-91952381D01*
X137833333Y-91904762D01*
X137785714Y-91857143D01*
X137738095Y-91761905D01*
X137690476Y-91571429D01*
X137690476Y-91333333D01*
X137738095Y-91142857D01*
X137785714Y-91047619D01*
X137833333Y-91000000D01*
X137928571Y-90952381D01*
X119833334Y-91107143D02*
X119785715Y-91154762D01*
X119642858Y-91202381D01*
X119547620Y-91202381D01*
X119404762Y-91154762D01*
X119309524Y-91059524D01*
X119261905Y-90964286D01*
X119214286Y-90773810D01*
X119214286Y-90630952D01*
X119261905Y-90440476D01*
X119309524Y-90345238D01*
X119404762Y-90250000D01*
X119547620Y-90202381D01*
X119642858Y-90202381D01*
X119785715Y-90250000D01*
X119833334Y-90297619D01*
X120309524Y-91202381D02*
X120500000Y-91202381D01*
X120595239Y-91154762D01*
X120642858Y-91107143D01*
X120738096Y-90964286D01*
X120785715Y-90773810D01*
X120785715Y-90392857D01*
X120738096Y-90297619D01*
X120690477Y-90250000D01*
X120595239Y-90202381D01*
X120404762Y-90202381D01*
X120309524Y-90250000D01*
X120261905Y-90297619D01*
X120214286Y-90392857D01*
X120214286Y-90630952D01*
X120261905Y-90726190D01*
X120309524Y-90773810D01*
X120404762Y-90821429D01*
X120595239Y-90821429D01*
X120690477Y-90773810D01*
X120738096Y-90726190D01*
X120785715Y-90630952D01*
X113607143Y-96952381D02*
X113273809Y-96476190D01*
X113035714Y-96952381D02*
X113035714Y-95952381D01*
X113416667Y-95952381D01*
X113511905Y-96000000D01*
X113559524Y-96047619D01*
X113607143Y-96142857D01*
X113607143Y-96285714D01*
X113559524Y-96380952D01*
X113511905Y-96428571D01*
X113416667Y-96476190D01*
X113035714Y-96476190D01*
X114559524Y-96952381D02*
X113988095Y-96952381D01*
X114273809Y-96952381D02*
X114273809Y-95952381D01*
X114178571Y-96095238D01*
X114083333Y-96190476D01*
X113988095Y-96238095D01*
X115511905Y-96952381D02*
X114940476Y-96952381D01*
X115226190Y-96952381D02*
X115226190Y-95952381D01*
X115130952Y-96095238D01*
X115035714Y-96190476D01*
X114940476Y-96238095D01*
X119107143Y-92702381D02*
X118773809Y-92226190D01*
X118535714Y-92702381D02*
X118535714Y-91702381D01*
X118916667Y-91702381D01*
X119011905Y-91750000D01*
X119059524Y-91797619D01*
X119107143Y-91892857D01*
X119107143Y-92035714D01*
X119059524Y-92130952D01*
X119011905Y-92178571D01*
X118916667Y-92226190D01*
X118535714Y-92226190D01*
X120059524Y-92702381D02*
X119488095Y-92702381D01*
X119773809Y-92702381D02*
X119773809Y-91702381D01*
X119678571Y-91845238D01*
X119583333Y-91940476D01*
X119488095Y-91988095D01*
X120440476Y-91797619D02*
X120488095Y-91750000D01*
X120583333Y-91702381D01*
X120821429Y-91702381D01*
X120916667Y-91750000D01*
X120964286Y-91797619D01*
X121011905Y-91892857D01*
X121011905Y-91988095D01*
X120964286Y-92130952D01*
X120392857Y-92702381D01*
X121011905Y-92702381D01*
X114107143Y-98452381D02*
X113773809Y-97976190D01*
X113535714Y-98452381D02*
X113535714Y-97452381D01*
X113916667Y-97452381D01*
X114011905Y-97500000D01*
X114059524Y-97547619D01*
X114107143Y-97642857D01*
X114107143Y-97785714D01*
X114059524Y-97880952D01*
X114011905Y-97928571D01*
X113916667Y-97976190D01*
X113535714Y-97976190D01*
X115059524Y-98452381D02*
X114488095Y-98452381D01*
X114773809Y-98452381D02*
X114773809Y-97452381D01*
X114678571Y-97595238D01*
X114583333Y-97690476D01*
X114488095Y-97738095D01*
X115392857Y-97452381D02*
X116011905Y-97452381D01*
X115678571Y-97833333D01*
X115821429Y-97833333D01*
X115916667Y-97880952D01*
X115964286Y-97928571D01*
X116011905Y-98023810D01*
X116011905Y-98261905D01*
X115964286Y-98357143D01*
X115916667Y-98404762D01*
X115821429Y-98452381D01*
X115535714Y-98452381D01*
X115440476Y-98404762D01*
X115392857Y-98357143D01*
X140357143Y-74952381D02*
X140023809Y-74476190D01*
X139785714Y-74952381D02*
X139785714Y-73952381D01*
X140166667Y-73952381D01*
X140261905Y-74000000D01*
X140309524Y-74047619D01*
X140357143Y-74142857D01*
X140357143Y-74285714D01*
X140309524Y-74380952D01*
X140261905Y-74428571D01*
X140166667Y-74476190D01*
X139785714Y-74476190D01*
X141309524Y-74952381D02*
X140738095Y-74952381D01*
X141023809Y-74952381D02*
X141023809Y-73952381D01*
X140928571Y-74095238D01*
X140833333Y-74190476D01*
X140738095Y-74238095D01*
X142166667Y-74285714D02*
X142166667Y-74952381D01*
X141928571Y-73904762D02*
X141690476Y-74619048D01*
X142309524Y-74619048D01*
D16*
X117079970Y-80936459D02*
X116330670Y-80936459D01*
X117008608Y-80151478D02*
X117044289Y-80187159D01*
X117079970Y-80294202D01*
X117079970Y-80365564D01*
X117044289Y-80472606D01*
X116972927Y-80543968D01*
X116901565Y-80579649D01*
X116758841Y-80615330D01*
X116651799Y-80615330D01*
X116509075Y-80579649D01*
X116437713Y-80543968D01*
X116366351Y-80472606D01*
X116330670Y-80365564D01*
X116330670Y-80294202D01*
X116366351Y-80187159D01*
X116402032Y-80151478D01*
X117079970Y-79437859D02*
X117079970Y-79866030D01*
X117079970Y-79651944D02*
X116330670Y-79651944D01*
X116437713Y-79723306D01*
X116509075Y-79794668D01*
X116544756Y-79866030D01*
D12*
X147488095Y-70141241D02*
X147488095Y-70950765D01*
X147535714Y-71046003D01*
X147583333Y-71093622D01*
X147678571Y-71141241D01*
X147869048Y-71141241D01*
X147964286Y-71093622D01*
X148011905Y-71046003D01*
X148059524Y-70950765D01*
X148059524Y-70141241D01*
X149059524Y-71141241D02*
X148488095Y-71141241D01*
X148773809Y-71141241D02*
X148773809Y-70141241D01*
X148678571Y-70284098D01*
X148583333Y-70379336D01*
X148488095Y-70426955D01*
%LPC*%
D17*
X113300000Y-74750000D03*
X115200000Y-74750000D03*
D18*
X117950000Y-92500000D03*
X117000000Y-92500000D03*
X116050000Y-92500000D03*
X116050000Y-95500000D03*
X117950000Y-95500000D03*
D19*
X139499300Y-78250000D03*
X138000700Y-78250000D03*
D20*
X114100000Y-88000000D03*
X111900000Y-88000000D03*
D21*
X134580000Y-85180000D03*
X134580000Y-87680000D03*
X134580000Y-82680000D03*
D22*
X142080000Y-79580000D03*
X142080000Y-90780000D03*
D20*
X111900000Y-84500000D03*
X114100000Y-84500000D03*
D23*
X151500000Y-86230000D03*
D24*
X151500000Y-88770000D03*
D23*
X151500000Y-83770000D03*
D24*
X151500000Y-81230000D03*
D17*
X119200000Y-76500000D03*
X117300000Y-76500000D03*
X149550000Y-77500000D03*
X151450000Y-77500000D03*
X143550000Y-74500000D03*
X145450000Y-74500000D03*
X132300000Y-77250000D03*
X134200000Y-77250000D03*
X113950000Y-86250000D03*
X112050000Y-86250000D03*
X112050000Y-89750000D03*
X113950000Y-89750000D03*
D25*
X123198760Y-97499740D03*
X125500000Y-97499740D03*
X127801240Y-97499740D03*
D26*
X125500000Y-91500260D03*
D20*
X113150000Y-76500000D03*
X115350000Y-76500000D03*
X132150000Y-89750000D03*
X134350000Y-89750000D03*
X118900000Y-97500000D03*
X121100000Y-97500000D03*
D27*
X138000000Y-96500000D03*
X142000000Y-96500000D03*
X138000000Y-99000000D03*
X142000000Y-99000000D03*
D28*
X127540000Y-71960000D03*
D29*
X127540000Y-74500000D03*
X125000000Y-71960000D03*
X125000000Y-74500000D03*
X122460000Y-71960000D03*
X122460000Y-74500000D03*
D20*
X132150000Y-80750000D03*
X134350000Y-80750000D03*
D17*
X132300000Y-75500000D03*
X134200000Y-75500000D03*
D20*
X132150000Y-79000000D03*
X134350000Y-79000000D03*
X132150000Y-91500000D03*
X134350000Y-91500000D03*
D17*
X116300000Y-90750000D03*
X118200000Y-90750000D03*
D20*
X114100000Y-93250000D03*
X111900000Y-93250000D03*
X111900000Y-91500000D03*
X114100000Y-91500000D03*
X114100000Y-95000000D03*
X111900000Y-95000000D03*
X142100000Y-76000000D03*
X139900000Y-76000000D03*
D30*
X112931001Y-78300000D03*
X112931001Y-79570000D03*
X112931001Y-80840000D03*
X112931001Y-82110000D03*
X118519001Y-82110000D03*
X118519001Y-80840000D03*
X118519001Y-79570000D03*
X118519001Y-78300000D03*
D31*
X147300000Y-76000000D03*
X149200000Y-76000000D03*
X148250000Y-72997720D03*
M02*
