G04 #@! TF.FileFunction,Legend,Top*
%FSLAX46Y46*%
G04 Gerber Fmt 4.6, Leading zero omitted, Abs format (unit mm)*
G04 Created by KiCad (PCBNEW 0.201511300701+6336~38~ubuntu14.04.1-stable) date Wed 02 Dec 2015 03:43:02 PM EET*
%MOMM*%
G01*
G04 APERTURE LIST*
%ADD10C,0.100000*%
%ADD11C,0.300000*%
%ADD12C,0.127000*%
%ADD13C,0.381000*%
%ADD14C,0.150000*%
%ADD15C,0.120000*%
%ADD16R,0.797560X0.797560*%
%ADD17R,1.524000X4.000000*%
%ADD18O,1.524000X4.000000*%
%ADD19O,2.000000X1.500000*%
%ADD20C,3.500000*%
%ADD21R,1.200000X0.750000*%
%ADD22R,1.800860X0.800100*%
%ADD23R,0.750000X1.200000*%
%ADD24R,0.800100X1.800860*%
%ADD25R,3.200400X1.600200*%
%ADD26R,7.000240X6.499860*%
%ADD27R,2.200000X2.200000*%
%ADD28C,1.500000*%
%ADD29R,1.200000X0.900000*%
%ADD30R,0.900000X1.200000*%
%ADD31R,0.600000X1.550000*%
%ADD32R,3.175000X1.600200*%
%ADD33C,0.900000*%
%ADD34R,0.700000X1.500000*%
%ADD35R,1.000000X0.800000*%
%ADD36R,0.599440X1.000760*%
G04 APERTURE END LIST*
D10*
D11*
X147178572Y-96857143D02*
X148321429Y-96857143D01*
X150178572Y-96857143D02*
X151321429Y-96857143D01*
X150750000Y-97428571D02*
X150750000Y-96285714D01*
D10*
X144750000Y-95250000D02*
X144750000Y-100250000D01*
X153750000Y-95250000D02*
X144750000Y-95250000D01*
X153750000Y-100250000D02*
X153750000Y-95250000D01*
D12*
X151299720Y-85700380D02*
X151299720Y-84699620D01*
X150700280Y-84699620D02*
X150700280Y-85700380D01*
X151000000Y-85299060D02*
X151000000Y-85100940D01*
X150900940Y-84999340D02*
X150900940Y-85400660D01*
X150900940Y-85400660D02*
X151099060Y-85200000D01*
X151099060Y-85200000D02*
X150900940Y-84999340D01*
X150199900Y-84699620D02*
X151800100Y-84699620D01*
X151800100Y-84699620D02*
X151800100Y-85700380D01*
X151800100Y-85700380D02*
X150199900Y-85700380D01*
X150199900Y-85700380D02*
X150199900Y-84699620D01*
D13*
X147600000Y-90100000D02*
X135600000Y-90100000D01*
X135600000Y-80300000D02*
X147600000Y-80300000D01*
X135600000Y-80300000D02*
X135600000Y-90100000D01*
X147600000Y-80300000D02*
X147600000Y-90100000D01*
X138100000Y-89000000D02*
G75*
G03X138100000Y-89000000I-400000J0D01*
G01*
X138100000Y-81400000D02*
G75*
G03X138100000Y-81400000I-400000J0D01*
G01*
X146900000Y-89000000D02*
G75*
G03X146900000Y-89000000I-400000J0D01*
G01*
X146900000Y-81400000D02*
G75*
G03X146900000Y-81400000I-400000J0D01*
G01*
X143601140Y-82599040D02*
X143601140Y-87800960D01*
X145099740Y-85200000D02*
G75*
G03X145099740Y-85200000I-2999740J0D01*
G01*
X145501060Y-85200000D02*
G75*
G03X145501060Y-85200000I-3401060J0D01*
G01*
D14*
X148123662Y-75212874D02*
X147423662Y-75212874D01*
X147423662Y-74012874D02*
X148123662Y-74012874D01*
X147300800Y-78749820D02*
X146599760Y-78749820D01*
X146599760Y-78749820D02*
X146599760Y-78500900D01*
X146599760Y-75950840D02*
X146599760Y-75750180D01*
X146599760Y-75750180D02*
X147300800Y-75750180D01*
X149900000Y-77100000D02*
X149900000Y-76400000D01*
X151100000Y-76400000D02*
X151100000Y-77100000D01*
X156600000Y-88600000D02*
X155900000Y-88600000D01*
X155900000Y-87400000D02*
X156600000Y-87400000D01*
X154350000Y-91150000D02*
X154350000Y-91850000D01*
X153150000Y-91850000D02*
X153150000Y-91150000D01*
X157749820Y-91949200D02*
X157749820Y-92650240D01*
X157749820Y-92650240D02*
X157500900Y-92650240D01*
X154950840Y-92650240D02*
X154750180Y-92650240D01*
X154750180Y-92650240D02*
X154750180Y-91949200D01*
D12*
X120182300Y-76044900D02*
X121376100Y-76044900D01*
X121376100Y-76044900D02*
X121376100Y-81455100D01*
X121376100Y-81455100D02*
X120169600Y-81455100D01*
X114175200Y-80477200D02*
X111266900Y-80477200D01*
X111266900Y-81620200D02*
X114175200Y-81620200D01*
X111266900Y-80477200D02*
X111266900Y-81620200D01*
X111266900Y-75879800D02*
X111266900Y-77022800D01*
X111266900Y-77022800D02*
X114175200Y-77022800D01*
X114175200Y-75879800D02*
X111266900Y-75879800D01*
X114175200Y-82102800D02*
X120169600Y-82102800D01*
X120169600Y-82102800D02*
X120169600Y-75397200D01*
X120169600Y-75397200D02*
X114175200Y-75397200D01*
X114175200Y-82102800D02*
X114175200Y-75397200D01*
D14*
X119750000Y-90850000D02*
X127750000Y-90850000D01*
X127750000Y-100150000D02*
X119750000Y-100150000D01*
X119750000Y-90850000D02*
X119750000Y-100150000D01*
X127750000Y-90850000D02*
X127750000Y-100150000D01*
D12*
X150750280Y-86249620D02*
X150750280Y-87250380D01*
X151349720Y-87250380D02*
X151349720Y-86249620D01*
X151050000Y-86650940D02*
X151050000Y-86849060D01*
X151149060Y-86950660D02*
X151149060Y-86549340D01*
X151149060Y-86549340D02*
X150950940Y-86750000D01*
X150950940Y-86750000D02*
X151149060Y-86950660D01*
X151850100Y-87250380D02*
X150249900Y-87250380D01*
X150249900Y-87250380D02*
X150249900Y-86249620D01*
X150249900Y-86249620D02*
X151850100Y-86249620D01*
X151850100Y-86249620D02*
X151850100Y-87250380D01*
D14*
X133000000Y-80675000D02*
X132000000Y-80675000D01*
X132000000Y-79325000D02*
X133000000Y-79325000D01*
X131575000Y-86750000D02*
X131575000Y-85750000D01*
X132925000Y-85750000D02*
X132925000Y-86750000D01*
X133000000Y-78925000D02*
X132000000Y-78925000D01*
X132000000Y-77575000D02*
X133000000Y-77575000D01*
X118500000Y-73325000D02*
X119500000Y-73325000D01*
X119500000Y-74675000D02*
X118500000Y-74675000D01*
X127600000Y-72850000D02*
X126900000Y-72850000D01*
X126900000Y-71650000D02*
X127600000Y-71650000D01*
X125075000Y-79275000D02*
X125220000Y-79275000D01*
X125075000Y-75125000D02*
X125220000Y-75125000D01*
X130225000Y-75125000D02*
X130080000Y-75125000D01*
X130225000Y-79275000D02*
X130080000Y-79275000D01*
X125075000Y-79275000D02*
X125075000Y-75125000D01*
X130225000Y-79275000D02*
X130225000Y-75125000D01*
X125220000Y-79275000D02*
X125220000Y-80675000D01*
X122150000Y-89400000D02*
X122850000Y-89400000D01*
X122850000Y-90600000D02*
X122150000Y-90600000D01*
D12*
X114726000Y-87083000D02*
X117774000Y-87083000D01*
X114726000Y-92417000D02*
X117774000Y-92417000D01*
X114726000Y-92925000D02*
X117774000Y-92925000D01*
X117774000Y-92925000D02*
X117774000Y-86575000D01*
X117774000Y-86575000D02*
X114726000Y-86575000D01*
X114726000Y-86575000D02*
X114726000Y-92925000D01*
X111476000Y-87083000D02*
X114524000Y-87083000D01*
X111476000Y-92417000D02*
X114524000Y-92417000D01*
X111476000Y-92925000D02*
X114524000Y-92925000D01*
X114524000Y-92925000D02*
X114524000Y-86575000D01*
X114524000Y-86575000D02*
X111476000Y-86575000D01*
X111476000Y-86575000D02*
X111476000Y-92925000D01*
D14*
X133000000Y-77175000D02*
X132000000Y-77175000D01*
X132000000Y-75825000D02*
X133000000Y-75825000D01*
X154675000Y-84500000D02*
X154675000Y-85500000D01*
X153325000Y-85500000D02*
X153325000Y-84500000D01*
X155075000Y-85500000D02*
X155075000Y-84500000D01*
X156425000Y-84500000D02*
X156425000Y-85500000D01*
X149425000Y-80250000D02*
X149425000Y-81250000D01*
X148075000Y-81250000D02*
X148075000Y-80250000D01*
X149825000Y-81250000D02*
X149825000Y-80250000D01*
X151175000Y-80250000D02*
X151175000Y-81250000D01*
X150250000Y-83075000D02*
X151250000Y-83075000D01*
X151250000Y-84425000D02*
X150250000Y-84425000D01*
X140000000Y-72250000D02*
X140000000Y-71950000D01*
X141500000Y-72250000D02*
X141500000Y-71950000D01*
X139350000Y-74550000D02*
X139150000Y-74550000D01*
X142150000Y-70650000D02*
X141950000Y-70450000D01*
X140850000Y-70650000D02*
X141050000Y-70450000D01*
X142150000Y-71950000D02*
X142150000Y-70650000D01*
X141950000Y-70450000D02*
X141050000Y-70450000D01*
X140850000Y-70650000D02*
X140850000Y-71950000D01*
X143600000Y-71950000D02*
X137900000Y-71950000D01*
X142350000Y-74550000D02*
X140650000Y-74550000D01*
X144100000Y-73650000D02*
X144100000Y-72850000D01*
X137400000Y-72850000D02*
X137400000Y-73650000D01*
D12*
X152149100Y-81948500D02*
X151501400Y-81300800D01*
X151996700Y-81948500D02*
X151501400Y-81453200D01*
X153000000Y-80551500D02*
X153000000Y-79891100D01*
X153952500Y-80551500D02*
X153952500Y-79891100D01*
X152047500Y-80551500D02*
X152047500Y-79891100D01*
X153000000Y-81948500D02*
X153000000Y-82608900D01*
X153952500Y-81948500D02*
X153952500Y-82608900D01*
X152047500Y-81948500D02*
X152047500Y-82608900D01*
X151501400Y-80551500D02*
X154498600Y-80551500D01*
X154498600Y-80551500D02*
X154498600Y-81948500D01*
X154498600Y-81948500D02*
X151501400Y-81948500D01*
X151501400Y-81948500D02*
X151501400Y-80551500D01*
D14*
X151650000Y-77100000D02*
X151650000Y-76400000D01*
X152850000Y-76400000D02*
X152850000Y-77100000D01*
X131175000Y-94000000D02*
X131175000Y-95000000D01*
X129825000Y-95000000D02*
X129825000Y-94000000D01*
D15*
X148483334Y-85516667D02*
X148483334Y-84816667D01*
X148650000Y-84816667D01*
X148750000Y-84850000D01*
X148816667Y-84916667D01*
X148850000Y-84983333D01*
X148883334Y-85116667D01*
X148883334Y-85216667D01*
X148850000Y-85350000D01*
X148816667Y-85416667D01*
X148750000Y-85483333D01*
X148650000Y-85516667D01*
X148483334Y-85516667D01*
X149150000Y-84883333D02*
X149183334Y-84850000D01*
X149250000Y-84816667D01*
X149416667Y-84816667D01*
X149483334Y-84850000D01*
X149516667Y-84883333D01*
X149550000Y-84950000D01*
X149550000Y-85016667D01*
X149516667Y-85116667D01*
X149116667Y-85516667D01*
X149550000Y-85516667D01*
X137816667Y-85416666D02*
X137483333Y-85650000D01*
X137816667Y-85816666D02*
X137116667Y-85816666D01*
X137116667Y-85550000D01*
X137150000Y-85483333D01*
X137183333Y-85450000D01*
X137250000Y-85416666D01*
X137350000Y-85416666D01*
X137416667Y-85450000D01*
X137450000Y-85483333D01*
X137483333Y-85550000D01*
X137483333Y-85816666D01*
X137116667Y-85216666D02*
X137816667Y-84983333D01*
X137116667Y-84750000D01*
X137816667Y-84150000D02*
X137816667Y-84550000D01*
X137816667Y-84350000D02*
X137116667Y-84350000D01*
X137216667Y-84416666D01*
X137283333Y-84483333D01*
X137316667Y-84550000D01*
X150156996Y-74862874D02*
X150123662Y-74896207D01*
X150023662Y-74929541D01*
X149956996Y-74929541D01*
X149856996Y-74896207D01*
X149790329Y-74829541D01*
X149756996Y-74762874D01*
X149723662Y-74629541D01*
X149723662Y-74529541D01*
X149756996Y-74396207D01*
X149790329Y-74329541D01*
X149856996Y-74262874D01*
X149956996Y-74229541D01*
X150023662Y-74229541D01*
X150123662Y-74262874D01*
X150156996Y-74296207D01*
X150756996Y-74462874D02*
X150756996Y-74929541D01*
X150590329Y-74196207D02*
X150423662Y-74696207D01*
X150856996Y-74696207D01*
X144866667Y-76533333D02*
X145433333Y-76533333D01*
X145500000Y-76500000D01*
X145533333Y-76466667D01*
X145566667Y-76400000D01*
X145566667Y-76266667D01*
X145533333Y-76200000D01*
X145500000Y-76166667D01*
X145433333Y-76133333D01*
X144866667Y-76133333D01*
X144866667Y-75866667D02*
X144866667Y-75433334D01*
X145133333Y-75666667D01*
X145133333Y-75566667D01*
X145166667Y-75500000D01*
X145200000Y-75466667D01*
X145266667Y-75433334D01*
X145433333Y-75433334D01*
X145500000Y-75466667D01*
X145533333Y-75500000D01*
X145566667Y-75566667D01*
X145566667Y-75766667D01*
X145533333Y-75833334D01*
X145500000Y-75866667D01*
X153750000Y-76866666D02*
X153783333Y-76900000D01*
X153816667Y-77000000D01*
X153816667Y-77066666D01*
X153783333Y-77166666D01*
X153716667Y-77233333D01*
X153650000Y-77266666D01*
X153516667Y-77300000D01*
X153416667Y-77300000D01*
X153283333Y-77266666D01*
X153216667Y-77233333D01*
X153150000Y-77166666D01*
X153116667Y-77066666D01*
X153116667Y-77000000D01*
X153150000Y-76900000D01*
X153183333Y-76866666D01*
X153816667Y-76200000D02*
X153816667Y-76600000D01*
X153816667Y-76400000D02*
X153116667Y-76400000D01*
X153216667Y-76466666D01*
X153283333Y-76533333D01*
X153316667Y-76600000D01*
X156133334Y-89500000D02*
X156100000Y-89533333D01*
X156000000Y-89566667D01*
X155933334Y-89566667D01*
X155833334Y-89533333D01*
X155766667Y-89466667D01*
X155733334Y-89400000D01*
X155700000Y-89266667D01*
X155700000Y-89166667D01*
X155733334Y-89033333D01*
X155766667Y-88966667D01*
X155833334Y-88900000D01*
X155933334Y-88866667D01*
X156000000Y-88866667D01*
X156100000Y-88900000D01*
X156133334Y-88933333D01*
X156366667Y-88866667D02*
X156800000Y-88866667D01*
X156566667Y-89133333D01*
X156666667Y-89133333D01*
X156733334Y-89166667D01*
X156766667Y-89200000D01*
X156800000Y-89266667D01*
X156800000Y-89433333D01*
X156766667Y-89500000D01*
X156733334Y-89533333D01*
X156666667Y-89566667D01*
X156466667Y-89566667D01*
X156400000Y-89533333D01*
X156366667Y-89500000D01*
X154000000Y-94116666D02*
X154033333Y-94150000D01*
X154066667Y-94250000D01*
X154066667Y-94316666D01*
X154033333Y-94416666D01*
X153966667Y-94483333D01*
X153900000Y-94516666D01*
X153766667Y-94550000D01*
X153666667Y-94550000D01*
X153533333Y-94516666D01*
X153466667Y-94483333D01*
X153400000Y-94416666D01*
X153366667Y-94316666D01*
X153366667Y-94250000D01*
X153400000Y-94150000D01*
X153433333Y-94116666D01*
X153433333Y-93850000D02*
X153400000Y-93816666D01*
X153366667Y-93750000D01*
X153366667Y-93583333D01*
X153400000Y-93516666D01*
X153433333Y-93483333D01*
X153500000Y-93450000D01*
X153566667Y-93450000D01*
X153666667Y-93483333D01*
X154066667Y-93883333D01*
X154066667Y-93450000D01*
X156966667Y-94116667D02*
X156966667Y-94683333D01*
X157000000Y-94750000D01*
X157033333Y-94783333D01*
X157100000Y-94816667D01*
X157233333Y-94816667D01*
X157300000Y-94783333D01*
X157333333Y-94750000D01*
X157366667Y-94683333D01*
X157366667Y-94116667D01*
X158066666Y-94816667D02*
X157666666Y-94816667D01*
X157866666Y-94816667D02*
X157866666Y-94116667D01*
X157800000Y-94216667D01*
X157733333Y-94283333D01*
X157666666Y-94316667D01*
X111933333Y-78883333D02*
X111866667Y-78850000D01*
X111800000Y-78783333D01*
X111700000Y-78683333D01*
X111633333Y-78650000D01*
X111566667Y-78650000D01*
X111600000Y-78816667D02*
X111533333Y-78783333D01*
X111466667Y-78716667D01*
X111433333Y-78583333D01*
X111433333Y-78350000D01*
X111466667Y-78216667D01*
X111533333Y-78150000D01*
X111600000Y-78116667D01*
X111733333Y-78116667D01*
X111800000Y-78150000D01*
X111866667Y-78216667D01*
X111900000Y-78350000D01*
X111900000Y-78583333D01*
X111866667Y-78716667D01*
X111800000Y-78783333D01*
X111733333Y-78816667D01*
X111600000Y-78816667D01*
X112566666Y-78816667D02*
X112166666Y-78816667D01*
X112366666Y-78816667D02*
X112366666Y-78116667D01*
X112300000Y-78216667D01*
X112233333Y-78283333D01*
X112166666Y-78316667D01*
X122900001Y-92400000D02*
X122866667Y-92433333D01*
X122766667Y-92466667D01*
X122700001Y-92466667D01*
X122600001Y-92433333D01*
X122533334Y-92366667D01*
X122500001Y-92300000D01*
X122466667Y-92166667D01*
X122466667Y-92066667D01*
X122500001Y-91933333D01*
X122533334Y-91866667D01*
X122600001Y-91800000D01*
X122700001Y-91766667D01*
X122766667Y-91766667D01*
X122866667Y-91800000D01*
X122900001Y-91833333D01*
X123333334Y-91766667D02*
X123466667Y-91766667D01*
X123533334Y-91800000D01*
X123600001Y-91866667D01*
X123633334Y-92000000D01*
X123633334Y-92233333D01*
X123600001Y-92366667D01*
X123533334Y-92433333D01*
X123466667Y-92466667D01*
X123333334Y-92466667D01*
X123266667Y-92433333D01*
X123200001Y-92366667D01*
X123166667Y-92233333D01*
X123166667Y-92000000D01*
X123200001Y-91866667D01*
X123266667Y-91800000D01*
X123333334Y-91766667D01*
X123933334Y-92466667D02*
X123933334Y-91766667D01*
X124333334Y-92466667D01*
X124333334Y-91766667D01*
X125033333Y-92466667D02*
X124633333Y-92466667D01*
X124833333Y-92466667D02*
X124833333Y-91766667D01*
X124766667Y-91866667D01*
X124700000Y-91933333D01*
X124633333Y-91966667D01*
X148483334Y-87066667D02*
X148483334Y-86366667D01*
X148650000Y-86366667D01*
X148750000Y-86400000D01*
X148816667Y-86466667D01*
X148850000Y-86533333D01*
X148883334Y-86666667D01*
X148883334Y-86766667D01*
X148850000Y-86900000D01*
X148816667Y-86966667D01*
X148750000Y-87033333D01*
X148650000Y-87066667D01*
X148483334Y-87066667D01*
X149550000Y-87066667D02*
X149150000Y-87066667D01*
X149350000Y-87066667D02*
X149350000Y-86366667D01*
X149283334Y-86466667D01*
X149216667Y-86533333D01*
X149150000Y-86566667D01*
X135383334Y-80316667D02*
X135150000Y-79983333D01*
X134983334Y-80316667D02*
X134983334Y-79616667D01*
X135250000Y-79616667D01*
X135316667Y-79650000D01*
X135350000Y-79683333D01*
X135383334Y-79750000D01*
X135383334Y-79850000D01*
X135350000Y-79916667D01*
X135316667Y-79950000D01*
X135250000Y-79983333D01*
X134983334Y-79983333D01*
X135616667Y-79616667D02*
X136050000Y-79616667D01*
X135816667Y-79883333D01*
X135916667Y-79883333D01*
X135983334Y-79916667D01*
X136016667Y-79950000D01*
X136050000Y-80016667D01*
X136050000Y-80183333D01*
X136016667Y-80250000D01*
X135983334Y-80283333D01*
X135916667Y-80316667D01*
X135716667Y-80316667D01*
X135650000Y-80283333D01*
X135616667Y-80250000D01*
X131066667Y-86366666D02*
X130733333Y-86600000D01*
X131066667Y-86766666D02*
X130366667Y-86766666D01*
X130366667Y-86500000D01*
X130400000Y-86433333D01*
X130433333Y-86400000D01*
X130500000Y-86366666D01*
X130600000Y-86366666D01*
X130666667Y-86400000D01*
X130700000Y-86433333D01*
X130733333Y-86500000D01*
X130733333Y-86766666D01*
X131066667Y-85700000D02*
X131066667Y-86100000D01*
X131066667Y-85900000D02*
X130366667Y-85900000D01*
X130466667Y-85966666D01*
X130533333Y-86033333D01*
X130566667Y-86100000D01*
X135383334Y-78566667D02*
X135150000Y-78233333D01*
X134983334Y-78566667D02*
X134983334Y-77866667D01*
X135250000Y-77866667D01*
X135316667Y-77900000D01*
X135350000Y-77933333D01*
X135383334Y-78000000D01*
X135383334Y-78100000D01*
X135350000Y-78166667D01*
X135316667Y-78200000D01*
X135250000Y-78233333D01*
X134983334Y-78233333D01*
X135650000Y-77933333D02*
X135683334Y-77900000D01*
X135750000Y-77866667D01*
X135916667Y-77866667D01*
X135983334Y-77900000D01*
X136016667Y-77933333D01*
X136050000Y-78000000D01*
X136050000Y-78066667D01*
X136016667Y-78166667D01*
X135616667Y-78566667D01*
X136050000Y-78566667D01*
X118883334Y-73066667D02*
X118650000Y-72733333D01*
X118483334Y-73066667D02*
X118483334Y-72366667D01*
X118750000Y-72366667D01*
X118816667Y-72400000D01*
X118850000Y-72433333D01*
X118883334Y-72500000D01*
X118883334Y-72600000D01*
X118850000Y-72666667D01*
X118816667Y-72700000D01*
X118750000Y-72733333D01*
X118483334Y-72733333D01*
X119516667Y-72366667D02*
X119183334Y-72366667D01*
X119150000Y-72700000D01*
X119183334Y-72666667D01*
X119250000Y-72633333D01*
X119416667Y-72633333D01*
X119483334Y-72666667D01*
X119516667Y-72700000D01*
X119550000Y-72766667D01*
X119550000Y-72933333D01*
X119516667Y-73000000D01*
X119483334Y-73033333D01*
X119416667Y-73066667D01*
X119250000Y-73066667D01*
X119183334Y-73033333D01*
X119150000Y-73000000D01*
X124133334Y-72500000D02*
X124100000Y-72533333D01*
X124000000Y-72566667D01*
X123933334Y-72566667D01*
X123833334Y-72533333D01*
X123766667Y-72466667D01*
X123733334Y-72400000D01*
X123700000Y-72266667D01*
X123700000Y-72166667D01*
X123733334Y-72033333D01*
X123766667Y-71966667D01*
X123833334Y-71900000D01*
X123933334Y-71866667D01*
X124000000Y-71866667D01*
X124100000Y-71900000D01*
X124133334Y-71933333D01*
X124466667Y-72566667D02*
X124600000Y-72566667D01*
X124666667Y-72533333D01*
X124700000Y-72500000D01*
X124766667Y-72400000D01*
X124800000Y-72266667D01*
X124800000Y-72000000D01*
X124766667Y-71933333D01*
X124733334Y-71900000D01*
X124666667Y-71866667D01*
X124533334Y-71866667D01*
X124466667Y-71900000D01*
X124433334Y-71933333D01*
X124400000Y-72000000D01*
X124400000Y-72166667D01*
X124433334Y-72233333D01*
X124466667Y-72266667D01*
X124533334Y-72300000D01*
X124666667Y-72300000D01*
X124733334Y-72266667D01*
X124766667Y-72233333D01*
X124800000Y-72166667D01*
X124116667Y-77733333D02*
X124683333Y-77733333D01*
X124750000Y-77700000D01*
X124783333Y-77666667D01*
X124816667Y-77600000D01*
X124816667Y-77466667D01*
X124783333Y-77400000D01*
X124750000Y-77366667D01*
X124683333Y-77333333D01*
X124116667Y-77333333D01*
X124183333Y-77033334D02*
X124150000Y-77000000D01*
X124116667Y-76933334D01*
X124116667Y-76766667D01*
X124150000Y-76700000D01*
X124183333Y-76666667D01*
X124250000Y-76633334D01*
X124316667Y-76633334D01*
X124416667Y-76666667D01*
X124816667Y-77066667D01*
X124816667Y-76633334D01*
X121883334Y-89000000D02*
X121850000Y-89033333D01*
X121750000Y-89066667D01*
X121683334Y-89066667D01*
X121583334Y-89033333D01*
X121516667Y-88966667D01*
X121483334Y-88900000D01*
X121450000Y-88766667D01*
X121450000Y-88666667D01*
X121483334Y-88533333D01*
X121516667Y-88466667D01*
X121583334Y-88400000D01*
X121683334Y-88366667D01*
X121750000Y-88366667D01*
X121850000Y-88400000D01*
X121883334Y-88433333D01*
X122516667Y-88366667D02*
X122183334Y-88366667D01*
X122150000Y-88700000D01*
X122183334Y-88666667D01*
X122250000Y-88633333D01*
X122416667Y-88633333D01*
X122483334Y-88666667D01*
X122516667Y-88700000D01*
X122550000Y-88766667D01*
X122550000Y-88933333D01*
X122516667Y-89000000D01*
X122483334Y-89033333D01*
X122416667Y-89066667D01*
X122250000Y-89066667D01*
X122183334Y-89033333D01*
X122150000Y-89000000D01*
X116566667Y-85116666D02*
X116233333Y-85350000D01*
X116566667Y-85516666D02*
X115866667Y-85516666D01*
X115866667Y-85250000D01*
X115900000Y-85183333D01*
X115933333Y-85150000D01*
X116000000Y-85116666D01*
X116100000Y-85116666D01*
X116166667Y-85150000D01*
X116200000Y-85183333D01*
X116233333Y-85250000D01*
X116233333Y-85516666D01*
X115866667Y-84883333D02*
X115866667Y-84416666D01*
X116566667Y-84716666D01*
X113066667Y-85116666D02*
X112733333Y-85350000D01*
X113066667Y-85516666D02*
X112366667Y-85516666D01*
X112366667Y-85250000D01*
X112400000Y-85183333D01*
X112433333Y-85150000D01*
X112500000Y-85116666D01*
X112600000Y-85116666D01*
X112666667Y-85150000D01*
X112700000Y-85183333D01*
X112733333Y-85250000D01*
X112733333Y-85516666D01*
X112366667Y-84516666D02*
X112366667Y-84650000D01*
X112400000Y-84716666D01*
X112433333Y-84750000D01*
X112533333Y-84816666D01*
X112666667Y-84850000D01*
X112933333Y-84850000D01*
X113000000Y-84816666D01*
X113033333Y-84783333D01*
X113066667Y-84716666D01*
X113066667Y-84583333D01*
X113033333Y-84516666D01*
X113000000Y-84483333D01*
X112933333Y-84450000D01*
X112766667Y-84450000D01*
X112700000Y-84483333D01*
X112666667Y-84516666D01*
X112633333Y-84583333D01*
X112633333Y-84716666D01*
X112666667Y-84783333D01*
X112700000Y-84816666D01*
X112766667Y-84850000D01*
X135383334Y-76816667D02*
X135150000Y-76483333D01*
X134983334Y-76816667D02*
X134983334Y-76116667D01*
X135250000Y-76116667D01*
X135316667Y-76150000D01*
X135350000Y-76183333D01*
X135383334Y-76250000D01*
X135383334Y-76350000D01*
X135350000Y-76416667D01*
X135316667Y-76450000D01*
X135250000Y-76483333D01*
X134983334Y-76483333D01*
X135983334Y-76350000D02*
X135983334Y-76816667D01*
X135816667Y-76083333D02*
X135650000Y-76583333D01*
X136083334Y-76583333D01*
X157566667Y-85116666D02*
X157233333Y-85350000D01*
X157566667Y-85516666D02*
X156866667Y-85516666D01*
X156866667Y-85250000D01*
X156900000Y-85183333D01*
X156933333Y-85150000D01*
X157000000Y-85116666D01*
X157100000Y-85116666D01*
X157166667Y-85150000D01*
X157200000Y-85183333D01*
X157233333Y-85250000D01*
X157233333Y-85516666D01*
X157166667Y-84716666D02*
X157133333Y-84783333D01*
X157100000Y-84816666D01*
X157033333Y-84850000D01*
X157000000Y-84850000D01*
X156933333Y-84816666D01*
X156900000Y-84783333D01*
X156866667Y-84716666D01*
X156866667Y-84583333D01*
X156900000Y-84516666D01*
X156933333Y-84483333D01*
X157000000Y-84450000D01*
X157033333Y-84450000D01*
X157100000Y-84483333D01*
X157133333Y-84516666D01*
X157166667Y-84583333D01*
X157166667Y-84716666D01*
X157200000Y-84783333D01*
X157233333Y-84816666D01*
X157300000Y-84850000D01*
X157433333Y-84850000D01*
X157500000Y-84816666D01*
X157533333Y-84783333D01*
X157566667Y-84716666D01*
X157566667Y-84583333D01*
X157533333Y-84516666D01*
X157500000Y-84483333D01*
X157433333Y-84450000D01*
X157300000Y-84450000D01*
X157233333Y-84483333D01*
X157200000Y-84516666D01*
X157166667Y-84583333D01*
X158566667Y-85116666D02*
X158233333Y-85350000D01*
X158566667Y-85516666D02*
X157866667Y-85516666D01*
X157866667Y-85250000D01*
X157900000Y-85183333D01*
X157933333Y-85150000D01*
X158000000Y-85116666D01*
X158100000Y-85116666D01*
X158166667Y-85150000D01*
X158200000Y-85183333D01*
X158233333Y-85250000D01*
X158233333Y-85516666D01*
X158566667Y-84783333D02*
X158566667Y-84650000D01*
X158533333Y-84583333D01*
X158500000Y-84550000D01*
X158400000Y-84483333D01*
X158266667Y-84450000D01*
X158000000Y-84450000D01*
X157933333Y-84483333D01*
X157900000Y-84516666D01*
X157866667Y-84583333D01*
X157866667Y-84716666D01*
X157900000Y-84783333D01*
X157933333Y-84816666D01*
X158000000Y-84850000D01*
X158166667Y-84850000D01*
X158233333Y-84816666D01*
X158266667Y-84783333D01*
X158300000Y-84716666D01*
X158300000Y-84583333D01*
X158266667Y-84516666D01*
X158233333Y-84483333D01*
X158166667Y-84450000D01*
X155566667Y-81200000D02*
X155233333Y-81433334D01*
X155566667Y-81600000D02*
X154866667Y-81600000D01*
X154866667Y-81333334D01*
X154900000Y-81266667D01*
X154933333Y-81233334D01*
X155000000Y-81200000D01*
X155100000Y-81200000D01*
X155166667Y-81233334D01*
X155200000Y-81266667D01*
X155233333Y-81333334D01*
X155233333Y-81600000D01*
X155566667Y-80533334D02*
X155566667Y-80933334D01*
X155566667Y-80733334D02*
X154866667Y-80733334D01*
X154966667Y-80800000D01*
X155033333Y-80866667D01*
X155066667Y-80933334D01*
X154866667Y-80100000D02*
X154866667Y-80033333D01*
X154900000Y-79966667D01*
X154933333Y-79933333D01*
X155000000Y-79900000D01*
X155133333Y-79866667D01*
X155300000Y-79866667D01*
X155433333Y-79900000D01*
X155500000Y-79933333D01*
X155533333Y-79966667D01*
X155566667Y-80033333D01*
X155566667Y-80100000D01*
X155533333Y-80166667D01*
X155500000Y-80200000D01*
X155433333Y-80233333D01*
X155300000Y-80266667D01*
X155133333Y-80266667D01*
X155000000Y-80233333D01*
X154933333Y-80200000D01*
X154900000Y-80166667D01*
X154866667Y-80100000D01*
X156566667Y-81200000D02*
X156233333Y-81433334D01*
X156566667Y-81600000D02*
X155866667Y-81600000D01*
X155866667Y-81333334D01*
X155900000Y-81266667D01*
X155933333Y-81233334D01*
X156000000Y-81200000D01*
X156100000Y-81200000D01*
X156166667Y-81233334D01*
X156200000Y-81266667D01*
X156233333Y-81333334D01*
X156233333Y-81600000D01*
X156566667Y-80533334D02*
X156566667Y-80933334D01*
X156566667Y-80733334D02*
X155866667Y-80733334D01*
X155966667Y-80800000D01*
X156033333Y-80866667D01*
X156066667Y-80933334D01*
X156566667Y-79866667D02*
X156566667Y-80266667D01*
X156566667Y-80066667D02*
X155866667Y-80066667D01*
X155966667Y-80133333D01*
X156033333Y-80200000D01*
X156066667Y-80266667D01*
X157300000Y-84066667D02*
X157066666Y-83733333D01*
X156900000Y-84066667D02*
X156900000Y-83366667D01*
X157166666Y-83366667D01*
X157233333Y-83400000D01*
X157266666Y-83433333D01*
X157300000Y-83500000D01*
X157300000Y-83600000D01*
X157266666Y-83666667D01*
X157233333Y-83700000D01*
X157166666Y-83733333D01*
X156900000Y-83733333D01*
X157966666Y-84066667D02*
X157566666Y-84066667D01*
X157766666Y-84066667D02*
X157766666Y-83366667D01*
X157700000Y-83466667D01*
X157633333Y-83533333D01*
X157566666Y-83566667D01*
X158233333Y-83433333D02*
X158266667Y-83400000D01*
X158333333Y-83366667D01*
X158500000Y-83366667D01*
X158566667Y-83400000D01*
X158600000Y-83433333D01*
X158633333Y-83500000D01*
X158633333Y-83566667D01*
X158600000Y-83666667D01*
X158200000Y-84066667D01*
X158633333Y-84066667D01*
X139816666Y-74108333D02*
X139916666Y-74141667D01*
X140083333Y-74141667D01*
X140150000Y-74108333D01*
X140183333Y-74075000D01*
X140216666Y-74008333D01*
X140216666Y-73941667D01*
X140183333Y-73875000D01*
X140150000Y-73841667D01*
X140083333Y-73808333D01*
X139950000Y-73775000D01*
X139883333Y-73741667D01*
X139850000Y-73708333D01*
X139816666Y-73641667D01*
X139816666Y-73575000D01*
X139850000Y-73508333D01*
X139883333Y-73475000D01*
X139950000Y-73441667D01*
X140116666Y-73441667D01*
X140216666Y-73475000D01*
X140450000Y-73441667D02*
X140616667Y-74141667D01*
X140750000Y-73641667D01*
X140883333Y-74141667D01*
X141050000Y-73441667D01*
X141683333Y-74141667D02*
X141283333Y-74141667D01*
X141483333Y-74141667D02*
X141483333Y-73441667D01*
X141416667Y-73541667D01*
X141350000Y-73608333D01*
X141283333Y-73641667D01*
X152466667Y-78885467D02*
X152466667Y-79452133D01*
X152500000Y-79518800D01*
X152533333Y-79552133D01*
X152600000Y-79585467D01*
X152733333Y-79585467D01*
X152800000Y-79552133D01*
X152833333Y-79518800D01*
X152866667Y-79452133D01*
X152866667Y-78885467D01*
X153500000Y-79118800D02*
X153500000Y-79585467D01*
X153333333Y-78852133D02*
X153166666Y-79352133D01*
X153600000Y-79352133D01*
X154750000Y-76866666D02*
X154783333Y-76900000D01*
X154816667Y-77000000D01*
X154816667Y-77066666D01*
X154783333Y-77166666D01*
X154716667Y-77233333D01*
X154650000Y-77266666D01*
X154516667Y-77300000D01*
X154416667Y-77300000D01*
X154283333Y-77266666D01*
X154216667Y-77233333D01*
X154150000Y-77166666D01*
X154116667Y-77066666D01*
X154116667Y-77000000D01*
X154150000Y-76900000D01*
X154183333Y-76866666D01*
X154116667Y-76266666D02*
X154116667Y-76400000D01*
X154150000Y-76466666D01*
X154183333Y-76500000D01*
X154283333Y-76566666D01*
X154416667Y-76600000D01*
X154683333Y-76600000D01*
X154750000Y-76566666D01*
X154783333Y-76533333D01*
X154816667Y-76466666D01*
X154816667Y-76333333D01*
X154783333Y-76266666D01*
X154750000Y-76233333D01*
X154683333Y-76200000D01*
X154516667Y-76200000D01*
X154450000Y-76233333D01*
X154416667Y-76266666D01*
X154383333Y-76333333D01*
X154383333Y-76466666D01*
X154416667Y-76533333D01*
X154450000Y-76566666D01*
X154516667Y-76600000D01*
D14*
X132452381Y-95142857D02*
X131976190Y-95476191D01*
X132452381Y-95714286D02*
X131452381Y-95714286D01*
X131452381Y-95333333D01*
X131500000Y-95238095D01*
X131547619Y-95190476D01*
X131642857Y-95142857D01*
X131785714Y-95142857D01*
X131880952Y-95190476D01*
X131928571Y-95238095D01*
X131976190Y-95333333D01*
X131976190Y-95714286D01*
X132452381Y-94190476D02*
X132452381Y-94761905D01*
X132452381Y-94476191D02*
X131452381Y-94476191D01*
X131595238Y-94571429D01*
X131690476Y-94666667D01*
X131738095Y-94761905D01*
X131452381Y-93857143D02*
X131452381Y-93238095D01*
X131833333Y-93571429D01*
X131833333Y-93428571D01*
X131880952Y-93333333D01*
X131928571Y-93285714D01*
X132023810Y-93238095D01*
X132261905Y-93238095D01*
X132357143Y-93285714D01*
X132404762Y-93333333D01*
X132452381Y-93428571D01*
X132452381Y-93714286D01*
X132404762Y-93809524D01*
X132357143Y-93857143D01*
%LPC*%
D16*
X150250700Y-85200000D03*
X151749300Y-85200000D03*
D17*
X150520000Y-93000000D03*
D18*
X147980000Y-93000000D03*
D19*
X135100000Y-82700000D03*
X135100000Y-85200000D03*
X135100000Y-87700000D03*
D20*
X142100000Y-80400000D03*
X142100000Y-90000000D03*
D21*
X148723662Y-74612874D03*
X146823662Y-74612874D03*
D22*
X148751140Y-78200000D03*
X148751140Y-76300000D03*
X145748860Y-77250000D03*
D23*
X150500000Y-77700000D03*
X150500000Y-75800000D03*
D21*
X157200000Y-88000000D03*
X155300000Y-88000000D03*
D23*
X153750000Y-90550000D03*
X153750000Y-92450000D03*
D24*
X157200000Y-90498860D03*
X155300000Y-90498860D03*
X156250000Y-93501140D03*
D25*
X112625800Y-76448760D03*
X112625800Y-81051240D03*
D26*
X118874200Y-78750000D03*
D27*
X128050000Y-96650000D03*
X128050000Y-92150000D03*
X119450000Y-92150000D03*
X119450000Y-96650000D03*
D28*
X123750000Y-98650000D03*
X123750000Y-93650000D03*
D16*
X151799300Y-86750000D03*
X150300700Y-86750000D03*
D29*
X131400000Y-80000000D03*
X133600000Y-80000000D03*
D30*
X132250000Y-85150000D03*
X132250000Y-87350000D03*
D29*
X131400000Y-78250000D03*
X133600000Y-78250000D03*
X120100000Y-74000000D03*
X117900000Y-74000000D03*
D21*
X128200000Y-72250000D03*
X126300000Y-72250000D03*
D31*
X125745000Y-79900000D03*
X127015000Y-79900000D03*
X128285000Y-79900000D03*
X129555000Y-79900000D03*
X129555000Y-74500000D03*
X128285000Y-74500000D03*
X127015000Y-74500000D03*
X125745000Y-74500000D03*
D21*
X121550000Y-90000000D03*
X123450000Y-90000000D03*
D32*
X116250000Y-86562300D03*
X116250000Y-92937700D03*
X113000000Y-86562300D03*
X113000000Y-92937700D03*
D29*
X131400000Y-76500000D03*
X133600000Y-76500000D03*
D30*
X154000000Y-86100000D03*
X154000000Y-83900000D03*
X155750000Y-83900000D03*
X155750000Y-86100000D03*
X148750000Y-81850000D03*
X148750000Y-79650000D03*
X150500000Y-79650000D03*
X150500000Y-81850000D03*
D29*
X151850000Y-83750000D03*
X149650000Y-83750000D03*
D33*
X142250000Y-73250000D03*
X139250000Y-73250000D03*
D34*
X143000000Y-75000000D03*
X140000000Y-75000000D03*
X138500000Y-75000000D03*
D35*
X144400000Y-72150000D03*
X137100000Y-72150000D03*
X137100000Y-74350000D03*
X144400000Y-74350000D03*
D36*
X152047500Y-82306640D03*
X153952500Y-82306640D03*
X153000000Y-82306640D03*
X153952500Y-80193360D03*
X152047500Y-80193360D03*
X153000000Y-80193360D03*
D23*
X152250000Y-77700000D03*
X152250000Y-75800000D03*
D30*
X130500000Y-95600000D03*
X130500000Y-93400000D03*
M02*
