G04 #@! TF.FileFunction,Profile,NP*
%FSLAX46Y46*%
G04 Gerber Fmt 4.6, Leading zero omitted, Abs format (unit mm)*
G04 Created by KiCad (PCBNEW (2015-09-30 BZR 6232)-product) date Tue 06 Oct 2015 09:20:13 AM EEST*
%MOMM*%
G01*
G04 APERTURE LIST*
%ADD10C,0.100000*%
G04 APERTURE END LIST*
D10*
X138500000Y-71500000D02*
X138500000Y-69970467D01*
X143000000Y-71500000D02*
X143000000Y-69970467D01*
X111246463Y-97020467D02*
X109876698Y-97020467D01*
X111246463Y-97020467D02*
G75*
G02X113226698Y-99000701I480235J-1500000D01*
G01*
X143000000Y-69970467D02*
X155826698Y-69970467D01*
X113226698Y-69970467D02*
X138500000Y-69970467D01*
X138500000Y-71500000D02*
X143000000Y-71500000D01*
X159176698Y-97020467D02*
X159176698Y-73320467D01*
X157806932Y-97020467D02*
X159176698Y-97020467D01*
X155826698Y-100370467D02*
X155826698Y-99000701D01*
X113226698Y-100370467D02*
X113226698Y-99000701D01*
X111246463Y-73320467D02*
X109876698Y-73320467D01*
X113226698Y-69970467D02*
X113226698Y-71340233D01*
X129876698Y-85170467D02*
G75*
G03X129876698Y-85170467I-4150000J0D01*
G01*
X113226698Y-100370467D02*
X155826698Y-100370467D01*
X109876698Y-73320467D02*
X109876698Y-97020467D01*
X113226698Y-71340233D02*
G75*
G02X111246463Y-73320467I-1500000J-480234D01*
G01*
X157806933Y-73320467D02*
G75*
G02X155826698Y-71340233I-480235J1500000D01*
G01*
X155826698Y-99000702D02*
G75*
G02X157806932Y-97020467I1500000J480235D01*
G01*
X157806932Y-73320467D02*
X159176698Y-73320467D01*
X155826698Y-69970467D02*
X155826698Y-71340233D01*
M02*
