G04 #@! TF.FileFunction,Soldermask,Top*
%FSLAX46Y46*%
G04 Gerber Fmt 4.6, Leading zero omitted, Abs format (unit mm)*
G04 Created by KiCad (PCBNEW 0.201511300701+6336~38~ubuntu14.04.1-stable) date Wed 02 Dec 2015 03:53:32 PM EET*
%MOMM*%
G01*
G04 APERTURE LIST*
%ADD10C,0.100000*%
%ADD11R,0.797560X0.797560*%
%ADD12R,1.524000X4.000000*%
%ADD13O,1.524000X4.000000*%
%ADD14O,2.000000X1.500000*%
%ADD15C,3.500000*%
%ADD16R,1.200000X0.750000*%
%ADD17R,1.800860X0.800100*%
%ADD18R,0.750000X1.200000*%
%ADD19R,0.800100X1.800860*%
%ADD20R,3.200400X1.600200*%
%ADD21R,7.000240X6.499860*%
%ADD22R,2.200000X2.200000*%
%ADD23C,1.500000*%
%ADD24R,1.200000X0.900000*%
%ADD25R,0.900000X1.200000*%
%ADD26R,0.600000X1.550000*%
%ADD27R,3.175000X1.600200*%
%ADD28C,0.900000*%
%ADD29R,0.700000X1.500000*%
%ADD30R,1.000000X0.800000*%
%ADD31R,0.599440X1.000760*%
G04 APERTURE END LIST*
D10*
D11*
X150250700Y-85200000D03*
X151749300Y-85200000D03*
D12*
X150520000Y-93000000D03*
D13*
X147980000Y-93000000D03*
D14*
X135100000Y-82700000D03*
X135100000Y-85200000D03*
X135100000Y-87700000D03*
D15*
X142100000Y-80400000D03*
X142100000Y-90000000D03*
D16*
X148723662Y-74612874D03*
X146823662Y-74612874D03*
D17*
X148751140Y-78200000D03*
X148751140Y-76300000D03*
X145748860Y-77250000D03*
D18*
X150500000Y-77700000D03*
X150500000Y-75800000D03*
D16*
X157200000Y-88000000D03*
X155300000Y-88000000D03*
D18*
X153750000Y-90550000D03*
X153750000Y-92450000D03*
D19*
X157200000Y-90498860D03*
X155300000Y-90498860D03*
X156250000Y-93501140D03*
D20*
X112625800Y-76448760D03*
X112625800Y-81051240D03*
D21*
X118874200Y-78750000D03*
D22*
X128050000Y-96650000D03*
X128050000Y-92150000D03*
X119450000Y-92150000D03*
X119450000Y-96650000D03*
D23*
X123750000Y-98650000D03*
X123750000Y-93650000D03*
D11*
X151799300Y-86750000D03*
X150300700Y-86750000D03*
D24*
X131400000Y-80000000D03*
X133600000Y-80000000D03*
D25*
X132250000Y-85150000D03*
X132250000Y-87350000D03*
D24*
X131400000Y-78250000D03*
X133600000Y-78250000D03*
X120100000Y-74000000D03*
X117900000Y-74000000D03*
D16*
X128200000Y-72250000D03*
X126300000Y-72250000D03*
D26*
X125745000Y-79900000D03*
X127015000Y-79900000D03*
X128285000Y-79900000D03*
X129555000Y-79900000D03*
X129555000Y-74500000D03*
X128285000Y-74500000D03*
X127015000Y-74500000D03*
X125745000Y-74500000D03*
D16*
X121550000Y-90000000D03*
X123450000Y-90000000D03*
D27*
X116250000Y-86562300D03*
X116250000Y-92937700D03*
X113000000Y-86562300D03*
X113000000Y-92937700D03*
D24*
X131400000Y-76500000D03*
X133600000Y-76500000D03*
D25*
X154000000Y-86100000D03*
X154000000Y-83900000D03*
X155750000Y-83900000D03*
X155750000Y-86100000D03*
X148750000Y-81850000D03*
X148750000Y-79650000D03*
X150500000Y-79650000D03*
X150500000Y-81850000D03*
D24*
X151850000Y-83750000D03*
X149650000Y-83750000D03*
D28*
X142250000Y-73250000D03*
X139250000Y-73250000D03*
D29*
X143000000Y-75000000D03*
X140000000Y-75000000D03*
X138500000Y-75000000D03*
D30*
X144400000Y-72150000D03*
X137100000Y-72150000D03*
X137100000Y-74350000D03*
X144400000Y-74350000D03*
D31*
X152047500Y-82306640D03*
X153952500Y-82306640D03*
X153000000Y-82306640D03*
X153952500Y-80193360D03*
X152047500Y-80193360D03*
X153000000Y-80193360D03*
D18*
X152250000Y-77700000D03*
X152250000Y-75800000D03*
D25*
X130500000Y-95600000D03*
X130500000Y-93400000D03*
M02*
