G04 #@! TF.FileFunction,Legend,Bot*
%FSLAX46Y46*%
G04 Gerber Fmt 4.6, Leading zero omitted, Abs format (unit mm)*
G04 Created by KiCad (PCBNEW 0.201511300701+6336~38~ubuntu14.04.1-stable) date Wed 02 Dec 2015 03:43:02 PM EET*
%MOMM*%
G01*
G04 APERTURE LIST*
%ADD10C,0.100000*%
%ADD11C,0.150000*%
%ADD12C,0.300000*%
%ADD13O,2.000000X1.500000*%
%ADD14C,3.500000*%
%ADD15C,1.500000*%
%ADD16C,0.900000*%
%ADD17C,0.254000*%
G04 APERTURE END LIST*
D10*
D11*
X145200000Y-71116667D02*
X145600000Y-71116667D01*
X145400000Y-71116667D02*
X145400000Y-70416667D01*
X145466666Y-70516667D01*
X145533333Y-70583333D01*
X145600000Y-70616667D01*
X144899999Y-71050000D02*
X144866666Y-71083333D01*
X144899999Y-71116667D01*
X144933333Y-71083333D01*
X144899999Y-71050000D01*
X144899999Y-71116667D01*
X144466666Y-70716667D02*
X144533333Y-70683333D01*
X144566666Y-70650000D01*
X144600000Y-70583333D01*
X144600000Y-70550000D01*
X144566666Y-70483333D01*
X144533333Y-70450000D01*
X144466666Y-70416667D01*
X144333333Y-70416667D01*
X144266666Y-70450000D01*
X144233333Y-70483333D01*
X144200000Y-70550000D01*
X144200000Y-70583333D01*
X144233333Y-70650000D01*
X144266666Y-70683333D01*
X144333333Y-70716667D01*
X144466666Y-70716667D01*
X144533333Y-70750000D01*
X144566666Y-70783333D01*
X144600000Y-70850000D01*
X144600000Y-70983333D01*
X144566666Y-71050000D01*
X144533333Y-71083333D01*
X144466666Y-71116667D01*
X144333333Y-71116667D01*
X144266666Y-71083333D01*
X144233333Y-71050000D01*
X144200000Y-70983333D01*
X144200000Y-70850000D01*
X144233333Y-70783333D01*
X144266666Y-70750000D01*
X144333333Y-70716667D01*
X143933333Y-70916667D02*
X143599999Y-70916667D01*
X143999999Y-71116667D02*
X143766666Y-70416667D01*
X143533333Y-71116667D01*
X137933333Y-70416667D02*
X137866666Y-70416667D01*
X137800000Y-70450000D01*
X137766666Y-70483333D01*
X137733333Y-70550000D01*
X137700000Y-70683333D01*
X137700000Y-70850000D01*
X137733333Y-70983333D01*
X137766666Y-71050000D01*
X137800000Y-71083333D01*
X137866666Y-71116667D01*
X137933333Y-71116667D01*
X138000000Y-71083333D01*
X138033333Y-71050000D01*
X138066666Y-70983333D01*
X138100000Y-70850000D01*
X138100000Y-70683333D01*
X138066666Y-70550000D01*
X138033333Y-70483333D01*
X138000000Y-70450000D01*
X137933333Y-70416667D01*
X137399999Y-71050000D02*
X137366666Y-71083333D01*
X137399999Y-71116667D01*
X137433333Y-71083333D01*
X137399999Y-71050000D01*
X137399999Y-71116667D01*
X137033333Y-71116667D02*
X136900000Y-71116667D01*
X136833333Y-71083333D01*
X136800000Y-71050000D01*
X136733333Y-70950000D01*
X136700000Y-70816667D01*
X136700000Y-70550000D01*
X136733333Y-70483333D01*
X136766666Y-70450000D01*
X136833333Y-70416667D01*
X136966666Y-70416667D01*
X137033333Y-70450000D01*
X137066666Y-70483333D01*
X137100000Y-70550000D01*
X137100000Y-70716667D01*
X137066666Y-70783333D01*
X137033333Y-70816667D01*
X136966666Y-70850000D01*
X136833333Y-70850000D01*
X136766666Y-70816667D01*
X136733333Y-70783333D01*
X136700000Y-70716667D01*
X136433333Y-70916667D02*
X136099999Y-70916667D01*
X136499999Y-71116667D02*
X136266666Y-70416667D01*
X136033333Y-71116667D01*
D12*
X155571429Y-93857142D02*
X155571429Y-94571428D01*
X157071429Y-94571428D01*
X156357143Y-93357142D02*
X156357143Y-92857142D01*
X155571429Y-92642856D02*
X155571429Y-93357142D01*
X157071429Y-93357142D01*
X157071429Y-92642856D01*
X155571429Y-91999999D02*
X157071429Y-91999999D01*
X157071429Y-91642856D01*
X157000000Y-91428571D01*
X156857143Y-91285713D01*
X156714286Y-91214285D01*
X156428571Y-91142856D01*
X156214286Y-91142856D01*
X155928571Y-91214285D01*
X155785714Y-91285713D01*
X155642857Y-91428571D01*
X155571429Y-91642856D01*
X155571429Y-91999999D01*
X155571429Y-88714285D02*
X157071429Y-88714285D01*
X155642857Y-88714285D02*
X155571429Y-88857142D01*
X155571429Y-89142856D01*
X155642857Y-89285714D01*
X155714286Y-89357142D01*
X155857143Y-89428571D01*
X156285714Y-89428571D01*
X156428571Y-89357142D01*
X156500000Y-89285714D01*
X156571429Y-89142856D01*
X156571429Y-88857142D01*
X156500000Y-88714285D01*
X155571429Y-87999999D02*
X156571429Y-87999999D01*
X157071429Y-87999999D02*
X157000000Y-88071428D01*
X156928571Y-87999999D01*
X157000000Y-87928571D01*
X157071429Y-87999999D01*
X156928571Y-87999999D01*
X155571429Y-87285713D02*
X156571429Y-87285713D01*
X156428571Y-87285713D02*
X156500000Y-87214285D01*
X156571429Y-87071427D01*
X156571429Y-86857142D01*
X156500000Y-86714285D01*
X156357143Y-86642856D01*
X155571429Y-86642856D01*
X156357143Y-86642856D02*
X156500000Y-86571427D01*
X156571429Y-86428570D01*
X156571429Y-86214285D01*
X156500000Y-86071427D01*
X156357143Y-85999999D01*
X155571429Y-85999999D01*
X155571429Y-85285713D02*
X156571429Y-85285713D01*
X156428571Y-85285713D02*
X156500000Y-85214285D01*
X156571429Y-85071427D01*
X156571429Y-84857142D01*
X156500000Y-84714285D01*
X156357143Y-84642856D01*
X155571429Y-84642856D01*
X156357143Y-84642856D02*
X156500000Y-84571427D01*
X156571429Y-84428570D01*
X156571429Y-84214285D01*
X156500000Y-84071427D01*
X156357143Y-83999999D01*
X155571429Y-83999999D01*
X155642857Y-82714285D02*
X155571429Y-82857142D01*
X155571429Y-83142856D01*
X155642857Y-83285713D01*
X155785714Y-83357142D01*
X156357143Y-83357142D01*
X156500000Y-83285713D01*
X156571429Y-83142856D01*
X156571429Y-82857142D01*
X156500000Y-82714285D01*
X156357143Y-82642856D01*
X156214286Y-82642856D01*
X156071429Y-83357142D01*
X155571429Y-81999999D02*
X156571429Y-81999999D01*
X156285714Y-81999999D02*
X156428571Y-81928571D01*
X156500000Y-81857142D01*
X156571429Y-81714285D01*
X156571429Y-81571428D01*
X156571429Y-80071428D02*
X155571429Y-79714285D01*
X156571429Y-79357143D01*
X156928571Y-78857143D02*
X157000000Y-78785714D01*
X157071429Y-78642857D01*
X157071429Y-78285714D01*
X157000000Y-78142857D01*
X156928571Y-78071428D01*
X156785714Y-78000000D01*
X156642857Y-78000000D01*
X156428571Y-78071428D01*
X155571429Y-78928571D01*
X155571429Y-78000000D01*
X155714286Y-77357143D02*
X155642857Y-77285715D01*
X155571429Y-77357143D01*
X155642857Y-77428572D01*
X155714286Y-77357143D01*
X155571429Y-77357143D01*
X157071429Y-76357143D02*
X157071429Y-76214286D01*
X157000000Y-76071429D01*
X156928571Y-76000000D01*
X156785714Y-75928571D01*
X156500000Y-75857143D01*
X156142857Y-75857143D01*
X155857143Y-75928571D01*
X155714286Y-76000000D01*
X155642857Y-76071429D01*
X155571429Y-76214286D01*
X155571429Y-76357143D01*
X155642857Y-76500000D01*
X155714286Y-76571429D01*
X155857143Y-76642857D01*
X156142857Y-76714286D01*
X156500000Y-76714286D01*
X156785714Y-76642857D01*
X156928571Y-76571429D01*
X157000000Y-76500000D01*
X157071429Y-76357143D01*
X153242857Y-91250000D02*
X153171429Y-91392857D01*
X153171429Y-91678571D01*
X153242857Y-91821429D01*
X153314286Y-91892857D01*
X153457143Y-91964286D01*
X153885714Y-91964286D01*
X154028571Y-91892857D01*
X154100000Y-91821429D01*
X154171429Y-91678571D01*
X154171429Y-91392857D01*
X154100000Y-91250000D01*
X153171429Y-90607143D02*
X154171429Y-90607143D01*
X154671429Y-90607143D02*
X154600000Y-90678572D01*
X154528571Y-90607143D01*
X154600000Y-90535715D01*
X154671429Y-90607143D01*
X154528571Y-90607143D01*
X153171429Y-89678571D02*
X153242857Y-89821429D01*
X153314286Y-89892857D01*
X153457143Y-89964286D01*
X153885714Y-89964286D01*
X154028571Y-89892857D01*
X154100000Y-89821429D01*
X154171429Y-89678571D01*
X154171429Y-89464286D01*
X154100000Y-89321429D01*
X154028571Y-89250000D01*
X153885714Y-89178571D01*
X153457143Y-89178571D01*
X153314286Y-89250000D01*
X153242857Y-89321429D01*
X153171429Y-89464286D01*
X153171429Y-89678571D01*
X153171429Y-88535714D02*
X154671429Y-88535714D01*
X154100000Y-88535714D02*
X154171429Y-88392857D01*
X154171429Y-88107143D01*
X154100000Y-87964286D01*
X154028571Y-87892857D01*
X153885714Y-87821428D01*
X153457143Y-87821428D01*
X153314286Y-87892857D01*
X153242857Y-87964286D01*
X153171429Y-88107143D01*
X153171429Y-88392857D01*
X153242857Y-88535714D01*
X153171429Y-87178571D02*
X154171429Y-87178571D01*
X153885714Y-87178571D02*
X154028571Y-87107143D01*
X154100000Y-87035714D01*
X154171429Y-86892857D01*
X154171429Y-86750000D01*
X153242857Y-85678572D02*
X153171429Y-85821429D01*
X153171429Y-86107143D01*
X153242857Y-86250000D01*
X153385714Y-86321429D01*
X153957143Y-86321429D01*
X154100000Y-86250000D01*
X154171429Y-86107143D01*
X154171429Y-85821429D01*
X154100000Y-85678572D01*
X153957143Y-85607143D01*
X153814286Y-85607143D01*
X153671429Y-86321429D01*
X153171429Y-84750000D02*
X153242857Y-84892858D01*
X153385714Y-84964286D01*
X154671429Y-84964286D01*
X153171429Y-84178572D02*
X154171429Y-84178572D01*
X154671429Y-84178572D02*
X154600000Y-84250001D01*
X154528571Y-84178572D01*
X154600000Y-84107144D01*
X154671429Y-84178572D01*
X154528571Y-84178572D01*
X153171429Y-82821429D02*
X153957143Y-82821429D01*
X154100000Y-82892858D01*
X154171429Y-83035715D01*
X154171429Y-83321429D01*
X154100000Y-83464286D01*
X153242857Y-82821429D02*
X153171429Y-82964286D01*
X153171429Y-83321429D01*
X153242857Y-83464286D01*
X153385714Y-83535715D01*
X153528571Y-83535715D01*
X153671429Y-83464286D01*
X153742857Y-83321429D01*
X153742857Y-82964286D01*
X153814286Y-82821429D01*
X153171429Y-82107143D02*
X154171429Y-82107143D01*
X154671429Y-82107143D02*
X154600000Y-82178572D01*
X154528571Y-82107143D01*
X154600000Y-82035715D01*
X154671429Y-82107143D01*
X154528571Y-82107143D01*
X153314286Y-81392857D02*
X153242857Y-81321429D01*
X153171429Y-81392857D01*
X153242857Y-81464286D01*
X153314286Y-81392857D01*
X153171429Y-81392857D01*
X153171429Y-80464285D02*
X153242857Y-80607143D01*
X153385714Y-80678571D01*
X154671429Y-80678571D01*
X154171429Y-80107143D02*
X154171429Y-79535714D01*
X154671429Y-79892857D02*
X153385714Y-79892857D01*
X153242857Y-79821429D01*
X153171429Y-79678571D01*
X153171429Y-79535714D01*
X151771429Y-93821429D02*
X151771429Y-93250000D01*
X152271429Y-93607143D02*
X150985714Y-93607143D01*
X150842857Y-93535715D01*
X150771429Y-93392857D01*
X150771429Y-93250000D01*
X150842857Y-92178572D02*
X150771429Y-92321429D01*
X150771429Y-92607143D01*
X150842857Y-92750000D01*
X150985714Y-92821429D01*
X151557143Y-92821429D01*
X151700000Y-92750000D01*
X151771429Y-92607143D01*
X151771429Y-92321429D01*
X151700000Y-92178572D01*
X151557143Y-92107143D01*
X151414286Y-92107143D01*
X151271429Y-92821429D01*
X150842857Y-90821429D02*
X150771429Y-90964286D01*
X150771429Y-91250000D01*
X150842857Y-91392858D01*
X150914286Y-91464286D01*
X151057143Y-91535715D01*
X151485714Y-91535715D01*
X151628571Y-91464286D01*
X151700000Y-91392858D01*
X151771429Y-91250000D01*
X151771429Y-90964286D01*
X151700000Y-90821429D01*
X150771429Y-90178572D02*
X152271429Y-90178572D01*
X150771429Y-89535715D02*
X151557143Y-89535715D01*
X151700000Y-89607144D01*
X151771429Y-89750001D01*
X151771429Y-89964286D01*
X151700000Y-90107144D01*
X151628571Y-90178572D01*
X151771429Y-88821429D02*
X150771429Y-88821429D01*
X151628571Y-88821429D02*
X151700000Y-88750001D01*
X151771429Y-88607143D01*
X151771429Y-88392858D01*
X151700000Y-88250001D01*
X151557143Y-88178572D01*
X150771429Y-88178572D01*
X150771429Y-86821429D02*
X151557143Y-86821429D01*
X151700000Y-86892858D01*
X151771429Y-87035715D01*
X151771429Y-87321429D01*
X151700000Y-87464286D01*
X150842857Y-86821429D02*
X150771429Y-86964286D01*
X150771429Y-87321429D01*
X150842857Y-87464286D01*
X150985714Y-87535715D01*
X151128571Y-87535715D01*
X151271429Y-87464286D01*
X151342857Y-87321429D01*
X151342857Y-86964286D01*
X151414286Y-86821429D01*
X150771429Y-86107143D02*
X151771429Y-86107143D01*
X151485714Y-86107143D02*
X151628571Y-86035715D01*
X151700000Y-85964286D01*
X151771429Y-85821429D01*
X151771429Y-85678572D01*
X150771429Y-85178572D02*
X151771429Y-85178572D01*
X152271429Y-85178572D02*
X152200000Y-85250001D01*
X152128571Y-85178572D01*
X152200000Y-85107144D01*
X152271429Y-85178572D01*
X152128571Y-85178572D01*
X151771429Y-83821429D02*
X150771429Y-83821429D01*
X151771429Y-84464286D02*
X150985714Y-84464286D01*
X150842857Y-84392858D01*
X150771429Y-84250000D01*
X150771429Y-84035715D01*
X150842857Y-83892858D01*
X150914286Y-83821429D01*
X150771429Y-83107143D02*
X151771429Y-83107143D01*
X151628571Y-83107143D02*
X151700000Y-83035715D01*
X151771429Y-82892857D01*
X151771429Y-82678572D01*
X151700000Y-82535715D01*
X151557143Y-82464286D01*
X150771429Y-82464286D01*
X151557143Y-82464286D02*
X151700000Y-82392857D01*
X151771429Y-82250000D01*
X151771429Y-82035715D01*
X151700000Y-81892857D01*
X151557143Y-81821429D01*
X150771429Y-81821429D01*
X150771429Y-80464286D02*
X151557143Y-80464286D01*
X151700000Y-80535715D01*
X151771429Y-80678572D01*
X151771429Y-80964286D01*
X151700000Y-81107143D01*
X150842857Y-80464286D02*
X150771429Y-80607143D01*
X150771429Y-80964286D01*
X150842857Y-81107143D01*
X150985714Y-81178572D01*
X151128571Y-81178572D01*
X151271429Y-81107143D01*
X151342857Y-80964286D01*
X151342857Y-80607143D01*
X151414286Y-80464286D01*
X150842857Y-79821429D02*
X150771429Y-79678572D01*
X150771429Y-79392857D01*
X150842857Y-79250000D01*
X150985714Y-79178572D01*
X151057143Y-79178572D01*
X151200000Y-79250000D01*
X151271429Y-79392857D01*
X151271429Y-79607143D01*
X151342857Y-79750000D01*
X151485714Y-79821429D01*
X151557143Y-79821429D01*
X151700000Y-79750000D01*
X151771429Y-79607143D01*
X151771429Y-79392857D01*
X151700000Y-79250000D01*
X150914286Y-78535714D02*
X150842857Y-78464286D01*
X150771429Y-78535714D01*
X150842857Y-78607143D01*
X150914286Y-78535714D01*
X150771429Y-78535714D01*
X150771429Y-77607142D02*
X150842857Y-77750000D01*
X150985714Y-77821428D01*
X152271429Y-77821428D01*
X151771429Y-77250000D02*
X151771429Y-76678571D01*
X152271429Y-77035714D02*
X150985714Y-77035714D01*
X150842857Y-76964286D01*
X150771429Y-76821428D01*
X150771429Y-76678571D01*
X145971429Y-97750000D02*
X146971429Y-97750000D01*
X146828571Y-97750000D02*
X146900000Y-97678572D01*
X146971429Y-97535714D01*
X146971429Y-97321429D01*
X146900000Y-97178572D01*
X146757143Y-97107143D01*
X145971429Y-97107143D01*
X146757143Y-97107143D02*
X146900000Y-97035714D01*
X146971429Y-96892857D01*
X146971429Y-96678572D01*
X146900000Y-96535714D01*
X146757143Y-96464286D01*
X145971429Y-96464286D01*
X145971429Y-95750000D02*
X146971429Y-95750000D01*
X147471429Y-95750000D02*
X147400000Y-95821429D01*
X147328571Y-95750000D01*
X147400000Y-95678572D01*
X147471429Y-95750000D01*
X147328571Y-95750000D01*
X146042857Y-94392857D02*
X145971429Y-94535714D01*
X145971429Y-94821428D01*
X146042857Y-94964286D01*
X146114286Y-95035714D01*
X146257143Y-95107143D01*
X146685714Y-95107143D01*
X146828571Y-95035714D01*
X146900000Y-94964286D01*
X146971429Y-94821428D01*
X146971429Y-94535714D01*
X146900000Y-94392857D01*
X146685714Y-92821429D02*
X146757143Y-92892857D01*
X146828571Y-93035714D01*
X146828571Y-93178572D01*
X146757143Y-93321429D01*
X146685714Y-93392857D01*
X146542857Y-93464286D01*
X146400000Y-93464286D01*
X146257143Y-93392857D01*
X146185714Y-93321429D01*
X146114286Y-93178572D01*
X146114286Y-93035714D01*
X146185714Y-92892857D01*
X146257143Y-92821429D01*
X146828571Y-92821429D02*
X146257143Y-92821429D01*
X146185714Y-92750000D01*
X146185714Y-92678572D01*
X146257143Y-92535714D01*
X146400000Y-92464286D01*
X146757143Y-92464286D01*
X146971429Y-92607143D01*
X147114286Y-92821429D01*
X147185714Y-93107143D01*
X147114286Y-93392857D01*
X146971429Y-93607143D01*
X146757143Y-93750000D01*
X146471429Y-93821429D01*
X146185714Y-93750000D01*
X145971429Y-93607143D01*
X145828571Y-93392857D01*
X145757143Y-93107143D01*
X145828571Y-92821429D01*
X145971429Y-92607143D01*
X146971429Y-91964286D02*
X145971429Y-91678572D01*
X146685714Y-91392858D01*
X145971429Y-91107143D01*
X146971429Y-90821429D01*
X146042857Y-89678572D02*
X145971429Y-89821429D01*
X145971429Y-90107143D01*
X146042857Y-90250000D01*
X146185714Y-90321429D01*
X146757143Y-90321429D01*
X146900000Y-90250000D01*
X146971429Y-90107143D01*
X146971429Y-89821429D01*
X146900000Y-89678572D01*
X146757143Y-89607143D01*
X146614286Y-89607143D01*
X146471429Y-90321429D01*
X145971429Y-88964286D02*
X146971429Y-88964286D01*
X146828571Y-88964286D02*
X146900000Y-88892858D01*
X146971429Y-88750000D01*
X146971429Y-88535715D01*
X146900000Y-88392858D01*
X146757143Y-88321429D01*
X145971429Y-88321429D01*
X146757143Y-88321429D02*
X146900000Y-88250000D01*
X146971429Y-88107143D01*
X146971429Y-87892858D01*
X146900000Y-87750000D01*
X146757143Y-87678572D01*
X145971429Y-87678572D01*
X145971429Y-86321429D02*
X146757143Y-86321429D01*
X146900000Y-86392858D01*
X146971429Y-86535715D01*
X146971429Y-86821429D01*
X146900000Y-86964286D01*
X146042857Y-86321429D02*
X145971429Y-86464286D01*
X145971429Y-86821429D01*
X146042857Y-86964286D01*
X146185714Y-87035715D01*
X146328571Y-87035715D01*
X146471429Y-86964286D01*
X146542857Y-86821429D01*
X146542857Y-86464286D01*
X146614286Y-86321429D01*
X145971429Y-85607143D02*
X147471429Y-85607143D01*
X146542857Y-85464286D02*
X145971429Y-85035715D01*
X146971429Y-85035715D02*
X146400000Y-85607143D01*
X146042857Y-83821429D02*
X145971429Y-83964286D01*
X145971429Y-84250000D01*
X146042857Y-84392857D01*
X146185714Y-84464286D01*
X146757143Y-84464286D01*
X146900000Y-84392857D01*
X146971429Y-84250000D01*
X146971429Y-83964286D01*
X146900000Y-83821429D01*
X146757143Y-83750000D01*
X146614286Y-83750000D01*
X146471429Y-84464286D01*
X146971429Y-83321429D02*
X146971429Y-82750000D01*
X147471429Y-83107143D02*
X146185714Y-83107143D01*
X146042857Y-83035715D01*
X145971429Y-82892857D01*
X145971429Y-82750000D01*
X145971429Y-82250000D02*
X147471429Y-82250000D01*
X145971429Y-81607143D02*
X146757143Y-81607143D01*
X146900000Y-81678572D01*
X146971429Y-81821429D01*
X146971429Y-82035714D01*
X146900000Y-82178572D01*
X146828571Y-82250000D01*
X145971429Y-80892857D02*
X146971429Y-80892857D01*
X147471429Y-80892857D02*
X147400000Y-80964286D01*
X147328571Y-80892857D01*
X147400000Y-80821429D01*
X147471429Y-80892857D01*
X147328571Y-80892857D01*
X146971429Y-80178571D02*
X145971429Y-80178571D01*
X146828571Y-80178571D02*
X146900000Y-80107143D01*
X146971429Y-79964285D01*
X146971429Y-79750000D01*
X146900000Y-79607143D01*
X146757143Y-79535714D01*
X145971429Y-79535714D01*
X146971429Y-78178571D02*
X145757143Y-78178571D01*
X145614286Y-78250000D01*
X145542857Y-78321428D01*
X145471429Y-78464285D01*
X145471429Y-78678571D01*
X145542857Y-78821428D01*
X146042857Y-78178571D02*
X145971429Y-78321428D01*
X145971429Y-78607142D01*
X146042857Y-78750000D01*
X146114286Y-78821428D01*
X146257143Y-78892857D01*
X146685714Y-78892857D01*
X146828571Y-78821428D01*
X146900000Y-78750000D01*
X146971429Y-78607142D01*
X146971429Y-78321428D01*
X146900000Y-78178571D01*
X146042857Y-77535714D02*
X145971429Y-77392857D01*
X145971429Y-77107142D01*
X146042857Y-76964285D01*
X146185714Y-76892857D01*
X146257143Y-76892857D01*
X146400000Y-76964285D01*
X146471429Y-77107142D01*
X146471429Y-77321428D01*
X146542857Y-77464285D01*
X146685714Y-77535714D01*
X146757143Y-77535714D01*
X146900000Y-77464285D01*
X146971429Y-77321428D01*
X146971429Y-77107142D01*
X146900000Y-76964285D01*
X146114286Y-76249999D02*
X146042857Y-76178571D01*
X145971429Y-76249999D01*
X146042857Y-76321428D01*
X146114286Y-76249999D01*
X145971429Y-76249999D01*
X146971429Y-75535713D02*
X145971429Y-75535713D01*
X146828571Y-75535713D02*
X146900000Y-75464285D01*
X146971429Y-75321427D01*
X146971429Y-75107142D01*
X146900000Y-74964285D01*
X146757143Y-74892856D01*
X145971429Y-74892856D01*
X146042857Y-73607142D02*
X145971429Y-73749999D01*
X145971429Y-74035713D01*
X146042857Y-74178570D01*
X146185714Y-74249999D01*
X146757143Y-74249999D01*
X146900000Y-74178570D01*
X146971429Y-74035713D01*
X146971429Y-73749999D01*
X146900000Y-73607142D01*
X146757143Y-73535713D01*
X146614286Y-73535713D01*
X146471429Y-74249999D01*
X146971429Y-73107142D02*
X146971429Y-72535713D01*
X147471429Y-72892856D02*
X146185714Y-72892856D01*
X146042857Y-72821428D01*
X145971429Y-72678570D01*
X145971429Y-72535713D01*
X144928571Y-87821428D02*
X145000000Y-87749999D01*
X145071429Y-87607142D01*
X145071429Y-87249999D01*
X145000000Y-87107142D01*
X144928571Y-87035713D01*
X144785714Y-86964285D01*
X144642857Y-86964285D01*
X144428571Y-87035713D01*
X143571429Y-87892856D01*
X143571429Y-86964285D01*
X145071429Y-86035714D02*
X145071429Y-85892857D01*
X145000000Y-85750000D01*
X144928571Y-85678571D01*
X144785714Y-85607142D01*
X144500000Y-85535714D01*
X144142857Y-85535714D01*
X143857143Y-85607142D01*
X143714286Y-85678571D01*
X143642857Y-85750000D01*
X143571429Y-85892857D01*
X143571429Y-86035714D01*
X143642857Y-86178571D01*
X143714286Y-86250000D01*
X143857143Y-86321428D01*
X144142857Y-86392857D01*
X144500000Y-86392857D01*
X144785714Y-86321428D01*
X144928571Y-86250000D01*
X145000000Y-86178571D01*
X145071429Y-86035714D01*
X143571429Y-84107143D02*
X143571429Y-84964286D01*
X143571429Y-84535714D02*
X145071429Y-84535714D01*
X144857143Y-84678571D01*
X144714286Y-84821429D01*
X144642857Y-84964286D01*
X145071429Y-82750000D02*
X145071429Y-83464286D01*
X144357143Y-83535715D01*
X144428571Y-83464286D01*
X144500000Y-83321429D01*
X144500000Y-82964286D01*
X144428571Y-82821429D01*
X144357143Y-82750000D01*
X144214286Y-82678572D01*
X143857143Y-82678572D01*
X143714286Y-82750000D01*
X143642857Y-82821429D01*
X143571429Y-82964286D01*
X143571429Y-83321429D01*
X143642857Y-83464286D01*
X143714286Y-83535715D01*
%LPC*%
D13*
X135100000Y-82700000D03*
X135100000Y-85200000D03*
X135100000Y-87700000D03*
D14*
X142100000Y-80400000D03*
X142100000Y-90000000D03*
D15*
X123750000Y-98650000D03*
X123750000Y-93650000D03*
D16*
X142250000Y-73250000D03*
X139250000Y-73250000D03*
D17*
G36*
X123873000Y-90623000D02*
X110127000Y-90623000D01*
X110127000Y-70127000D01*
X123873000Y-70127000D01*
X123873000Y-90623000D01*
X123873000Y-90623000D01*
G37*
X123873000Y-90623000D02*
X110127000Y-90623000D01*
X110127000Y-70127000D01*
X123873000Y-70127000D01*
X123873000Y-90623000D01*
M02*
