G04 #@! TF.FileFunction,Copper,L1,Top,Signal*
%FSLAX46Y46*%
G04 Gerber Fmt 4.6, Leading zero omitted, Abs format (unit mm)*
G04 Created by KiCad (PCBNEW 0.201511300701+6336~38~ubuntu14.04.1-stable) date Wed 02 Dec 2015 03:43:02 PM EET*
%MOMM*%
G01*
G04 APERTURE LIST*
%ADD10C,0.100000*%
%ADD11R,0.797560X0.797560*%
%ADD12R,1.524000X4.000000*%
%ADD13O,1.524000X4.000000*%
%ADD14O,2.000000X1.500000*%
%ADD15C,3.500000*%
%ADD16R,1.200000X0.750000*%
%ADD17R,1.800860X0.800100*%
%ADD18R,0.750000X1.200000*%
%ADD19R,0.800100X1.800860*%
%ADD20R,3.200400X1.600200*%
%ADD21R,7.000240X6.499860*%
%ADD22R,2.200000X2.200000*%
%ADD23C,1.500000*%
%ADD24R,1.200000X0.900000*%
%ADD25R,0.900000X1.200000*%
%ADD26R,0.600000X1.550000*%
%ADD27R,3.175000X1.600200*%
%ADD28R,0.700000X1.500000*%
%ADD29R,1.000000X0.800000*%
%ADD30R,0.599440X1.000760*%
%ADD31C,0.700000*%
%ADD32C,0.400000*%
%ADD33C,0.600000*%
%ADD34C,1.000000*%
%ADD35C,0.800000*%
%ADD36C,0.250000*%
%ADD37C,2.000000*%
%ADD38C,0.254000*%
G04 APERTURE END LIST*
D10*
D11*
X150250700Y-85200000D03*
X151749300Y-85200000D03*
D12*
X150520000Y-93000000D03*
D13*
X147980000Y-93000000D03*
D14*
X135100000Y-82700000D03*
X135100000Y-85200000D03*
X135100000Y-87700000D03*
D15*
X142100000Y-80400000D03*
X142100000Y-90000000D03*
D16*
X148723662Y-74612874D03*
X146823662Y-74612874D03*
D17*
X148751140Y-78200000D03*
X148751140Y-76300000D03*
X145748860Y-77250000D03*
D18*
X150500000Y-77700000D03*
X150500000Y-75800000D03*
D16*
X157200000Y-88000000D03*
X155300000Y-88000000D03*
D18*
X153750000Y-90550000D03*
X153750000Y-92450000D03*
D19*
X157200000Y-90498860D03*
X155300000Y-90498860D03*
X156250000Y-93501140D03*
D20*
X112625800Y-76448760D03*
X112625800Y-81051240D03*
D21*
X118874200Y-78750000D03*
D22*
X128050000Y-96650000D03*
X128050000Y-92150000D03*
X119450000Y-92150000D03*
X119450000Y-96650000D03*
D23*
X123750000Y-98650000D03*
X123750000Y-93650000D03*
D11*
X151799300Y-86750000D03*
X150300700Y-86750000D03*
D24*
X131400000Y-80000000D03*
X133600000Y-80000000D03*
D25*
X132250000Y-85150000D03*
X132250000Y-87350000D03*
D24*
X131400000Y-78250000D03*
X133600000Y-78250000D03*
X120100000Y-74000000D03*
X117900000Y-74000000D03*
D16*
X128200000Y-72250000D03*
X126300000Y-72250000D03*
D26*
X125745000Y-79900000D03*
X127015000Y-79900000D03*
X128285000Y-79900000D03*
X129555000Y-79900000D03*
X129555000Y-74500000D03*
X128285000Y-74500000D03*
X127015000Y-74500000D03*
X125745000Y-74500000D03*
D16*
X121550000Y-90000000D03*
X123450000Y-90000000D03*
D27*
X116250000Y-86562300D03*
X116250000Y-92937700D03*
X113000000Y-86562300D03*
X113000000Y-92937700D03*
D24*
X131400000Y-76500000D03*
X133600000Y-76500000D03*
D25*
X154000000Y-86100000D03*
X154000000Y-83900000D03*
X155750000Y-83900000D03*
X155750000Y-86100000D03*
X148750000Y-81850000D03*
X148750000Y-79650000D03*
X150500000Y-79650000D03*
X150500000Y-81850000D03*
D24*
X151850000Y-83750000D03*
X149650000Y-83750000D03*
D28*
X143000000Y-75000000D03*
X140000000Y-75000000D03*
X138500000Y-75000000D03*
D29*
X144400000Y-72150000D03*
X137100000Y-72150000D03*
X137100000Y-74350000D03*
X144400000Y-74350000D03*
D30*
X152047500Y-82306640D03*
X153952500Y-82306640D03*
X153000000Y-82306640D03*
X153952500Y-80193360D03*
X152047500Y-80193360D03*
X153000000Y-80193360D03*
D18*
X152250000Y-77700000D03*
X152250000Y-75800000D03*
D25*
X130500000Y-95600000D03*
X130500000Y-93400000D03*
D31*
X135750000Y-72250010D03*
X147750000Y-72750000D03*
X154950000Y-77700000D03*
X155000000Y-79249990D03*
X145500000Y-72000000D03*
X136241549Y-74500382D03*
X144500000Y-75250000D03*
X153000000Y-83250008D03*
X125250000Y-72250000D03*
X126250000Y-71500000D03*
X146769477Y-74019477D03*
X145753704Y-74763719D03*
X124750000Y-90000000D03*
X128250000Y-76250000D03*
X145750000Y-96000000D03*
X145750000Y-95000000D03*
X145750000Y-94000000D03*
X145750000Y-93000000D03*
X145750000Y-92000000D03*
X145750000Y-91000000D03*
X145750000Y-90000000D03*
X146750000Y-90000000D03*
X146750000Y-96000000D03*
X148000000Y-95500000D03*
X146750000Y-95000000D03*
X146750000Y-94000000D03*
X149000000Y-91000000D03*
X148000000Y-90500000D03*
X146750000Y-91000000D03*
X146750000Y-92000000D03*
X146750000Y-93000000D03*
X117250000Y-95500000D03*
X116500000Y-95500000D03*
X115750000Y-95500000D03*
X115000000Y-95500000D03*
X114250000Y-95500000D03*
X113500000Y-95500000D03*
X112750000Y-95500000D03*
X112000000Y-95500000D03*
X111250000Y-95500000D03*
X110500000Y-95500000D03*
X110500000Y-94750000D03*
X111250000Y-94750000D03*
X112000000Y-94750000D03*
X112750000Y-94750000D03*
X113500000Y-94750000D03*
X114250000Y-94750000D03*
X115000000Y-94750000D03*
X115750000Y-94750000D03*
X116500000Y-94750000D03*
X117250000Y-94750000D03*
X132250000Y-88500000D03*
X117250000Y-94000000D03*
X116500000Y-94000000D03*
X115750000Y-94000000D03*
X115000000Y-94000000D03*
X114250000Y-94000000D03*
X113500000Y-94000000D03*
X112750000Y-94000000D03*
X112000000Y-94000000D03*
X110500000Y-94000000D03*
X111250000Y-94000000D03*
X111250000Y-93250000D03*
X110500000Y-93250000D03*
X111227302Y-92477302D03*
X110500000Y-92500000D03*
X117250000Y-91750000D03*
X116500000Y-91750000D03*
X115750000Y-91750000D03*
X115000000Y-91750000D03*
X114250000Y-91750000D03*
X113500000Y-91750000D03*
X112750000Y-91750000D03*
X112000000Y-91750000D03*
X111250000Y-91750000D03*
X110500000Y-91750000D03*
X132500000Y-75000000D03*
X151500000Y-75750000D03*
X146750000Y-75250000D03*
X145750000Y-78000000D03*
X144500000Y-77250000D03*
X145750000Y-76500000D03*
X156250000Y-92250000D03*
X157000000Y-93500000D03*
X156250000Y-94750000D03*
X155500000Y-93500000D03*
X154500000Y-92500000D03*
X154000000Y-93500000D03*
X153250000Y-93500000D03*
X153000000Y-92500000D03*
X152500000Y-85750000D03*
X155000000Y-87250000D03*
X155750000Y-87250000D03*
X133750000Y-81000000D03*
X130000000Y-81000000D03*
X129250000Y-81000000D03*
X153635174Y-89575137D03*
X154000000Y-87000000D03*
X122750000Y-76250000D03*
X123500000Y-77000000D03*
X122750000Y-77000000D03*
X122750000Y-77750000D03*
X123500000Y-77750000D03*
X123500000Y-78500000D03*
X122750000Y-78500000D03*
X122750000Y-79250000D03*
X123500000Y-79250000D03*
X123500000Y-80000000D03*
X122750000Y-80000000D03*
X122750000Y-80750000D03*
X123500000Y-80750000D03*
X122750000Y-81500000D03*
X122000000Y-82250000D03*
X119000000Y-82250000D03*
X118250000Y-82250000D03*
X117500000Y-82250000D03*
X116750000Y-82250000D03*
X116000000Y-82250000D03*
X115250000Y-82250000D03*
X115250000Y-83000000D03*
X116000000Y-83000000D03*
X116750000Y-83000000D03*
X117500000Y-83000000D03*
X118250000Y-83000000D03*
X119000000Y-83000000D03*
X119000000Y-83750000D03*
X118250000Y-83750000D03*
X117500000Y-83750000D03*
X116750000Y-83750000D03*
X116000000Y-83750000D03*
X115250000Y-83750000D03*
X119750000Y-82250000D03*
X119750000Y-83000000D03*
X119750000Y-83750000D03*
X120500000Y-83750000D03*
X120500000Y-83000000D03*
X120500000Y-82250000D03*
X121250000Y-82250000D03*
X121250000Y-83000000D03*
X121250000Y-83750000D03*
X120500000Y-89750000D03*
X119750000Y-89750000D03*
X119000000Y-89750000D03*
X121250000Y-89000000D03*
X120500000Y-89000000D03*
X119750000Y-89000000D03*
X119000000Y-89000000D03*
X119000000Y-88250000D03*
X119750000Y-88250000D03*
X120500000Y-88250000D03*
X121250000Y-88250000D03*
X121250000Y-87500000D03*
X120500000Y-87500000D03*
X119750000Y-87500000D03*
X119000000Y-87500000D03*
X119000000Y-86750000D03*
X119750000Y-86750000D03*
X120500000Y-86750000D03*
X121250000Y-86750000D03*
X121250000Y-86000000D03*
X120500000Y-86000000D03*
X119750000Y-86000000D03*
X119000000Y-86000000D03*
X119000000Y-85250000D03*
X119750000Y-85250000D03*
X120500000Y-85250000D03*
X121250000Y-85250000D03*
X121250000Y-84500000D03*
X120500000Y-84500000D03*
X119750000Y-84500000D03*
X119000000Y-84500000D03*
X118250000Y-84500000D03*
X117500000Y-84500000D03*
X116750000Y-84500000D03*
X115999079Y-84500000D03*
X115250000Y-84500000D03*
X132250000Y-81249990D03*
X129750000Y-77250000D03*
X133750000Y-75750000D03*
X136499982Y-76750000D03*
D32*
X151799300Y-86750000D02*
X151799300Y-87548780D01*
X151799300Y-87548780D02*
X153025521Y-88775001D01*
X153025521Y-88775001D02*
X155976521Y-88775001D01*
X155976521Y-88775001D02*
X157200000Y-89998480D01*
X157200000Y-89998480D02*
X157200000Y-90498860D01*
D33*
X125745000Y-74500000D02*
X125750000Y-74495000D01*
X125750000Y-74495000D02*
X125750000Y-73789998D01*
X125750000Y-73789998D02*
X126314999Y-73224999D01*
X126314999Y-73224999D02*
X127225001Y-73224999D01*
X127225001Y-73224999D02*
X128200000Y-72250000D01*
D34*
X128200000Y-72250000D02*
X128425000Y-72250000D01*
X128425000Y-72250000D02*
X128925000Y-71750000D01*
X128925000Y-71750000D02*
X135249990Y-71750000D01*
X135249990Y-71750000D02*
X135450001Y-71950011D01*
X135450001Y-71950011D02*
X135750000Y-72250010D01*
X151435002Y-72750000D02*
X147750000Y-72750000D01*
X154950000Y-77700000D02*
X154950000Y-76264998D01*
X154950000Y-76264998D02*
X151435002Y-72750000D01*
X157200000Y-88000000D02*
X157200000Y-79950000D01*
X157200000Y-79950000D02*
X154950000Y-77700000D01*
X154950000Y-77700000D02*
X152250000Y-77700000D01*
X150500000Y-77700000D02*
X149251140Y-77700000D01*
X149251140Y-77700000D02*
X148751140Y-78200000D01*
X152250000Y-77700000D02*
X150500000Y-77700000D01*
D33*
X152047500Y-80193360D02*
X152047500Y-77902500D01*
X152047500Y-77902500D02*
X152250000Y-77700000D01*
D35*
X157200000Y-90498860D02*
X157200000Y-88000000D01*
D32*
X144400000Y-72150000D02*
X145350000Y-72150000D01*
X145350000Y-72150000D02*
X145500000Y-72000000D01*
X136949618Y-74500382D02*
X136665813Y-74500382D01*
X136665813Y-74500382D02*
X136241549Y-74500382D01*
X137100000Y-74350000D02*
X136949618Y-74500382D01*
X144400000Y-74350000D02*
X144400000Y-75150000D01*
X144400000Y-75150000D02*
X144500000Y-75250000D01*
D36*
X152500000Y-85750000D02*
X152299300Y-85750000D01*
X152299300Y-85750000D02*
X151749300Y-85200000D01*
D32*
X153000000Y-82306640D02*
X153000000Y-83250008D01*
D36*
X126300000Y-72250000D02*
X125250000Y-72250000D01*
X126300000Y-72250000D02*
X126300000Y-71550000D01*
X126300000Y-71550000D02*
X126250000Y-71500000D01*
D32*
X146769477Y-74019477D02*
X146025235Y-74763719D01*
X146025235Y-74763719D02*
X145753704Y-74763719D01*
X123450000Y-90000000D02*
X124750000Y-90000000D01*
D34*
X145750000Y-95000000D02*
X145750000Y-96000000D01*
X145750000Y-93000000D02*
X145750000Y-94000000D01*
X145750000Y-91000000D02*
X145750000Y-92000000D01*
X146750000Y-90000000D02*
X145750000Y-90000000D01*
X146750000Y-93000000D02*
X146750000Y-92000000D01*
X146750000Y-94000000D02*
X146750000Y-93000000D01*
X146750000Y-95000000D02*
X147500000Y-95000000D01*
X147500000Y-95000000D02*
X148000000Y-95500000D01*
X146750000Y-91000000D02*
X147500000Y-91000000D01*
X147500000Y-91000000D02*
X148000000Y-90500000D01*
X148000000Y-90500000D02*
X148000000Y-92980000D01*
X148000000Y-92980000D02*
X147980000Y-93000000D01*
X148000000Y-95500000D02*
X148000000Y-93020000D01*
X148000000Y-93020000D02*
X147980000Y-93000000D01*
X146750000Y-94000000D02*
X146980000Y-94000000D01*
X146980000Y-94000000D02*
X147980000Y-93000000D01*
X146750000Y-92000000D02*
X146980000Y-92000000D01*
X146980000Y-92000000D02*
X147980000Y-93000000D01*
X146750000Y-95000000D02*
X146750000Y-96000000D01*
X146750000Y-94000000D02*
X146750000Y-95000000D01*
X148000000Y-90500000D02*
X148500000Y-90500000D01*
X148500000Y-90500000D02*
X149000000Y-91000000D01*
X146750000Y-92000000D02*
X146750000Y-91000000D01*
X147980000Y-93000000D02*
X146750000Y-93000000D01*
D32*
X115750000Y-95500000D02*
X116500000Y-95500000D01*
X114250000Y-95500000D02*
X115000000Y-95500000D01*
X112750000Y-95500000D02*
X113500000Y-95500000D01*
X111250000Y-95500000D02*
X112000000Y-95500000D01*
X110500000Y-94750000D02*
X110500000Y-95500000D01*
X112000000Y-94750000D02*
X111250000Y-94750000D01*
X113500000Y-94750000D02*
X112750000Y-94750000D01*
X115000000Y-94750000D02*
X114250000Y-94750000D01*
X116500000Y-94750000D02*
X115750000Y-94750000D01*
X117250000Y-94000000D02*
X117250000Y-94750000D01*
X132250000Y-87350000D02*
X132250000Y-88500000D01*
X114250000Y-94000000D02*
X114062300Y-94000000D01*
X114062300Y-94000000D02*
X113000000Y-92937700D01*
X115000000Y-94000000D02*
X115187700Y-94000000D01*
X115187700Y-94000000D02*
X116250000Y-92937700D01*
X115750000Y-94000000D02*
X115750000Y-93437700D01*
X115750000Y-93437700D02*
X116250000Y-92937700D01*
X116500000Y-94000000D02*
X116500000Y-93187700D01*
X116500000Y-93187700D02*
X116250000Y-92937700D01*
X117250000Y-94000000D02*
X117250000Y-93937700D01*
X117250000Y-93937700D02*
X116250000Y-92937700D01*
X117250000Y-91750000D02*
X117250000Y-91937700D01*
X117250000Y-91937700D02*
X116250000Y-92937700D01*
X116500000Y-91750000D02*
X116500000Y-92687700D01*
X116500000Y-92687700D02*
X116250000Y-92937700D01*
X115750000Y-91750000D02*
X115750000Y-92437700D01*
X115750000Y-92437700D02*
X116250000Y-92937700D01*
X115000000Y-91750000D02*
X115062300Y-91750000D01*
X115062300Y-91750000D02*
X116250000Y-92937700D01*
X114250000Y-91750000D02*
X114187700Y-91750000D01*
X114187700Y-91750000D02*
X113000000Y-92937700D01*
X113500000Y-91750000D02*
X113500000Y-92437700D01*
X113500000Y-92437700D02*
X113000000Y-92937700D01*
X112750000Y-91750000D02*
X112750000Y-92687700D01*
X112750000Y-92687700D02*
X113000000Y-92937700D01*
X112000000Y-91750000D02*
X112000000Y-91937700D01*
X112000000Y-91937700D02*
X113000000Y-92937700D01*
X111250000Y-93250000D02*
X112687700Y-93250000D01*
X112687700Y-93250000D02*
X113000000Y-92937700D01*
X112000000Y-94000000D02*
X112000000Y-93937700D01*
X112000000Y-93937700D02*
X113000000Y-92937700D01*
X112750000Y-94000000D02*
X112750000Y-93187700D01*
X112750000Y-93187700D02*
X113000000Y-92937700D01*
X113500000Y-94000000D02*
X113500000Y-93437700D01*
X113500000Y-93437700D02*
X113000000Y-92937700D01*
X116500000Y-94000000D02*
X117250000Y-94000000D01*
X115000000Y-94000000D02*
X115750000Y-94000000D01*
X113500000Y-94000000D02*
X114250000Y-94000000D01*
X112000000Y-94000000D02*
X112750000Y-94000000D01*
X111250000Y-94000000D02*
X110500000Y-94000000D01*
X110500000Y-93250000D02*
X111250000Y-93250000D01*
X111687700Y-92937700D02*
X111227302Y-92477302D01*
X111227302Y-92477302D02*
X110500000Y-91750000D01*
X110500000Y-91750000D02*
X110500000Y-92500000D01*
X115750000Y-91750000D02*
X116500000Y-91750000D01*
X114250000Y-91750000D02*
X115000000Y-91750000D01*
X112750000Y-91750000D02*
X113500000Y-91750000D01*
X111250000Y-91750000D02*
X112000000Y-91750000D01*
X113000000Y-92937700D02*
X111687700Y-92937700D01*
X155750000Y-86100000D02*
X155750000Y-87550000D01*
X155750000Y-87550000D02*
X155300000Y-88000000D01*
X150500000Y-75800000D02*
X151450000Y-75800000D01*
X151450000Y-75800000D02*
X151500000Y-75750000D01*
X146823662Y-74612874D02*
X146823662Y-75176338D01*
X146823662Y-75176338D02*
X146750000Y-75250000D01*
X144500000Y-77250000D02*
X145000000Y-77250000D01*
X145000000Y-77250000D02*
X145750000Y-78000000D01*
X145748860Y-77250000D02*
X145748860Y-76501140D01*
X145748860Y-76501140D02*
X145750000Y-76500000D01*
X156250000Y-94750000D02*
X156250000Y-94250000D01*
X156250000Y-94250000D02*
X157000000Y-93500000D01*
X156250000Y-93501140D02*
X155501140Y-93501140D01*
X155501140Y-93501140D02*
X155500000Y-93500000D01*
X153250000Y-93500000D02*
X154000000Y-93500000D01*
X153750000Y-92450000D02*
X153050000Y-92450000D01*
X153050000Y-92450000D02*
X153000000Y-92500000D01*
X155300000Y-88000000D02*
X155300000Y-87700000D01*
X155300000Y-87700000D02*
X155750000Y-87250000D01*
D33*
X133600000Y-80000000D02*
X133600000Y-80850000D01*
X133600000Y-80850000D02*
X133750000Y-81000000D01*
X129555000Y-79900000D02*
X129555000Y-80695000D01*
X129555000Y-80695000D02*
X129250000Y-81000000D01*
X130500000Y-95600000D02*
X129100000Y-95600000D01*
X129100000Y-95600000D02*
X128050000Y-96650000D01*
D37*
X150520000Y-93000000D02*
X150520000Y-95730000D01*
X150520000Y-95730000D02*
X147500000Y-98750000D01*
X147500000Y-98750000D02*
X130750000Y-98750000D01*
X130750000Y-98750000D02*
X128650000Y-96650000D01*
X128650000Y-96650000D02*
X128050000Y-96650000D01*
D33*
X153635174Y-89575137D02*
X153635174Y-90435174D01*
X153635174Y-90435174D02*
X153750000Y-90550000D01*
X154000000Y-86100000D02*
X154000000Y-87000000D01*
D35*
X153750000Y-90550000D02*
X155248860Y-90550000D01*
X155248860Y-90550000D02*
X155300000Y-90498860D01*
X153750000Y-90550000D02*
X152970000Y-90550000D01*
X152970000Y-90550000D02*
X150520000Y-93000000D01*
X112625800Y-75948760D02*
X114574560Y-74000000D01*
X114574560Y-74000000D02*
X117750000Y-74000000D01*
D32*
X125745000Y-79900000D02*
X125745000Y-77495000D01*
X125745000Y-77495000D02*
X122250000Y-74000000D01*
X122250000Y-74000000D02*
X120250000Y-74000000D01*
D33*
X130500000Y-93400000D02*
X130500000Y-93550000D01*
X130500000Y-93550000D02*
X129800000Y-94250000D01*
X129800000Y-94250000D02*
X126500000Y-94250000D01*
X126500000Y-94250000D02*
X125250000Y-95500000D01*
X125250000Y-95500000D02*
X119853551Y-95500000D01*
X119853551Y-95500000D02*
X119450000Y-95096449D01*
D37*
X119450000Y-96650000D02*
X119450000Y-95096449D01*
X119450000Y-95096449D02*
X119450000Y-92150000D01*
D36*
X122750000Y-76250000D02*
X122750000Y-77000000D01*
D32*
X122750000Y-77750000D02*
X122750000Y-77000000D01*
X123500000Y-78500000D02*
X123500000Y-77750000D01*
X122750000Y-79250000D02*
X122750000Y-78500000D01*
X123500000Y-80000000D02*
X123500000Y-79250000D01*
X122750000Y-80750000D02*
X122750000Y-80000000D01*
X122750000Y-81500000D02*
X123500000Y-80750000D01*
X121250000Y-82250000D02*
X122000000Y-82250000D01*
X117500000Y-82250000D02*
X118250000Y-82250000D01*
X116000000Y-82250000D02*
X116750000Y-82250000D01*
X115250000Y-83000000D02*
X115250000Y-82250000D01*
X116750000Y-83000000D02*
X116000000Y-83000000D01*
X118250000Y-83000000D02*
X117500000Y-83000000D01*
X119000000Y-83750000D02*
X119000000Y-83000000D01*
X117500000Y-83750000D02*
X118250000Y-83750000D01*
X116000000Y-83750000D02*
X116750000Y-83750000D01*
X119750000Y-83000000D02*
X119750000Y-82250000D01*
X120500000Y-83750000D02*
X119750000Y-83750000D01*
X120500000Y-82250000D02*
X120500000Y-83000000D01*
X121250000Y-83000000D02*
X121250000Y-82250000D01*
X121250000Y-84500000D02*
X121250000Y-83750000D01*
X119750000Y-89750000D02*
X120500000Y-89750000D01*
X119000000Y-89000000D02*
X119000000Y-89750000D01*
X119750000Y-89000000D02*
X120500000Y-89000000D01*
X119000000Y-88250000D02*
X119000000Y-89000000D01*
X120500000Y-88250000D02*
X119750000Y-88250000D01*
X121250000Y-87500000D02*
X121250000Y-88250000D01*
X119750000Y-87500000D02*
X120500000Y-87500000D01*
X119000000Y-86750000D02*
X119000000Y-87500000D01*
X120500000Y-86750000D02*
X119750000Y-86750000D01*
X121250000Y-86000000D02*
X121250000Y-86750000D01*
X119750000Y-86000000D02*
X120500000Y-86000000D01*
X119000000Y-85250000D02*
X119000000Y-86000000D01*
X120500000Y-85250000D02*
X119750000Y-85250000D01*
X121250000Y-84500000D02*
X121250000Y-85250000D01*
X119750000Y-84500000D02*
X120500000Y-84500000D01*
X118250000Y-84500000D02*
X119000000Y-84500000D01*
X116750000Y-84500000D02*
X117500000Y-84500000D01*
X116274130Y-84500000D02*
X115999079Y-84500000D01*
X118874200Y-78250000D02*
X118874200Y-81899930D01*
X118874200Y-81899930D02*
X116274130Y-84500000D01*
D37*
X119450000Y-78825800D02*
X118874200Y-78250000D01*
D33*
X147250710Y-80200710D02*
X139751420Y-87700000D01*
X139751420Y-87700000D02*
X135100000Y-87700000D01*
X148751140Y-76300000D02*
X148250760Y-76300000D01*
X148250760Y-76300000D02*
X147250710Y-77300050D01*
X148750000Y-81700000D02*
X148750000Y-81850000D01*
X147250710Y-77300050D02*
X147250710Y-80200710D01*
X147250710Y-80200710D02*
X148750000Y-81700000D01*
D35*
X148773662Y-76112874D02*
X148773662Y-74662874D01*
X148773662Y-74662874D02*
X148723662Y-74612874D01*
X132250000Y-85150000D02*
X132250000Y-81249990D01*
X135100000Y-85200000D02*
X132300000Y-85200000D01*
X132300000Y-85200000D02*
X132250000Y-85150000D01*
D33*
X129750000Y-77250000D02*
X129750000Y-74695000D01*
X129750000Y-74695000D02*
X129555000Y-74500000D01*
D34*
X131400000Y-78250000D02*
X131400000Y-76500000D01*
X131400000Y-80000000D02*
X131400000Y-78250000D01*
D33*
X129229998Y-78250000D02*
X131400000Y-78250000D01*
X128285000Y-79900000D02*
X128285000Y-79194998D01*
X128285000Y-79194998D02*
X129229998Y-78250000D01*
X128285000Y-79900000D02*
X128285000Y-79365000D01*
X138500000Y-75000000D02*
X138199617Y-75300383D01*
X138199617Y-75300383D02*
X136699617Y-75300383D01*
X136699617Y-75300383D02*
X133750000Y-78250000D01*
X133750000Y-78250000D02*
X133600000Y-78250000D01*
D32*
X133600000Y-78250000D02*
X133450000Y-78250000D01*
D33*
X133750000Y-75750000D02*
X133750000Y-76350000D01*
X133750000Y-76350000D02*
X133600000Y-76500000D01*
X143000000Y-75000000D02*
X142050000Y-75000000D01*
X142050000Y-75000000D02*
X140300000Y-76750000D01*
X140300000Y-76750000D02*
X136924246Y-76750000D01*
X136924246Y-76750000D02*
X136499982Y-76750000D01*
D32*
X153952500Y-80193360D02*
X154500000Y-80740860D01*
X154500000Y-80740860D02*
X154500000Y-80750000D01*
X154500000Y-80750000D02*
X154814566Y-81064566D01*
X154814566Y-81064566D02*
X154814566Y-83900000D01*
D35*
X154000000Y-83900000D02*
X154814566Y-83900000D01*
X154814566Y-83900000D02*
X155750000Y-83900000D01*
D33*
X153952500Y-83852500D02*
X154000000Y-83900000D01*
D32*
X150500000Y-79650000D02*
X150500000Y-80079998D01*
X153500000Y-81250000D02*
X153952500Y-81702500D01*
X150500000Y-80079998D02*
X151670002Y-81250000D01*
X151670002Y-81250000D02*
X153500000Y-81250000D01*
X153952500Y-81702500D02*
X153952500Y-82306640D01*
D33*
X148750000Y-79650000D02*
X150500000Y-79650000D01*
X152047500Y-82306640D02*
X150956640Y-82306640D01*
X150956640Y-82306640D02*
X150500000Y-81850000D01*
X152047500Y-82306640D02*
X152047500Y-83697500D01*
X152047500Y-83697500D02*
X152100000Y-83750000D01*
X140000000Y-75000000D02*
X140000000Y-74600000D01*
X140000000Y-74600000D02*
X140950000Y-73650000D01*
X139706001Y-72299999D02*
X138700001Y-72299999D01*
X140950000Y-73650000D02*
X140950000Y-73543998D01*
X140950000Y-73543998D02*
X139706001Y-72299999D01*
X138700001Y-72299999D02*
X137550001Y-73449999D01*
X130480001Y-73449999D02*
X130255001Y-73224999D01*
X128854999Y-73224999D02*
X128285000Y-73794998D01*
X137550001Y-73449999D02*
X130480001Y-73449999D01*
X130255001Y-73224999D02*
X128854999Y-73224999D01*
X128285000Y-73794998D02*
X128285000Y-74500000D01*
X127015000Y-74500000D02*
X128285000Y-74500000D01*
D32*
X127015000Y-79900000D02*
X127015000Y-77565002D01*
X127015000Y-77565002D02*
X122699998Y-73250000D01*
X111012500Y-86562300D02*
X113000000Y-86562300D01*
X122699998Y-73250000D02*
X121997521Y-73250000D01*
X110625599Y-86175399D02*
X111012500Y-86562300D01*
X121997521Y-73250000D02*
X121497521Y-72750000D01*
X121497521Y-72750000D02*
X114500000Y-72750000D01*
X114500000Y-72750000D02*
X112250000Y-75000000D01*
X111000000Y-75000000D02*
X110625599Y-75374401D01*
X112250000Y-75000000D02*
X111000000Y-75000000D01*
X110625599Y-75374401D02*
X110625599Y-86175399D01*
D37*
X112625800Y-81051240D02*
X112625800Y-86188100D01*
X112625800Y-86188100D02*
X113000000Y-86562300D01*
X113000000Y-86562300D02*
X116250000Y-86562300D01*
D32*
X150300700Y-86750000D02*
X150300700Y-85250000D01*
X150300700Y-85250000D02*
X150250700Y-85200000D01*
D33*
X150250700Y-85200000D02*
X150250700Y-84350700D01*
X150250700Y-84350700D02*
X149650000Y-83750000D01*
D38*
G36*
X112898800Y-80778240D02*
X112918800Y-80778240D01*
X112918800Y-81324240D01*
X112898800Y-81324240D01*
X112898800Y-82171590D01*
X113005550Y-82278340D01*
X114123000Y-82278340D01*
X114123000Y-85335200D01*
X113379750Y-85335200D01*
X113273000Y-85441950D01*
X113273000Y-86289300D01*
X115977000Y-86289300D01*
X115977000Y-86269300D01*
X116523000Y-86269300D01*
X116523000Y-86289300D01*
X116543000Y-86289300D01*
X116543000Y-86835300D01*
X116523000Y-86835300D01*
X116523000Y-86855300D01*
X115977000Y-86855300D01*
X115977000Y-86835300D01*
X113273000Y-86835300D01*
X113273000Y-86855300D01*
X112727000Y-86855300D01*
X112727000Y-86835300D01*
X112707000Y-86835300D01*
X112707000Y-86289300D01*
X112727000Y-86289300D01*
X112727000Y-85441950D01*
X112620250Y-85335200D01*
X111327564Y-85335200D01*
X111170624Y-85400207D01*
X111127000Y-85443831D01*
X111127000Y-82278340D01*
X112246050Y-82278340D01*
X112352800Y-82171590D01*
X112352800Y-81324240D01*
X112332800Y-81324240D01*
X112332800Y-80778240D01*
X112352800Y-80778240D01*
X112352800Y-80758240D01*
X112898800Y-80758240D01*
X112898800Y-80778240D01*
X112898800Y-80778240D01*
G37*
X112898800Y-80778240D02*
X112918800Y-80778240D01*
X112918800Y-81324240D01*
X112898800Y-81324240D01*
X112898800Y-82171590D01*
X113005550Y-82278340D01*
X114123000Y-82278340D01*
X114123000Y-85335200D01*
X113379750Y-85335200D01*
X113273000Y-85441950D01*
X113273000Y-86289300D01*
X115977000Y-86289300D01*
X115977000Y-86269300D01*
X116523000Y-86269300D01*
X116523000Y-86289300D01*
X116543000Y-86289300D01*
X116543000Y-86835300D01*
X116523000Y-86835300D01*
X116523000Y-86855300D01*
X115977000Y-86855300D01*
X115977000Y-86835300D01*
X113273000Y-86835300D01*
X113273000Y-86855300D01*
X112727000Y-86855300D01*
X112727000Y-86835300D01*
X112707000Y-86835300D01*
X112707000Y-86289300D01*
X112727000Y-86289300D01*
X112727000Y-85441950D01*
X112620250Y-85335200D01*
X111327564Y-85335200D01*
X111170624Y-85400207D01*
X111127000Y-85443831D01*
X111127000Y-82278340D01*
X112246050Y-82278340D01*
X112352800Y-82171590D01*
X112352800Y-81324240D01*
X112332800Y-81324240D01*
X112332800Y-80778240D01*
X112352800Y-80778240D01*
X112352800Y-80758240D01*
X112898800Y-80758240D01*
X112898800Y-80778240D01*
G36*
X115132204Y-75138077D02*
X115012087Y-75258194D01*
X114947080Y-75415135D01*
X114947080Y-77770250D01*
X115053830Y-77877000D01*
X118001200Y-77877000D01*
X118001200Y-77857000D01*
X119747200Y-77857000D01*
X119747200Y-77877000D01*
X122694570Y-77877000D01*
X122801320Y-77770250D01*
X122801320Y-75438032D01*
X123873000Y-76509712D01*
X123873000Y-80951150D01*
X122801320Y-81667223D01*
X122801320Y-79729750D01*
X122694570Y-79623000D01*
X119747200Y-79623000D01*
X119747200Y-82320180D01*
X119853950Y-82426930D01*
X122101952Y-82426930D01*
X121451907Y-83399791D01*
X121099698Y-85170467D01*
X121451907Y-86941143D01*
X122454915Y-88442250D01*
X123473729Y-89123000D01*
X122250000Y-89123000D01*
X122230258Y-89126998D01*
X122150000Y-89126998D01*
X122150000Y-89175379D01*
X122135444Y-89198000D01*
X121956750Y-89198000D01*
X121850000Y-89304750D01*
X121850000Y-89812500D01*
X122123000Y-89812500D01*
X122123000Y-90187500D01*
X121850000Y-90187500D01*
X121850000Y-90695250D01*
X121956750Y-90802000D01*
X122123000Y-90802000D01*
X122123000Y-97623000D01*
X120977000Y-97623000D01*
X120977000Y-97306750D01*
X120870250Y-97200000D01*
X120000000Y-97200000D01*
X120000000Y-97543000D01*
X118900000Y-97543000D01*
X118900000Y-97200000D01*
X118557000Y-97200000D01*
X118557000Y-96100000D01*
X118900000Y-96100000D01*
X118900000Y-95229750D01*
X120000000Y-95229750D01*
X120000000Y-96100000D01*
X120870250Y-96100000D01*
X120977000Y-95993250D01*
X120977000Y-95465064D01*
X120911993Y-95308124D01*
X120791876Y-95188007D01*
X120634935Y-95123000D01*
X120106750Y-95123000D01*
X120000000Y-95229750D01*
X118900000Y-95229750D01*
X118793250Y-95123000D01*
X118377000Y-95123000D01*
X118377000Y-93677000D01*
X118793250Y-93677000D01*
X118900000Y-93570250D01*
X118900000Y-92700000D01*
X120000000Y-92700000D01*
X120000000Y-93570250D01*
X120106750Y-93677000D01*
X120634935Y-93677000D01*
X120791876Y-93611993D01*
X120911993Y-93491876D01*
X120977000Y-93334936D01*
X120977000Y-92806750D01*
X120870250Y-92700000D01*
X120000000Y-92700000D01*
X118900000Y-92700000D01*
X118557000Y-92700000D01*
X118557000Y-91600000D01*
X118900000Y-91600000D01*
X118900000Y-90729750D01*
X120000000Y-90729750D01*
X120000000Y-91600000D01*
X120870250Y-91600000D01*
X120977000Y-91493250D01*
X120977000Y-90965064D01*
X120911993Y-90808124D01*
X120905869Y-90802000D01*
X121143250Y-90802000D01*
X121250000Y-90695250D01*
X121250000Y-90187500D01*
X120629750Y-90187500D01*
X120523000Y-90294250D01*
X120523000Y-90459936D01*
X120588007Y-90616876D01*
X120594131Y-90623000D01*
X120106750Y-90623000D01*
X120000000Y-90729750D01*
X118900000Y-90729750D01*
X118793250Y-90623000D01*
X118377000Y-90623000D01*
X118377000Y-89540064D01*
X120523000Y-89540064D01*
X120523000Y-89705750D01*
X120629750Y-89812500D01*
X121250000Y-89812500D01*
X121250000Y-89304750D01*
X121143250Y-89198000D01*
X120865065Y-89198000D01*
X120708124Y-89263007D01*
X120588007Y-89383124D01*
X120523000Y-89540064D01*
X118377000Y-89540064D01*
X118377000Y-85000000D01*
X118366994Y-84950590D01*
X118338553Y-84908965D01*
X118296159Y-84881685D01*
X118250000Y-84873000D01*
X114877000Y-84873000D01*
X114877000Y-79729750D01*
X114947080Y-79729750D01*
X114947080Y-82084865D01*
X115012087Y-82241806D01*
X115132204Y-82361923D01*
X115289144Y-82426930D01*
X117894450Y-82426930D01*
X118001200Y-82320180D01*
X118001200Y-79623000D01*
X115053830Y-79623000D01*
X114947080Y-79729750D01*
X114877000Y-79729750D01*
X114877000Y-75127000D01*
X115158946Y-75127000D01*
X115132204Y-75138077D01*
X115132204Y-75138077D01*
G37*
X115132204Y-75138077D02*
X115012087Y-75258194D01*
X114947080Y-75415135D01*
X114947080Y-77770250D01*
X115053830Y-77877000D01*
X118001200Y-77877000D01*
X118001200Y-77857000D01*
X119747200Y-77857000D01*
X119747200Y-77877000D01*
X122694570Y-77877000D01*
X122801320Y-77770250D01*
X122801320Y-75438032D01*
X123873000Y-76509712D01*
X123873000Y-80951150D01*
X122801320Y-81667223D01*
X122801320Y-79729750D01*
X122694570Y-79623000D01*
X119747200Y-79623000D01*
X119747200Y-82320180D01*
X119853950Y-82426930D01*
X122101952Y-82426930D01*
X121451907Y-83399791D01*
X121099698Y-85170467D01*
X121451907Y-86941143D01*
X122454915Y-88442250D01*
X123473729Y-89123000D01*
X122250000Y-89123000D01*
X122230258Y-89126998D01*
X122150000Y-89126998D01*
X122150000Y-89175379D01*
X122135444Y-89198000D01*
X121956750Y-89198000D01*
X121850000Y-89304750D01*
X121850000Y-89812500D01*
X122123000Y-89812500D01*
X122123000Y-90187500D01*
X121850000Y-90187500D01*
X121850000Y-90695250D01*
X121956750Y-90802000D01*
X122123000Y-90802000D01*
X122123000Y-97623000D01*
X120977000Y-97623000D01*
X120977000Y-97306750D01*
X120870250Y-97200000D01*
X120000000Y-97200000D01*
X120000000Y-97543000D01*
X118900000Y-97543000D01*
X118900000Y-97200000D01*
X118557000Y-97200000D01*
X118557000Y-96100000D01*
X118900000Y-96100000D01*
X118900000Y-95229750D01*
X120000000Y-95229750D01*
X120000000Y-96100000D01*
X120870250Y-96100000D01*
X120977000Y-95993250D01*
X120977000Y-95465064D01*
X120911993Y-95308124D01*
X120791876Y-95188007D01*
X120634935Y-95123000D01*
X120106750Y-95123000D01*
X120000000Y-95229750D01*
X118900000Y-95229750D01*
X118793250Y-95123000D01*
X118377000Y-95123000D01*
X118377000Y-93677000D01*
X118793250Y-93677000D01*
X118900000Y-93570250D01*
X118900000Y-92700000D01*
X120000000Y-92700000D01*
X120000000Y-93570250D01*
X120106750Y-93677000D01*
X120634935Y-93677000D01*
X120791876Y-93611993D01*
X120911993Y-93491876D01*
X120977000Y-93334936D01*
X120977000Y-92806750D01*
X120870250Y-92700000D01*
X120000000Y-92700000D01*
X118900000Y-92700000D01*
X118557000Y-92700000D01*
X118557000Y-91600000D01*
X118900000Y-91600000D01*
X118900000Y-90729750D01*
X120000000Y-90729750D01*
X120000000Y-91600000D01*
X120870250Y-91600000D01*
X120977000Y-91493250D01*
X120977000Y-90965064D01*
X120911993Y-90808124D01*
X120905869Y-90802000D01*
X121143250Y-90802000D01*
X121250000Y-90695250D01*
X121250000Y-90187500D01*
X120629750Y-90187500D01*
X120523000Y-90294250D01*
X120523000Y-90459936D01*
X120588007Y-90616876D01*
X120594131Y-90623000D01*
X120106750Y-90623000D01*
X120000000Y-90729750D01*
X118900000Y-90729750D01*
X118793250Y-90623000D01*
X118377000Y-90623000D01*
X118377000Y-89540064D01*
X120523000Y-89540064D01*
X120523000Y-89705750D01*
X120629750Y-89812500D01*
X121250000Y-89812500D01*
X121250000Y-89304750D01*
X121143250Y-89198000D01*
X120865065Y-89198000D01*
X120708124Y-89263007D01*
X120588007Y-89383124D01*
X120523000Y-89540064D01*
X118377000Y-89540064D01*
X118377000Y-85000000D01*
X118366994Y-84950590D01*
X118338553Y-84908965D01*
X118296159Y-84881685D01*
X118250000Y-84873000D01*
X114877000Y-84873000D01*
X114877000Y-79729750D01*
X114947080Y-79729750D01*
X114947080Y-82084865D01*
X115012087Y-82241806D01*
X115132204Y-82361923D01*
X115289144Y-82426930D01*
X117894450Y-82426930D01*
X118001200Y-82320180D01*
X118001200Y-79623000D01*
X115053830Y-79623000D01*
X114947080Y-79729750D01*
X114877000Y-79729750D01*
X114877000Y-75127000D01*
X115158946Y-75127000D01*
X115132204Y-75138077D01*
G36*
X117623000Y-91510600D02*
X116529750Y-91510600D01*
X116373000Y-91667350D01*
X116373000Y-92814700D01*
X116393000Y-92814700D01*
X116393000Y-93060700D01*
X116373000Y-93060700D01*
X116373000Y-94208050D01*
X116529750Y-94364800D01*
X117623000Y-94364800D01*
X117623000Y-98250000D01*
X117633006Y-98299410D01*
X117661447Y-98341035D01*
X117703841Y-98368315D01*
X117750000Y-98377000D01*
X122588923Y-98377000D01*
X122573205Y-98414853D01*
X122572796Y-98883093D01*
X122751606Y-99315846D01*
X123082412Y-99647230D01*
X123514853Y-99826795D01*
X123983093Y-99827204D01*
X124415846Y-99648394D01*
X124747230Y-99317588D01*
X124926795Y-98885147D01*
X124927204Y-98416907D01*
X124748394Y-97984154D01*
X124417588Y-97652770D01*
X123985147Y-97473205D01*
X123516907Y-97472796D01*
X123084154Y-97651606D01*
X122877000Y-97858399D01*
X122877000Y-96227000D01*
X125249995Y-96227000D01*
X125250000Y-96227001D01*
X125482052Y-96180842D01*
X125528211Y-96171660D01*
X125764067Y-96014067D01*
X126801134Y-94977000D01*
X128748964Y-94977000D01*
X128585933Y-95085933D01*
X128585931Y-95085936D01*
X128557232Y-95114635D01*
X126950000Y-95114635D01*
X126791763Y-95144409D01*
X126646433Y-95237927D01*
X126548936Y-95380619D01*
X126514635Y-95550000D01*
X126514635Y-97750000D01*
X126544409Y-97908237D01*
X126637927Y-98053567D01*
X126780619Y-98151064D01*
X126950000Y-98185365D01*
X128167283Y-98185365D01*
X129740958Y-99759041D01*
X129942140Y-99893467D01*
X113703698Y-99893467D01*
X113703698Y-99047683D01*
X113764130Y-98743871D01*
X113764130Y-98670203D01*
X113770226Y-98596792D01*
X113700629Y-97986211D01*
X113686867Y-97943224D01*
X113675838Y-97908775D01*
X113643881Y-97808957D01*
X113643878Y-97808954D01*
X113345921Y-97271488D01*
X113263594Y-97174249D01*
X113225661Y-97129445D01*
X112744703Y-96746911D01*
X112744702Y-96746910D01*
X112659524Y-96703046D01*
X112579239Y-96661701D01*
X112579236Y-96661701D01*
X111988507Y-96492344D01*
X111988501Y-96492341D01*
X111888060Y-96484000D01*
X111803022Y-96476938D01*
X111803017Y-96476940D01*
X111219367Y-96543467D01*
X110353698Y-96543467D01*
X110353698Y-93217450D01*
X110785500Y-93217450D01*
X110785500Y-93862518D01*
X110880955Y-94092967D01*
X111057333Y-94269345D01*
X111287782Y-94364800D01*
X112720250Y-94364800D01*
X112877000Y-94208050D01*
X112877000Y-93060700D01*
X113123000Y-93060700D01*
X113123000Y-94208050D01*
X113279750Y-94364800D01*
X115970250Y-94364800D01*
X116127000Y-94208050D01*
X116127000Y-93060700D01*
X113123000Y-93060700D01*
X112877000Y-93060700D01*
X110942250Y-93060700D01*
X110785500Y-93217450D01*
X110353698Y-93217450D01*
X110353698Y-92012882D01*
X110785500Y-92012882D01*
X110785500Y-92657950D01*
X110942250Y-92814700D01*
X112877000Y-92814700D01*
X112877000Y-91667350D01*
X113123000Y-91667350D01*
X113123000Y-92814700D01*
X116127000Y-92814700D01*
X116127000Y-91667350D01*
X115970250Y-91510600D01*
X113279750Y-91510600D01*
X113123000Y-91667350D01*
X112877000Y-91667350D01*
X112720250Y-91510600D01*
X111287782Y-91510600D01*
X111057333Y-91606055D01*
X110880955Y-91782433D01*
X110785500Y-92012882D01*
X110353698Y-92012882D01*
X110353698Y-88127000D01*
X117623000Y-88127000D01*
X117623000Y-91510600D01*
X117623000Y-91510600D01*
G37*
X117623000Y-91510600D02*
X116529750Y-91510600D01*
X116373000Y-91667350D01*
X116373000Y-92814700D01*
X116393000Y-92814700D01*
X116393000Y-93060700D01*
X116373000Y-93060700D01*
X116373000Y-94208050D01*
X116529750Y-94364800D01*
X117623000Y-94364800D01*
X117623000Y-98250000D01*
X117633006Y-98299410D01*
X117661447Y-98341035D01*
X117703841Y-98368315D01*
X117750000Y-98377000D01*
X122588923Y-98377000D01*
X122573205Y-98414853D01*
X122572796Y-98883093D01*
X122751606Y-99315846D01*
X123082412Y-99647230D01*
X123514853Y-99826795D01*
X123983093Y-99827204D01*
X124415846Y-99648394D01*
X124747230Y-99317588D01*
X124926795Y-98885147D01*
X124927204Y-98416907D01*
X124748394Y-97984154D01*
X124417588Y-97652770D01*
X123985147Y-97473205D01*
X123516907Y-97472796D01*
X123084154Y-97651606D01*
X122877000Y-97858399D01*
X122877000Y-96227000D01*
X125249995Y-96227000D01*
X125250000Y-96227001D01*
X125482052Y-96180842D01*
X125528211Y-96171660D01*
X125764067Y-96014067D01*
X126801134Y-94977000D01*
X128748964Y-94977000D01*
X128585933Y-95085933D01*
X128585931Y-95085936D01*
X128557232Y-95114635D01*
X126950000Y-95114635D01*
X126791763Y-95144409D01*
X126646433Y-95237927D01*
X126548936Y-95380619D01*
X126514635Y-95550000D01*
X126514635Y-97750000D01*
X126544409Y-97908237D01*
X126637927Y-98053567D01*
X126780619Y-98151064D01*
X126950000Y-98185365D01*
X128167283Y-98185365D01*
X129740958Y-99759041D01*
X129942140Y-99893467D01*
X113703698Y-99893467D01*
X113703698Y-99047683D01*
X113764130Y-98743871D01*
X113764130Y-98670203D01*
X113770226Y-98596792D01*
X113700629Y-97986211D01*
X113686867Y-97943224D01*
X113675838Y-97908775D01*
X113643881Y-97808957D01*
X113643878Y-97808954D01*
X113345921Y-97271488D01*
X113263594Y-97174249D01*
X113225661Y-97129445D01*
X112744703Y-96746911D01*
X112744702Y-96746910D01*
X112659524Y-96703046D01*
X112579239Y-96661701D01*
X112579236Y-96661701D01*
X111988507Y-96492344D01*
X111988501Y-96492341D01*
X111888060Y-96484000D01*
X111803022Y-96476938D01*
X111803017Y-96476940D01*
X111219367Y-96543467D01*
X110353698Y-96543467D01*
X110353698Y-93217450D01*
X110785500Y-93217450D01*
X110785500Y-93862518D01*
X110880955Y-94092967D01*
X111057333Y-94269345D01*
X111287782Y-94364800D01*
X112720250Y-94364800D01*
X112877000Y-94208050D01*
X112877000Y-93060700D01*
X113123000Y-93060700D01*
X113123000Y-94208050D01*
X113279750Y-94364800D01*
X115970250Y-94364800D01*
X116127000Y-94208050D01*
X116127000Y-93060700D01*
X113123000Y-93060700D01*
X112877000Y-93060700D01*
X110942250Y-93060700D01*
X110785500Y-93217450D01*
X110353698Y-93217450D01*
X110353698Y-92012882D01*
X110785500Y-92012882D01*
X110785500Y-92657950D01*
X110942250Y-92814700D01*
X112877000Y-92814700D01*
X112877000Y-91667350D01*
X113123000Y-91667350D01*
X113123000Y-92814700D01*
X116127000Y-92814700D01*
X116127000Y-91667350D01*
X115970250Y-91510600D01*
X113279750Y-91510600D01*
X113123000Y-91667350D01*
X112877000Y-91667350D01*
X112720250Y-91510600D01*
X111287782Y-91510600D01*
X111057333Y-91606055D01*
X110880955Y-91782433D01*
X110785500Y-92012882D01*
X110353698Y-92012882D01*
X110353698Y-88127000D01*
X117623000Y-88127000D01*
X117623000Y-91510600D01*
G36*
X155349698Y-71293251D02*
X155289266Y-71597063D01*
X155289266Y-71670731D01*
X155283170Y-71744142D01*
X155352767Y-72354723D01*
X155352767Y-72354724D01*
X155358570Y-72372849D01*
X155409515Y-72531977D01*
X155409518Y-72531980D01*
X155707473Y-73069443D01*
X155707474Y-73069445D01*
X155827735Y-73211489D01*
X156308693Y-73594023D01*
X156308694Y-73594024D01*
X156332797Y-73606436D01*
X156474158Y-73679234D01*
X156474164Y-73679235D01*
X157064894Y-73848592D01*
X157064895Y-73848593D01*
X157069026Y-73848936D01*
X157250374Y-73863996D01*
X157250379Y-73863994D01*
X157834029Y-73797467D01*
X158699698Y-73797467D01*
X158699698Y-96543467D01*
X157853914Y-96543467D01*
X157550102Y-96483035D01*
X157476434Y-96483035D01*
X157403023Y-96476939D01*
X156792442Y-96546536D01*
X156792441Y-96546536D01*
X156768319Y-96554259D01*
X156615188Y-96603284D01*
X156615185Y-96603287D01*
X156077722Y-96901242D01*
X156077720Y-96901243D01*
X155935676Y-97021504D01*
X155553142Y-97502462D01*
X155467932Y-97667926D01*
X155467932Y-97667928D01*
X155298575Y-98258658D01*
X155298572Y-98258664D01*
X155290231Y-98359105D01*
X155283169Y-98444143D01*
X155283171Y-98444148D01*
X155349698Y-99027798D01*
X155349698Y-99893467D01*
X148307859Y-99893467D01*
X148509041Y-99759041D01*
X151529041Y-96739041D01*
X151838376Y-96276089D01*
X151890495Y-96014067D01*
X151947000Y-95730000D01*
X151947000Y-93780890D01*
X155222950Y-93780890D01*
X155222950Y-94526288D01*
X155318405Y-94756737D01*
X155494783Y-94933115D01*
X155725232Y-95028570D01*
X155970250Y-95028570D01*
X156127000Y-94871820D01*
X156127000Y-93624140D01*
X156373000Y-93624140D01*
X156373000Y-94871820D01*
X156529750Y-95028570D01*
X156774768Y-95028570D01*
X157005217Y-94933115D01*
X157181595Y-94756737D01*
X157277050Y-94526288D01*
X157277050Y-93780890D01*
X157120300Y-93624140D01*
X156373000Y-93624140D01*
X156127000Y-93624140D01*
X155379700Y-93624140D01*
X155222950Y-93780890D01*
X151947000Y-93780890D01*
X151947000Y-93000000D01*
X151904287Y-92785267D01*
X151959804Y-92729750D01*
X152748000Y-92729750D01*
X152748000Y-93174718D01*
X152843455Y-93405167D01*
X153019833Y-93581545D01*
X153250282Y-93677000D01*
X153470250Y-93677000D01*
X153627000Y-93520250D01*
X153627000Y-92573000D01*
X153873000Y-92573000D01*
X153873000Y-93520250D01*
X154029750Y-93677000D01*
X154249718Y-93677000D01*
X154480167Y-93581545D01*
X154656545Y-93405167D01*
X154752000Y-93174718D01*
X154752000Y-92729750D01*
X154595250Y-92573000D01*
X153873000Y-92573000D01*
X153627000Y-92573000D01*
X152904750Y-92573000D01*
X152748000Y-92729750D01*
X151959804Y-92729750D01*
X152213562Y-92475992D01*
X155222950Y-92475992D01*
X155222950Y-93221390D01*
X155379700Y-93378140D01*
X156127000Y-93378140D01*
X156127000Y-92130460D01*
X156373000Y-92130460D01*
X156373000Y-93378140D01*
X157120300Y-93378140D01*
X157277050Y-93221390D01*
X157277050Y-92475992D01*
X157181595Y-92245543D01*
X157005217Y-92069165D01*
X156774768Y-91973710D01*
X156529750Y-91973710D01*
X156373000Y-92130460D01*
X156127000Y-92130460D01*
X155970250Y-91973710D01*
X155725232Y-91973710D01*
X155494783Y-92069165D01*
X155318405Y-92245543D01*
X155222950Y-92475992D01*
X152213562Y-92475992D01*
X152748000Y-91941554D01*
X152748000Y-92170250D01*
X152904750Y-92327000D01*
X153627000Y-92327000D01*
X153627000Y-92307000D01*
X153873000Y-92307000D01*
X153873000Y-92327000D01*
X154595250Y-92327000D01*
X154752000Y-92170250D01*
X154752000Y-91804694D01*
X154899950Y-91834655D01*
X155700050Y-91834655D01*
X155858287Y-91804881D01*
X156003617Y-91711363D01*
X156101114Y-91568671D01*
X156135415Y-91399290D01*
X156135415Y-89820607D01*
X156364585Y-90049777D01*
X156364585Y-91399290D01*
X156394359Y-91557527D01*
X156487877Y-91702857D01*
X156630569Y-91800354D01*
X156799950Y-91834655D01*
X157600050Y-91834655D01*
X157758287Y-91804881D01*
X157903617Y-91711363D01*
X158001114Y-91568671D01*
X158035415Y-91399290D01*
X158035415Y-89598430D01*
X158027000Y-89553708D01*
X158027000Y-88736343D01*
X158103567Y-88687073D01*
X158201064Y-88544381D01*
X158235365Y-88375000D01*
X158235365Y-87625000D01*
X158205591Y-87466763D01*
X158127000Y-87344630D01*
X158127000Y-79950000D01*
X158117054Y-79900000D01*
X158056437Y-79595253D01*
X157855488Y-79294512D01*
X155877000Y-77316024D01*
X155877000Y-76264998D01*
X155862223Y-76190710D01*
X155806437Y-75910251D01*
X155605488Y-75609510D01*
X152090490Y-72094512D01*
X151981652Y-72021789D01*
X151789750Y-71893564D01*
X151435002Y-71823000D01*
X147750000Y-71823000D01*
X147395252Y-71893564D01*
X147094512Y-72094512D01*
X146893564Y-72395252D01*
X146823000Y-72750000D01*
X146893564Y-73104748D01*
X147094512Y-73405488D01*
X147395252Y-73606436D01*
X147417563Y-73610874D01*
X147103412Y-73610874D01*
X146946662Y-73767624D01*
X146946662Y-74489874D01*
X146966662Y-74489874D01*
X146966662Y-74735874D01*
X146946662Y-74735874D01*
X146946662Y-75458124D01*
X147103412Y-75614874D01*
X147528697Y-75614874D01*
X147449646Y-75730569D01*
X147415345Y-75899950D01*
X147415345Y-76107282D01*
X147104339Y-76418287D01*
X147004457Y-76318405D01*
X146774008Y-76222950D01*
X146028610Y-76222950D01*
X145871860Y-76379700D01*
X145871860Y-77127000D01*
X145891860Y-77127000D01*
X145891860Y-77373000D01*
X145871860Y-77373000D01*
X145871860Y-78120300D01*
X146028610Y-78277050D01*
X146523710Y-78277050D01*
X146523710Y-79899577D01*
X139450286Y-86973000D01*
X136280558Y-86973000D01*
X136210222Y-86867735D01*
X135828375Y-86612594D01*
X135377957Y-86523000D01*
X134822043Y-86523000D01*
X134371625Y-86612594D01*
X133989778Y-86867735D01*
X133734637Y-87249582D01*
X133645043Y-87700000D01*
X133734637Y-88150418D01*
X133989778Y-88532265D01*
X134371625Y-88787406D01*
X134822043Y-88877000D01*
X135377957Y-88877000D01*
X135828375Y-88787406D01*
X136210222Y-88532265D01*
X136280558Y-88427000D01*
X139751415Y-88427000D01*
X139751420Y-88427001D01*
X139983472Y-88380842D01*
X140029631Y-88371660D01*
X140265487Y-88214067D01*
X147250710Y-81228843D01*
X147864635Y-81842768D01*
X147864635Y-82450000D01*
X147894409Y-82608237D01*
X147987927Y-82753567D01*
X148130619Y-82851064D01*
X148300000Y-82885365D01*
X148939828Y-82885365D01*
X148891763Y-82894409D01*
X148746433Y-82987927D01*
X148648936Y-83130619D01*
X148614635Y-83300000D01*
X148614635Y-84200000D01*
X148644409Y-84358237D01*
X148737927Y-84503567D01*
X148880619Y-84601064D01*
X149050000Y-84635365D01*
X149450142Y-84635365D01*
X149416555Y-84801220D01*
X149416555Y-85598780D01*
X149446329Y-85757017D01*
X149539847Y-85902347D01*
X149671332Y-85992186D01*
X149598353Y-86039147D01*
X149500856Y-86181839D01*
X149466555Y-86351220D01*
X149466555Y-87148780D01*
X149496329Y-87307017D01*
X149589847Y-87452347D01*
X149732539Y-87549844D01*
X149901920Y-87584145D01*
X150699480Y-87584145D01*
X150857717Y-87554371D01*
X151003047Y-87460853D01*
X151049846Y-87392360D01*
X151088447Y-87452347D01*
X151172300Y-87509641D01*
X151172300Y-87548780D01*
X151220028Y-87788723D01*
X151279013Y-87877000D01*
X151355944Y-87992136D01*
X152582165Y-89218357D01*
X152785578Y-89354273D01*
X152877933Y-89372644D01*
X152858309Y-89419904D01*
X152858040Y-89729014D01*
X152864247Y-89744036D01*
X152697852Y-89777134D01*
X152653521Y-89785952D01*
X152385223Y-89965223D01*
X151617542Y-90732904D01*
X151594073Y-90696433D01*
X151451381Y-90598936D01*
X151282000Y-90564635D01*
X149758000Y-90564635D01*
X149599763Y-90594409D01*
X149454433Y-90687927D01*
X149356936Y-90830619D01*
X149322635Y-91000000D01*
X149322635Y-91480552D01*
X149216199Y-91116816D01*
X148875198Y-90692855D01*
X148397911Y-90431661D01*
X148317919Y-90414732D01*
X148103000Y-90535904D01*
X148103000Y-92877000D01*
X148123000Y-92877000D01*
X148123000Y-93123000D01*
X148103000Y-93123000D01*
X148103000Y-95464096D01*
X148317919Y-95585268D01*
X148397911Y-95568339D01*
X148875198Y-95307145D01*
X149093000Y-95036355D01*
X149093000Y-95138918D01*
X146908918Y-97323000D01*
X131341083Y-97323000D01*
X130653447Y-96635365D01*
X130950000Y-96635365D01*
X131108237Y-96605591D01*
X131253567Y-96512073D01*
X131351064Y-96369381D01*
X131385365Y-96200000D01*
X131385365Y-95000000D01*
X131355591Y-94841763D01*
X131262073Y-94696433D01*
X131119381Y-94598936D01*
X130950000Y-94564635D01*
X130513499Y-94564635D01*
X130642769Y-94435365D01*
X130950000Y-94435365D01*
X131108237Y-94405591D01*
X131253567Y-94312073D01*
X131351064Y-94169381D01*
X131385365Y-94000000D01*
X131385365Y-93123000D01*
X146591000Y-93123000D01*
X146591000Y-94361000D01*
X146743801Y-94883184D01*
X147084802Y-95307145D01*
X147562089Y-95568339D01*
X147642081Y-95585268D01*
X147857000Y-95464096D01*
X147857000Y-93123000D01*
X146591000Y-93123000D01*
X131385365Y-93123000D01*
X131385365Y-92800000D01*
X131355591Y-92641763D01*
X131262073Y-92496433D01*
X131119381Y-92398936D01*
X130950000Y-92364635D01*
X130050000Y-92364635D01*
X129891763Y-92394409D01*
X129746433Y-92487927D01*
X129648936Y-92630619D01*
X129614635Y-92800000D01*
X129614635Y-93407231D01*
X129498866Y-93523000D01*
X129480264Y-93523000D01*
X129551064Y-93419381D01*
X129585365Y-93250000D01*
X129585365Y-91050000D01*
X129555591Y-90891763D01*
X129462073Y-90746433D01*
X129319381Y-90648936D01*
X129150000Y-90614635D01*
X126950000Y-90614635D01*
X126791763Y-90644409D01*
X126646433Y-90737927D01*
X126548936Y-90880619D01*
X126514635Y-91050000D01*
X126514635Y-93250000D01*
X126544409Y-93408237D01*
X126618258Y-93523000D01*
X126500005Y-93523000D01*
X126500000Y-93522999D01*
X126267948Y-93569158D01*
X126221789Y-93578340D01*
X126085434Y-93669449D01*
X125985933Y-93735933D01*
X124948866Y-94773000D01*
X124114277Y-94773000D01*
X124415846Y-94648394D01*
X124747230Y-94317588D01*
X124926795Y-93885147D01*
X124927204Y-93416907D01*
X124748394Y-92984154D01*
X124417588Y-92652770D01*
X123985147Y-92473205D01*
X123516907Y-92472796D01*
X123084154Y-92651606D01*
X122877000Y-92858399D01*
X122877000Y-91002000D01*
X123170250Y-91002000D01*
X123327000Y-90845250D01*
X123327000Y-90123000D01*
X123573000Y-90123000D01*
X123573000Y-90845250D01*
X123729750Y-91002000D01*
X124174718Y-91002000D01*
X124405167Y-90906545D01*
X124581545Y-90730167D01*
X124677000Y-90499718D01*
X124677000Y-90431132D01*
X139922623Y-90431132D01*
X140253353Y-91231560D01*
X140865218Y-91844495D01*
X141665068Y-92176621D01*
X142531132Y-92177377D01*
X143331560Y-91846647D01*
X143539570Y-91639000D01*
X146591000Y-91639000D01*
X146591000Y-92877000D01*
X147857000Y-92877000D01*
X147857000Y-90535904D01*
X147642081Y-90414732D01*
X147562089Y-90431661D01*
X147084802Y-90692855D01*
X146743801Y-91116816D01*
X146591000Y-91639000D01*
X143539570Y-91639000D01*
X143944495Y-91234782D01*
X144276621Y-90434932D01*
X144277377Y-89568868D01*
X143946647Y-88768440D01*
X143334782Y-88155505D01*
X142534932Y-87823379D01*
X141668868Y-87822623D01*
X140868440Y-88153353D01*
X140255505Y-88765218D01*
X139923379Y-89565068D01*
X139922623Y-90431132D01*
X124677000Y-90431132D01*
X124677000Y-90279750D01*
X124520250Y-90123000D01*
X123573000Y-90123000D01*
X123327000Y-90123000D01*
X123307000Y-90123000D01*
X123307000Y-89877000D01*
X124520250Y-89877000D01*
X124525392Y-89871858D01*
X124549410Y-89866994D01*
X124591035Y-89838553D01*
X124618315Y-89796159D01*
X124622307Y-89774943D01*
X124677000Y-89720250D01*
X124677000Y-89588669D01*
X125726698Y-89797467D01*
X127497374Y-89445258D01*
X128998481Y-88442250D01*
X129541376Y-87629750D01*
X131173000Y-87629750D01*
X131173000Y-88074718D01*
X131268455Y-88305167D01*
X131444833Y-88481545D01*
X131675282Y-88577000D01*
X131970250Y-88577000D01*
X132127000Y-88420250D01*
X132127000Y-87473000D01*
X132373000Y-87473000D01*
X132373000Y-88420250D01*
X132529750Y-88577000D01*
X132824718Y-88577000D01*
X133055167Y-88481545D01*
X133231545Y-88305167D01*
X133327000Y-88074718D01*
X133327000Y-87629750D01*
X133170250Y-87473000D01*
X132373000Y-87473000D01*
X132127000Y-87473000D01*
X131329750Y-87473000D01*
X131173000Y-87629750D01*
X129541376Y-87629750D01*
X130001489Y-86941143D01*
X130353698Y-85170467D01*
X130001489Y-83399791D01*
X128998481Y-81898684D01*
X127623454Y-80979920D01*
X127649381Y-80941975D01*
X127672927Y-80978567D01*
X127815619Y-81076064D01*
X127985000Y-81110365D01*
X128585000Y-81110365D01*
X128743237Y-81080591D01*
X128761882Y-81068594D01*
X128899833Y-81206545D01*
X129130282Y-81302000D01*
X129275250Y-81302000D01*
X129432000Y-81145250D01*
X129432000Y-80023000D01*
X129412000Y-80023000D01*
X129412000Y-79777000D01*
X129432000Y-79777000D01*
X129432000Y-79757000D01*
X129678000Y-79757000D01*
X129678000Y-79777000D01*
X129698000Y-79777000D01*
X129698000Y-80023000D01*
X129678000Y-80023000D01*
X129678000Y-81145250D01*
X129834750Y-81302000D01*
X129979718Y-81302000D01*
X130210167Y-81206545D01*
X130386545Y-81030167D01*
X130482000Y-80799718D01*
X130482000Y-80744356D01*
X130487927Y-80753567D01*
X130630619Y-80851064D01*
X130800000Y-80885365D01*
X131190687Y-80885365D01*
X131400000Y-80927000D01*
X131504144Y-80906284D01*
X131485952Y-80933511D01*
X131423000Y-81249990D01*
X131423000Y-84345400D01*
X131398936Y-84380619D01*
X131364635Y-84550000D01*
X131364635Y-85750000D01*
X131394409Y-85908237D01*
X131487927Y-86053567D01*
X131621905Y-86145110D01*
X131444833Y-86218455D01*
X131268455Y-86394833D01*
X131173000Y-86625282D01*
X131173000Y-87070250D01*
X131329750Y-87227000D01*
X132127000Y-87227000D01*
X132127000Y-87207000D01*
X132373000Y-87207000D01*
X132373000Y-87227000D01*
X133170250Y-87227000D01*
X133327000Y-87070250D01*
X133327000Y-86625282D01*
X133231545Y-86394833D01*
X133055167Y-86218455D01*
X132875923Y-86144210D01*
X133003567Y-86062073D01*
X133027531Y-86027000D01*
X133986260Y-86027000D01*
X133989778Y-86032265D01*
X134371625Y-86287406D01*
X134822043Y-86377000D01*
X135377957Y-86377000D01*
X135828375Y-86287406D01*
X136210222Y-86032265D01*
X136465363Y-85650418D01*
X136554957Y-85200000D01*
X136465363Y-84749582D01*
X136210222Y-84367735D01*
X135828375Y-84112594D01*
X135544278Y-84056083D01*
X135990592Y-83925112D01*
X136410660Y-83586712D01*
X136669252Y-83113318D01*
X136685369Y-83036035D01*
X136564035Y-82823000D01*
X135223000Y-82823000D01*
X135223000Y-82843000D01*
X134977000Y-82843000D01*
X134977000Y-82823000D01*
X133635965Y-82823000D01*
X133514631Y-83036035D01*
X133530748Y-83113318D01*
X133789340Y-83586712D01*
X134209408Y-83925112D01*
X134655722Y-84056083D01*
X134371625Y-84112594D01*
X133989778Y-84367735D01*
X133986260Y-84373000D01*
X133093517Y-84373000D01*
X133077000Y-84347332D01*
X133077000Y-82363965D01*
X133514631Y-82363965D01*
X133635965Y-82577000D01*
X134977000Y-82577000D01*
X134977000Y-81323000D01*
X135223000Y-81323000D01*
X135223000Y-82577000D01*
X136564035Y-82577000D01*
X136685369Y-82363965D01*
X136669252Y-82286682D01*
X136410660Y-81813288D01*
X135990592Y-81474888D01*
X135473000Y-81323000D01*
X135223000Y-81323000D01*
X134977000Y-81323000D01*
X134727000Y-81323000D01*
X134209408Y-81474888D01*
X133789340Y-81813288D01*
X133530748Y-82286682D01*
X133514631Y-82363965D01*
X133077000Y-82363965D01*
X133077000Y-81249990D01*
X133042590Y-81077000D01*
X133320250Y-81077000D01*
X133477000Y-80920250D01*
X133477000Y-80123000D01*
X133723000Y-80123000D01*
X133723000Y-80920250D01*
X133879750Y-81077000D01*
X134324718Y-81077000D01*
X134555167Y-80981545D01*
X134705580Y-80831132D01*
X139922623Y-80831132D01*
X140253353Y-81631560D01*
X140865218Y-82244495D01*
X141665068Y-82576621D01*
X142531132Y-82577377D01*
X143331560Y-82246647D01*
X143944495Y-81634782D01*
X144276621Y-80834932D01*
X144277377Y-79968868D01*
X143946647Y-79168440D01*
X143334782Y-78555505D01*
X142534932Y-78223379D01*
X141668868Y-78222623D01*
X140868440Y-78553353D01*
X140255505Y-79165218D01*
X139923379Y-79965068D01*
X139922623Y-80831132D01*
X134705580Y-80831132D01*
X134731545Y-80805167D01*
X134827000Y-80574718D01*
X134827000Y-80279750D01*
X134670250Y-80123000D01*
X133723000Y-80123000D01*
X133477000Y-80123000D01*
X133457000Y-80123000D01*
X133457000Y-79877000D01*
X133477000Y-79877000D01*
X133477000Y-79857000D01*
X133723000Y-79857000D01*
X133723000Y-79877000D01*
X134670250Y-79877000D01*
X134827000Y-79720250D01*
X134827000Y-79425282D01*
X134731545Y-79194833D01*
X134555167Y-79018455D01*
X134511551Y-79000389D01*
X134601064Y-78869381D01*
X134635365Y-78700000D01*
X134635365Y-78392769D01*
X135498384Y-77529750D01*
X144221430Y-77529750D01*
X144221430Y-77774768D01*
X144316885Y-78005217D01*
X144493263Y-78181595D01*
X144723712Y-78277050D01*
X145469110Y-78277050D01*
X145625860Y-78120300D01*
X145625860Y-77373000D01*
X144378180Y-77373000D01*
X144221430Y-77529750D01*
X135498384Y-77529750D01*
X135840213Y-77187921D01*
X135840890Y-77189560D01*
X136059272Y-77408324D01*
X136344749Y-77526865D01*
X136653859Y-77527134D01*
X136775192Y-77477000D01*
X140299995Y-77477000D01*
X140300000Y-77477001D01*
X140532052Y-77430842D01*
X140578211Y-77421660D01*
X140814067Y-77264067D01*
X141352901Y-76725232D01*
X144221430Y-76725232D01*
X144221430Y-76970250D01*
X144378180Y-77127000D01*
X145625860Y-77127000D01*
X145625860Y-76379700D01*
X145469110Y-76222950D01*
X144723712Y-76222950D01*
X144493263Y-76318405D01*
X144316885Y-76494783D01*
X144221430Y-76725232D01*
X141352901Y-76725232D01*
X142232609Y-75845524D01*
X142244409Y-75908237D01*
X142337927Y-76053567D01*
X142480619Y-76151064D01*
X142650000Y-76185365D01*
X143350000Y-76185365D01*
X143508237Y-76155591D01*
X143653567Y-76062073D01*
X143751064Y-75919381D01*
X143785365Y-75750000D01*
X143785365Y-75377000D01*
X144120250Y-75377000D01*
X144277000Y-75220250D01*
X144277000Y-74473000D01*
X144523000Y-74473000D01*
X144523000Y-75220250D01*
X144679750Y-75377000D01*
X145024718Y-75377000D01*
X145255167Y-75281545D01*
X145431545Y-75105167D01*
X145519583Y-74892624D01*
X145596662Y-74892624D01*
X145596662Y-75112592D01*
X145692117Y-75343041D01*
X145868495Y-75519419D01*
X146098944Y-75614874D01*
X146543912Y-75614874D01*
X146700662Y-75458124D01*
X146700662Y-74735874D01*
X145753412Y-74735874D01*
X145596662Y-74892624D01*
X145519583Y-74892624D01*
X145527000Y-74874718D01*
X145527000Y-74629750D01*
X145370250Y-74473000D01*
X144523000Y-74473000D01*
X144277000Y-74473000D01*
X144257000Y-74473000D01*
X144257000Y-74227000D01*
X144277000Y-74227000D01*
X144277000Y-73479750D01*
X144523000Y-73479750D01*
X144523000Y-74227000D01*
X145370250Y-74227000D01*
X145484094Y-74113156D01*
X145596662Y-74113156D01*
X145596662Y-74333124D01*
X145753412Y-74489874D01*
X146700662Y-74489874D01*
X146700662Y-73767624D01*
X146543912Y-73610874D01*
X146098944Y-73610874D01*
X145868495Y-73706329D01*
X145692117Y-73882707D01*
X145596662Y-74113156D01*
X145484094Y-74113156D01*
X145527000Y-74070250D01*
X145527000Y-73825282D01*
X145431545Y-73594833D01*
X145255167Y-73418455D01*
X145024718Y-73323000D01*
X144679750Y-73323000D01*
X144523000Y-73479750D01*
X144277000Y-73479750D01*
X144120250Y-73323000D01*
X143775282Y-73323000D01*
X143544833Y-73418455D01*
X143368455Y-73594833D01*
X143277410Y-73814635D01*
X142925727Y-73814635D01*
X142993051Y-73747429D01*
X143126847Y-73425211D01*
X143127151Y-73076319D01*
X142993918Y-72753869D01*
X142747429Y-72506949D01*
X142561513Y-72429750D01*
X143273000Y-72429750D01*
X143273000Y-72674718D01*
X143368455Y-72905167D01*
X143544833Y-73081545D01*
X143775282Y-73177000D01*
X144120250Y-73177000D01*
X144277000Y-73020250D01*
X144277000Y-72273000D01*
X144523000Y-72273000D01*
X144523000Y-73020250D01*
X144679750Y-73177000D01*
X145024718Y-73177000D01*
X145255167Y-73081545D01*
X145431545Y-72905167D01*
X145527000Y-72674718D01*
X145527000Y-72429750D01*
X145370250Y-72273000D01*
X144523000Y-72273000D01*
X144277000Y-72273000D01*
X143429750Y-72273000D01*
X143273000Y-72429750D01*
X142561513Y-72429750D01*
X142425211Y-72373153D01*
X142076319Y-72372849D01*
X141753869Y-72506082D01*
X141506949Y-72752571D01*
X141412989Y-72978854D01*
X140411136Y-71977000D01*
X143000000Y-71977000D01*
X143182540Y-71940691D01*
X143278993Y-71876243D01*
X143429750Y-72027000D01*
X144277000Y-72027000D01*
X144277000Y-71279750D01*
X144523000Y-71279750D01*
X144523000Y-72027000D01*
X145370250Y-72027000D01*
X145527000Y-71870250D01*
X145527000Y-71625282D01*
X145431545Y-71394833D01*
X145255167Y-71218455D01*
X145024718Y-71123000D01*
X144679750Y-71123000D01*
X144523000Y-71279750D01*
X144277000Y-71279750D01*
X144120250Y-71123000D01*
X143775282Y-71123000D01*
X143544833Y-71218455D01*
X143477000Y-71286288D01*
X143477000Y-70447467D01*
X155349698Y-70447467D01*
X155349698Y-71293251D01*
X155349698Y-71293251D01*
G37*
X155349698Y-71293251D02*
X155289266Y-71597063D01*
X155289266Y-71670731D01*
X155283170Y-71744142D01*
X155352767Y-72354723D01*
X155352767Y-72354724D01*
X155358570Y-72372849D01*
X155409515Y-72531977D01*
X155409518Y-72531980D01*
X155707473Y-73069443D01*
X155707474Y-73069445D01*
X155827735Y-73211489D01*
X156308693Y-73594023D01*
X156308694Y-73594024D01*
X156332797Y-73606436D01*
X156474158Y-73679234D01*
X156474164Y-73679235D01*
X157064894Y-73848592D01*
X157064895Y-73848593D01*
X157069026Y-73848936D01*
X157250374Y-73863996D01*
X157250379Y-73863994D01*
X157834029Y-73797467D01*
X158699698Y-73797467D01*
X158699698Y-96543467D01*
X157853914Y-96543467D01*
X157550102Y-96483035D01*
X157476434Y-96483035D01*
X157403023Y-96476939D01*
X156792442Y-96546536D01*
X156792441Y-96546536D01*
X156768319Y-96554259D01*
X156615188Y-96603284D01*
X156615185Y-96603287D01*
X156077722Y-96901242D01*
X156077720Y-96901243D01*
X155935676Y-97021504D01*
X155553142Y-97502462D01*
X155467932Y-97667926D01*
X155467932Y-97667928D01*
X155298575Y-98258658D01*
X155298572Y-98258664D01*
X155290231Y-98359105D01*
X155283169Y-98444143D01*
X155283171Y-98444148D01*
X155349698Y-99027798D01*
X155349698Y-99893467D01*
X148307859Y-99893467D01*
X148509041Y-99759041D01*
X151529041Y-96739041D01*
X151838376Y-96276089D01*
X151890495Y-96014067D01*
X151947000Y-95730000D01*
X151947000Y-93780890D01*
X155222950Y-93780890D01*
X155222950Y-94526288D01*
X155318405Y-94756737D01*
X155494783Y-94933115D01*
X155725232Y-95028570D01*
X155970250Y-95028570D01*
X156127000Y-94871820D01*
X156127000Y-93624140D01*
X156373000Y-93624140D01*
X156373000Y-94871820D01*
X156529750Y-95028570D01*
X156774768Y-95028570D01*
X157005217Y-94933115D01*
X157181595Y-94756737D01*
X157277050Y-94526288D01*
X157277050Y-93780890D01*
X157120300Y-93624140D01*
X156373000Y-93624140D01*
X156127000Y-93624140D01*
X155379700Y-93624140D01*
X155222950Y-93780890D01*
X151947000Y-93780890D01*
X151947000Y-93000000D01*
X151904287Y-92785267D01*
X151959804Y-92729750D01*
X152748000Y-92729750D01*
X152748000Y-93174718D01*
X152843455Y-93405167D01*
X153019833Y-93581545D01*
X153250282Y-93677000D01*
X153470250Y-93677000D01*
X153627000Y-93520250D01*
X153627000Y-92573000D01*
X153873000Y-92573000D01*
X153873000Y-93520250D01*
X154029750Y-93677000D01*
X154249718Y-93677000D01*
X154480167Y-93581545D01*
X154656545Y-93405167D01*
X154752000Y-93174718D01*
X154752000Y-92729750D01*
X154595250Y-92573000D01*
X153873000Y-92573000D01*
X153627000Y-92573000D01*
X152904750Y-92573000D01*
X152748000Y-92729750D01*
X151959804Y-92729750D01*
X152213562Y-92475992D01*
X155222950Y-92475992D01*
X155222950Y-93221390D01*
X155379700Y-93378140D01*
X156127000Y-93378140D01*
X156127000Y-92130460D01*
X156373000Y-92130460D01*
X156373000Y-93378140D01*
X157120300Y-93378140D01*
X157277050Y-93221390D01*
X157277050Y-92475992D01*
X157181595Y-92245543D01*
X157005217Y-92069165D01*
X156774768Y-91973710D01*
X156529750Y-91973710D01*
X156373000Y-92130460D01*
X156127000Y-92130460D01*
X155970250Y-91973710D01*
X155725232Y-91973710D01*
X155494783Y-92069165D01*
X155318405Y-92245543D01*
X155222950Y-92475992D01*
X152213562Y-92475992D01*
X152748000Y-91941554D01*
X152748000Y-92170250D01*
X152904750Y-92327000D01*
X153627000Y-92327000D01*
X153627000Y-92307000D01*
X153873000Y-92307000D01*
X153873000Y-92327000D01*
X154595250Y-92327000D01*
X154752000Y-92170250D01*
X154752000Y-91804694D01*
X154899950Y-91834655D01*
X155700050Y-91834655D01*
X155858287Y-91804881D01*
X156003617Y-91711363D01*
X156101114Y-91568671D01*
X156135415Y-91399290D01*
X156135415Y-89820607D01*
X156364585Y-90049777D01*
X156364585Y-91399290D01*
X156394359Y-91557527D01*
X156487877Y-91702857D01*
X156630569Y-91800354D01*
X156799950Y-91834655D01*
X157600050Y-91834655D01*
X157758287Y-91804881D01*
X157903617Y-91711363D01*
X158001114Y-91568671D01*
X158035415Y-91399290D01*
X158035415Y-89598430D01*
X158027000Y-89553708D01*
X158027000Y-88736343D01*
X158103567Y-88687073D01*
X158201064Y-88544381D01*
X158235365Y-88375000D01*
X158235365Y-87625000D01*
X158205591Y-87466763D01*
X158127000Y-87344630D01*
X158127000Y-79950000D01*
X158117054Y-79900000D01*
X158056437Y-79595253D01*
X157855488Y-79294512D01*
X155877000Y-77316024D01*
X155877000Y-76264998D01*
X155862223Y-76190710D01*
X155806437Y-75910251D01*
X155605488Y-75609510D01*
X152090490Y-72094512D01*
X151981652Y-72021789D01*
X151789750Y-71893564D01*
X151435002Y-71823000D01*
X147750000Y-71823000D01*
X147395252Y-71893564D01*
X147094512Y-72094512D01*
X146893564Y-72395252D01*
X146823000Y-72750000D01*
X146893564Y-73104748D01*
X147094512Y-73405488D01*
X147395252Y-73606436D01*
X147417563Y-73610874D01*
X147103412Y-73610874D01*
X146946662Y-73767624D01*
X146946662Y-74489874D01*
X146966662Y-74489874D01*
X146966662Y-74735874D01*
X146946662Y-74735874D01*
X146946662Y-75458124D01*
X147103412Y-75614874D01*
X147528697Y-75614874D01*
X147449646Y-75730569D01*
X147415345Y-75899950D01*
X147415345Y-76107282D01*
X147104339Y-76418287D01*
X147004457Y-76318405D01*
X146774008Y-76222950D01*
X146028610Y-76222950D01*
X145871860Y-76379700D01*
X145871860Y-77127000D01*
X145891860Y-77127000D01*
X145891860Y-77373000D01*
X145871860Y-77373000D01*
X145871860Y-78120300D01*
X146028610Y-78277050D01*
X146523710Y-78277050D01*
X146523710Y-79899577D01*
X139450286Y-86973000D01*
X136280558Y-86973000D01*
X136210222Y-86867735D01*
X135828375Y-86612594D01*
X135377957Y-86523000D01*
X134822043Y-86523000D01*
X134371625Y-86612594D01*
X133989778Y-86867735D01*
X133734637Y-87249582D01*
X133645043Y-87700000D01*
X133734637Y-88150418D01*
X133989778Y-88532265D01*
X134371625Y-88787406D01*
X134822043Y-88877000D01*
X135377957Y-88877000D01*
X135828375Y-88787406D01*
X136210222Y-88532265D01*
X136280558Y-88427000D01*
X139751415Y-88427000D01*
X139751420Y-88427001D01*
X139983472Y-88380842D01*
X140029631Y-88371660D01*
X140265487Y-88214067D01*
X147250710Y-81228843D01*
X147864635Y-81842768D01*
X147864635Y-82450000D01*
X147894409Y-82608237D01*
X147987927Y-82753567D01*
X148130619Y-82851064D01*
X148300000Y-82885365D01*
X148939828Y-82885365D01*
X148891763Y-82894409D01*
X148746433Y-82987927D01*
X148648936Y-83130619D01*
X148614635Y-83300000D01*
X148614635Y-84200000D01*
X148644409Y-84358237D01*
X148737927Y-84503567D01*
X148880619Y-84601064D01*
X149050000Y-84635365D01*
X149450142Y-84635365D01*
X149416555Y-84801220D01*
X149416555Y-85598780D01*
X149446329Y-85757017D01*
X149539847Y-85902347D01*
X149671332Y-85992186D01*
X149598353Y-86039147D01*
X149500856Y-86181839D01*
X149466555Y-86351220D01*
X149466555Y-87148780D01*
X149496329Y-87307017D01*
X149589847Y-87452347D01*
X149732539Y-87549844D01*
X149901920Y-87584145D01*
X150699480Y-87584145D01*
X150857717Y-87554371D01*
X151003047Y-87460853D01*
X151049846Y-87392360D01*
X151088447Y-87452347D01*
X151172300Y-87509641D01*
X151172300Y-87548780D01*
X151220028Y-87788723D01*
X151279013Y-87877000D01*
X151355944Y-87992136D01*
X152582165Y-89218357D01*
X152785578Y-89354273D01*
X152877933Y-89372644D01*
X152858309Y-89419904D01*
X152858040Y-89729014D01*
X152864247Y-89744036D01*
X152697852Y-89777134D01*
X152653521Y-89785952D01*
X152385223Y-89965223D01*
X151617542Y-90732904D01*
X151594073Y-90696433D01*
X151451381Y-90598936D01*
X151282000Y-90564635D01*
X149758000Y-90564635D01*
X149599763Y-90594409D01*
X149454433Y-90687927D01*
X149356936Y-90830619D01*
X149322635Y-91000000D01*
X149322635Y-91480552D01*
X149216199Y-91116816D01*
X148875198Y-90692855D01*
X148397911Y-90431661D01*
X148317919Y-90414732D01*
X148103000Y-90535904D01*
X148103000Y-92877000D01*
X148123000Y-92877000D01*
X148123000Y-93123000D01*
X148103000Y-93123000D01*
X148103000Y-95464096D01*
X148317919Y-95585268D01*
X148397911Y-95568339D01*
X148875198Y-95307145D01*
X149093000Y-95036355D01*
X149093000Y-95138918D01*
X146908918Y-97323000D01*
X131341083Y-97323000D01*
X130653447Y-96635365D01*
X130950000Y-96635365D01*
X131108237Y-96605591D01*
X131253567Y-96512073D01*
X131351064Y-96369381D01*
X131385365Y-96200000D01*
X131385365Y-95000000D01*
X131355591Y-94841763D01*
X131262073Y-94696433D01*
X131119381Y-94598936D01*
X130950000Y-94564635D01*
X130513499Y-94564635D01*
X130642769Y-94435365D01*
X130950000Y-94435365D01*
X131108237Y-94405591D01*
X131253567Y-94312073D01*
X131351064Y-94169381D01*
X131385365Y-94000000D01*
X131385365Y-93123000D01*
X146591000Y-93123000D01*
X146591000Y-94361000D01*
X146743801Y-94883184D01*
X147084802Y-95307145D01*
X147562089Y-95568339D01*
X147642081Y-95585268D01*
X147857000Y-95464096D01*
X147857000Y-93123000D01*
X146591000Y-93123000D01*
X131385365Y-93123000D01*
X131385365Y-92800000D01*
X131355591Y-92641763D01*
X131262073Y-92496433D01*
X131119381Y-92398936D01*
X130950000Y-92364635D01*
X130050000Y-92364635D01*
X129891763Y-92394409D01*
X129746433Y-92487927D01*
X129648936Y-92630619D01*
X129614635Y-92800000D01*
X129614635Y-93407231D01*
X129498866Y-93523000D01*
X129480264Y-93523000D01*
X129551064Y-93419381D01*
X129585365Y-93250000D01*
X129585365Y-91050000D01*
X129555591Y-90891763D01*
X129462073Y-90746433D01*
X129319381Y-90648936D01*
X129150000Y-90614635D01*
X126950000Y-90614635D01*
X126791763Y-90644409D01*
X126646433Y-90737927D01*
X126548936Y-90880619D01*
X126514635Y-91050000D01*
X126514635Y-93250000D01*
X126544409Y-93408237D01*
X126618258Y-93523000D01*
X126500005Y-93523000D01*
X126500000Y-93522999D01*
X126267948Y-93569158D01*
X126221789Y-93578340D01*
X126085434Y-93669449D01*
X125985933Y-93735933D01*
X124948866Y-94773000D01*
X124114277Y-94773000D01*
X124415846Y-94648394D01*
X124747230Y-94317588D01*
X124926795Y-93885147D01*
X124927204Y-93416907D01*
X124748394Y-92984154D01*
X124417588Y-92652770D01*
X123985147Y-92473205D01*
X123516907Y-92472796D01*
X123084154Y-92651606D01*
X122877000Y-92858399D01*
X122877000Y-91002000D01*
X123170250Y-91002000D01*
X123327000Y-90845250D01*
X123327000Y-90123000D01*
X123573000Y-90123000D01*
X123573000Y-90845250D01*
X123729750Y-91002000D01*
X124174718Y-91002000D01*
X124405167Y-90906545D01*
X124581545Y-90730167D01*
X124677000Y-90499718D01*
X124677000Y-90431132D01*
X139922623Y-90431132D01*
X140253353Y-91231560D01*
X140865218Y-91844495D01*
X141665068Y-92176621D01*
X142531132Y-92177377D01*
X143331560Y-91846647D01*
X143539570Y-91639000D01*
X146591000Y-91639000D01*
X146591000Y-92877000D01*
X147857000Y-92877000D01*
X147857000Y-90535904D01*
X147642081Y-90414732D01*
X147562089Y-90431661D01*
X147084802Y-90692855D01*
X146743801Y-91116816D01*
X146591000Y-91639000D01*
X143539570Y-91639000D01*
X143944495Y-91234782D01*
X144276621Y-90434932D01*
X144277377Y-89568868D01*
X143946647Y-88768440D01*
X143334782Y-88155505D01*
X142534932Y-87823379D01*
X141668868Y-87822623D01*
X140868440Y-88153353D01*
X140255505Y-88765218D01*
X139923379Y-89565068D01*
X139922623Y-90431132D01*
X124677000Y-90431132D01*
X124677000Y-90279750D01*
X124520250Y-90123000D01*
X123573000Y-90123000D01*
X123327000Y-90123000D01*
X123307000Y-90123000D01*
X123307000Y-89877000D01*
X124520250Y-89877000D01*
X124525392Y-89871858D01*
X124549410Y-89866994D01*
X124591035Y-89838553D01*
X124618315Y-89796159D01*
X124622307Y-89774943D01*
X124677000Y-89720250D01*
X124677000Y-89588669D01*
X125726698Y-89797467D01*
X127497374Y-89445258D01*
X128998481Y-88442250D01*
X129541376Y-87629750D01*
X131173000Y-87629750D01*
X131173000Y-88074718D01*
X131268455Y-88305167D01*
X131444833Y-88481545D01*
X131675282Y-88577000D01*
X131970250Y-88577000D01*
X132127000Y-88420250D01*
X132127000Y-87473000D01*
X132373000Y-87473000D01*
X132373000Y-88420250D01*
X132529750Y-88577000D01*
X132824718Y-88577000D01*
X133055167Y-88481545D01*
X133231545Y-88305167D01*
X133327000Y-88074718D01*
X133327000Y-87629750D01*
X133170250Y-87473000D01*
X132373000Y-87473000D01*
X132127000Y-87473000D01*
X131329750Y-87473000D01*
X131173000Y-87629750D01*
X129541376Y-87629750D01*
X130001489Y-86941143D01*
X130353698Y-85170467D01*
X130001489Y-83399791D01*
X128998481Y-81898684D01*
X127623454Y-80979920D01*
X127649381Y-80941975D01*
X127672927Y-80978567D01*
X127815619Y-81076064D01*
X127985000Y-81110365D01*
X128585000Y-81110365D01*
X128743237Y-81080591D01*
X128761882Y-81068594D01*
X128899833Y-81206545D01*
X129130282Y-81302000D01*
X129275250Y-81302000D01*
X129432000Y-81145250D01*
X129432000Y-80023000D01*
X129412000Y-80023000D01*
X129412000Y-79777000D01*
X129432000Y-79777000D01*
X129432000Y-79757000D01*
X129678000Y-79757000D01*
X129678000Y-79777000D01*
X129698000Y-79777000D01*
X129698000Y-80023000D01*
X129678000Y-80023000D01*
X129678000Y-81145250D01*
X129834750Y-81302000D01*
X129979718Y-81302000D01*
X130210167Y-81206545D01*
X130386545Y-81030167D01*
X130482000Y-80799718D01*
X130482000Y-80744356D01*
X130487927Y-80753567D01*
X130630619Y-80851064D01*
X130800000Y-80885365D01*
X131190687Y-80885365D01*
X131400000Y-80927000D01*
X131504144Y-80906284D01*
X131485952Y-80933511D01*
X131423000Y-81249990D01*
X131423000Y-84345400D01*
X131398936Y-84380619D01*
X131364635Y-84550000D01*
X131364635Y-85750000D01*
X131394409Y-85908237D01*
X131487927Y-86053567D01*
X131621905Y-86145110D01*
X131444833Y-86218455D01*
X131268455Y-86394833D01*
X131173000Y-86625282D01*
X131173000Y-87070250D01*
X131329750Y-87227000D01*
X132127000Y-87227000D01*
X132127000Y-87207000D01*
X132373000Y-87207000D01*
X132373000Y-87227000D01*
X133170250Y-87227000D01*
X133327000Y-87070250D01*
X133327000Y-86625282D01*
X133231545Y-86394833D01*
X133055167Y-86218455D01*
X132875923Y-86144210D01*
X133003567Y-86062073D01*
X133027531Y-86027000D01*
X133986260Y-86027000D01*
X133989778Y-86032265D01*
X134371625Y-86287406D01*
X134822043Y-86377000D01*
X135377957Y-86377000D01*
X135828375Y-86287406D01*
X136210222Y-86032265D01*
X136465363Y-85650418D01*
X136554957Y-85200000D01*
X136465363Y-84749582D01*
X136210222Y-84367735D01*
X135828375Y-84112594D01*
X135544278Y-84056083D01*
X135990592Y-83925112D01*
X136410660Y-83586712D01*
X136669252Y-83113318D01*
X136685369Y-83036035D01*
X136564035Y-82823000D01*
X135223000Y-82823000D01*
X135223000Y-82843000D01*
X134977000Y-82843000D01*
X134977000Y-82823000D01*
X133635965Y-82823000D01*
X133514631Y-83036035D01*
X133530748Y-83113318D01*
X133789340Y-83586712D01*
X134209408Y-83925112D01*
X134655722Y-84056083D01*
X134371625Y-84112594D01*
X133989778Y-84367735D01*
X133986260Y-84373000D01*
X133093517Y-84373000D01*
X133077000Y-84347332D01*
X133077000Y-82363965D01*
X133514631Y-82363965D01*
X133635965Y-82577000D01*
X134977000Y-82577000D01*
X134977000Y-81323000D01*
X135223000Y-81323000D01*
X135223000Y-82577000D01*
X136564035Y-82577000D01*
X136685369Y-82363965D01*
X136669252Y-82286682D01*
X136410660Y-81813288D01*
X135990592Y-81474888D01*
X135473000Y-81323000D01*
X135223000Y-81323000D01*
X134977000Y-81323000D01*
X134727000Y-81323000D01*
X134209408Y-81474888D01*
X133789340Y-81813288D01*
X133530748Y-82286682D01*
X133514631Y-82363965D01*
X133077000Y-82363965D01*
X133077000Y-81249990D01*
X133042590Y-81077000D01*
X133320250Y-81077000D01*
X133477000Y-80920250D01*
X133477000Y-80123000D01*
X133723000Y-80123000D01*
X133723000Y-80920250D01*
X133879750Y-81077000D01*
X134324718Y-81077000D01*
X134555167Y-80981545D01*
X134705580Y-80831132D01*
X139922623Y-80831132D01*
X140253353Y-81631560D01*
X140865218Y-82244495D01*
X141665068Y-82576621D01*
X142531132Y-82577377D01*
X143331560Y-82246647D01*
X143944495Y-81634782D01*
X144276621Y-80834932D01*
X144277377Y-79968868D01*
X143946647Y-79168440D01*
X143334782Y-78555505D01*
X142534932Y-78223379D01*
X141668868Y-78222623D01*
X140868440Y-78553353D01*
X140255505Y-79165218D01*
X139923379Y-79965068D01*
X139922623Y-80831132D01*
X134705580Y-80831132D01*
X134731545Y-80805167D01*
X134827000Y-80574718D01*
X134827000Y-80279750D01*
X134670250Y-80123000D01*
X133723000Y-80123000D01*
X133477000Y-80123000D01*
X133457000Y-80123000D01*
X133457000Y-79877000D01*
X133477000Y-79877000D01*
X133477000Y-79857000D01*
X133723000Y-79857000D01*
X133723000Y-79877000D01*
X134670250Y-79877000D01*
X134827000Y-79720250D01*
X134827000Y-79425282D01*
X134731545Y-79194833D01*
X134555167Y-79018455D01*
X134511551Y-79000389D01*
X134601064Y-78869381D01*
X134635365Y-78700000D01*
X134635365Y-78392769D01*
X135498384Y-77529750D01*
X144221430Y-77529750D01*
X144221430Y-77774768D01*
X144316885Y-78005217D01*
X144493263Y-78181595D01*
X144723712Y-78277050D01*
X145469110Y-78277050D01*
X145625860Y-78120300D01*
X145625860Y-77373000D01*
X144378180Y-77373000D01*
X144221430Y-77529750D01*
X135498384Y-77529750D01*
X135840213Y-77187921D01*
X135840890Y-77189560D01*
X136059272Y-77408324D01*
X136344749Y-77526865D01*
X136653859Y-77527134D01*
X136775192Y-77477000D01*
X140299995Y-77477000D01*
X140300000Y-77477001D01*
X140532052Y-77430842D01*
X140578211Y-77421660D01*
X140814067Y-77264067D01*
X141352901Y-76725232D01*
X144221430Y-76725232D01*
X144221430Y-76970250D01*
X144378180Y-77127000D01*
X145625860Y-77127000D01*
X145625860Y-76379700D01*
X145469110Y-76222950D01*
X144723712Y-76222950D01*
X144493263Y-76318405D01*
X144316885Y-76494783D01*
X144221430Y-76725232D01*
X141352901Y-76725232D01*
X142232609Y-75845524D01*
X142244409Y-75908237D01*
X142337927Y-76053567D01*
X142480619Y-76151064D01*
X142650000Y-76185365D01*
X143350000Y-76185365D01*
X143508237Y-76155591D01*
X143653567Y-76062073D01*
X143751064Y-75919381D01*
X143785365Y-75750000D01*
X143785365Y-75377000D01*
X144120250Y-75377000D01*
X144277000Y-75220250D01*
X144277000Y-74473000D01*
X144523000Y-74473000D01*
X144523000Y-75220250D01*
X144679750Y-75377000D01*
X145024718Y-75377000D01*
X145255167Y-75281545D01*
X145431545Y-75105167D01*
X145519583Y-74892624D01*
X145596662Y-74892624D01*
X145596662Y-75112592D01*
X145692117Y-75343041D01*
X145868495Y-75519419D01*
X146098944Y-75614874D01*
X146543912Y-75614874D01*
X146700662Y-75458124D01*
X146700662Y-74735874D01*
X145753412Y-74735874D01*
X145596662Y-74892624D01*
X145519583Y-74892624D01*
X145527000Y-74874718D01*
X145527000Y-74629750D01*
X145370250Y-74473000D01*
X144523000Y-74473000D01*
X144277000Y-74473000D01*
X144257000Y-74473000D01*
X144257000Y-74227000D01*
X144277000Y-74227000D01*
X144277000Y-73479750D01*
X144523000Y-73479750D01*
X144523000Y-74227000D01*
X145370250Y-74227000D01*
X145484094Y-74113156D01*
X145596662Y-74113156D01*
X145596662Y-74333124D01*
X145753412Y-74489874D01*
X146700662Y-74489874D01*
X146700662Y-73767624D01*
X146543912Y-73610874D01*
X146098944Y-73610874D01*
X145868495Y-73706329D01*
X145692117Y-73882707D01*
X145596662Y-74113156D01*
X145484094Y-74113156D01*
X145527000Y-74070250D01*
X145527000Y-73825282D01*
X145431545Y-73594833D01*
X145255167Y-73418455D01*
X145024718Y-73323000D01*
X144679750Y-73323000D01*
X144523000Y-73479750D01*
X144277000Y-73479750D01*
X144120250Y-73323000D01*
X143775282Y-73323000D01*
X143544833Y-73418455D01*
X143368455Y-73594833D01*
X143277410Y-73814635D01*
X142925727Y-73814635D01*
X142993051Y-73747429D01*
X143126847Y-73425211D01*
X143127151Y-73076319D01*
X142993918Y-72753869D01*
X142747429Y-72506949D01*
X142561513Y-72429750D01*
X143273000Y-72429750D01*
X143273000Y-72674718D01*
X143368455Y-72905167D01*
X143544833Y-73081545D01*
X143775282Y-73177000D01*
X144120250Y-73177000D01*
X144277000Y-73020250D01*
X144277000Y-72273000D01*
X144523000Y-72273000D01*
X144523000Y-73020250D01*
X144679750Y-73177000D01*
X145024718Y-73177000D01*
X145255167Y-73081545D01*
X145431545Y-72905167D01*
X145527000Y-72674718D01*
X145527000Y-72429750D01*
X145370250Y-72273000D01*
X144523000Y-72273000D01*
X144277000Y-72273000D01*
X143429750Y-72273000D01*
X143273000Y-72429750D01*
X142561513Y-72429750D01*
X142425211Y-72373153D01*
X142076319Y-72372849D01*
X141753869Y-72506082D01*
X141506949Y-72752571D01*
X141412989Y-72978854D01*
X140411136Y-71977000D01*
X143000000Y-71977000D01*
X143182540Y-71940691D01*
X143278993Y-71876243D01*
X143429750Y-72027000D01*
X144277000Y-72027000D01*
X144277000Y-71279750D01*
X144523000Y-71279750D01*
X144523000Y-72027000D01*
X145370250Y-72027000D01*
X145527000Y-71870250D01*
X145527000Y-71625282D01*
X145431545Y-71394833D01*
X145255167Y-71218455D01*
X145024718Y-71123000D01*
X144679750Y-71123000D01*
X144523000Y-71279750D01*
X144277000Y-71279750D01*
X144120250Y-71123000D01*
X143775282Y-71123000D01*
X143544833Y-71218455D01*
X143477000Y-71286288D01*
X143477000Y-70447467D01*
X155349698Y-70447467D01*
X155349698Y-71293251D01*
G36*
X153123000Y-82183640D02*
X153143000Y-82183640D01*
X153143000Y-82429640D01*
X153123000Y-82429640D01*
X153123000Y-83258693D01*
X153114635Y-83300000D01*
X153114635Y-84500000D01*
X153144409Y-84658237D01*
X153237927Y-84803567D01*
X153380619Y-84901064D01*
X153550000Y-84935365D01*
X154450000Y-84935365D01*
X154608237Y-84905591D01*
X154753567Y-84812073D01*
X154811695Y-84727000D01*
X154938657Y-84727000D01*
X154987927Y-84803567D01*
X155121905Y-84895110D01*
X154944833Y-84968455D01*
X154768455Y-85144833D01*
X154750389Y-85188449D01*
X154619381Y-85098936D01*
X154450000Y-85064635D01*
X153550000Y-85064635D01*
X153391763Y-85094409D01*
X153246433Y-85187927D01*
X153148936Y-85330619D01*
X153114635Y-85500000D01*
X153114635Y-86700000D01*
X153144409Y-86858237D01*
X153223017Y-86980396D01*
X153222866Y-87153877D01*
X153340908Y-87439560D01*
X153559290Y-87658324D01*
X153844767Y-87776865D01*
X154129863Y-87777113D01*
X154229750Y-87877000D01*
X155177000Y-87877000D01*
X155177000Y-87857000D01*
X155423000Y-87857000D01*
X155423000Y-87877000D01*
X155443000Y-87877000D01*
X155443000Y-88123000D01*
X155423000Y-88123000D01*
X155423000Y-88143000D01*
X155177000Y-88143000D01*
X155177000Y-88123000D01*
X154229750Y-88123000D01*
X154204749Y-88148001D01*
X153285233Y-88148001D01*
X152540793Y-87403561D01*
X152599144Y-87318161D01*
X152633445Y-87148780D01*
X152633445Y-86351220D01*
X152603671Y-86192983D01*
X152539818Y-86093754D01*
X152679625Y-85953947D01*
X152775080Y-85723498D01*
X152775080Y-85479750D01*
X152618330Y-85323000D01*
X151872300Y-85323000D01*
X151872300Y-85343000D01*
X151626300Y-85343000D01*
X151626300Y-85323000D01*
X151606300Y-85323000D01*
X151606300Y-85077000D01*
X151626300Y-85077000D01*
X151626300Y-85057000D01*
X151872300Y-85057000D01*
X151872300Y-85077000D01*
X152618330Y-85077000D01*
X152775080Y-84920250D01*
X152775080Y-84676502D01*
X152716777Y-84535747D01*
X152753567Y-84512073D01*
X152851064Y-84369381D01*
X152885365Y-84200000D01*
X152885365Y-83300000D01*
X152877000Y-83255543D01*
X152877000Y-82429640D01*
X152857000Y-82429640D01*
X152857000Y-82183640D01*
X152877000Y-82183640D01*
X152877000Y-82163640D01*
X153123000Y-82163640D01*
X153123000Y-82183640D01*
X153123000Y-82183640D01*
G37*
X153123000Y-82183640D02*
X153143000Y-82183640D01*
X153143000Y-82429640D01*
X153123000Y-82429640D01*
X153123000Y-83258693D01*
X153114635Y-83300000D01*
X153114635Y-84500000D01*
X153144409Y-84658237D01*
X153237927Y-84803567D01*
X153380619Y-84901064D01*
X153550000Y-84935365D01*
X154450000Y-84935365D01*
X154608237Y-84905591D01*
X154753567Y-84812073D01*
X154811695Y-84727000D01*
X154938657Y-84727000D01*
X154987927Y-84803567D01*
X155121905Y-84895110D01*
X154944833Y-84968455D01*
X154768455Y-85144833D01*
X154750389Y-85188449D01*
X154619381Y-85098936D01*
X154450000Y-85064635D01*
X153550000Y-85064635D01*
X153391763Y-85094409D01*
X153246433Y-85187927D01*
X153148936Y-85330619D01*
X153114635Y-85500000D01*
X153114635Y-86700000D01*
X153144409Y-86858237D01*
X153223017Y-86980396D01*
X153222866Y-87153877D01*
X153340908Y-87439560D01*
X153559290Y-87658324D01*
X153844767Y-87776865D01*
X154129863Y-87777113D01*
X154229750Y-87877000D01*
X155177000Y-87877000D01*
X155177000Y-87857000D01*
X155423000Y-87857000D01*
X155423000Y-87877000D01*
X155443000Y-87877000D01*
X155443000Y-88123000D01*
X155423000Y-88123000D01*
X155423000Y-88143000D01*
X155177000Y-88143000D01*
X155177000Y-88123000D01*
X154229750Y-88123000D01*
X154204749Y-88148001D01*
X153285233Y-88148001D01*
X152540793Y-87403561D01*
X152599144Y-87318161D01*
X152633445Y-87148780D01*
X152633445Y-86351220D01*
X152603671Y-86192983D01*
X152539818Y-86093754D01*
X152679625Y-85953947D01*
X152775080Y-85723498D01*
X152775080Y-85479750D01*
X152618330Y-85323000D01*
X151872300Y-85323000D01*
X151872300Y-85343000D01*
X151626300Y-85343000D01*
X151626300Y-85323000D01*
X151606300Y-85323000D01*
X151606300Y-85077000D01*
X151626300Y-85077000D01*
X151626300Y-85057000D01*
X151872300Y-85057000D01*
X151872300Y-85077000D01*
X152618330Y-85077000D01*
X152775080Y-84920250D01*
X152775080Y-84676502D01*
X152716777Y-84535747D01*
X152753567Y-84512073D01*
X152851064Y-84369381D01*
X152885365Y-84200000D01*
X152885365Y-83300000D01*
X152877000Y-83255543D01*
X152877000Y-82429640D01*
X152857000Y-82429640D01*
X152857000Y-82183640D01*
X152877000Y-82183640D01*
X152877000Y-82163640D01*
X153123000Y-82163640D01*
X153123000Y-82183640D01*
G36*
X155873000Y-85977000D02*
X155893000Y-85977000D01*
X155893000Y-86223000D01*
X155873000Y-86223000D01*
X155873000Y-86243000D01*
X155627000Y-86243000D01*
X155627000Y-86223000D01*
X155607000Y-86223000D01*
X155607000Y-85977000D01*
X155627000Y-85977000D01*
X155627000Y-85957000D01*
X155873000Y-85957000D01*
X155873000Y-85977000D01*
X155873000Y-85977000D01*
G37*
X155873000Y-85977000D02*
X155893000Y-85977000D01*
X155893000Y-86223000D01*
X155873000Y-86223000D01*
X155873000Y-86243000D01*
X155627000Y-86243000D01*
X155627000Y-86223000D01*
X155607000Y-86223000D01*
X155607000Y-85977000D01*
X155627000Y-85977000D01*
X155627000Y-85957000D01*
X155873000Y-85957000D01*
X155873000Y-85977000D01*
G36*
X156273000Y-80333976D02*
X156273000Y-82879418D01*
X156200000Y-82864635D01*
X155441566Y-82864635D01*
X155441566Y-81064566D01*
X155430724Y-81010058D01*
X155393839Y-80824625D01*
X155257922Y-80621210D01*
X154961761Y-80325049D01*
X154943356Y-80297504D01*
X154687585Y-80041733D01*
X154687585Y-79692980D01*
X154657811Y-79534743D01*
X154564293Y-79389413D01*
X154421601Y-79291916D01*
X154252220Y-79257615D01*
X153652780Y-79257615D01*
X153494543Y-79287389D01*
X153478028Y-79298016D01*
X153469101Y-79291916D01*
X153299720Y-79257615D01*
X152774500Y-79257615D01*
X152774500Y-78707235D01*
X152783237Y-78705591D01*
X152905370Y-78627000D01*
X154566024Y-78627000D01*
X156273000Y-80333976D01*
X156273000Y-80333976D01*
G37*
X156273000Y-80333976D02*
X156273000Y-82879418D01*
X156200000Y-82864635D01*
X155441566Y-82864635D01*
X155441566Y-81064566D01*
X155430724Y-81010058D01*
X155393839Y-80824625D01*
X155257922Y-80621210D01*
X154961761Y-80325049D01*
X154943356Y-80297504D01*
X154687585Y-80041733D01*
X154687585Y-79692980D01*
X154657811Y-79534743D01*
X154564293Y-79389413D01*
X154421601Y-79291916D01*
X154252220Y-79257615D01*
X153652780Y-79257615D01*
X153494543Y-79287389D01*
X153478028Y-79298016D01*
X153469101Y-79291916D01*
X153299720Y-79257615D01*
X152774500Y-79257615D01*
X152774500Y-78707235D01*
X152783237Y-78705591D01*
X152905370Y-78627000D01*
X154566024Y-78627000D01*
X156273000Y-80333976D01*
G36*
X130480001Y-74176999D02*
X136079749Y-74176999D01*
X136129750Y-74227000D01*
X136977000Y-74227000D01*
X136977000Y-74207000D01*
X137223000Y-74207000D01*
X137223000Y-74227000D01*
X137243000Y-74227000D01*
X137243000Y-74473000D01*
X137223000Y-74473000D01*
X137223000Y-74493000D01*
X136977000Y-74493000D01*
X136977000Y-74473000D01*
X136129750Y-74473000D01*
X135973000Y-74629750D01*
X135973000Y-74874718D01*
X136009362Y-74962505D01*
X134635365Y-76336501D01*
X134635365Y-76050000D01*
X134605591Y-75891763D01*
X134526983Y-75769604D01*
X134527134Y-75596123D01*
X134409092Y-75310440D01*
X134190710Y-75091676D01*
X133905233Y-74973135D01*
X133596123Y-74972866D01*
X133310440Y-75090908D01*
X133091676Y-75309290D01*
X132973135Y-75594767D01*
X132973113Y-75619694D01*
X132841763Y-75644409D01*
X132696433Y-75737927D01*
X132598936Y-75880619D01*
X132564635Y-76050000D01*
X132564635Y-76950000D01*
X132594409Y-77108237D01*
X132687927Y-77253567D01*
X132830619Y-77351064D01*
X132946937Y-77374619D01*
X132841763Y-77394409D01*
X132696433Y-77487927D01*
X132598936Y-77630619D01*
X132564635Y-77800000D01*
X132564635Y-78700000D01*
X132594409Y-78858237D01*
X132686422Y-79001228D01*
X132644833Y-79018455D01*
X132468455Y-79194833D01*
X132394210Y-79374077D01*
X132327000Y-79269630D01*
X132327000Y-78977778D01*
X132401064Y-78869381D01*
X132435365Y-78700000D01*
X132435365Y-77800000D01*
X132405591Y-77641763D01*
X132327000Y-77519630D01*
X132327000Y-77227778D01*
X132401064Y-77119381D01*
X132435365Y-76950000D01*
X132435365Y-76050000D01*
X132405591Y-75891763D01*
X132312073Y-75746433D01*
X132169381Y-75648936D01*
X132000000Y-75614635D01*
X131609313Y-75614635D01*
X131400000Y-75573000D01*
X131190687Y-75614635D01*
X130800000Y-75614635D01*
X130641763Y-75644409D01*
X130496433Y-75737927D01*
X130477000Y-75766368D01*
X130477000Y-74695005D01*
X130477001Y-74695000D01*
X130428266Y-74450000D01*
X130421660Y-74416789D01*
X130290365Y-74220291D01*
X130290365Y-74139278D01*
X130480001Y-74176999D01*
X130480001Y-74176999D01*
G37*
X130480001Y-74176999D02*
X136079749Y-74176999D01*
X136129750Y-74227000D01*
X136977000Y-74227000D01*
X136977000Y-74207000D01*
X137223000Y-74207000D01*
X137223000Y-74227000D01*
X137243000Y-74227000D01*
X137243000Y-74473000D01*
X137223000Y-74473000D01*
X137223000Y-74493000D01*
X136977000Y-74493000D01*
X136977000Y-74473000D01*
X136129750Y-74473000D01*
X135973000Y-74629750D01*
X135973000Y-74874718D01*
X136009362Y-74962505D01*
X134635365Y-76336501D01*
X134635365Y-76050000D01*
X134605591Y-75891763D01*
X134526983Y-75769604D01*
X134527134Y-75596123D01*
X134409092Y-75310440D01*
X134190710Y-75091676D01*
X133905233Y-74973135D01*
X133596123Y-74972866D01*
X133310440Y-75090908D01*
X133091676Y-75309290D01*
X132973135Y-75594767D01*
X132973113Y-75619694D01*
X132841763Y-75644409D01*
X132696433Y-75737927D01*
X132598936Y-75880619D01*
X132564635Y-76050000D01*
X132564635Y-76950000D01*
X132594409Y-77108237D01*
X132687927Y-77253567D01*
X132830619Y-77351064D01*
X132946937Y-77374619D01*
X132841763Y-77394409D01*
X132696433Y-77487927D01*
X132598936Y-77630619D01*
X132564635Y-77800000D01*
X132564635Y-78700000D01*
X132594409Y-78858237D01*
X132686422Y-79001228D01*
X132644833Y-79018455D01*
X132468455Y-79194833D01*
X132394210Y-79374077D01*
X132327000Y-79269630D01*
X132327000Y-78977778D01*
X132401064Y-78869381D01*
X132435365Y-78700000D01*
X132435365Y-77800000D01*
X132405591Y-77641763D01*
X132327000Y-77519630D01*
X132327000Y-77227778D01*
X132401064Y-77119381D01*
X132435365Y-76950000D01*
X132435365Y-76050000D01*
X132405591Y-75891763D01*
X132312073Y-75746433D01*
X132169381Y-75648936D01*
X132000000Y-75614635D01*
X131609313Y-75614635D01*
X131400000Y-75573000D01*
X131190687Y-75614635D01*
X130800000Y-75614635D01*
X130641763Y-75644409D01*
X130496433Y-75737927D01*
X130477000Y-75766368D01*
X130477000Y-74695005D01*
X130477001Y-74695000D01*
X130428266Y-74450000D01*
X130421660Y-74416789D01*
X130290365Y-74220291D01*
X130290365Y-74139278D01*
X130480001Y-74176999D01*
G36*
X128942927Y-75578567D02*
X129023000Y-75633278D01*
X129023000Y-76974679D01*
X128973135Y-77094767D01*
X128972866Y-77403877D01*
X129037877Y-77561215D01*
X129018841Y-77565002D01*
X128951787Y-77578340D01*
X128769709Y-77700000D01*
X128715931Y-77735933D01*
X127770933Y-78680931D01*
X127683720Y-78811455D01*
X127681433Y-78812927D01*
X127650619Y-78858025D01*
X127642000Y-78844630D01*
X127642000Y-77565002D01*
X127594272Y-77325059D01*
X127458356Y-77121646D01*
X126046746Y-75710036D01*
X126203237Y-75680591D01*
X126348567Y-75587073D01*
X126379381Y-75541975D01*
X126402927Y-75578567D01*
X126545619Y-75676064D01*
X126715000Y-75710365D01*
X127315000Y-75710365D01*
X127473237Y-75680591D01*
X127618567Y-75587073D01*
X127649381Y-75541975D01*
X127672927Y-75578567D01*
X127815619Y-75676064D01*
X127985000Y-75710365D01*
X128585000Y-75710365D01*
X128743237Y-75680591D01*
X128888567Y-75587073D01*
X128919381Y-75541975D01*
X128942927Y-75578567D01*
X128942927Y-75578567D01*
G37*
X128942927Y-75578567D02*
X129023000Y-75633278D01*
X129023000Y-76974679D01*
X128973135Y-77094767D01*
X128972866Y-77403877D01*
X129037877Y-77561215D01*
X129018841Y-77565002D01*
X128951787Y-77578340D01*
X128769709Y-77700000D01*
X128715931Y-77735933D01*
X127770933Y-78680931D01*
X127683720Y-78811455D01*
X127681433Y-78812927D01*
X127650619Y-78858025D01*
X127642000Y-78844630D01*
X127642000Y-77565002D01*
X127594272Y-77325059D01*
X127458356Y-77121646D01*
X126046746Y-75710036D01*
X126203237Y-75680591D01*
X126348567Y-75587073D01*
X126379381Y-75541975D01*
X126402927Y-75578567D01*
X126545619Y-75676064D01*
X126715000Y-75710365D01*
X127315000Y-75710365D01*
X127473237Y-75680591D01*
X127618567Y-75587073D01*
X127649381Y-75541975D01*
X127672927Y-75578567D01*
X127815619Y-75676064D01*
X127985000Y-75710365D01*
X128585000Y-75710365D01*
X128743237Y-75680591D01*
X128888567Y-75587073D01*
X128919381Y-75541975D01*
X128942927Y-75578567D01*
G36*
X147750000Y-73677000D02*
X151051026Y-73677000D01*
X151947026Y-74573000D01*
X151750282Y-74573000D01*
X151519833Y-74668455D01*
X151375000Y-74813288D01*
X151230167Y-74668455D01*
X150999718Y-74573000D01*
X150779750Y-74573000D01*
X150623000Y-74729750D01*
X150623000Y-75677000D01*
X151345250Y-75677000D01*
X151375000Y-75647250D01*
X151404750Y-75677000D01*
X152127000Y-75677000D01*
X152127000Y-75657000D01*
X152373000Y-75657000D01*
X152373000Y-75677000D01*
X152393000Y-75677000D01*
X152393000Y-75923000D01*
X152373000Y-75923000D01*
X152373000Y-75943000D01*
X152127000Y-75943000D01*
X152127000Y-75923000D01*
X151404750Y-75923000D01*
X151375000Y-75952750D01*
X151345250Y-75923000D01*
X150623000Y-75923000D01*
X150623000Y-75943000D01*
X150377000Y-75943000D01*
X150377000Y-75923000D01*
X150357000Y-75923000D01*
X150357000Y-75677000D01*
X150377000Y-75677000D01*
X150377000Y-74729750D01*
X150220250Y-74573000D01*
X150000282Y-74573000D01*
X149769833Y-74668455D01*
X149759027Y-74679261D01*
X149759027Y-74237874D01*
X149729253Y-74079637D01*
X149635735Y-73934307D01*
X149493043Y-73836810D01*
X149323662Y-73802509D01*
X148807291Y-73802509D01*
X148723662Y-73785874D01*
X148640033Y-73802509D01*
X148123662Y-73802509D01*
X147965425Y-73832283D01*
X147928527Y-73856027D01*
X147778829Y-73706329D01*
X147669240Y-73660936D01*
X147750000Y-73677000D01*
X147750000Y-73677000D01*
G37*
X147750000Y-73677000D02*
X151051026Y-73677000D01*
X151947026Y-74573000D01*
X151750282Y-74573000D01*
X151519833Y-74668455D01*
X151375000Y-74813288D01*
X151230167Y-74668455D01*
X150999718Y-74573000D01*
X150779750Y-74573000D01*
X150623000Y-74729750D01*
X150623000Y-75677000D01*
X151345250Y-75677000D01*
X151375000Y-75647250D01*
X151404750Y-75677000D01*
X152127000Y-75677000D01*
X152127000Y-75657000D01*
X152373000Y-75657000D01*
X152373000Y-75677000D01*
X152393000Y-75677000D01*
X152393000Y-75923000D01*
X152373000Y-75923000D01*
X152373000Y-75943000D01*
X152127000Y-75943000D01*
X152127000Y-75923000D01*
X151404750Y-75923000D01*
X151375000Y-75952750D01*
X151345250Y-75923000D01*
X150623000Y-75923000D01*
X150623000Y-75943000D01*
X150377000Y-75943000D01*
X150377000Y-75923000D01*
X150357000Y-75923000D01*
X150357000Y-75677000D01*
X150377000Y-75677000D01*
X150377000Y-74729750D01*
X150220250Y-74573000D01*
X150000282Y-74573000D01*
X149769833Y-74668455D01*
X149759027Y-74679261D01*
X149759027Y-74237874D01*
X149729253Y-74079637D01*
X149635735Y-73934307D01*
X149493043Y-73836810D01*
X149323662Y-73802509D01*
X148807291Y-73802509D01*
X148723662Y-73785874D01*
X148640033Y-73802509D01*
X148123662Y-73802509D01*
X147965425Y-73832283D01*
X147928527Y-73856027D01*
X147778829Y-73706329D01*
X147669240Y-73660936D01*
X147750000Y-73677000D01*
G36*
X138023000Y-71286288D02*
X137955167Y-71218455D01*
X137724718Y-71123000D01*
X137379750Y-71123000D01*
X137223000Y-71279750D01*
X137223000Y-72027000D01*
X137243000Y-72027000D01*
X137243000Y-72273000D01*
X137223000Y-72273000D01*
X137223000Y-72293000D01*
X136977000Y-72293000D01*
X136977000Y-72273000D01*
X136957000Y-72273000D01*
X136957000Y-72027000D01*
X136977000Y-72027000D01*
X136977000Y-71279750D01*
X136820250Y-71123000D01*
X136475282Y-71123000D01*
X136244833Y-71218455D01*
X136137127Y-71326161D01*
X135905478Y-71094512D01*
X135798469Y-71023011D01*
X135604738Y-70893564D01*
X135249990Y-70823000D01*
X128925000Y-70823000D01*
X128570253Y-70893563D01*
X128269512Y-71094512D01*
X128001550Y-71362474D01*
X127845252Y-71393564D01*
X127776302Y-71439635D01*
X127600000Y-71439635D01*
X127441763Y-71469409D01*
X127404865Y-71493153D01*
X127255167Y-71343455D01*
X127024718Y-71248000D01*
X126579750Y-71248000D01*
X126423000Y-71404750D01*
X126423000Y-72127000D01*
X126443000Y-72127000D01*
X126443000Y-72373000D01*
X126423000Y-72373000D01*
X126423000Y-72393000D01*
X126177000Y-72393000D01*
X126177000Y-72373000D01*
X125229750Y-72373000D01*
X125073000Y-72529750D01*
X125073000Y-72749718D01*
X125168455Y-72980167D01*
X125344833Y-73156545D01*
X125352248Y-73159616D01*
X125235933Y-73275931D01*
X125146630Y-73409583D01*
X125141433Y-73412927D01*
X125043936Y-73555619D01*
X125009635Y-73725000D01*
X125009635Y-74672925D01*
X123143354Y-72806644D01*
X123108323Y-72783237D01*
X122939941Y-72670728D01*
X122699998Y-72623000D01*
X122257233Y-72623000D01*
X121940877Y-72306644D01*
X121856103Y-72250000D01*
X121737464Y-72170728D01*
X121497521Y-72123000D01*
X114500000Y-72123000D01*
X114260059Y-72170727D01*
X114260058Y-72170728D01*
X114260057Y-72170728D01*
X114243054Y-72182089D01*
X114056644Y-72306644D01*
X113404790Y-72958498D01*
X113500252Y-72838474D01*
X113500254Y-72838472D01*
X113559719Y-72722999D01*
X113585464Y-72673006D01*
X113585464Y-72673002D01*
X113754822Y-72082275D01*
X113754824Y-72082271D01*
X113763909Y-71972866D01*
X113770227Y-71896793D01*
X113770225Y-71896788D01*
X113753526Y-71750282D01*
X125073000Y-71750282D01*
X125073000Y-71970250D01*
X125229750Y-72127000D01*
X126177000Y-72127000D01*
X126177000Y-71404750D01*
X126020250Y-71248000D01*
X125575282Y-71248000D01*
X125344833Y-71343455D01*
X125168455Y-71519833D01*
X125073000Y-71750282D01*
X113753526Y-71750282D01*
X113703698Y-71313137D01*
X113703698Y-70447467D01*
X138023000Y-70447467D01*
X138023000Y-71286288D01*
X138023000Y-71286288D01*
G37*
X138023000Y-71286288D02*
X137955167Y-71218455D01*
X137724718Y-71123000D01*
X137379750Y-71123000D01*
X137223000Y-71279750D01*
X137223000Y-72027000D01*
X137243000Y-72027000D01*
X137243000Y-72273000D01*
X137223000Y-72273000D01*
X137223000Y-72293000D01*
X136977000Y-72293000D01*
X136977000Y-72273000D01*
X136957000Y-72273000D01*
X136957000Y-72027000D01*
X136977000Y-72027000D01*
X136977000Y-71279750D01*
X136820250Y-71123000D01*
X136475282Y-71123000D01*
X136244833Y-71218455D01*
X136137127Y-71326161D01*
X135905478Y-71094512D01*
X135798469Y-71023011D01*
X135604738Y-70893564D01*
X135249990Y-70823000D01*
X128925000Y-70823000D01*
X128570253Y-70893563D01*
X128269512Y-71094512D01*
X128001550Y-71362474D01*
X127845252Y-71393564D01*
X127776302Y-71439635D01*
X127600000Y-71439635D01*
X127441763Y-71469409D01*
X127404865Y-71493153D01*
X127255167Y-71343455D01*
X127024718Y-71248000D01*
X126579750Y-71248000D01*
X126423000Y-71404750D01*
X126423000Y-72127000D01*
X126443000Y-72127000D01*
X126443000Y-72373000D01*
X126423000Y-72373000D01*
X126423000Y-72393000D01*
X126177000Y-72393000D01*
X126177000Y-72373000D01*
X125229750Y-72373000D01*
X125073000Y-72529750D01*
X125073000Y-72749718D01*
X125168455Y-72980167D01*
X125344833Y-73156545D01*
X125352248Y-73159616D01*
X125235933Y-73275931D01*
X125146630Y-73409583D01*
X125141433Y-73412927D01*
X125043936Y-73555619D01*
X125009635Y-73725000D01*
X125009635Y-74672925D01*
X123143354Y-72806644D01*
X123108323Y-72783237D01*
X122939941Y-72670728D01*
X122699998Y-72623000D01*
X122257233Y-72623000D01*
X121940877Y-72306644D01*
X121856103Y-72250000D01*
X121737464Y-72170728D01*
X121497521Y-72123000D01*
X114500000Y-72123000D01*
X114260059Y-72170727D01*
X114260058Y-72170728D01*
X114260057Y-72170728D01*
X114243054Y-72182089D01*
X114056644Y-72306644D01*
X113404790Y-72958498D01*
X113500252Y-72838474D01*
X113500254Y-72838472D01*
X113559719Y-72722999D01*
X113585464Y-72673006D01*
X113585464Y-72673002D01*
X113754822Y-72082275D01*
X113754824Y-72082271D01*
X113763909Y-71972866D01*
X113770227Y-71896793D01*
X113770225Y-71896788D01*
X113753526Y-71750282D01*
X125073000Y-71750282D01*
X125073000Y-71970250D01*
X125229750Y-72127000D01*
X126177000Y-72127000D01*
X126177000Y-71404750D01*
X126020250Y-71248000D01*
X125575282Y-71248000D01*
X125344833Y-71343455D01*
X125168455Y-71519833D01*
X125073000Y-71750282D01*
X113753526Y-71750282D01*
X113703698Y-71313137D01*
X113703698Y-70447467D01*
X138023000Y-70447467D01*
X138023000Y-71286288D01*
M02*
