M48
;DRILL file {KiCad (2015-07-08 BZR 5908)-product} date Thu 09 Jul 2015 02:10:21 PM EEST
;FORMAT={-:-/ absolute / metric / decimal}
FMAT,2
METRIC,TZ
T1C0.400
T2C1.000
T3C1.016
T4C2.100
%
G90
G05
M71
T1
X111.525Y-80.75
X111.55Y-82.
X111.75Y-82.75
X111.75Y-85.5
X112.Y-95.75
X112.75Y-82.75
X114.75Y-89.25
X115.25Y-75.5
X115.5Y-96.75
X116.25Y-74.75
X116.466Y-76.484
X117.Y-75.5
X117.25Y-94.5
X117.25Y-95.5
X117.25Y-96.5
X117.5Y-90.25
X118.25Y-90.
X119.Y-90.25
X119.3Y-70.8
X120.3Y-70.8
X120.691Y-83.441
X121.Y-89.
X121.Y-90.
X121.Y-91.
X121.Y-92.
X121.Y-93.
X121.Y-94.
X121.904Y-79.882
X122.Y-89.
X122.Y-90.
X122.Y-91.
X122.Y-92.
X122.Y-93.
X122.Y-94.
X123.Y-89.
X123.Y-90.
X123.Y-91.
X123.Y-92.
X123.Y-93.
X123.Y-94.
X123.3Y-79.7
X123.5Y-80.75
X124.Y-90.
X124.Y-93.
X124.Y-94.
X125.Y-90.
X125.Y-93.
X125.Y-94.
X125.1Y-78.1
X126.Y-90.
X126.Y-93.
X126.Y-94.
X126.5Y-80.
X127.Y-90.
X127.Y-93.
X127.Y-94.
X128.Y-90.
X128.Y-91.
X128.Y-92.
X128.Y-93.
X128.Y-94.
X128.75Y-80.75
X129.Y-89.
X129.Y-90.
X129.Y-91.
X129.Y-92.
X129.Y-93.
X129.Y-94.
X130.Y-89.
X130.Y-90.
X130.Y-91.
X130.Y-92.
X130.Y-93.
X130.Y-94.
X130.25Y-75.5
X130.4Y-78.9
X130.5Y-77.
X131.Y-80.5
X135.5Y-75.5
X135.5Y-77.2
X143.5Y-96.
X143.5Y-97.
X143.5Y-98.
X143.5Y-99.
X145.5Y-73.5
X146.75Y-74.5
X146.9Y-73.
X148.3Y-71.1
X149.25Y-80.5
X149.25Y-81.5
X149.6Y-73.
X150.Y-80.
X151.Y-80.
X152.Y-80.
X153.Y-80.
X154.Y-80.5
X154.Y-81.5
T2
X134.58Y-82.68
X134.58Y-85.18
X134.58Y-87.68
T3
X122.46Y-71.96
X122.46Y-74.5
X125.Y-71.96
X125.Y-74.5
X127.54Y-71.96
X127.54Y-74.5
T4
X142.08Y-79.58
X142.08Y-90.78
T0
M30
