G04 #@! TF.FileFunction,Soldermask,Top*
%FSLAX46Y46*%
G04 Gerber Fmt 4.6, Leading zero omitted, Abs format (unit mm)*
G04 Created by KiCad (PCBNEW (2015-07-08 BZR 5908)-product) date Thu 09 Jul 2015 02:10:17 PM EEST*
%MOMM*%
G01*
G04 APERTURE LIST*
%ADD10C,0.100000*%
%ADD11R,1.200000X0.750000*%
%ADD12R,0.650000X1.860000*%
%ADD13R,0.797560X0.797560*%
%ADD14R,1.200000X0.900000*%
%ADD15C,2.000000*%
%ADD16C,4.000000*%
%ADD17R,4.000000X1.524000*%
%ADD18O,4.000000X1.524000*%
%ADD19R,1.300480X1.800860*%
%ADD20R,3.799840X1.800860*%
%ADD21R,2.000000X1.700000*%
%ADD22R,1.727200X1.727200*%
%ADD23O,1.727200X1.727200*%
%ADD24R,1.998980X0.599440*%
%ADD25R,0.800100X1.800860*%
G04 APERTURE END LIST*
D10*
D11*
X113300000Y-74750000D03*
X115200000Y-74750000D03*
D12*
X117950000Y-92500000D03*
X117000000Y-92500000D03*
X116050000Y-92500000D03*
X116050000Y-95500000D03*
X117950000Y-95500000D03*
D13*
X139499300Y-78250000D03*
X138000700Y-78250000D03*
D14*
X114100000Y-88000000D03*
X111900000Y-88000000D03*
D15*
X134580000Y-85180000D03*
X134580000Y-87680000D03*
X134580000Y-82680000D03*
D16*
X142080000Y-79580000D03*
X142080000Y-90780000D03*
D14*
X111900000Y-84500000D03*
X114100000Y-84500000D03*
D17*
X151500000Y-86230000D03*
D18*
X151500000Y-88770000D03*
D17*
X151500000Y-83770000D03*
D18*
X151500000Y-81230000D03*
D11*
X119200000Y-76500000D03*
X117300000Y-76500000D03*
X149550000Y-77500000D03*
X151450000Y-77500000D03*
X143550000Y-74500000D03*
X145450000Y-74500000D03*
X132300000Y-77250000D03*
X134200000Y-77250000D03*
X113950000Y-86250000D03*
X112050000Y-86250000D03*
X112050000Y-89750000D03*
X113950000Y-89750000D03*
D19*
X123198760Y-97499740D03*
X125500000Y-97499740D03*
X127801240Y-97499740D03*
D20*
X125500000Y-91500260D03*
D14*
X113150000Y-76500000D03*
X115350000Y-76500000D03*
X132150000Y-89750000D03*
X134350000Y-89750000D03*
X118900000Y-97500000D03*
X121100000Y-97500000D03*
D21*
X138000000Y-96500000D03*
X142000000Y-96500000D03*
X138000000Y-99000000D03*
X142000000Y-99000000D03*
D22*
X127540000Y-71960000D03*
D23*
X127540000Y-74500000D03*
X125000000Y-71960000D03*
X125000000Y-74500000D03*
X122460000Y-71960000D03*
X122460000Y-74500000D03*
D14*
X132150000Y-80750000D03*
X134350000Y-80750000D03*
D11*
X132300000Y-75500000D03*
X134200000Y-75500000D03*
D14*
X132150000Y-79000000D03*
X134350000Y-79000000D03*
X132150000Y-91500000D03*
X134350000Y-91500000D03*
D11*
X116300000Y-90750000D03*
X118200000Y-90750000D03*
D14*
X114100000Y-93250000D03*
X111900000Y-93250000D03*
X111900000Y-91500000D03*
X114100000Y-91500000D03*
X114100000Y-95000000D03*
X111900000Y-95000000D03*
X142100000Y-76000000D03*
X139900000Y-76000000D03*
D24*
X112931001Y-78300000D03*
X112931001Y-79570000D03*
X112931001Y-80840000D03*
X112931001Y-82110000D03*
X118519001Y-82110000D03*
X118519001Y-80840000D03*
X118519001Y-79570000D03*
X118519001Y-78300000D03*
D25*
X147300000Y-76000000D03*
X149200000Y-76000000D03*
X148250000Y-72997720D03*
M02*
