G04 #@! TF.FileFunction,Copper,L2,Bot,Signal*
%FSLAX46Y46*%
G04 Gerber Fmt 4.6, Leading zero omitted, Abs format (unit mm)*
G04 Created by KiCad (PCBNEW (2015-09-30 BZR 6232)-product) date Tue 06 Oct 2015 09:20:13 AM EEST*
%MOMM*%
G01*
G04 APERTURE LIST*
%ADD10C,0.100000*%
%ADD11O,2.000000X1.500000*%
%ADD12C,3.500000*%
%ADD13C,1.500000*%
%ADD14C,0.700000*%
%ADD15C,1.000000*%
%ADD16C,0.400000*%
%ADD17C,0.600000*%
%ADD18C,0.254000*%
G04 APERTURE END LIST*
D10*
D11*
X135100000Y-82700000D03*
X135100000Y-85200000D03*
X135100000Y-87700000D03*
D12*
X142100000Y-80400000D03*
X142100000Y-90000000D03*
D13*
X123750000Y-98650000D03*
X123750000Y-93650000D03*
D14*
X135750000Y-72250010D03*
X147750000Y-72750000D03*
X154950000Y-77700000D03*
X153000000Y-83250008D03*
X125250000Y-72250000D03*
X126250000Y-71500000D03*
X146769477Y-74019477D03*
X145753704Y-74763719D03*
X145500000Y-72000000D03*
X124750000Y-90000000D03*
X128250000Y-76250000D03*
X136241549Y-74500382D03*
X145750000Y-96000000D03*
X145750000Y-95000000D03*
X145750000Y-94000000D03*
X145750000Y-93000000D03*
X145750000Y-92000000D03*
X145750000Y-91000000D03*
X145750000Y-90000000D03*
X146750000Y-90000000D03*
X146750000Y-96000000D03*
X148000000Y-95500000D03*
X146750000Y-95000000D03*
X146750000Y-94000000D03*
X149000000Y-91000000D03*
X148000000Y-90500000D03*
X146750000Y-91000000D03*
X146750000Y-92000000D03*
X146750000Y-93000000D03*
X117250000Y-95500000D03*
X116500000Y-95500000D03*
X115750000Y-95500000D03*
X115000000Y-95500000D03*
X114250000Y-95500000D03*
X113500000Y-95500000D03*
X112750000Y-95500000D03*
X112000000Y-95500000D03*
X111250000Y-95500000D03*
X110500000Y-95500000D03*
X110500000Y-94750000D03*
X111250000Y-94750000D03*
X112000000Y-94750000D03*
X112750000Y-94750000D03*
X113500000Y-94750000D03*
X114250000Y-94750000D03*
X115000000Y-94750000D03*
X115750000Y-94750000D03*
X116500000Y-94750000D03*
X117250000Y-94750000D03*
X144500000Y-75250000D03*
X132250000Y-88500000D03*
X117250000Y-94000000D03*
X116500000Y-94000000D03*
X115750000Y-94000000D03*
X115000000Y-94000000D03*
X114250000Y-94000000D03*
X113500000Y-94000000D03*
X112750000Y-94000000D03*
X112000000Y-94000000D03*
X110500000Y-94000000D03*
X111250000Y-94000000D03*
X111250000Y-93250000D03*
X110500000Y-93250000D03*
X111227302Y-92477302D03*
X110500000Y-92500000D03*
X117250000Y-91750000D03*
X116500000Y-91750000D03*
X115750000Y-91750000D03*
X115000000Y-91750000D03*
X114250000Y-91750000D03*
X113500000Y-91750000D03*
X112750000Y-91750000D03*
X112000000Y-91750000D03*
X111250000Y-91750000D03*
X110500000Y-91750000D03*
X132500000Y-75000000D03*
X151500000Y-75750000D03*
X146750000Y-75250000D03*
X145750000Y-78000000D03*
X144500000Y-77250000D03*
X145750000Y-76500000D03*
X156250000Y-92250000D03*
X157000000Y-93500000D03*
X156250000Y-94750000D03*
X155500000Y-93500000D03*
X154500000Y-92500000D03*
X154000000Y-93500000D03*
X153250000Y-93500000D03*
X153000000Y-92500000D03*
X151750000Y-86000000D03*
X155000000Y-87250000D03*
X155750000Y-87250000D03*
X133750000Y-81000000D03*
X130000000Y-81000000D03*
X129250000Y-81000000D03*
X153635174Y-89575137D03*
X154000000Y-87000000D03*
X122750000Y-76250000D03*
X123500000Y-77000000D03*
X122750000Y-77000000D03*
X122750000Y-77750000D03*
X123500000Y-77750000D03*
X123500000Y-78500000D03*
X122750000Y-78500000D03*
X122750000Y-79250000D03*
X123500000Y-79250000D03*
X123500000Y-80000000D03*
X122750000Y-80000000D03*
X122750000Y-80750000D03*
X123500000Y-80750000D03*
X122750000Y-81500000D03*
X122000000Y-82250000D03*
X119000000Y-82250000D03*
X118250000Y-82250000D03*
X117500000Y-82250000D03*
X116750000Y-82250000D03*
X116000000Y-82250000D03*
X115250000Y-82250000D03*
X115250000Y-83000000D03*
X116000000Y-83000000D03*
X116750000Y-83000000D03*
X117500000Y-83000000D03*
X118250000Y-83000000D03*
X119000000Y-83000000D03*
X119000000Y-83750000D03*
X118250000Y-83750000D03*
X117500000Y-83750000D03*
X116750000Y-83750000D03*
X116000000Y-83750000D03*
X115250000Y-83750000D03*
X119750000Y-82250000D03*
X119750000Y-83000000D03*
X119750000Y-83750000D03*
X120500000Y-83750000D03*
X120500000Y-83000000D03*
X120500000Y-82250000D03*
X121250000Y-82250000D03*
X121250000Y-83000000D03*
X121250000Y-83750000D03*
X120500000Y-89750000D03*
X119750000Y-89750000D03*
X119000000Y-89750000D03*
X121250000Y-89000000D03*
X120500000Y-89000000D03*
X119750000Y-89000000D03*
X119000000Y-89000000D03*
X119000000Y-88250000D03*
X119750000Y-88250000D03*
X120500000Y-88250000D03*
X121250000Y-88250000D03*
X121250000Y-87500000D03*
X120500000Y-87500000D03*
X119750000Y-87500000D03*
X119000000Y-87500000D03*
X119000000Y-86750000D03*
X119750000Y-86750000D03*
X120500000Y-86750000D03*
X121250000Y-86750000D03*
X121250000Y-86000000D03*
X120500000Y-86000000D03*
X119750000Y-86000000D03*
X119000000Y-86000000D03*
X119000000Y-85250000D03*
X119750000Y-85250000D03*
X120500000Y-85250000D03*
X121250000Y-85250000D03*
X121250000Y-84500000D03*
X120500000Y-84500000D03*
X119750000Y-84500000D03*
X119000000Y-84500000D03*
X118250000Y-84500000D03*
X117500000Y-84500000D03*
X116750000Y-84500000D03*
X115999079Y-84500000D03*
X115250000Y-84500000D03*
X132250000Y-81249990D03*
X129750000Y-77250000D03*
X133750000Y-75750000D03*
X136499982Y-76750000D03*
D15*
X147750000Y-72750000D02*
X146554002Y-72750000D01*
X136099999Y-72600009D02*
X135750000Y-72250010D01*
X137899991Y-74400001D02*
X136099999Y-72600009D01*
X143902001Y-73300001D02*
X142802001Y-74400001D01*
X146004001Y-73300001D02*
X143902001Y-73300001D01*
X146554002Y-72750000D02*
X146004001Y-73300001D01*
X142802001Y-74400001D02*
X137899991Y-74400001D01*
D16*
X146239985Y-75250000D02*
X146103703Y-75113718D01*
X146750000Y-75250000D02*
X146239985Y-75250000D01*
X146103703Y-75113718D02*
X145753704Y-74763719D01*
D17*
X132500000Y-75000000D02*
X129500000Y-75000000D01*
X129500000Y-75000000D02*
X128250000Y-76250000D01*
D16*
X132500000Y-78000000D02*
X132500000Y-75424264D01*
X134500000Y-80000000D02*
X132500000Y-78000000D01*
X132500000Y-75424264D02*
X132500000Y-75000000D01*
D15*
X145750000Y-94000000D02*
X145750000Y-95000000D01*
X145750000Y-92000000D02*
X145750000Y-93000000D01*
X145750000Y-90000000D02*
X145750000Y-91000000D01*
X146750000Y-91000000D02*
X146750000Y-90000000D01*
D16*
X116500000Y-95500000D02*
X117250000Y-95500000D01*
X115000000Y-95500000D02*
X115750000Y-95500000D01*
X113500000Y-95500000D02*
X114250000Y-95500000D01*
X112000000Y-95500000D02*
X112750000Y-95500000D01*
X110500000Y-95500000D02*
X111250000Y-95500000D01*
X111250000Y-94750000D02*
X110500000Y-94750000D01*
X112750000Y-94750000D02*
X112000000Y-94750000D01*
X114250000Y-94750000D02*
X113500000Y-94750000D01*
X115750000Y-94750000D02*
X115000000Y-94750000D01*
X117250000Y-94750000D02*
X116500000Y-94750000D01*
D17*
X135100000Y-87700000D02*
X135100000Y-87350000D01*
X135100000Y-87700000D02*
X135150000Y-87750000D01*
X135100000Y-87700000D02*
X134750000Y-88050000D01*
D16*
X115750000Y-94000000D02*
X116500000Y-94000000D01*
X114250000Y-94000000D02*
X115000000Y-94000000D01*
X112750000Y-94000000D02*
X113500000Y-94000000D01*
X111250000Y-94000000D02*
X112000000Y-94000000D01*
X111250000Y-93250000D02*
X111250000Y-94000000D01*
X110500000Y-92500000D02*
X110500000Y-93250000D01*
X110500000Y-92500000D02*
X111204604Y-92500000D01*
X111204604Y-92500000D02*
X111227302Y-92477302D01*
X116500000Y-91750000D02*
X117250000Y-91750000D01*
X115000000Y-91750000D02*
X115750000Y-91750000D01*
X113500000Y-91750000D02*
X114250000Y-91750000D01*
X112000000Y-91750000D02*
X112750000Y-91750000D01*
X110500000Y-91750000D02*
X111250000Y-91750000D01*
X145750000Y-76500000D02*
X145250000Y-76500000D01*
X145250000Y-76500000D02*
X144500000Y-77250000D01*
X157000000Y-93500000D02*
X157000000Y-93000000D01*
X157000000Y-93000000D02*
X156250000Y-92250000D01*
X155500000Y-93500000D02*
X155500000Y-94000000D01*
X155500000Y-94000000D02*
X156250000Y-94750000D01*
X154000000Y-93500000D02*
X154000000Y-93000000D01*
X154000000Y-93000000D02*
X154500000Y-92500000D01*
X153000000Y-92500000D02*
X153000000Y-93250000D01*
X153000000Y-93250000D02*
X153250000Y-93500000D01*
X155750000Y-87250000D02*
X155000000Y-87250000D01*
D17*
X133750000Y-81000000D02*
X133750000Y-80750000D01*
X133750000Y-80750000D02*
X134500000Y-80000000D01*
X129250000Y-81000000D02*
X130000000Y-81000000D01*
X154000000Y-87000000D02*
X154000000Y-89210311D01*
X154000000Y-89210311D02*
X153635174Y-89575137D01*
D16*
X122750000Y-77000000D02*
X123500000Y-77000000D01*
X123500000Y-77750000D02*
X122750000Y-77750000D01*
X122750000Y-78500000D02*
X123500000Y-78500000D01*
X123500000Y-79250000D02*
X122750000Y-79250000D01*
X122750000Y-80000000D02*
X123500000Y-80000000D01*
X123500000Y-80750000D02*
X122750000Y-80750000D01*
X122000000Y-82250000D02*
X122750000Y-81500000D01*
X118250000Y-82250000D02*
X119000000Y-82250000D01*
X116750000Y-82250000D02*
X117500000Y-82250000D01*
X115250000Y-82250000D02*
X116000000Y-82250000D01*
X116000000Y-83000000D02*
X115250000Y-83000000D01*
X117500000Y-83000000D02*
X116750000Y-83000000D01*
X119000000Y-83000000D02*
X118250000Y-83000000D01*
X118250000Y-83750000D02*
X119000000Y-83750000D01*
X116750000Y-83750000D02*
X117500000Y-83750000D01*
X115250000Y-83750000D02*
X116000000Y-83750000D01*
X115250000Y-83750000D02*
X115250000Y-84500000D01*
X119750000Y-83750000D02*
X119750000Y-83000000D01*
X120500000Y-83000000D02*
X120500000Y-83750000D01*
X121250000Y-82250000D02*
X120500000Y-82250000D01*
X121250000Y-83750000D02*
X121250000Y-83000000D01*
X119000000Y-89750000D02*
X119750000Y-89750000D01*
X120500000Y-89000000D02*
X121250000Y-89000000D01*
X119000000Y-89000000D02*
X119750000Y-89000000D01*
X119750000Y-88250000D02*
X119000000Y-88250000D01*
X121250000Y-88250000D02*
X120500000Y-88250000D01*
X120500000Y-87500000D02*
X121250000Y-87500000D01*
X119000000Y-87500000D02*
X119750000Y-87500000D01*
X119750000Y-86750000D02*
X119000000Y-86750000D01*
X121250000Y-86750000D02*
X120500000Y-86750000D01*
X120500000Y-86000000D02*
X121250000Y-86000000D01*
X119000000Y-86000000D02*
X119750000Y-86000000D01*
X119750000Y-85250000D02*
X119000000Y-85250000D01*
X121250000Y-85250000D02*
X120500000Y-85250000D01*
X120500000Y-84500000D02*
X121250000Y-84500000D01*
X119000000Y-84500000D02*
X119750000Y-84500000D01*
X117500000Y-84500000D02*
X118250000Y-84500000D01*
X115999079Y-84500000D02*
X116750000Y-84500000D01*
X115250000Y-84500000D02*
X115999079Y-84500000D01*
D17*
X131950001Y-80950001D02*
X132250000Y-81250000D01*
X129750000Y-78750000D02*
X131950001Y-80950001D01*
X129750000Y-77250000D02*
X129750000Y-78750000D01*
X136499982Y-76750000D02*
X134750000Y-76750000D01*
X134750000Y-76750000D02*
X133750000Y-75750000D01*
D18*
G36*
X123873000Y-80951150D02*
X122454915Y-81898684D01*
X121451907Y-83399791D01*
X121099698Y-85170467D01*
X121451907Y-86941143D01*
X122454915Y-88442250D01*
X123873000Y-89389784D01*
X123873000Y-90623000D01*
X110353698Y-90623000D01*
X110353698Y-73797467D01*
X111199481Y-73797467D01*
X111503293Y-73857899D01*
X111576961Y-73857899D01*
X111650372Y-73863995D01*
X112260948Y-73794399D01*
X112260953Y-73794399D01*
X112395220Y-73751412D01*
X112438207Y-73737650D01*
X112438209Y-73737648D01*
X112975675Y-73439692D01*
X112975677Y-73439691D01*
X113052690Y-73374488D01*
X113117721Y-73319431D01*
X113117722Y-73319428D01*
X113500252Y-72838474D01*
X113500254Y-72838472D01*
X113558386Y-72725588D01*
X113585464Y-72673006D01*
X113585464Y-72673002D01*
X113754822Y-72082275D01*
X113754824Y-72082271D01*
X113767686Y-71927383D01*
X113770227Y-71896793D01*
X113770225Y-71896788D01*
X113703698Y-71313137D01*
X113703698Y-70447467D01*
X123873000Y-70447467D01*
X123873000Y-80951150D01*
X123873000Y-80951150D01*
G37*
X123873000Y-80951150D02*
X122454915Y-81898684D01*
X121451907Y-83399791D01*
X121099698Y-85170467D01*
X121451907Y-86941143D01*
X122454915Y-88442250D01*
X123873000Y-89389784D01*
X123873000Y-90623000D01*
X110353698Y-90623000D01*
X110353698Y-73797467D01*
X111199481Y-73797467D01*
X111503293Y-73857899D01*
X111576961Y-73857899D01*
X111650372Y-73863995D01*
X112260948Y-73794399D01*
X112260953Y-73794399D01*
X112395220Y-73751412D01*
X112438207Y-73737650D01*
X112438209Y-73737648D01*
X112975675Y-73439692D01*
X112975677Y-73439691D01*
X113052690Y-73374488D01*
X113117721Y-73319431D01*
X113117722Y-73319428D01*
X113500252Y-72838474D01*
X113500254Y-72838472D01*
X113558386Y-72725588D01*
X113585464Y-72673006D01*
X113585464Y-72673002D01*
X113754822Y-72082275D01*
X113754824Y-72082271D01*
X113767686Y-71927383D01*
X113770227Y-71896793D01*
X113770225Y-71896788D01*
X113703698Y-71313137D01*
X113703698Y-70447467D01*
X123873000Y-70447467D01*
X123873000Y-80951150D01*
G36*
X138023000Y-71500000D02*
X138059309Y-71682540D01*
X138162710Y-71837290D01*
X138317460Y-71940691D01*
X138500000Y-71977000D01*
X143000000Y-71977000D01*
X143182540Y-71940691D01*
X143337290Y-71837290D01*
X143440691Y-71682540D01*
X143477000Y-71500000D01*
X143477000Y-70447467D01*
X155349698Y-70447467D01*
X155349698Y-71293251D01*
X155289266Y-71597063D01*
X155289266Y-71670731D01*
X155283170Y-71744142D01*
X155352767Y-72354723D01*
X155352767Y-72354724D01*
X155358570Y-72372849D01*
X155409515Y-72531977D01*
X155409518Y-72531980D01*
X155707473Y-73069443D01*
X155707474Y-73069445D01*
X155827735Y-73211489D01*
X156308693Y-73594023D01*
X156308694Y-73594024D01*
X156332797Y-73606436D01*
X156474158Y-73679234D01*
X156474164Y-73679235D01*
X157064894Y-73848592D01*
X157064895Y-73848593D01*
X157080298Y-73849872D01*
X157250374Y-73863996D01*
X157250379Y-73863994D01*
X157834029Y-73797467D01*
X158699698Y-73797467D01*
X158699698Y-96543467D01*
X157853914Y-96543467D01*
X157550102Y-96483035D01*
X157476434Y-96483035D01*
X157403023Y-96476939D01*
X156792442Y-96546536D01*
X156792441Y-96546536D01*
X156768319Y-96554259D01*
X156615188Y-96603284D01*
X156615185Y-96603287D01*
X156077722Y-96901242D01*
X156077720Y-96901243D01*
X155935676Y-97021504D01*
X155553142Y-97502462D01*
X155467932Y-97667926D01*
X155467932Y-97667928D01*
X155298575Y-98258658D01*
X155298572Y-98258664D01*
X155290231Y-98359105D01*
X155283169Y-98444143D01*
X155283171Y-98444148D01*
X155349698Y-99027798D01*
X155349698Y-99893467D01*
X113703698Y-99893467D01*
X113703698Y-99047683D01*
X113736437Y-98883093D01*
X122572796Y-98883093D01*
X122751606Y-99315846D01*
X123082412Y-99647230D01*
X123514853Y-99826795D01*
X123983093Y-99827204D01*
X124415846Y-99648394D01*
X124747230Y-99317588D01*
X124926795Y-98885147D01*
X124927204Y-98416907D01*
X124748394Y-97984154D01*
X124417588Y-97652770D01*
X123985147Y-97473205D01*
X123516907Y-97472796D01*
X123084154Y-97651606D01*
X122752770Y-97982412D01*
X122573205Y-98414853D01*
X122572796Y-98883093D01*
X113736437Y-98883093D01*
X113764130Y-98743871D01*
X113764130Y-98670203D01*
X113770226Y-98596792D01*
X113700629Y-97986211D01*
X113686867Y-97943224D01*
X113675838Y-97908775D01*
X113643881Y-97808957D01*
X113643878Y-97808954D01*
X113345921Y-97271488D01*
X113225660Y-97129444D01*
X113225659Y-97129444D01*
X112744703Y-96746911D01*
X112744702Y-96746910D01*
X112659524Y-96703046D01*
X112579239Y-96661701D01*
X112579236Y-96661701D01*
X111988507Y-96492344D01*
X111988501Y-96492341D01*
X111888060Y-96484000D01*
X111803022Y-96476938D01*
X111803017Y-96476940D01*
X111219367Y-96543467D01*
X110353698Y-96543467D01*
X110353698Y-93883093D01*
X122572796Y-93883093D01*
X122751606Y-94315846D01*
X123082412Y-94647230D01*
X123514853Y-94826795D01*
X123983093Y-94827204D01*
X124415846Y-94648394D01*
X124747230Y-94317588D01*
X124926795Y-93885147D01*
X124927204Y-93416907D01*
X124748394Y-92984154D01*
X124417588Y-92652770D01*
X123985147Y-92473205D01*
X123516907Y-92472796D01*
X123084154Y-92651606D01*
X122752770Y-92982412D01*
X122573205Y-93414853D01*
X122572796Y-93883093D01*
X110353698Y-93883093D01*
X110353698Y-91377000D01*
X124500000Y-91377000D01*
X124549410Y-91366994D01*
X124591035Y-91338553D01*
X124618315Y-91296159D01*
X124627000Y-91250000D01*
X124627000Y-90431132D01*
X139922623Y-90431132D01*
X140253353Y-91231560D01*
X140865218Y-91844495D01*
X141665068Y-92176621D01*
X142531132Y-92177377D01*
X143331560Y-91846647D01*
X143944495Y-91234782D01*
X144276621Y-90434932D01*
X144277237Y-89729014D01*
X152858040Y-89729014D01*
X152976082Y-90014697D01*
X153194464Y-90233461D01*
X153479941Y-90352002D01*
X153789051Y-90352271D01*
X154074734Y-90234229D01*
X154293498Y-90015847D01*
X154343844Y-89894601D01*
X154514067Y-89724378D01*
X154557689Y-89659092D01*
X154671660Y-89488522D01*
X154685309Y-89419904D01*
X154727001Y-89210311D01*
X154727000Y-89210306D01*
X154727000Y-87275321D01*
X154776865Y-87155233D01*
X154777134Y-86846123D01*
X154659092Y-86560440D01*
X154440710Y-86341676D01*
X154155233Y-86223135D01*
X153846123Y-86222866D01*
X153560440Y-86340908D01*
X153341676Y-86559290D01*
X153223135Y-86844767D01*
X153222866Y-87153877D01*
X153273000Y-87275210D01*
X153273000Y-88884070D01*
X153195614Y-88916045D01*
X152976850Y-89134427D01*
X152858309Y-89419904D01*
X152858040Y-89729014D01*
X144277237Y-89729014D01*
X144277377Y-89568868D01*
X143946647Y-88768440D01*
X143334782Y-88155505D01*
X142534932Y-87823379D01*
X141668868Y-87822623D01*
X140868440Y-88153353D01*
X140255505Y-88765218D01*
X139923379Y-89565068D01*
X139922623Y-90431132D01*
X124627000Y-90431132D01*
X124627000Y-89578724D01*
X125726698Y-89797467D01*
X127497374Y-89445258D01*
X128998481Y-88442250D01*
X129269905Y-88036035D01*
X133514631Y-88036035D01*
X133530748Y-88113318D01*
X133789340Y-88586712D01*
X134209408Y-88925112D01*
X134727000Y-89077000D01*
X134977000Y-89077000D01*
X134977000Y-87823000D01*
X135223000Y-87823000D01*
X135223000Y-89077000D01*
X135473000Y-89077000D01*
X135990592Y-88925112D01*
X136410660Y-88586712D01*
X136669252Y-88113318D01*
X136685369Y-88036035D01*
X136564035Y-87823000D01*
X135223000Y-87823000D01*
X134977000Y-87823000D01*
X133635965Y-87823000D01*
X133514631Y-88036035D01*
X129269905Y-88036035D01*
X129718968Y-87363965D01*
X133514631Y-87363965D01*
X133635965Y-87577000D01*
X134977000Y-87577000D01*
X134977000Y-87557000D01*
X135223000Y-87557000D01*
X135223000Y-87577000D01*
X136564035Y-87577000D01*
X136685369Y-87363965D01*
X136669252Y-87286682D01*
X136410660Y-86813288D01*
X135990592Y-86474888D01*
X135544278Y-86343917D01*
X135828375Y-86287406D01*
X136210222Y-86032265D01*
X136465363Y-85650418D01*
X136554957Y-85200000D01*
X136465363Y-84749582D01*
X136210222Y-84367735D01*
X135828375Y-84112594D01*
X135377957Y-84023000D01*
X134822043Y-84023000D01*
X134371625Y-84112594D01*
X133989778Y-84367735D01*
X133734637Y-84749582D01*
X133645043Y-85200000D01*
X133734637Y-85650418D01*
X133989778Y-86032265D01*
X134371625Y-86287406D01*
X134655722Y-86343917D01*
X134209408Y-86474888D01*
X133789340Y-86813288D01*
X133530748Y-87286682D01*
X133514631Y-87363965D01*
X129718968Y-87363965D01*
X130001489Y-86941143D01*
X130353698Y-85170467D01*
X130001489Y-83399791D01*
X129533904Y-82700000D01*
X133645043Y-82700000D01*
X133734637Y-83150418D01*
X133989778Y-83532265D01*
X134371625Y-83787406D01*
X134822043Y-83877000D01*
X135377957Y-83877000D01*
X135828375Y-83787406D01*
X136210222Y-83532265D01*
X136465363Y-83150418D01*
X136554957Y-82700000D01*
X136465363Y-82249582D01*
X136210222Y-81867735D01*
X135828375Y-81612594D01*
X135377957Y-81523000D01*
X134822043Y-81523000D01*
X134371625Y-81612594D01*
X133989778Y-81867735D01*
X133734637Y-82249582D01*
X133645043Y-82700000D01*
X129533904Y-82700000D01*
X128998481Y-81898684D01*
X127497374Y-80895676D01*
X125726698Y-80543467D01*
X124627000Y-80762211D01*
X124627000Y-77403877D01*
X128972866Y-77403877D01*
X129023000Y-77525210D01*
X129023000Y-78749995D01*
X129022999Y-78750000D01*
X129035022Y-78810440D01*
X129078340Y-79028211D01*
X129208404Y-79222866D01*
X129235933Y-79264067D01*
X131435932Y-81464065D01*
X131435934Y-81464068D01*
X131541261Y-81569394D01*
X131590908Y-81689550D01*
X131809290Y-81908314D01*
X132094767Y-82026855D01*
X132403877Y-82027124D01*
X132689560Y-81909082D01*
X132908324Y-81690700D01*
X133026865Y-81405223D01*
X133027134Y-81096113D01*
X132917646Y-80831132D01*
X139922623Y-80831132D01*
X140253353Y-81631560D01*
X140865218Y-82244495D01*
X141665068Y-82576621D01*
X142531132Y-82577377D01*
X143331560Y-82246647D01*
X143944495Y-81634782D01*
X144276621Y-80834932D01*
X144277377Y-79968868D01*
X143946647Y-79168440D01*
X143334782Y-78555505D01*
X142534932Y-78223379D01*
X141668868Y-78222623D01*
X140868440Y-78553353D01*
X140255505Y-79165218D01*
X139923379Y-79965068D01*
X139922623Y-80831132D01*
X132917646Y-80831132D01*
X132909092Y-80810430D01*
X132690710Y-80591666D01*
X132569446Y-80541313D01*
X132464068Y-80435934D01*
X132464065Y-80435932D01*
X130477000Y-78448866D01*
X130477000Y-77853877D01*
X154172866Y-77853877D01*
X154290908Y-78139560D01*
X154509290Y-78358324D01*
X154794767Y-78476865D01*
X155103877Y-78477134D01*
X155389560Y-78359092D01*
X155608324Y-78140710D01*
X155726865Y-77855233D01*
X155727134Y-77546123D01*
X155609092Y-77260440D01*
X155390710Y-77041676D01*
X155105233Y-76923135D01*
X154796123Y-76922866D01*
X154510440Y-77040908D01*
X154291676Y-77259290D01*
X154173135Y-77544767D01*
X154172866Y-77853877D01*
X130477000Y-77853877D01*
X130477000Y-77525321D01*
X130526865Y-77405233D01*
X130527134Y-77096123D01*
X130409092Y-76810440D01*
X130190710Y-76591676D01*
X129905233Y-76473135D01*
X129596123Y-76472866D01*
X129310440Y-76590908D01*
X129091676Y-76809290D01*
X128973135Y-77094767D01*
X128972866Y-77403877D01*
X124627000Y-77403877D01*
X124627000Y-75903877D01*
X132972866Y-75903877D01*
X133090908Y-76189560D01*
X133309290Y-76408324D01*
X133430536Y-76458670D01*
X134235931Y-77264064D01*
X134235933Y-77264067D01*
X134305336Y-77310440D01*
X134471790Y-77421661D01*
X134750000Y-77477001D01*
X134750005Y-77477000D01*
X136224661Y-77477000D01*
X136344749Y-77526865D01*
X136653859Y-77527134D01*
X136939542Y-77409092D01*
X137158306Y-77190710D01*
X137276847Y-76905233D01*
X137277116Y-76596123D01*
X137159074Y-76310440D01*
X136940692Y-76091676D01*
X136655215Y-75973135D01*
X136346105Y-75972866D01*
X136224772Y-76023000D01*
X135051133Y-76023000D01*
X134458746Y-75430613D01*
X134409092Y-75310440D01*
X134190710Y-75091676D01*
X133905233Y-74973135D01*
X133596123Y-74972866D01*
X133310440Y-75090908D01*
X133091676Y-75309290D01*
X132973135Y-75594767D01*
X132972866Y-75903877D01*
X124627000Y-75903877D01*
X124627000Y-72250010D01*
X134823000Y-72250010D01*
X134893564Y-72604757D01*
X135094512Y-72905498D01*
X137244503Y-75055489D01*
X137545243Y-75256437D01*
X137899991Y-75327001D01*
X142802001Y-75327001D01*
X143156749Y-75256437D01*
X143457489Y-75055489D01*
X144285977Y-74227001D01*
X146004001Y-74227001D01*
X146358749Y-74156437D01*
X146659489Y-73955489D01*
X146937978Y-73677000D01*
X147750000Y-73677000D01*
X148104748Y-73606436D01*
X148405488Y-73405488D01*
X148606436Y-73104748D01*
X148677000Y-72750000D01*
X148606436Y-72395252D01*
X148405488Y-72094512D01*
X148104748Y-71893564D01*
X147750000Y-71823000D01*
X146554002Y-71823000D01*
X146199255Y-71893563D01*
X145898514Y-72094512D01*
X145620025Y-72373001D01*
X143902001Y-72373001D01*
X143547253Y-72443565D01*
X143313118Y-72600009D01*
X143246513Y-72644513D01*
X143035798Y-72855228D01*
X142993918Y-72753869D01*
X142747429Y-72506949D01*
X142425211Y-72373153D01*
X142076319Y-72372849D01*
X141753869Y-72506082D01*
X141506949Y-72752571D01*
X141373153Y-73074789D01*
X141372849Y-73423681D01*
X141393228Y-73473001D01*
X140107003Y-73473001D01*
X140126847Y-73425211D01*
X140127151Y-73076319D01*
X139993918Y-72753869D01*
X139747429Y-72506949D01*
X139425211Y-72373153D01*
X139076319Y-72372849D01*
X138753869Y-72506082D01*
X138506949Y-72752571D01*
X138373153Y-73074789D01*
X138372849Y-73423681D01*
X138393228Y-73473001D01*
X138283967Y-73473001D01*
X136405488Y-71594522D01*
X136104747Y-71393574D01*
X135750000Y-71323010D01*
X135395253Y-71393574D01*
X135094512Y-71594522D01*
X134893564Y-71895263D01*
X134823000Y-72250010D01*
X124627000Y-72250010D01*
X124627000Y-70447467D01*
X138023000Y-70447467D01*
X138023000Y-71500000D01*
X138023000Y-71500000D01*
G37*
X138023000Y-71500000D02*
X138059309Y-71682540D01*
X138162710Y-71837290D01*
X138317460Y-71940691D01*
X138500000Y-71977000D01*
X143000000Y-71977000D01*
X143182540Y-71940691D01*
X143337290Y-71837290D01*
X143440691Y-71682540D01*
X143477000Y-71500000D01*
X143477000Y-70447467D01*
X155349698Y-70447467D01*
X155349698Y-71293251D01*
X155289266Y-71597063D01*
X155289266Y-71670731D01*
X155283170Y-71744142D01*
X155352767Y-72354723D01*
X155352767Y-72354724D01*
X155358570Y-72372849D01*
X155409515Y-72531977D01*
X155409518Y-72531980D01*
X155707473Y-73069443D01*
X155707474Y-73069445D01*
X155827735Y-73211489D01*
X156308693Y-73594023D01*
X156308694Y-73594024D01*
X156332797Y-73606436D01*
X156474158Y-73679234D01*
X156474164Y-73679235D01*
X157064894Y-73848592D01*
X157064895Y-73848593D01*
X157080298Y-73849872D01*
X157250374Y-73863996D01*
X157250379Y-73863994D01*
X157834029Y-73797467D01*
X158699698Y-73797467D01*
X158699698Y-96543467D01*
X157853914Y-96543467D01*
X157550102Y-96483035D01*
X157476434Y-96483035D01*
X157403023Y-96476939D01*
X156792442Y-96546536D01*
X156792441Y-96546536D01*
X156768319Y-96554259D01*
X156615188Y-96603284D01*
X156615185Y-96603287D01*
X156077722Y-96901242D01*
X156077720Y-96901243D01*
X155935676Y-97021504D01*
X155553142Y-97502462D01*
X155467932Y-97667926D01*
X155467932Y-97667928D01*
X155298575Y-98258658D01*
X155298572Y-98258664D01*
X155290231Y-98359105D01*
X155283169Y-98444143D01*
X155283171Y-98444148D01*
X155349698Y-99027798D01*
X155349698Y-99893467D01*
X113703698Y-99893467D01*
X113703698Y-99047683D01*
X113736437Y-98883093D01*
X122572796Y-98883093D01*
X122751606Y-99315846D01*
X123082412Y-99647230D01*
X123514853Y-99826795D01*
X123983093Y-99827204D01*
X124415846Y-99648394D01*
X124747230Y-99317588D01*
X124926795Y-98885147D01*
X124927204Y-98416907D01*
X124748394Y-97984154D01*
X124417588Y-97652770D01*
X123985147Y-97473205D01*
X123516907Y-97472796D01*
X123084154Y-97651606D01*
X122752770Y-97982412D01*
X122573205Y-98414853D01*
X122572796Y-98883093D01*
X113736437Y-98883093D01*
X113764130Y-98743871D01*
X113764130Y-98670203D01*
X113770226Y-98596792D01*
X113700629Y-97986211D01*
X113686867Y-97943224D01*
X113675838Y-97908775D01*
X113643881Y-97808957D01*
X113643878Y-97808954D01*
X113345921Y-97271488D01*
X113225660Y-97129444D01*
X113225659Y-97129444D01*
X112744703Y-96746911D01*
X112744702Y-96746910D01*
X112659524Y-96703046D01*
X112579239Y-96661701D01*
X112579236Y-96661701D01*
X111988507Y-96492344D01*
X111988501Y-96492341D01*
X111888060Y-96484000D01*
X111803022Y-96476938D01*
X111803017Y-96476940D01*
X111219367Y-96543467D01*
X110353698Y-96543467D01*
X110353698Y-93883093D01*
X122572796Y-93883093D01*
X122751606Y-94315846D01*
X123082412Y-94647230D01*
X123514853Y-94826795D01*
X123983093Y-94827204D01*
X124415846Y-94648394D01*
X124747230Y-94317588D01*
X124926795Y-93885147D01*
X124927204Y-93416907D01*
X124748394Y-92984154D01*
X124417588Y-92652770D01*
X123985147Y-92473205D01*
X123516907Y-92472796D01*
X123084154Y-92651606D01*
X122752770Y-92982412D01*
X122573205Y-93414853D01*
X122572796Y-93883093D01*
X110353698Y-93883093D01*
X110353698Y-91377000D01*
X124500000Y-91377000D01*
X124549410Y-91366994D01*
X124591035Y-91338553D01*
X124618315Y-91296159D01*
X124627000Y-91250000D01*
X124627000Y-90431132D01*
X139922623Y-90431132D01*
X140253353Y-91231560D01*
X140865218Y-91844495D01*
X141665068Y-92176621D01*
X142531132Y-92177377D01*
X143331560Y-91846647D01*
X143944495Y-91234782D01*
X144276621Y-90434932D01*
X144277237Y-89729014D01*
X152858040Y-89729014D01*
X152976082Y-90014697D01*
X153194464Y-90233461D01*
X153479941Y-90352002D01*
X153789051Y-90352271D01*
X154074734Y-90234229D01*
X154293498Y-90015847D01*
X154343844Y-89894601D01*
X154514067Y-89724378D01*
X154557689Y-89659092D01*
X154671660Y-89488522D01*
X154685309Y-89419904D01*
X154727001Y-89210311D01*
X154727000Y-89210306D01*
X154727000Y-87275321D01*
X154776865Y-87155233D01*
X154777134Y-86846123D01*
X154659092Y-86560440D01*
X154440710Y-86341676D01*
X154155233Y-86223135D01*
X153846123Y-86222866D01*
X153560440Y-86340908D01*
X153341676Y-86559290D01*
X153223135Y-86844767D01*
X153222866Y-87153877D01*
X153273000Y-87275210D01*
X153273000Y-88884070D01*
X153195614Y-88916045D01*
X152976850Y-89134427D01*
X152858309Y-89419904D01*
X152858040Y-89729014D01*
X144277237Y-89729014D01*
X144277377Y-89568868D01*
X143946647Y-88768440D01*
X143334782Y-88155505D01*
X142534932Y-87823379D01*
X141668868Y-87822623D01*
X140868440Y-88153353D01*
X140255505Y-88765218D01*
X139923379Y-89565068D01*
X139922623Y-90431132D01*
X124627000Y-90431132D01*
X124627000Y-89578724D01*
X125726698Y-89797467D01*
X127497374Y-89445258D01*
X128998481Y-88442250D01*
X129269905Y-88036035D01*
X133514631Y-88036035D01*
X133530748Y-88113318D01*
X133789340Y-88586712D01*
X134209408Y-88925112D01*
X134727000Y-89077000D01*
X134977000Y-89077000D01*
X134977000Y-87823000D01*
X135223000Y-87823000D01*
X135223000Y-89077000D01*
X135473000Y-89077000D01*
X135990592Y-88925112D01*
X136410660Y-88586712D01*
X136669252Y-88113318D01*
X136685369Y-88036035D01*
X136564035Y-87823000D01*
X135223000Y-87823000D01*
X134977000Y-87823000D01*
X133635965Y-87823000D01*
X133514631Y-88036035D01*
X129269905Y-88036035D01*
X129718968Y-87363965D01*
X133514631Y-87363965D01*
X133635965Y-87577000D01*
X134977000Y-87577000D01*
X134977000Y-87557000D01*
X135223000Y-87557000D01*
X135223000Y-87577000D01*
X136564035Y-87577000D01*
X136685369Y-87363965D01*
X136669252Y-87286682D01*
X136410660Y-86813288D01*
X135990592Y-86474888D01*
X135544278Y-86343917D01*
X135828375Y-86287406D01*
X136210222Y-86032265D01*
X136465363Y-85650418D01*
X136554957Y-85200000D01*
X136465363Y-84749582D01*
X136210222Y-84367735D01*
X135828375Y-84112594D01*
X135377957Y-84023000D01*
X134822043Y-84023000D01*
X134371625Y-84112594D01*
X133989778Y-84367735D01*
X133734637Y-84749582D01*
X133645043Y-85200000D01*
X133734637Y-85650418D01*
X133989778Y-86032265D01*
X134371625Y-86287406D01*
X134655722Y-86343917D01*
X134209408Y-86474888D01*
X133789340Y-86813288D01*
X133530748Y-87286682D01*
X133514631Y-87363965D01*
X129718968Y-87363965D01*
X130001489Y-86941143D01*
X130353698Y-85170467D01*
X130001489Y-83399791D01*
X129533904Y-82700000D01*
X133645043Y-82700000D01*
X133734637Y-83150418D01*
X133989778Y-83532265D01*
X134371625Y-83787406D01*
X134822043Y-83877000D01*
X135377957Y-83877000D01*
X135828375Y-83787406D01*
X136210222Y-83532265D01*
X136465363Y-83150418D01*
X136554957Y-82700000D01*
X136465363Y-82249582D01*
X136210222Y-81867735D01*
X135828375Y-81612594D01*
X135377957Y-81523000D01*
X134822043Y-81523000D01*
X134371625Y-81612594D01*
X133989778Y-81867735D01*
X133734637Y-82249582D01*
X133645043Y-82700000D01*
X129533904Y-82700000D01*
X128998481Y-81898684D01*
X127497374Y-80895676D01*
X125726698Y-80543467D01*
X124627000Y-80762211D01*
X124627000Y-77403877D01*
X128972866Y-77403877D01*
X129023000Y-77525210D01*
X129023000Y-78749995D01*
X129022999Y-78750000D01*
X129035022Y-78810440D01*
X129078340Y-79028211D01*
X129208404Y-79222866D01*
X129235933Y-79264067D01*
X131435932Y-81464065D01*
X131435934Y-81464068D01*
X131541261Y-81569394D01*
X131590908Y-81689550D01*
X131809290Y-81908314D01*
X132094767Y-82026855D01*
X132403877Y-82027124D01*
X132689560Y-81909082D01*
X132908324Y-81690700D01*
X133026865Y-81405223D01*
X133027134Y-81096113D01*
X132917646Y-80831132D01*
X139922623Y-80831132D01*
X140253353Y-81631560D01*
X140865218Y-82244495D01*
X141665068Y-82576621D01*
X142531132Y-82577377D01*
X143331560Y-82246647D01*
X143944495Y-81634782D01*
X144276621Y-80834932D01*
X144277377Y-79968868D01*
X143946647Y-79168440D01*
X143334782Y-78555505D01*
X142534932Y-78223379D01*
X141668868Y-78222623D01*
X140868440Y-78553353D01*
X140255505Y-79165218D01*
X139923379Y-79965068D01*
X139922623Y-80831132D01*
X132917646Y-80831132D01*
X132909092Y-80810430D01*
X132690710Y-80591666D01*
X132569446Y-80541313D01*
X132464068Y-80435934D01*
X132464065Y-80435932D01*
X130477000Y-78448866D01*
X130477000Y-77853877D01*
X154172866Y-77853877D01*
X154290908Y-78139560D01*
X154509290Y-78358324D01*
X154794767Y-78476865D01*
X155103877Y-78477134D01*
X155389560Y-78359092D01*
X155608324Y-78140710D01*
X155726865Y-77855233D01*
X155727134Y-77546123D01*
X155609092Y-77260440D01*
X155390710Y-77041676D01*
X155105233Y-76923135D01*
X154796123Y-76922866D01*
X154510440Y-77040908D01*
X154291676Y-77259290D01*
X154173135Y-77544767D01*
X154172866Y-77853877D01*
X130477000Y-77853877D01*
X130477000Y-77525321D01*
X130526865Y-77405233D01*
X130527134Y-77096123D01*
X130409092Y-76810440D01*
X130190710Y-76591676D01*
X129905233Y-76473135D01*
X129596123Y-76472866D01*
X129310440Y-76590908D01*
X129091676Y-76809290D01*
X128973135Y-77094767D01*
X128972866Y-77403877D01*
X124627000Y-77403877D01*
X124627000Y-75903877D01*
X132972866Y-75903877D01*
X133090908Y-76189560D01*
X133309290Y-76408324D01*
X133430536Y-76458670D01*
X134235931Y-77264064D01*
X134235933Y-77264067D01*
X134305336Y-77310440D01*
X134471790Y-77421661D01*
X134750000Y-77477001D01*
X134750005Y-77477000D01*
X136224661Y-77477000D01*
X136344749Y-77526865D01*
X136653859Y-77527134D01*
X136939542Y-77409092D01*
X137158306Y-77190710D01*
X137276847Y-76905233D01*
X137277116Y-76596123D01*
X137159074Y-76310440D01*
X136940692Y-76091676D01*
X136655215Y-75973135D01*
X136346105Y-75972866D01*
X136224772Y-76023000D01*
X135051133Y-76023000D01*
X134458746Y-75430613D01*
X134409092Y-75310440D01*
X134190710Y-75091676D01*
X133905233Y-74973135D01*
X133596123Y-74972866D01*
X133310440Y-75090908D01*
X133091676Y-75309290D01*
X132973135Y-75594767D01*
X132972866Y-75903877D01*
X124627000Y-75903877D01*
X124627000Y-72250010D01*
X134823000Y-72250010D01*
X134893564Y-72604757D01*
X135094512Y-72905498D01*
X137244503Y-75055489D01*
X137545243Y-75256437D01*
X137899991Y-75327001D01*
X142802001Y-75327001D01*
X143156749Y-75256437D01*
X143457489Y-75055489D01*
X144285977Y-74227001D01*
X146004001Y-74227001D01*
X146358749Y-74156437D01*
X146659489Y-73955489D01*
X146937978Y-73677000D01*
X147750000Y-73677000D01*
X148104748Y-73606436D01*
X148405488Y-73405488D01*
X148606436Y-73104748D01*
X148677000Y-72750000D01*
X148606436Y-72395252D01*
X148405488Y-72094512D01*
X148104748Y-71893564D01*
X147750000Y-71823000D01*
X146554002Y-71823000D01*
X146199255Y-71893563D01*
X145898514Y-72094512D01*
X145620025Y-72373001D01*
X143902001Y-72373001D01*
X143547253Y-72443565D01*
X143313118Y-72600009D01*
X143246513Y-72644513D01*
X143035798Y-72855228D01*
X142993918Y-72753869D01*
X142747429Y-72506949D01*
X142425211Y-72373153D01*
X142076319Y-72372849D01*
X141753869Y-72506082D01*
X141506949Y-72752571D01*
X141373153Y-73074789D01*
X141372849Y-73423681D01*
X141393228Y-73473001D01*
X140107003Y-73473001D01*
X140126847Y-73425211D01*
X140127151Y-73076319D01*
X139993918Y-72753869D01*
X139747429Y-72506949D01*
X139425211Y-72373153D01*
X139076319Y-72372849D01*
X138753869Y-72506082D01*
X138506949Y-72752571D01*
X138373153Y-73074789D01*
X138372849Y-73423681D01*
X138393228Y-73473001D01*
X138283967Y-73473001D01*
X136405488Y-71594522D01*
X136104747Y-71393574D01*
X135750000Y-71323010D01*
X135395253Y-71393574D01*
X135094512Y-71594522D01*
X134893564Y-71895263D01*
X134823000Y-72250010D01*
X124627000Y-72250010D01*
X124627000Y-70447467D01*
X138023000Y-70447467D01*
X138023000Y-71500000D01*
M02*
