M48
;DRILL file {KiCad (2015-09-30 BZR 6232)-product} date Tue 06 Oct 2015 09:20:16 AM EEST
;FORMAT={-:-/ absolute / metric / decimal}
FMAT,2
METRIC,TZ
T1C0.400
T2C1.000
T3C2.200
%
G90
G05
M71
T1
X110.5Y-91.75
X110.5Y-92.5
X110.5Y-93.25
X110.5Y-94.
X110.5Y-94.75
X110.5Y-95.5
X111.227Y-92.477
X111.25Y-91.75
X111.25Y-93.25
X111.25Y-94.
X111.25Y-94.75
X111.25Y-95.5
X112.Y-91.75
X112.Y-94.
X112.Y-94.75
X112.Y-95.5
X112.75Y-91.75
X112.75Y-94.
X112.75Y-94.75
X112.75Y-95.5
X113.5Y-91.75
X113.5Y-94.
X113.5Y-94.75
X113.5Y-95.5
X114.25Y-91.75
X114.25Y-94.
X114.25Y-94.75
X114.25Y-95.5
X115.Y-91.75
X115.Y-94.
X115.Y-94.75
X115.Y-95.5
X115.25Y-82.25
X115.25Y-83.
X115.25Y-83.75
X115.25Y-84.5
X115.75Y-91.75
X115.75Y-94.
X115.75Y-94.75
X115.75Y-95.5
X115.999Y-84.5
X116.Y-82.25
X116.Y-83.
X116.Y-83.75
X116.5Y-91.75
X116.5Y-94.
X116.5Y-94.75
X116.5Y-95.5
X116.75Y-82.25
X116.75Y-83.
X116.75Y-83.75
X116.75Y-84.5
X117.25Y-91.75
X117.25Y-94.
X117.25Y-94.75
X117.25Y-95.5
X117.5Y-82.25
X117.5Y-83.
X117.5Y-83.75
X117.5Y-84.5
X118.25Y-82.25
X118.25Y-83.
X118.25Y-83.75
X118.25Y-84.5
X119.Y-82.25
X119.Y-83.
X119.Y-83.75
X119.Y-84.5
X119.Y-85.25
X119.Y-86.
X119.Y-86.75
X119.Y-87.5
X119.Y-88.25
X119.Y-89.
X119.Y-89.75
X119.75Y-82.25
X119.75Y-83.
X119.75Y-83.75
X119.75Y-84.5
X119.75Y-85.25
X119.75Y-86.
X119.75Y-86.75
X119.75Y-87.5
X119.75Y-88.25
X119.75Y-89.
X119.75Y-89.75
X120.5Y-82.25
X120.5Y-83.
X120.5Y-83.75
X120.5Y-84.5
X120.5Y-85.25
X120.5Y-86.
X120.5Y-86.75
X120.5Y-87.5
X120.5Y-88.25
X120.5Y-89.
X120.5Y-89.75
X121.25Y-82.25
X121.25Y-83.
X121.25Y-83.75
X121.25Y-84.5
X121.25Y-85.25
X121.25Y-86.
X121.25Y-86.75
X121.25Y-87.5
X121.25Y-88.25
X121.25Y-89.
X122.Y-82.25
X122.75Y-76.25
X122.75Y-77.
X122.75Y-77.75
X122.75Y-78.5
X122.75Y-79.25
X122.75Y-80.
X122.75Y-80.75
X122.75Y-81.5
X123.5Y-77.
X123.5Y-77.75
X123.5Y-78.5
X123.5Y-79.25
X123.5Y-80.
X123.5Y-80.75
X124.75Y-90.
X125.25Y-72.25
X126.25Y-71.5
X128.25Y-76.25
X129.25Y-81.
X129.75Y-77.25
X130.Y-81.
X132.25Y-81.25
X132.25Y-88.5
X132.5Y-75.
X133.75Y-75.75
X133.75Y-81.
X135.75Y-72.25
X136.242Y-74.5
X136.5Y-76.75
X144.5Y-75.25
X144.5Y-77.25
X145.5Y-72.
X145.75Y-76.5
X145.75Y-78.
X145.75Y-90.
X145.75Y-91.
X145.75Y-92.
X145.75Y-93.
X145.75Y-94.
X145.75Y-95.
X145.75Y-96.
X145.754Y-74.764
X146.75Y-75.25
X146.75Y-90.
X146.75Y-91.
X146.75Y-92.
X146.75Y-93.
X146.75Y-94.
X146.75Y-95.
X146.75Y-96.
X146.769Y-74.019
X147.75Y-72.75
X148.Y-90.5
X148.Y-95.5
X149.Y-91.
X151.5Y-75.75
X151.75Y-86.
X153.Y-83.25
X153.Y-92.5
X153.25Y-93.5
X153.635Y-89.575
X154.Y-87.
X154.Y-93.5
X154.5Y-92.5
X154.95Y-77.7
X155.Y-87.25
X155.5Y-93.5
X155.75Y-87.25
X156.25Y-92.25
X156.25Y-94.75
X157.Y-93.5
T2
X135.1Y-82.7
X135.1Y-85.2
X135.1Y-87.7
T3
X142.1Y-80.4
X142.1Y-90.
T0
M30
